<mxfile host="app.diagrams.net" modified="2023-10-04T15:04:26.286Z" agent="Mozilla/5.0 (Windows NT 10.0; Win64; x64) AppleWebKit/537.36 (KHTML, like Gecko) Chrome/117.0.0.0 Safari/537.36" etag="gJ7KRZaypSJf_sAacfUZ" version="22.0.0" type="device">
  <diagram id="wFE0QG_FPsp0jaGvCLVb" name="Page-1">
    <mxGraphModel dx="677" dy="377" grid="1" gridSize="10" guides="1" tooltips="1" connect="1" arrows="1" fold="1" page="1" pageScale="1" pageWidth="850" pageHeight="1100" math="0" shadow="0">
      <root>
        <mxCell id="0" />
        <mxCell id="1" parent="0" />
        <mxCell id="pzHOMatoj0cM-oJeU_sS-2" value="" style="shape=image;imageAspect=0;aspect=fixed;verticalLabelPosition=bottom;verticalAlign=top;fontSize=16;image=data:image/png;base64,/9j/4AAQSkZJRgABAQAASABIAAD/4QBYRXhpZgAATU0AKgAAAAgAAgESAAMAAAABAAEAAIdpAAQAAAABAAAAJgAAAAAAA6ABAAMAAAABAAEAAKACAAQAAAABAAAEAKADAAQAAAABAAACigAAAAD/wAARCAKKBAADASIAAhEBAxEB/8QAHwAAAQUBAQEBAQEAAAAAAAAAAAECAwQFBgcICQoL/8QAtRAAAgEDAwIEAwUFBAQAAAF9AQIDAAQRBRIhMUEGE1FhByJxFDKBkaEII0KxwRVS0fAkM2JyggkKFhcYGRolJicoKSo0NTY3ODk6Q0RFRkdISUpTVFVWV1hZWmNkZWZnaGlqc3R1dnd4eXqDhIWGh4iJipKTlJWWl5iZmqKjpKWmp6ipqrKztLW2t7i5usLDxMXGx8jJytLT1NXW19jZ2uHi4+Tl5ufo6erx8vP09fb3+Pn6/8QAHwEAAwEBAQEBAQEBAQAAAAAAAAECAwQFBgcICQoL/8QAtREAAgECBAQDBAcFBAQAAQJ3AAECAxEEBSExBhJBUQdhcRMiMoEIFEKRobHBCSMzUvAVYnLRChYkNOEl8RcYGRomJygpKjU2Nzg5OkNERUZHSElKU1RVVldYWVpjZGVmZ2hpanN0dXZ3eHl6goOEhYaHiImKkpOUlZaXmJmaoqOkpaanqKmqsrO0tba3uLm6wsPExcbHyMnK0tPU1dbX2Nna4uPk5ebn6Onq8vP09fb3+Pn6/9sAQwACAgICAgIDAgIDBQMDAwUGBQUFBQYIBgYGBgYICggICAgICAoKCgoKCgoKDAwMDAwMDg4ODg4PDw8PDw8PDw8P/9sAQwECAwMEBAQHBAQHEAsJCxAQEBAQEBAQEBAQEBAQEBAQEBAQEBAQEBAQEBAQEBAQEBAQEBAQEBAQEBAQEBAQEBAQ/90ABABA/9oADAMBAAIRAxEAPwD6Lk8bW8X8ZIxk81T/AOE0ilJKycE9Ca+NovGFxKh8xz0PeqT+ML1SfIZjjpgmvyz+zKvU/XP7Yon2tJ4wiVTlwCOSCaqr40hkwEYADg818aReL9RmI85mBPBBOOKuyeJ7lU3Kx4HY1f8AZlTsR/a9Fn2pF4thwfnGPXNRSeN4I+hGfrXxIPGWpDC5ODxkk1aXxXcNGdzkEHHWmssqCeb0T7MTxhFLuw4ziut0DxCjyjnJJHFfn5N4r1EfLCSMdwTzX0B8MdZvrhY2uQc5HPNdNLL5xkmefic1pyjZH3No98ZWByDnsO1dzbS5QKOc15P4clyqHPLda9SsR93vkV9JSg1Z9T4ypUTbZrrjAFLTAp3cin1uzjYNyRiiikyKQhaYxyaCc0lBSClH3xSUv8Q+lNFrY3rT7tbkIJFYdmO3sK3rfPeu5dDm6stAYApc4pxGQKNvrWzIY3Iop20UmDSEJRS4NBGKAEooxmnjgUAKOlFFFABRkUh5FNwaAButOHSgcCloAKZg0+igCOinnkU3BpoBM4op231pD1q9AEpR1pKUdalgPopDyKdjIGO1SAmM08dKBwKWgAI4NL2WndqaODQA5ulMp55HFNwaAEpj9KfjFIeQaTAoTdCe1cTrPMJH+etdtMDswRzXIaun7s8UR6lo+KvjYhe1lHbg/oa+RXhKjGD1NfZ3xmhX7FJgcgnPHrmvkhoVYZHUE8V83X0m2z6jBpNXMAqwHHSqM3zAo3UV0MsTf3cY9KotCGBII468Vz3Xc9W1jmHDsTs4BFNjiftz7V0/9nsMbgMd6sRacM9MZ6Ec0NohI52O1bcpyAR19a6K0jGwKRWgthggEYPrirqWLDBI6dKxk9CyKOBRjb0qz5MeM4/Grcaqo+cAHp1pW2bTyOtYtpCauYskSIxC9SKqyRoxwBk+orRcKSSeuKikVBhkYe9HP5m8YJoxZYQAareUoX37VsSdDyB9RVcKoxuINSp2Zr7FNXMpoC4LOOT6+1QLb4zwa328sjAGfpUYWNeo613KqrHNKl0MvyDtHOcUxY/n5BNdCqQkY454pBbRKwyRyKaq6nI4OxkiJuOMj+VUprVixCjA68dM11fkxqh2jJpXgi8scckZNZSqam1OFjgJ4cjnOR1rFng+f5OPrXol1bJsbgc965i4hjU7cjPvWcpq256kafMkj1r4FZXWHXORkZr9MfDHMKYOelfnD8DrRm1p3RSMHjiv0l8NRlIUL9AADxXv4R3R8bmCSqWTPR7f7o/CtJelZtvjbxWkvSvUaaZ4AtKM54pKkXgH3qgCijrS7TQAlFLtNGDQAlFLg0YNADT0pFGCKdRjNACnrSUYxTx0oAbg0h6VJTMGgCPBowafRWmgDMGkqXPGKjwaNAEoXgGlwaMGpYCYzTgMUo4FLUgFFFFABRRR1oAKRhk04jFJQBHRTm602gAoooqWBXk6Vjzd/wAa15flHPFZE5GCT0ofwlo5O86/jSL90U69U56d6RVOBXny3N09AopcGkqTobVtxVODT85qPGacBigxHUwipCc0jcgYoAjqjdDgnHFXuo4qvOpKbcdqDWB5xrlsGDlTk9eK+YfiD4WN4khAzvPPfFfX97a7920ckYNcBq+iLOpXaCCcnipZZ+el38NW+Z1QgkntXLXnw+vbdtwiJXqff3r9BH8KoScxjB9qy7rwXDKpDRjB6cU1UsgP/9Dl5Ph5tfajYq3a/DsKfn5J7iveU0p2OSv6VcGkDH3OntXA4K2hrzt6HisXgC3IC7Oe5xUn/Ct4c5GQB14r3CDSzkEKc9K0P7OwMYNY8o/e7ngR8AW0TH5dwPGCKib4e2suMKAB1r3Z9Oycbc4709dOAGdv6VLTQXkup4Snw/tYhwpJHY17N4F8Mw2YXAxgjirb2AJHA+grs/DlptYEA5JHHaoY+Zvc9Z0C0UbccACvRrNdm0de9choyBQtdvajhfpipGXQc0tKwwM0nWgAPFR9804HPBoCg/hQUlYbRT9o/wA//rpp60DuJSjlgKSl/jHsKadmO6N6y5/LFdBDzk+prnrM8D3roYPu/jXandnO1qXR0pQCaQc4qTGK2b1Ja1G7T/n/APXSbafTtooJIRzTsd+tPCUoX1oAjxntimnipSMVGetACUUUUAFFFFABRRRQAUUU7aKAG0U4LS7R/n/9dADMZpwX1p6qMUEYoAbgUbRS0UAIBjrTuoBHek9vWlUUAKVx70mDTz83NA4pXAOlIeRS0nNMdgAxS0nNLSuFhrdabTyAaQqKGDRRmXIP0rmdVi3LjHGK62QHaePasi7h3jaRx60ls0OO58k/FjQ3vLGdUUkkZyPYGvjObQruKRlIIwT1r9R9b0CC/jaOUAg+3tXkF/8ACmxnkZ/LGCfTH9K8avhnJ+Z61DF+z06HwU2lXRY/KSCKjGhXBcfKcE8ivu0fCTTiwLRgHGMYzUo+FWmBwuwDB9K41g3Y6ZZhrofDseiXCj5kJJ4we9W10G7IG1CM9MDivuRPhfp+MeUDjocVZHw1shj90OPb/wCtWzwUu5P19nwt/Y92GAdG4HB96sDS70gfITj2r7mPw0smb/VKcD/Papk+GliOsIGPTH+FT9Qkyvr7PhB9HvXxmJgR7VG+hahjaIzg89Olffa/Dux5UQjj/ZzTl+HFjg5gU57kYNZywD6jWYPqfnvJoF6OkbfWoj4f1EgcNg+1foaPhrp+CPIU59v/AK1PHw5sBj9wvHt/9aksA+hX9pNbH50t4Z1LPMbn6CmDwxqRO3ymJ9xX6Nn4eWZOfJUe2P8A61KPh7YLndAuT0IFX/Z8i/7Tktj85T4U1PO3ymB+hqT/AIRa/KjELkjg8V+i4+H9n95YVI9xVgfD+w2/6lQT1wBWqwFluQ8zZ+cH/CK6k3zJC2D7H/Cp4PCmqc7oGz24r9GB8P8ATwAqxAD6D/CpR4Eshj9yuB7D/ChYJ9zL6+z88U8KaiRjyGP0FWx4S1IqB9nY/UV+gx8EWXG2JePb/wCtT18FWg/5Yqfw/wDrVX1G+7H9fbPz0bwVqLqd0B4OOlVk+G+p3EwDW5JJJAA6Cv0W/wCEMtOf3C8+3/1qsQeDrRHD+UAR0IFNYBJ3B5nOK0Pnr4V/Dv8AsYfaXi2ucE5FfWWk2oiTGMDA4osdEjgxgDA7YrooYNp4WvUp0YwXuni1KjqNye5bt1wMEdcVdC/pTYl4BxyKmwetdN29WYiqBipAo4pAowKfSuA3b/n/ACaVRjrz/n604cmnbR/n/wDXRcBjAHGOP8/Wm7T/AJ//AF08jGMU3mi4DcGjaak/AUZ9qLgMwBTaeeRSbT/n/wDXRcBtFO2/5/yaXaP8/wD66LgMpdpp20f5/wD103dRcBDyKaFPrTqAcUwGlT60bT/n/wDXTmJ60UAN2n/P/wCukwafSc+lADB9KKc3A4FR8+lADqKVRnrx/n60pWgBtKMg9KeEHHNPwKVwIuT7Um01NgUm2i4EBU5pNp/z/wDrqVlOabg0XAiopWUjpTRnvQ1cCvcHOKxrn7tbEwyKxblsKfak1oWjnb0Zb8aaqnAqC9ulDjjIzTRdLgYIA968+W5qWipxTNp/z/8ArqE3S+/6VGbtR2qQLajHU07HvVEXqemKDdrxgZxQNF/b156UmPeqX2wenWmfbB6frQWXNpyCOBTXUnOKqG9Uev6Un2st0HHvQaQeg2SEEHisyexWTgDitYSZ696dkL071nPsU2kc2+lA/wAINVZtJGBx+ldfwRUPlrk55rJFH//R+nBbBeeOPap0gUjnFPaC6z9w4+lReTdKeA1ctjPmLCwoo4IAFN3RYPrVRkvegVj+FQvFdfxIQfpU8r7i5i2yLjIAqFmRcc4qoY7gr0P49agaK54+QketJwKjLuXwYmI6fXFdRopijcNuHFcE0d2D9wj8K1tJluo2+YZArCcH0NbnvGnXWApBBJrsbS54wccV5PpdzIVXcBXYQ3TqBggVg1Y1R2rXi7Pm601rzgYx0rkJb91XHp3FZkmrOj4OSPrU3Gd+L0DntS/b4689/tZ/T/P50x9WkA7jn/Pei5Vz0YX6HocUhvU9a89XWHA780v9sSHoSKLknoX2sHkDIo+1jf2rz8as+P8AP+NSwX7yTrnp3pN6oD1+xlVlVh0rpbfOA3Y1xejt5iKc8YHFdrb9AO2K7KbuSzQTpUign6UKuakUYFdMtyRmynKCfrT6MYouTYZh/WjDU+imFhm3g7qZszU1MPWgki2+1N2mptue9FK4EO31pcCpSncnNJhe9FwI8CjAqTC9qABnH0ouAgVcdKXaKWii4AVNJtx1pw60+i4EQU9qUqakoouBFsNGBTypz1P507AoTuNK5Ftz0pcYqTGKKY7EdGD2qTAopNBYj2tS4f1p9FMoZh/Wkwx6mpKKSQEe1v8AP/66Nrf5/wD11JRQ0JkRQkYqs8JYbSMg1epCMihIEYstovJ24J4qg1gCTuHHvXTGMH7xoEKn+KhpMZy39npnpj8KUaaM7sDNdI0ag4yacIl9jSsiGc0LBQeAPyqUWC+mfqK6Hy19acIxnn/P6UWEc/8AYAx+6AaX7CFPI6+ldB5Q9BS+WB2B/Ciw7mD9gHVQOaT+zwedv610GBTwo44FFguc5/Z/+yPzNH9njuuB/n3ro8D0owPSqSS3KRzn2Adlz9cig2C91BromFM2r3pNK+gzEXT4yBwfwqQWC9lrYwO3SilYhmR9iH90Un2Ff7grYwKMCiwIxTp6HquPpSiwUfdXI962aMZosWY/2Ef3aX7EP7orXwKMCmlYDNW2Pp0qxHCQOlWqKZNiIR4zjvS7W/z/APrqSigLEe1v8/8A66ftFLRuHTFTYLCYxS0Zx15pGcemKkLC0UzeKQuOPrTSCw/AowKXePSjePSnYTVhMYpaKM47ZosIawJxigKaVnHpim7wKLABVqaFBNO3ik3L/n/9VFgEKHOKNhp28UbxVANK46jNG30pd49KXeKAG7DS7Wpd4oL8Gk3YBuw0bDTfNNHmmhMaQ7YaUKaZ5pp6SZNFx2HbTS4FIZBn/P8AhSbxSsFh2BS4xTN4o3iiwWH4zTCpzx0o3ijeKNgsNZDxTWTAPFBkNRmQk9eKaYWKVwMD8a5y+bCnjNdLOwI6Cuavn4OR1py+Eo8w1e7aGYJnAzWWNVbHB4q1r43yg+5FcqxZWwOleVKS5mapaG//AGm57nmm/wBoP9PfOaxdslKscoOc0uZDsbQ1B/Un9KY+ovxyR9DWW0chHFNWGXPWmmNI0jqUo/iNNOoyepqkYmzR5T0x2uakd68nc1s203yjceK5+3t5F+grbgjYgAgYoNYqyNqNs4OeKsqTxVWMjAGOlWlHGfSspA1dkmTSMyge9Gc80yToKgpH/9L9PD4RtcH90OaiPg2zPHlDPvXsH2OP0AqM2aH/APVXOZ8jPG38E2v/ADyA+lNHgqzIOYwT717KbND2/So/sC+35UByM8XbwTa5P7oVEfBFr/cAr2z7GBxx+VNaxRv4QT9KAUWjxR/BFn/zyxVZPBlqpJ2AHrXuTWEZOQtV3sB2A/Kk2Wk1uePJ4eij5CdOmKrvayRBs5GOmfSvXJtPUgggflXPXmnoARtB71yVIrc3hroeaSBgCW71jTg7+lejTafGwOF/CqbaQjY6VyMtnnnly+lKyyDGc9PSu/8A7H9v0ph0gEdvyqNQSucGqyc0796v413S6SBnp+VPGjqw5x19KNRtWOFTf1Jx9a0NPV3uFB7Zrq/7HTOcA/hViHTBCdydfpQl3JOu0g7URV5wOa7a3bgfSuG08GPAHHFdPbzbVGT1rspOyuSzpY3xUxkHrWKLle5/WnfaU9f1/wDrV0c19STY3j1pN49ayPtA9aQ3K92/Wi6A2PNXsMUeYB3rG+1oO9NN4uPlbmq50BtGUetMMoz1rEa7Hc5pRchhnI/Gk5pisbPmj1qXzRWF9pXuRTjd+4pXQWNoycVH5oHesf7Z70z7UMnJ4ougsbJfNJ5h6VkG7HY8UgvBjrRdBY2PNb3o3msf7Z70fbB60XQWNkSEU7zT3NYv2wetH2tfWi6CxteZmkMxHGayBcg9D+uKQ3QzyeaLoLGx559aXzfesX7UvrS/al9RRzpbDs+hsrPzyeKk85fX/P51hm4A7igXAPQ0+cdpdjdEg9aTzR61iC5x0Io+0A9xRziNvzl9f8/nR5y+v+fzrC+0j1o+1L60c47S7G75y+v+fzo85fX/AD+dYH2xfXFL9sT+8P8AP4Uc4WfVG+JB60nmj1rn/ti9jn6Gnfagec0c5LRu+coBwaZ559T+NY32oetN+1p6ijnBKxt+c9HnEd6w/toH8WaUXgPfOKOcZt+cT3pfMzzWJ9rHrij7YPWjnFY2/MP+f/1UeYRzWJ9sHrTTfKD1o5wsbwmJ+8ad5o9a577cvrR9uX1o5wsdD5o9aPNHrXP/AG5PWj7auQAetHOFjofPpPtFYH2xfX/P50fbF9f8/nQpjs+hv+eD7UeaPWsD7Yvr/n86T7co6mhzHaR0Hmj1o89R2rnvty+tJ/aCetHOS0bonzxmgzn1rnvtkf8AepPtqDofyo5x8sjovOJ70Gf3rnftqnqc/Wl+2qO+KOcdpdjofPPXNHnH1rnPtydzk0fboqOcLS7HRef70ef6nNc99uT+9TTfp3OaOcLSOj8/0OKRrj1rm/t6euKQ36etHOFpHSCfNIbjrzXNG/jHr+dH29PX/P50c47HRefml8/nFc6NQT1pPt6Zzkms/aQHY6IzD+LijzvQ5rm2v0OME/nUZvwD1pqrF7BY6nz6PP71y32/3qQagoB55xV85Li3sdKbngc5pPtFcx/aQ/vCkOpDHJz9KOcm3c6nzs9aPNHr/KuUOoqO+KadRTPX+lHOHI+h1nnp6iovOPrXMf2kOwzSHUl9QPxo5wsdQJ88ZoNwR/FXKnUF/v5/Gj+0FHQj86OcOVnU/aM96XzxXKHUlH3iCf8APvSf2mn97HtRzhyvqdX5/vR9o965X+04v8mnf2lH6GocwsdMZyOlJ9pYVy7aipHygg/Wo/7Q9cn8aXtSkkdaLgnrR9pYcDpXJHUj2FNOpkHvS9oaKFzshOcDml8/3FcZ/abdiaX+1G9KftSbHY/aSO/5Ufas9/zrjf7Tb3oOpt3H61pzhY7H7RnvSG5x2z+Fcb/abdgfzpDqUmelQ56Ca7HYm6bHtUZuc8A81yP9oOaYL+XPWpVWwrSOolufm+90rn7ybeTjkVUe9cjOearNKX47d6znUbLUG1qc7fWgn6cnNURo6kZwK60xqegz9RSiMY6Vz8qOhQVjmBpKgjgVJ/ZaDsK6jaPSkKqOooUUQjmP7MSk/spCR7V02E9KUBemKopxsrnOf2XH6A+9L/Zcf90f5/CuoVUAwRTsJ/d/z+dBBzi6dEOcc1YSyAx8oH0rbYKO3JqM4HHegpNopCBUwTxTXIJqxIcjA61W28ZPaspGqd1cYQc0mDT6XBqBn//T/ag89v1ppAx0rD+3x/3j+dL9vT+9n8f/AK9c5rc2dq/5/wD10o2r1Gf0rIW9Q45x+NS/akxwc/jSunsFzTCqeelNO0GqAuQe+B9aX7QKYXL5I6HHNQsAOarm4UnK5/GmNNnnIqWJ6jJtpGDWFdohzx2rSlmUA7j9MVizzKcjPNYz2LWmxlOik9Kb5S8LjtUh607HQ+1cVjSxA0SdMGm+So6VNR9OaY0rakPlCnCMelSc9xinAZoBybRHsFKFHpUm0f5//XRtH+f/ANdBmCME6CpluZAflOPrUO0f5/8A10nTkULQaSe5Z+2yn8KQ3so9Kq+9DKNuaOdoq3kWP7Ql7U038p//AF1UKjNNwaftJBbyLYvph3zTvt83tVLBowaXNITSLbX0zd8U0Xkw71WwaUL60/aSEopst/bZcdM0hvZ/Wqm007aP8/8A66XNI09mTfa5/wC9QbqY96h2j/P/AOulCijmkHsyT7XKOMk0C5m9TTNnpzTtuB0p+0kS4pD/ALVL6n/P4UfapvU0zafal2t6Cj2kgt5C/aZvU/5/CgXEp7kUm1vQUm3PXilzSC3kSrdTL3pDcSk5zUe0f5//AF0bR/n/APXT9pILeQ/7RL/epBdTZHJpuBRgUKTe5UbInF5N65oN5Me+PpUG0f5//XRtH+f/ANdFxt9iwLqY/wAVBup/WoMYpfm7AUXIaTJxcy46003MtQ1JgUXKuOE0rd6XzH/vUzGKKLmbbejHiR+5pwmcUwDNLtH+f/10XJsOMz4NMEspPUil2ijANFwsKJZM53Zp6zSc8/5/Oo9o/wA//roAxRcLE3mtS+Y/+TUYGaeMYouFhS7Y6/rURZ85zT6TaKLhYjDOe5FLl/7xp+AaNo/z/wDrouFiMs/qTTw7ZByeKXAFG0UXCwbm9T/n8aNzep/z+NG0f5//AF0bR/n/APXScmtik7bBub1P+fxo3HuSaNo/z/8ArpNvpT5myuZiEtnOSBRk+ppdopdo/wA//rouZ2IxuHVqC59TS0m0f5//AF0XLuwDn1o3n1o2j/P/AOumnrRcabEJYnrTCz5p9FO7KuN3N60m4mlIwKbgnpSuFxcmkJPajDUAMOwouFxOT3I/z9aMH+8f8/jS0UXJsAz6k0HnoSKKKbbYWGkN2NAB7nNOoqVoFhmG9aMN60+jnvTuNaDefb8qDkf/AFqdRjNFxNJ7kRUk9cU3YO/NTbR/n/8AXRtH+f8A9dFwu1oiDafelwfX9Km2n2plFxWRGAc0u09wD/n61IfpSA4ouXcj2nsBShcjsPwqTPtSUXE9SPH0/Kin4FGBSeoreQm3/P8Ak05V/wA/5NKOTTgMUrBYTb/n/JppU1JSj6UWLTa0ICgpMGpiAaYeaLEWI6KcV9KAvrVXCw2in7R/n/8AXThgdqT1GtBm31pQMGlpRyaVjSOomM8dacF9eKcAAfWgnNNI0AYA6ZoowT0pwXj3oMHNp2FAxUb9alqKTigiL1RDv5I9KkQ5JqLHOfWnKcGg6WrlqikUlqceDQczethDyQaYwGc5xTz0quxUcZ4oBPUaxC575pm6PByeazprjZnBz9ayn1EKT81RJHSvI6IMmKUsvWuaGrKepAqFtVBJ+bp/n1rIZ//U++V+I6t0YY+tWY/H6HHzD86+C4/iXEAP3gA+laEPxMhBH7015n7yxv7vQ+9YPH0WcFx+JrYh8c2rDmUV8BR/EuIkfviPrWhF8R0JO2fAzWSU0xXXY++F8a2xOElUfXFX4/GFoQN0gJ4zzXwXD8Q42Abzsk96tp8QVJP7/wDWqlKfUadz7tXxda4JEox9acPFduwyHBz2Br4ZX4iqFOJ8+3rW7onjlruZWWbODjGaz5pdx6H2YNaSXoQc9KeLjzCN3U9MeleOaJqjT4YtkHtmvSdPl3AHOaTk+rA6BOeDzUtQqcjNPyaRoOwKXGKYOtPoAMZoxiiigzHADFLgUDpSnpQBGeDikbpS0jdKAGU1ienanUYzQWiPrS5NPwKMCjQYzJoyaeFB4oK4oAZk07rS4FFGgLQKTApaKNB3fcTApcYooo0C77ig4pOtFPHSjQht3G5NG405RknIqTA9KNBXIzwKadzdO1T7Qe1NZcUaDT1Idrf5/wD10VJRRoXJ6aEdGD3qTHtRQZ3I6KkwKMCgLjQM06nADFOwKAuRYHWlp5HBplAgpQM0KMmn0AGMU4AYptPHSgA2imVJQFB4oAjpQM08riigBpOOlOpjdaORx39KAH0oGarvd28TbZZFBIzgHBwO/Jrn73xh4U06cQahqttbyMvmBZJ1RtvUYBOCe/0p2A6UnFKDmvH9Z+Ovwv0XVBpt/rURlwCxQ74ogRkbnXueDwDir1h8ZfhxqtuLrTNcgu4WhN0ZIjvRYgcE7gAAAeO/WnyvqB6nRXk1n8a/h1exz3P9rx29vAvntLLlEKHoylhgj6c13OieJ9D8R2gu9FvYr2LaCWibJAIyCRxjPvScWgOgopnOPalBOaQDqUHFNPUU49qAE60Up+7SDpQAm0UypKMCgCOjGakwKMCgpEWBRgVLgUw9aChhXimBSOTUtFAEdFPI4NRjpQAYzRtFLRQBHRUmBRgUAR0VKAMHioqAClyaSigAooooAKKKKAFyabgUtFACYFGBS0UAJtz0o2GlzinAE80FxWozAowKdtPrSUDkhMYpaXBpKDMKKTuPSpcCgCOkwKlwKY3WgaEximtTqKDay7DQM0uBS0UBZdhMCjGKWigYUZoooAkxiikBzS0GDWoH7o9zUMlTVDJQCWqIaUdaSnoM5oNJP3SdOop560mMUUHMHWqM4wTV6oJot2fWgXU5m6U4OOtczdjYCRyTXZTwHkVhTWLsx4yDUs7EcyHJGTTsn0P51rnS3x0pw0yTA47ViM//1Yn+F7bRleO+OtZ03wzl52BlH1r7rfwrET9zGfaqj+EoueP0ryfayL9mj4Of4c3qZKljj3qi3gfV1J2sxA9TX3jN4QjYEKOfpVBvBcWPu8/Sr9pbUXsz4Lk8I+IoidjsAOgzUD6F4ljAwSSODX3bL4KhJPyfpVN/BEX9wflQqtylCx8L/wBn+J1O0E49c13XgW28QRXimUHGRya+oJPAkRP3B+VaGk+DIradSqEAHJyKznqzRJnUeEY7jy0L8HjPvXuGl9E4xXF6NpJi28DA6V6HZQ7FUmsgNpAQoB4NOoHSigtMKKKQUA2OzmlXrSAE09VPWggcRSngYpaay559KAGNwMUzPah5ATVOSfy+RyTxQBcxmlwazvtg/iOM9MU77Yn97/P5UCuX8Gjaao/alNN+1J68/WgZobcc5zQBms8XRHUg077UPX8qAL+0f5H/ANek2mqP2pe5o+1L60FIvbRShcf/AKqo/aV9aT7UPU0FGjRWaLhSeDj8alWdR1P60EMu1IqggVnm7jUgZJz6Un2r0JxQI0afkGsz7UKUXS+op2A1CCKTjucVnfax3PFIbpfWiwGnhexowv8An/8AVWaLpcdaUXIosBfyKZVA3KjqRSfal9aLAaJGKSs4Xee+ad9pH0+tFgL2M0tUftK+o/z+FNN0vqKLAaWRim1Q+0j1pPtQosK5oU5QOazvtI9aUXS+tFguae30owPxrO+1f3TxR9pB+tIZoUoOKoeeDn2pwmyRnHPQEgfzNAFzoPx7VFNNFCheZwgQjJY4AzwOvrXE+JPH/hfw1bPNqd/BE8WMqzhcZyOp47EZ9a/OX9oD9pnUJrCKw8P33lzX9z5avCRLAtsCCQDuy7kHooyADW0KUpOyFc/QbxL8XPAPhOEvqusQJhimVIcBwASCRnB5H518X/FL9tS9tbOSz8A2okvizgmMq7xqDiN2DcAP2yQcc9K/MvxJ4413XLbUtZjukTTIAI3IUAICAfJZuADI6dHABIPOBmuOvNUs4ba0litJPthkjvZJFkUI8Jj3QZ28+WASMngdDivQpYaz1MJVWtEfXOr/ALSuvakj6je282sXdyILdtRhDBLVZI/n86NDtcowLbQQDkEHgA+Ev8WfFmq77PxLqf2+x0iZ7qBbtlUyhHAWKPCnBUE45wVGw4OceSWXiWS1s/KkGbHVTPJb7mYHzSxPmHayBQchMghMAZHBrWsxqAnh1K61Gzl1KWExyPGrTomAQZAclHkycqBjOWIya9P2cexzOU7PU6a416G4ux4h0mW9gRrgrbxl0MayIhZmUA4KFiFAJJZRgcgVBpPxF8U6ZA2lWmoMLaKLyZbZZtwkZnDIYgQGQoRuIHIAAJAJrnjJYtaNqHiQy38YUS3DRusU8U87OI51WNQHDOQoAz1yOAa5fU9O1FplvNJt11CO58x0UjIiti4YzyYGMBRguSChDDGOSOELaowvPqe1w+KNX8NWn9kPdXF6uttLbzSbm2KzsIkyhO0tnghDlxld4HJ6bwB8X/GHhLVrm+j1aWSGwjQRJbS/v9kDhtgULtUuGcOHyV4ANeAT+KJ1ubxtQl1SGdo5ZI4pIxJEZAVlR1JKHAAGBjcAckZqo3ijQ7SG5tltjZ6rO5crHEER0dFb94A5aNfMJCgc7Rk4rN0qb6FRlKOx+oXhj9vLxBcTWVlf6XHdajcghogxgiiWJHDFmbgklVwAeScdc19Z+E/2tvhvq9pbHxFO2h3M8JmK3CkJtXGQrE4ONwORnIPFfhjp+s2d3DKwl+ypLtwvlO7lwDzFJ1By3yHcSd21ht5M1pPILyxsbq6FxJZSNFvVllii8wEFjKoYBkYbcE8kcZOM4yw8bWR0xrSS1P6YdH8QaRr1sl1pF1HcxONwKEHjAOTz6EVt7twVwRgjII6Gv53fhz8fPH3gi5ivNGu5ZbfTI3iFrJI8ZJY5eRXk/dlyVJbdjOMDjiv0y+En7a3h3xBq7+CfiJEPD+u265Z3lDozEZCvgAByOgHBGD3ryZ4aS1R0xndXZ94D5gCOQaKzrDVtP1K1W806ZZ4GBIZDlTggHn6ntVgzA/MOc9u9YcrW5otSzRjNUTcbetN+1DOAcGpGjRwaMGsz7X2zQbzH8VOxs0uhp4NGDWb9r/2qPtf+1SFZmhkUHkcVnfaV9R/n8Ka10AOop2CzNHBprKc8Cs77Z70v2vPeiwWZeKjv1pKoG4HXNNNyMdaLBZmj1orMFyRyWFNN1g5yKLBZmrSbgKyvtQPU5/z9KQ3S57CiwWZqAZp9ZH21R/EKDeDuaLBZmtuX1ppYY61lfa09RSfbE9aLCasawYcmjelZP21ADziozfoO4osFjaDA84pBxWMNSU8ZFKL9T/FxSHZm3uX1o3L61i/bo/X/AD+VH26P1/z+VAWZtblHWlDJWJ9uj9f8/lSG+Ud8ClcqKaZt5FJuX1H+fxrE/tBP71M+3J/eoTuKa2N0uuODTPNHrWGb+Pu1Na/i45/z+dDaM0b3mj1qVZFwOM1zf29P72KBqEfqDRcqx0nmpTTKuevFc7/aCf3qP7QT+9RcaTudJ5qelNMq9hXNHUox1akOpIRw/Si5pLY6XzV9KPNX0rmP7TX+9TTqsYP36ZETqDKmD/n+tRealcs2qRg/eFN/tNP74oNG0jrVlUnipgc9a5q2vkY8HOa2YZ93OaBrUv8A9KSkRg2T+FO2mgBKhk5qfbUL8GgCDpUidzTSMmnICCaDCUtLFin7hTKKDIKYThxT6Y33hQNDGhV+/NQ/ZeDxVj2pfm/yalnWV/si+tJ9nHt+VWASf/10m4VIH//W/TU6cvoeKY2nKeSDit0LyP8AP9ak2ivDO32cjmTpKHJUfnULaPnPFdXt9hSCNcHI60mLla1OMbRhjpULaOCMbDXbNGvQdKTy1qL2KVupwx0UMfu4/CiPRljOcZ/Cu4MaY9fxphjTHCjNFx2vsZNrZLEBgGtuCIrgY49aWKPBzVwdlxxVp6GbTuNYYPHSl2+tTDil2A880yCAA5qRRz0qXaKMA0AR7RQOBTyMCmDkUAOwPWmMflNIetMcnYaAM2aYRgsT07Vy99qSxHcSRxnFaOpSMiE98mvIvEmttbK+TyAeKiWmoLV2Omm8QJG+N/T3p6+JI+AX5NfH/iD4lpZXTIzsDnGM8VmJ8WE4w+R65rjddJ2N1T01PtoeIYiPvimDxCM/eGM9c18bJ8VUIGWP5/8A16evxUUn/WH86PbE8jPsr/hIIj0kDH0o/t5fX8q+PP8AhaSd5Cfy/wAaUfFFOzkfj/8AXqlVD2bPsH+34x1fH6/1pf8AhIF7NkV8fD4oju5Ppk//AF6kX4nBujsB7Gq9qNQkfXy+IU6b8U8eIYunmD86+R0+JSH+M/ieakX4lBjy/H1qJV0hunJn1r/wkCLzvFPXxAp/jAr5MPxGjIxuP5//AF6cvxGUdGJx15/+vU+3Q/ZSPrFtcBIy3T0pf7fjAwW5r5OHxH6HeQD71KvxEUnl8/jR7dE+ykfV39vRf36Ua+P71fKP/Cwxgnd0/wA+tOHxCB/j/X/69T9Z8xezZ9Xf8JAn9+k/4SCP+9+lfKf/AAsH+6/P1pf+FhMOr/rR9YfcPZs+rP7fjzjf+lOHiBOfnHFfKg+IW75t5/P/AOvS/wDCwByS2c+9H1nzE4NH1Q2vJgfOKT+34+718sf8LABHXp700ePs/wARH40fWfMFBs+qP7fjIwHz+n9aZ/wkCf38frXywfH+3q5I+v8A9eq7fEUIT82M+/8A9ej6w+4/Zs+r/wDhIB/C2R/n3py+IEOQWwR/n1r5JHxJJP3yPof/AK9WE+Irc7XyT6n/AOvR9YfcPZs+tV1xCM7x60v9uR/3xXyvD4/3Jktk/X/69WF8dZ65H40fWH3HyrsfUC64g/jBp/8AbiH+IV8uf8J3t53fr/8AXqZfHJb+Ln6//XprEXdri5Ox9RLriY4YdalTWFPoTXzRaeM2blievr/9etiPxskAZ5GKqgySegHqTmrVZdQ9nI+h/wC04Y1aRnGxRknPPHpXwx8d/wBryw0fUbn4efD+Q3GslHaa4GVSJAASFfHJAJJAI4BweK89+NH7VmlaAsug2Dm7l2gtFAC7yg8FV2ngkZxnn6mvzVvrjXvE/irWPFV+VtpYApgKOpIMSlgisGUNIoYAKGyCMHPNezh6TkuZnLNpHtfjr4zeK/GctlBrM6xabpjJLB5AAV0lO7fGxIMgbDfJIQC3Q8Zrxy7SFZJ4NSWSOS5n8xo5HdBCgAYKuxQ8bkkFkIwepGACec1PWYZPs8cFxI8ttaHBLiIEk8BUPcOSSSOT64Oeek1m7chHczSMSOoEiuoyxVgCW4GdpxnsRXuQppK6ORttnQ2/iC6vtAuV1fUGtIrUrLZJESQjGVVZnSQAMACCTneSCACM1jWTCO9lF7PLcq1mZriVJZAwR22gKiEbkIONhILA5HIqe91qKbTp7S+kzbEqAiLsuIoX+ZBIpTBLMePmBUA881VuNd0mSzg0e0gaWVo4nmliRY1keCIKUKjCkhiW8084xgEjNaOIr9y+1l4Yu9XnvLq/ZkEgjtxZN5CJEVO0SO6h0YAdM4JOCVOFL11O503RHs7CPdc28kck7SrCLiKC3QhWdGGXTBB3ADg4FcyJ/Pv4J5Ga5R4o0VS7DciqAuJG75OASCRnk1oQyJAwS4JtrWJAjShPnlS4by3hZ8kOVB5KkhcAEZrS5CaNWO7kvYTqVybW4e4MotxKC0tkVc7SoIAJIJKFx1GeoGMtNUvrWa6l8gI+oxKrRxqSPKBLOUcEYBAyc45JK4qS5s7u0tb3SNNu4rd9QdoXijbEM8aqWBAbBOMZXI4Oec4qo5m1axaa7SW6cRS/v54dhAwAqqwKu20qMDJAB6YNZyehd76HV6peaZb2ltqDGe8itxPdLIrq6SvwsEJZWLBCIxuBYkEY78Z97oepsX1TU2hiNxGk63EU6pLslICoQBlMAkjeMY4yRtBwdGe3vbiKwkdozgl2WSNCF++zDeQMEAkqh5IPritiXxCmkWMsWjp9uYFhbXEsSB3timTlWziPnBCY3cc8AiIK5LVivYLbaXpdzeRWC3l+gVrV5pTI4UELlYgQG7gsQVKk8H5cXbDU7i1hs768e3e3uN9ztRDGQYJQAoOCWcsgwVygJGDkEiK6e3vPN063v4nvLQpJbvGqopZsCQBmBJK5AAOQADgg8jE03U9Tv9YOqyrBCkZeQyeQAUQdQWGVMhySCckHkEEnOjj2Ed7ARf3F/qMc4aB5kjlM5GRLNlnjChih2AEFyCQSTgZpbM201xIiy3T6mxeWRZpVEsTrFhTIzhvMRACcggkYGBXJHyb94IZpY/sssIVoiA7CZCQ27jDMSAC/XBHpWnPrGoyaWdUaGS0N0zyXMKklXgJEAk2mMOp4xjecgcYHFNK6s1oO7Wx9b/CT9qbxz8JEOiJqy3+jfaJbhfNjkIlMrAMuWZRGinJBGcjtkc/rz8MPi9oPxL0NdRsnWOchSYyCrAE4JCnnAOevQdea/nbie2hMU9hfteBpd0tvOzrIksqlAMREEgqSCAcgcnivYvhX8T9c8A+JrS9hYw2TxyqJATKksq4wGwBgkEkZCqQOQTzXm16EXdpm8ZtH9BEupRjO1wSB3NZr62oPLAGvi/wl+0dpniB3sromKWJlVi5AZC2cCReSpJ49j1xXfXXjqMZbJzgEc8YPoc8185Um4aM7Ya7H0U+uxjnzAM+vFRr4hjwcuD9Of6ivlqf4hBDwxGfes/8A4WOeTv6H1rD2z6s6Ixdz6zbxHGGPzj/P400+JIx/HXySfiUQeXIqJ/iT/tn86n6xbY25T65HiWP+/wA0P4jTGWbAr5Ab4lnkBz+dQN8S27uf++qFiG+ocp9g/wDCRxn7rg/Xij/hIk/vD86+OT8TC38ZGPf/AOvTG+JbA/fP5/8A16Pbhyn2I/iRB1cD8aaPEUXH70fnXx43xMfH+sP51F/wsuT++cfUf40/bvuHKfYx8SIP4xUZ8Sxk7S+MelfHLfEmTI+c/n/9eo/+FjuT/rD+BqfrD7lezkfZP/CRxY++fzpv/CSxD/lpj9a+Oh8R3wf3h/P/AOvTP+FkuBnefz/+vVe3fcPZyPsj/hJYf+eg/L/69RjxKnd6+Oz8S2AHzHP1/wDr1A3xKkbHzkYOetL6y11JcGj7KbxQi5+aoP8AhKYwSd4J9K+N2+JcgP3z+f8A9eqb/El8khzk+9L6w+5m4Ns+z5PFqf3gB65qs3iyH/noK+LJviVMB984+v8A9eseX4nyrk7yR9af1rzKUWlY+6R4ugB5kH505PGEOPvjn3r4FPxRk34Epwff/wCvU0XxQmbG2U9fX/69V9YY7M+/P+ErhxnzBSf8JZF/z0H518LxfEyVgP3p/OnH4lzcjzSPx/8Ar1LxLtsFmfcx8WW4580fnVd/GNv0MoA9zXwyfiTcHOZT7c//AF6rP8R5WAHnkZ9D/wDXrL61LsFmfdLeL4Bz5oINQnxpCDjzP1r4XPxDm6eccD3qsfiNMQCZT+f/ANeqWKa6Ccbn3a3jSAn/AFg/OmHxnbjrKB9TXwe3xFl6iY5+tQn4jznOZiAPQ0nim+hPIfeh8Z2+P9aD9DTP+E2h/wCen618DP8AEefH+uP51CfiPNgHzjk+9H1l9i7H6A/8JrB/z1FQt45gH/LUH8a+AW+I84GfOPPv/wDXqBviNMf+W7fnT9vLsFmffj+OoCf9aB+NRjx1AM5lH51+fzfEWfP+vP51Xb4iT54nP5//AF6Xt29LCcbn6Df8J3bLx5w/OoZPH9qpP70E/Wvz3b4iXJOTOcDjr/8AXqB/iHO3SY59zS9rISjY/Qh/H1sefNHPvUQ+INsz+X5wBJA61+eb/EG5x/riPx/+vUum+N55tQRGnJyR1NCqu6JkmfqboPiFLwJ+8BHHOa9NsJ/N2gN718e/DjU3uIISXJBxk5+lfU+hEuqk9BXqRd1cSdtGeh2/I+lWhzVS0wV+gq0OlUWmKelVn61ZPSqz9aAGU5etNpy9aDkluTU4LxSDrT6BDdv+f8mmEfNUvSoWb5qBojJwaC+BjFRsx5qPeSeRxUN6nWThqQ80gxj5ehpayIakf//X/VPaMipMYpoHSn14Z6gUYzRRQJq6sJtX0qPaMmpj92oqzkrGTViJuOBTKkpD0rMuBKnapx1WoE7VYXtW0diZrqTADFOoH3uelFUYBSgZNJSE4oARvSoycdKU57U3BNACdaZJ92pMGkdDsyOtAHJaup8rdnkE14D43T905zg4Jz+dfQ2qp8hwecc5rwnxmmYpOAeD1/GpnsNfEfnZ8R7iaG/kbOACev4V5D/wkckAbc+MHpmvZfiraN9rdj6mvl/UEYZBPGTkd68aS95namdz/wAJngnD/rS/8Jse0mPxrx+Y4k2gnFVWJ3D5jWyhoZOep7V/wnQUcvz9aQ+PiP48/jXiO87j1qJmK8ZPNKxand2se7r8QHb+Pge9WI/H4/vgfjXgKNIW4Jx3wal+fd3HvkVJbZ9CJ4+G4Df+tSp4+P8Af/WvnpSwb7x4q1G0m45c81LVxpnv4+IBPSU/nU6+PgMZk/WvAFdyp+bGO+KmBkx97+lZNWKufQC+Pxn7/X3qUePwG4f9a+flZ/4mI+lODsW27z+NFhM+hG8fngK4HrzQPiBjpL+tfP6lkcHJNSJ5nc/rWLYj6EX4gNjO8Z+tKfiA5IG8H8a+ftz/AN4kVMrPkbWIpXKse/f8J9ggebyeeDT18etnBfP414Evm5POTmpRK44LkH2ouNI98HjwnPzjj3pV8fEj7/P1rwUGTs3X3pd0v984ouUrdj3d/HRYEGT8jWPP44uQxwxI7c15BmT+FzT13nO5s4ouP3ex6ivjq53hScA9ya1rXxvNu+ZwB256142AM9MmpVWTPX6UXD3ex73F44ZRhnGD2zUy+PcEYb8zXz+olyRvNWEaUHBJ575ouKy7H0CvjvI5YH8auR+Oec7gMc9a+fFZ8feP41ZV34w5oc7aoLLsfS1t4+hVFd3wAD0PJNeR/Er4sa+tmG0bLIkqqYiCN+RgDORuGSOARXFT366XZXGpXJaSK2QyFVIBwMAnJ9Mjnt7182+NvEGoajpkstncyXNlakqWUY2EyHBkP8RAxhzg+lfQYDDuo1OWxwVp2VluO17XNTh1aG/mhW2uoJml2xIUdHLYdWYMWQkkDGQQDnNZD67fT4tFuWuYLcAh5EKRh5WDBUOQRtJ5dgSex5qTwl4S8V+J/Ls9PtJi97E+5pNxWVFOW8zdjAXGTkAE4IBNe6aR8D9OWzgi1CY6lONiSyMCkSBOAiY65JAJOARX0s5xhotjlpYWpU1SPlyZ76GXDhHVQwZmTJIOAmwcsehAfJAySRmsw+faEqqxymX95mNtxRiSF5GCN3TBwTg5xxX3jbeAPDtpaDRbJFlgtiSHSFQJHLE+WoIJA5ycHOT7Vh+JPgPbapatc6fCr3MjeZdHeCU38kBgFJ28YBBHBxXK8ZBOx6LyutukfDVzqxjmt55HSK4t2MbDqxIO4yMpyDhemSQCeK7jT9DDaKtxbNK5MgkEo2sHMoBQyg9FAGcDn6V9L+D/AIA2Xh6ZL7WYIr7MgVWZFdZUYgZdSQRs6nBUn0NfTlh4M0K80i5WHTo7e1u/vQrEqxEwnAeIABUBXghgcg81jUx0bWRtTyeo1zNH5e+KoL251mXTLG0Z3mZFki8oo5kdAS6oMCNScEAkg9sU9dG8Q3hhhZL2aKwcwzRmOQxWwPLKsROTlxyQcE9F5FfqTefAXwNb6SZk0ySWL5ZYlknwUfgMqtjOFAGwEkAZINbmjfBTRBNexpdTwXmsgi5gQhxEHkURmNn+cSHaAQ3HPpRHH36mEssa0Z+S8p1CaE6fBaL9mvkFwrSxgMm7cQm4gjB28dGz1AGc6GoXE91psP2a1nitXjIj2qzq5kIlMQZjgkEAAAEg5xiv1PuP2bpb3z18g2t6YE2KMCFpBkmSJV+UOAMsCME+xrgdW/Zcgms/7Gi1M3Y0aSW6WO68yFDFkKUNujKATkEFHXcQecnB3WLT3ZzywDWx+etra2sdgmoQFrOadZoniA80iVwqhMBt+3BIJIBDEjmq8GnNpFnFqMSKskUwgYvCzQyIy9yxJ3KxAAJPUZztOfqXx1+y14u0uaY+EIV1KwFwJFLym0KROpIOSMkxOSWJ3gLg8mvPof2dfH7acdTsg2oy2FyEMQJiVsYkO1hn1GDgHDE4GDjZYiHcweEntY8etLe1srq0uNJXzGLNBLBI6+VFHjBYyKASC7tjA42c5Faqw2c2lWtrNLIseJwI4pXeSWS3wHkIwECBCoCHJJJOcV3WofBHxTfazeXMEUVos+SLOMyr5XB3oGZRwCHzjO9gcHkZ4nVvDPjXSrOK6+xSwLbqYo2JATEoD7vMBOMAEMCAeMGrWIi9jJ4WqtbFSTxOkf2O80+HzYEgjjRUh2qXJwVJIPMhYgtjIOMY4NSyWC397NFc3wge2lEaM6MeIlOElA3DqcY3kZGcgcVyvhnXLi0mls54QP3iSmCRPPt954JYDPVTwMHJA6EAVeln1Dw3E9tp1w9vBcyuJIyGEqRHkhSwAYMACMAHB5HeuxTVlc5nFrdG5JFBplqbm1tDNbQ3Xm7pHYM0cikMGZSRgHpnBGM45rcil1XWYDpkt3DHZnZJGI/kS2aYKEb5jlg3HOT/ABADOa4eOe/ubS30a6s5IXRvPjlJI3+YMNGQThw+OvY1q2t/Kt8VvCt3LcvEXwzfIUUFhkgAlOmCAMHg4rOprsN6K7Pd7TxLF4UvxokF59t06yUIzLkoJAwMmTjbkkkKFJIPJOK95sviHcxRERXIuLMMVVsHCYJGAc5OMHOe9fGJ1KKzhOt2axW1ja2hVkttqQiZyRGxhbIYkckAjAB5PFeleEtZj1BdJ09ruC0sb+NriZWRlS0ZmAWIOFVSXGZDgHaDgkGvHxeHU02tzpoVLPU+g7n4gMzcPkdB249azJfHM4HD4yfWvPbq0eCQpuVxk4KHcCPUEccjHHaqO31r4+fMrpo9eNnqj0v/AITaZzjdyR61AfG07dHxjr1rzlkx0pAnv+tY3fU0PQW8b3JIGcg9+eKjPjWcH7+R+P8AjXAbcd8Uxl4znFS5tbAd8PG05zyD788VG/jWUj7wJ/GuDCnB561HswDTUpNXKTR3n/CaXJ6MMfjSL4zm7k8fWuD2fKMGniMgfMfyNO77jud0fGkx/iOfcGkHjK4PcH6cVwm04zkmngcY6Gm3poK53X/CY3Prj65pp8XXLDgkY646VxSpJzuPHapQh9ahTbC51/8AwmN1gc8fWqzeLrkEYY8n3rligyeKiZMkDPXiru+om7nUyeL7tec5x71WbxhdN14965l4vyWqzR4yccUXEdK3iy4YEFuPbNZdx4hmcHDEfnWMy446c1GUPP1ouJoujWb09HOO3NXItfuouOvqc1hFRzUew+9P5kHVDxTdr0JFJ/wld4eS351yuzrRsx7VdwOmbxTfngHIqFvE93jkkH61z+wkbc+/WmMoI9aSQHRDxRdlSc8/WmHxJd5AycfWufEfADYxnpg0ix7mPTk8ZqrAbR8R3Rzz096gbxJdZPOPxNY5VTndgEcVCUAJX8aVgNZvEd3zhsD8aZ/wkF0eGJx6isgBQDxz2prqxHP6VuloBsN4hu+xPtzUD6/eDkH9azAi4Gev0pjR/N0qrE3NFtfvT0z+Bpg1u+buV+p61m7DupwQ7TRYLl7+2LzOd5z+dQPrN8H+VjzVbyyQOo5pXi6VVkFyc6xfE8seDW54e1W7k1SAOeCeea5sJgjit/wxbhtYgLZwDyPxoSV0Ju5+pXwhdnsLY9uP5Cvsvw+T5Y5r49+EkJXT7faOBj+Qr7G0JdqDjqBXqpaGMj0SyVQg46irWBUFpwgHtViqNERnpVZ+tXJMY4qq33hmgZFTl60NjPFLGNxoOSW5YHSlo6UuM0CEqFhg1N0qBjzQNFZjg1HUjd6izgmspHWSIccU9XGT7VEeDxT06moIcj//0P1XyKWmDrT68M71JhRRRQU32F9Paoz1NOJAph5qJkN3I6Q8inbaaelZFwJFI4qyCBjNZrSsvORVZr0pncefato7Ez2OhDA0u4CuaGoj+9j/AD9aG1IY4b/P51Rzo6XcvrTWdcda5caoh/jJofUhj7x/z+NAzpd6HvS7h2Oa5X+0l7nP+frSjVYx8p4NAHU5FDEbOtc0NTU9GIok1JBGeelADtU2EHn9K8R8XovlPn0P9a9E1XVTt++ORXini3WFCv8AMcAGk1dDXxHxf8UbVWmlYjJBr5Q1eHbKzYxzX1V8R9RSV5QpBB65618vawQWbqAT3rz5wd3Y6zgrmM7ww6jqPSqcgX1rTnQl25Hr9aoMBkHGMetCIcUVwq9cnA9aiKjJq0yBw2c5PpTdpwBt4pNILW1RBgYxkA/Spdvoc+9OMeCKl2hRyM1m0NSb0YxF5qykfGe1Iig4IHWp1HydOlSWnYcqArzUoXOC3XOKSMZq1tHFZSKTGheeKk8s7s1KqjipwoPauSV76DK+wGpRCSKlWP5sVaVBtPFA0UxHx0zVjZwMjFTKq96eV4GRgUFlYKQeBxUoQlz05qcKCOlPVOelAECLgn1oCE9BxVnaATSrGQRyKAIVUd6dsQ+uR0xVjYM/1pyoc8An6UAV13Hg4z2xTyCDg9aseXggEDHX3p21M45NAEKoD93k1Ki+1TKgHK/KMc471JGoP4UAIE4q5CnQZ+8QCBzkU1QMHj2qlrGqR6Lp7Xbqc5CghSRkkAE9+DggDnI6GtIU5SaSJk7RbOR+I+p2enW0dnLLA1yQZUiZ2JWJDyZFUEgs2Au7AOPSqHwp+Hd541uX1rU42/s1ZUMRJKCWWLhmORnAPQjA6jB61reF/Ao8bSwa5q0YbIQ/ZVmEhcO24NOSoIKgEKoJ9TivrXSrWDToEhVNkagqkY4VFzwFA/U9zzX17qqjBQhuThcM6sueWxYs9Is9OkWW3QLIAd7ZByT3wMZPt0+tL5G0n7QfNfOVIwpIHTJ9B1xj8adNK7/OAAxPGDxgVQdneYNGcnHIPQV5Uptp3Z9rToxVrKxYZLRlJRDtyWYEjIPcgADGavwaaJXWQRlScMpBwGHoR396qxNGxHRh/GeAePWpINYhku0gtUbKcA5JGCeB06HHNefKTvY9qNkrG4NFBuJILRRJvADhgAmT3znPHYAZr0bw/oWl29xbtFB5wYFZFCtszkrnBPA6ZPSsLSbaOaWWdUWCZRuVWzuL+gwSMjsK9N0fTLqS1nF2Fh3AtG5KjkYGFyOhzyScZ7VaSaOWvVUVZM6LTrK1NxFe3NpgQiNS0qgqQ7FcgZ5yuMjJAFXjoVg8kupz232m4hdVV1KgeaWwWJyMYPT0IGD0rpdEsWfdD5DT3ESupVQxdEQgHccfOAeQFySDyBzgvI9QljF9eDz0DRb3jVXQkAZKqAByAABk8kkZIrqilHY+aqTcnqU7zVpPNtNMhtprebDorMQIpY2DAMAQSWJJHOTjHPFefXuieD726uNSutOgluYLj7RbXE5Yt50KlQXdSGKAjAALHI4ABBr02GzubKKC48p1c/LJIQokRQx5BDFgpB5IXpngda5NtJJurq4vQJ4rhQXBjISRM/IVwSqjkAYyT1PJrR9xcpjxaZb3VlBKlk0cUcQleNkBDrKwZ5FYHOQSSFPJ6HNVLTwrp0TXMtvAVmlzHIY0MY38BXJyQSQQTjuMHArvY7OK3gSysFMUc5VgEzueRhkfNjICjsOSOcVasdKubK5UqhQykmUyMSJcbcsCSQGBI5OMehqLXBWR86az8Omlui91eTvNbSqHMeCrhNzISowWKZyQSCDyCa4PXPh9/o93p6yojzlZ2kOA7kpj3UngAkjkAepNfZDWEWoi4ngkFt5LFJSArOjIpZG+Ygkg4BxnIIzjnHl/iHw/CFuIkSN5SfJkRSCEb7xw2SCAB0Gcjjg0neOqZ20OVuzPhfVfgxpF7dS393BIWnRVuJIVWMSyswJJA5CDGMADPqKi1b4aeH7mW203UbIvE0Th5d7bYhCMp5YYE5JPrwfWvpLWYFt0g3xkPbkxiQktlidw2jAAGCMZBNczcNCyPBJGdzZDDGRgHnnjk/TpQ61R212O95dRk7pHy7bfCXS9L1RLmaCVpbQqY5mMj4IbPmsQRgEHBAGARnArgPGnwclvoHbRFIv7Uui5c7LmMMWVt3XOwkBz7ZyOa+zJo0lDgpjzF5AO7AI5HI6H0zWANHto1i+wQiNkCFmBbJAPKgAgAbcDHYCu6niZdWcFfLadmkj4JfwvH4c0W31a9QyTEBJWkVmeC5Jz5Mke7Dggkh+g6DninzanaeI7qT7Wsial5oHkQOUj3FgVaCPopcDLpkkkE9OK+4NS8Ladqd3O/wBm2R3kXkSYfKyIW5BXIAOCQD1FfH3jT4X6/wDDwJc2rh7VLkPE6oHeIlsqsgydxC8gg5yPTNelQxKasz43GZdUpJPodRoerC0ltNFvYBFLdhXWRZNyOzFlYuzYIYEEAAYIHBIrrHjfJ38leM4xkdq8j0zX4tOin1P7AZ/tcc0tssLYiDggR4UliMMxIA6ktjsK9jhka5gjmlDCVgPMDKVOfocY/wA968nH0F8SOXDVL+69yqU4A79ai8urhXHzMp7jFN8oHHrjNfMq/U9NO5UKZYUhRehq2VOO1NKqR0OaYyoY1HSm+Xk56j0q4FBoKjGKAKXl5OQMe1N2iryrjkimmLrRyLcCqsefl6k0oTFWkjAYGlCr1yDzQAwJjANP8s+lTBASMfnVhUxx1oApeSuDnt1qFoVODnjNa/lqoOR1pjxKQMjBBHSgDFaPBwBkVWePrk4B6D0raliXkAYqk0WTgYzQBkyRqSRnjufeoGTavzcVptGRlOOf6VVeNMDB5HY0AUNoCnPHegpgZq9sUZZwcEcYqHb8o46mtCGVAhJxTGVeneroGCeOlMZAe3NAintFMaMg5Ayau7cduD3pNijgc+9UgKo9+uMmoyoCj1FXdmc+4qEgE9OlUBVKDGe9RFAfwq8VBqPZjr3oAp+Wc9qPL4zVwKM/hSBAvI6+/St0BReP5f1pGTnParm0A7R1PXPSgxjaPamZmcFABzxQEzjHbrV5kQjG3rSBFBPHYU0BUaLPPOPajyTwccVc2jPtS4UfdH51VgKixGQk46V0PhZV/ti3x2Iz+dZuwAcYGa0dHcWuoRS9hjNCWqA/UH4XX0cVnCMgHA/pX1xoGpRsqcjivzr+GfiNjDGqnIGBx+FfYnhrVZSinPp0r0U9NCWkz6Wtb9cEirIvkx0rzG01GXywc9RV8alKB96tBpWO7a/ABzVc3qsc45rh2v5j3pReyqOW60AztvtY9KVb1BzXDm+l/vZo+1zf3qDna6nem+Ur8vIpVvlCjkCuAF/N0B6UfbJ/7woIO9a7zyB0pv2ksOelcYt/Lzk1YS9fHWgpLqdXvDd6cMetcz/aRAG7oPWrKamuOvXpispHSndXNyisYakM4zR9vBPWoJcUf//R/VcDFLSryMmkrwzsCiiiga2uMPWkpT1pKlrQqKT3A9KrzDC49asVHOoxXMm72NErbGHPKVyKxJpxk7uTWzcxFjWPLaOc8c9q60jGoUxMS3HSk81qnjsZcnI5FTDT5DjjrQYoz/Meje3+TWkLCTPT/P5UrafIPujn3/8A1UDMwOcgY6+9KGbPTpxWiuny5G4flThp8gzx3oAoLMR1FEkzFSMda0fsEnpTXsJQucc0FJHFaszNEcj2rwTxmr7XGCBgnP519HajYyMMMCB1rx7xZpLSKwI4I9PrWc21sC+I+CPHSSiWTgk14BqjSGXa/Q9q+ufHmiESu2PUdK+aPEGniCY/LkE9TWCbZ1HnUyAsWH0HtVV4c43c1sSQkE5GB7VA0eQamwGZ5QpREOeKu+WKWOBn6DOeBjtRYDOCHnjI9T2poUDnOfwrqrXSC33+SenpWvF4ZMikgHI6YFc73sJJLY4EYHf8KmXJB5613w8J5PKnNWB4UYcbTg/nSaGefKoUcHJ9KtA/d9zXfL4TKjOw59xU6eEjnOw1DSe5aOAXqOOB3q0pwcDBwOtd6PCjDjYeeelSr4TOfuHn2qHBDOEQ5O7FThwO1d2vhMj+D8xVhfCpYHKY/CocEB5+DjnH9akCqeeQa74eFTx8uR6YqceFOwjI+gqbeQ7nneAOlKHVTz1r0dfCXH3CKePCeP4M/UUKKYXPOlIbnAGaXIPY16L/AMImR/AaP+ESOQVjx+FV7MLnnW3PGcD0pwLfKoBHr716MPCTd0JFOHhHn7mMeopciKR51u5wBj604HaeRmvRB4RYHIU/lTx4Sz94EH6VDg7jPORIRncuM9KlRguWbP5V6GvhPaDlCfqKbJ4XZAHCk49qtwVgOIhORkDJJwM9ieM15t4y1C2vryHTbcGS+iltzEkDFmlSUEGQHG0FWBBXJJHI7133jKaXw/psxtpFS6dQYgTtBGQCWJIA4zya5v4a6U9/dpdiCe1lZGwoIdDG7EgqxHB4znPOeO9exgqTSbZzSblJQXU9y+HOgw+H9EjRyWCgmRgoCBskHHcnPGexFdl5hkbOSQnfpgdv0rLhnMEa20qRrEgwwySSw7kdPTpxmmPPKC3msEjboQcEirqv3rn2GHpezglHQ1Jp+ECjbjJJHJquXP3kyS3cgk57cD3rNnuUjgfcpTGCCTgknpis1Lt5pl89jEhAIDHD5B6D371wuT2R7EYWtc7G2WS4CfMFyRvYjBGD82QfQV2GkRQxDyHJWQgOpwwzzgYOOeOa4u2ldxxLxFlmUMM9MDOOTnNdhp2rx39zA07SbC4CNkkKDhcBTyckHoeK5ZHa1oerado7XFt58G6K3MqE+bzvU4VmB4IwSOO9e6+G9J02xthJjz3glitzExHDyLhh6kZOcAk5GD1r5s0a+aSeGziVpCxjYRTMpGUXEhwoOAAcjnr1Feu+Hr2RYre2kmMsVmrkhGKGFeQDuJG4ZBJ43ZwRxW9PXRniYpbnsAuFuIYrWBlSGKdI2ZgcmJQV/d4IBK88KCRkknnjbe80uyV7mGd9lpEEZYypVywyWAwckDGSSQCcAA14v9o1BFhuZCtuG3sk5lYgASgkptG4FlboTk/xcVnTajqAb7IZDDBZxs+BKIkAldWO5WHJYsAcema7tDxuR3PdDcQbhIzGICGRoVG0SLIFK5VgCCCrbjyQOQcHmsKwY3VrBFazhLSB3k3RgmNxHjCsuCQRgHHGc9O9cJa3espObpmlSWNUjdo9jokpLKFwCwG4EDA+8CO4qW8hvHt0umcMVkUBFTCKBGWRSe7A/K3OBwMnFGnU1UXa3U7eS+gVcqIp38oJcyBsIgYYPHBBIBHHPpWlY/6I8SyRI0AAiMiBndowmeIyMkAnadwIBxnpXlY16eGaS2kQRvOUSOONMK7AkkM+0AhAOSMnOfSpbXxBDcvNFmWea5j8ws6EIztxsUyIrucZGRgEcnnmmnFCcH3O11e0hu5na0y6jZGoDqjkPhT83TCknnOcEE56Vy2uWCLbtaJBmZT5Rt0ACsBjaUYE4fJJJzg4/Cpl1yaeYfbZGYXMZMzShVgEhI3qFDAkgEcjg4rkr3xELtvsk063UjSbAYdrFVTLKAoI2kEjknnHNQ2rNsulFueh5X4g0+4iQRxFpGdpELSJtDAEYZckg9CAc15pfpGreU52FW2HdkYPXk8g57V6bqM6R20NvIpe7lVGEeSAAFA+YHoBjGR3J61wesxyrDdQTTecquWt2jIkEmeCM4GCBwT7Vx3PraEmkkzlH5DmVyAp4OcEAnBzgdAeKiDeURkM+05IXrz3x3qBpwkR8qMFGOwA8klRnH0B5rOSUndmTleMk81VN2eppVjzLQ31nCSgqQC2Qcgck9jWR4m0XT/Eejy6TfxefFOArKp2OCAQJEbHDKSCCeOMHrUkMxZRE+SfvBvf0rRj8yXG0hyDjnrjv/8Aqr06bs0eTXgnFqWp8J3ng2LQNTuP7V+03FzBdyDzCVSJ4ioMU25SCJlKYKDGTjHGa7fwddpcaeIvty6jPlw7AsHQ43qXVhnJB68gnkGu5+KvhK21+xMst3JaxZPlzqpBjuVJKKSpBIcjBJzz3xwfDNFa50GcfZ4jJekobsx/MoiiXau0Ak4JJ4yADnivVmlUptM/N61J0qzPYMKxZlBYZ4ppVt2QPbFdv4e0f+1bKK4jXlvlPHcEg11y+D1K7tmT9K+M5N0zrbSPG/KcqTtI/Co9kncEfUV7Z/wiIH8GAevFIvg9P7gP4UezBSvseJ7JMZYHB6U4RseikmvaR4PBJwuPwqRfCBHAXI+nNHsy1JW1PEzDMDjBHtTdj9MEmvbm8GjsmT3yKafBqj6/SjkIbPEikwBOzmgRSso+U89RjtXtf/CIcZCc/SkbwrsUsEOR6ij2Y0zx5I2Xscfyq7Eo+td5daBsyMEDHpXOyac0DEAZUVLhpoUZpTPGKZJFxwKvrHycimyIcZWpULbgYjxnOCMGqMscgPyrnBroxDv5xxUy2gbAx1qreRLZxDxSBt22qpikAOBz6kV6I2nKc4/lUR0wbc4zVxgmhXPPfKmP3hkAZxjFQCObgY6GvRf7MH932qL+zFJIxx9KrlEcB9nmJPvTDBKOq/rXftpZzwox9KYdLwc7aORAcA0UowMHFRlHGPkIzXoD6YD2xUP9mBsYGMd8U1ADhmjkH8JNR/ZpgSdvWvQk0nBPy5obSiCQF4HtzVezYHnogl7g4qIQyt/DjFekporMM7SBVldCQr05+lHs2JyS3PLfIk9KXyH9DXpMmilOMDHXpVWTS8HdjPsBRyy7i54nnf2eUAjB65zTjBLjgHNd0dNX3H4f/Wpg00d/8/pVqEiThhBMeoP40vkSZ+71967v+zEI6UDTEHQHPatFB3Fc4VbeUn7uPxoa3lBI2Zx713f9nIvKjPrmoXsgO3NacgXOMEEh7YrQ0+xlnu0TkZI5roF08dl610HhyxR9SiVhwT/KjkC59BfDTSpoVjGw4JHU/SvtPwzZtsQdOBXjvw80JfJifA5x2+lfU+g6PGNvAreKsh3uWIYHVVHXiri28hXd09q6+30hCoyAcD0q4uloFxgflW4HB+RJStGxA74ruG0yPsBVc6YikEDFAHHrE+ehq4kLYOetdSNOTHIzTxYDjAxQJq+jOMMT5OBijyW9B+f/ANau3OmoTnaD703+zU/uUE8kexxoiK9AagkWTnbmu4bTVHRaozaeoJ4wKB8q7HISK4QgnOeCKpedIp2gnA6CujntCuQOR9KwpbRsnbzWUtykiMXEu7qfzq3HNITnJ/OqyWshPQ1eS2f36elQB//S/ViimAdKfXhnYFFFFBcRh604DgUtFJmpHTJulPqK4PArNICm6Bz06U5LVW5P605Dg1cjI45rRHPPcbHZR9cCpvsQHQDH0q3F3qXPTtTMzO+xD04pfsa/wgZq7RQBSFouecUv2NPQVcxmngYoAoiyT0FD2SbOgq/T8fJigDj76yQqRgV5f4j09DGx2gkDvXtF4gwea818RJmNscnB6VLWhaPivx9pwMsp2jA7Yr5I8ZWKhywUAAntX3B47th5snPJxXyR41tsFvTJrmW9jeOx893UR3HH4VVaHOCowB1xXQ3UXz9Afes14zVmTepkMmD7Vt6ZZGQgkEg8Yqi64Ndt4etgxHOcmosNb7m5pejA7fkJz0r0bTvDylRuX9K0fD+liQA4B4r1Gw0qNVAYcgVEl5GrdjzX/hG41O4p19qc2iQRkbkySeRjpXpt1ZbMYGRXM3S+WeTx3rNxuVF3OcTR7VgQEx+RqwNGtuPl/SpTdxITzjB61ImoRjvnNLlaLIzpFspA2/pVhdItcA7OfpSfbI2I5yfrUy3sXqPzosQ2Iuk2v9zP41MujW4H3OnvS/bYv71S/bocfeH6VXs3a4XEXR7c4yv5ipzpFuuDgc+gpFvYscPzUgvY+7ZH1qOW+lhCjSbbj5f0qf8Asa1P8OPwpBfxDHIyfepP7QjA5OPxqlSfYCD+yLXeBt4+lSf2PaY+5tPpinf2hH/epov48j/Gq9kyJNg2lWoXle/pSJpUAyccH2p51CL1H50DUI+5B/Gj2THFuwf2Zb/3f0o/syD+5n8B/hQb9OxAH1q9aTpMVOd3seg/Gj2ZdyquiRyDOzj6VHN4dSVQqrjPA+p6dK7O1VOOwJ49K6Wys4srI43KCCQMcik6bM+dn54/HnS7m38WaPoUSPKl1EJGhUgFy5KqrZByOpxW1oVlFZ20cs4JMXknC/KimJdoC7TyAc1xWs+IdX8YfE3VfENwI4DYSm0SFgSTDExwwHTODkYNd4blYkLTSM6DDKVAAKehHqT/ACr12uWmkjswqTldnUm4xbs7BQ0i59QACTxn61lWsoilMFw28k7vNJJB9gBxjtWbNcE7F2BiRkrjBAPIH4Utm7JKdzNICOgOcH8BXn1XofZYddzcuk/cK7HeMgKOAAQc8ntWRHcXFwz28AYscySqFUggdCGPOO3HetuIRyxCJRvBB3EcnI7j1IoFmk92HgPlFYwisQDvGRnO3Jx6gCuNnstKyJdMkSWaVHnWN8KIiUBKY5Acjk5GcY7gV2Gmzr5iz2rylYGUHcWyAzAZUknoST7ZrgzHbwXTXMoEEoIA2kAZBGCF9PQHnmu20xHhbYxae2cJO+FKuMD7wIHOADx0PfpU2B7HpujIGV47eFBASS064fEUoCMFGOSzcjnrmu48NajbMEEdzLKXCEQxw5dhgKwAcYYAAEg84OOledwW8E9q0MRneWaJZX8yQ/IyOJFYJgfKAoBIJANd9pMMM10kVs7To+biWMZjxMMhJI85JXZnnIBrRLseXVV27nrOmLHdK8c1s1xYXUnJEwjKuqBWLgZKnA+YYxgcZqxBa2/9pHTzCZBdMWbchlUo6kCMSEkKDkHHBI28VxOh3Vmbw+bIXa7Ylo92zBI2ncwUghOAeeQa37C9uPKiN0S6RgM5R95eTf8Auyu8DAA4IHUAiuhPQ8905Lc7LSR5ESWrXU9qdqywxKQiO6ElSAQc4bBJJyOo6V1NyIo7E/ZoBMrSMzRoTInLCSPzFBGFxkAg89T1ri4Lma0a5nnkEq3Uhby1DBFlQhmCcgAknAA4J4q7pk2pQSCJJXZHiBcghnCJ8isAQNjKQFYcggcGi9zMo3CwSSu8Sgxmc7mZyEKONjEYGAQcjGefxrJntLSO6RZIm+zQRBrdlwgCynILSHBAOQdoz0PFW4btfLmuVMH2e6AQqqqD5jsXJAO471GTgAZNYN7fQu1xAzSwLOwSIMkbgjadilRgBn65z8p5GW4oC1yTWL2+nil866tHglAON5fAQhSwBGcFiQSCAc4xXmGpvaRWUTX5CTGUY8hCjIHBAUggBx32810F2qyQi1cMJUUsQEVGAQHaGdRkgYxxwWwc8GuJ1G41KOMXFveTx31oEjjE374IWzI7REAYJ+9nkgDrWM272Oumkmc5qEl5F5a2csrFCWlQR4MigA8OBtCg4x0BYisS7lYq+4xzRRBM+XuBViBuBLYOAcg4GAwPauhvbrUL3zxeXRcxFpMrKFUoSNoUKBgEEnIIyT7Zrmri8UQrcgCNlA2xCLc4BJ2gnkDPXOSTWJ69O9zmdQikXCzKsW9jgM24hSMkhl4JJ6kcZrGjR5FBQZGMEHrk9+eceladzFLPvSQEYbcqqACXJyQduRjvnP15qldxkyi4lPloRvI+8HI4ywHcdvWoctTuKi3TW0zwOdiDATByTnuTWtDMEYdN3GR6Z6VyzOguXZlOQAqkj5ce3pVlb3yh87YYc4I4IH9a74tnn10rN2HeKrWHUtMngChwUIAkzsGM56cgkHqK+TdYg1Lw/qNnBbW6wpPK0gktgTNKhX5lJ4yAckg98V9didXiE+8AHJbjPBGOM9xk14F420OW4tL+e0lJm0tTNHG3AEcRDMBjggjn1JI7CvXoVdLHxGPouV5H1D8Iha694Kg1GKER3UDGK6UYOJwMsQRxz1P1r1FLGBR82Oa+a/2bPEmnw6fq+nqrQW2oTiaCN3BYyIoMmVHTJJPHU5r6Mk1KDzMBxjscjkVwVaSUrnhqdy39hhTjBz7il+xxeg/KsxtYhB27+vfNQ/23ADtZ+PXIrFU7l8xp/ZIt3Qfyp7WUQUHaAc+tYZ1q3YFQ4HuTS/27CFADgge4pOHkZNts2xZxdcDP50LZwv8AwfXmsMa7bY5fn61fstTimkG18/jS5PIV33NddJjfoppJ9BUIXVeoxXSWDRykEnjFdEbSNkyMEkdKThoNVdTwXU9DGSSCMA15jq+n+UDtHHPWvpjWLJAr/LjpXjXiC0ClivvWMoWR0Rnd2PGHhIYY4pjQHt1PBFas0P747eDnvUTQ89QT61kbXIoLU4wRkVrwad0bGM0+zgJxjmursrTBBJwfQ1cYJmbdmYi6dycqDVKa2RM5wMdsV3EsKICSRXE6pPFGWOce1dCjbQ5pVGnYzWEasNxABpm6E9hWBd6xBCRk8gd6zR4hh4+bH4j/ABrb2RPtTsSYg3OMU0mAjkCuPGvW5z8+efWg67bgfe/UUex8g9qdYxgz0FMxFjAwB6VyDa7B2Y4pP7atzzk0ex8g9qdqrQAAYHFS/uWOOMniuE/tu15+c8VIuv2wYHf0NNU7dA9qeiZiVQnAp2IsDABrjYvENswGHH5ipJNdj5+b9ark8iXO+p1biIqSQOlYknlAnGKx5tei8v73b1rGfX4QD84/MUuTyDmOjkeIEjjNVfNj3AZ4NcnLr8O45cD8RVNteiBzu4rXk8h+16HdNJGB8pApnnqOcgmuI/4SGDscU1vEMI+bfjFHs3sT7Q7Z54sc4BPpUKskpxgAdjXCt4hhwCWySc57VpWWspMQC2M9DVeyDnOyjtw5GBx7V1PhqwiOoxcYPXn61y9hcJke+K9E8Kr5mpRcY56Vm42GpN9T7i+HMQFvEOpGP6V9PaHEvGAOnpXzn4BhAggP0zX0roa7QD2podzs7YYXp2qfaD6flTYf9WKkphd9yJ1GRwKruicjAqy9Vn60HWRhV9KsoqjoB0qvU0XegCYgZpNq+lOPWkoAayjB4HSqkqLxwMmrtQt1oAx5rUdSOvHFUDp6E5Ixn1roD0qMY5z61lIV9TEXTowBhM+4qZLJc/dPHtWtUid6gZ//0/1YooorwztQUUUUG4UUUUmgGYNQTqcdOlWqhuOlTYCgGHrVuMjjnmqA4PP1q3GeQapHPNamxbdTT254qK2bqfUVIeaZmKBmlVRn5ulC9KdQAYA6Uu00AZqQnNADRwKWig9KAMu7Aweeo4rznXkwpIHbFei3XQD0rg9dGYz75ND2OiGx8seNoV8yTPU5r5Q8bWyFW9ea+v8AxnHl3OM5OK+XvGVsShOCcZNYLSTZo9j5ku4wJiBWc8YroNRiK3R445rNeM56Vuc7epjSwjnHWu88MQj5M8c1yMiYbmu88MLynHINZtMTPdvDcIATPtXqNtGqIWAzx1rz3w2mQvHavT4UxD68dKmzIOX1S4eEE9Mj1rxzxH4hW1Q7ju56g4xXqPiMMInxkHtXyb8Q7ueGJypIyDjHrihQu1ctOxHf+P4oZnUyAAn1qkvxKgGNsmc8cGvjjxX4g1CK5kCvyD361xC+KtRUDMhNdyw91dkyqa6H6Df8LJhXBEuCferC/EePqJSR9a/PVfFmpNzvIxVlPFeo4P7w8+9Dw9tCfaH6Bn4kQkH971+n+NSj4lQMABLyPUjFfnwfFWoghd56DnJpy+K9SQ7DKSB0xT+rMPaH6Ef8LJiJ/wBYD9DU4+JESnbvAOPXP61+esXirUXyDKTnt0qz/wAJPqYUL5hIHv60fVilJt2aP0D/AOFjw9nAz3JpG+JEQH+tB981+fp8VapxtkI7etVn8VamxOZD9c0PDN9S721P0I/4WZDkDzjgD1px+JkRUfvACPevzxbxXqK4XeT+NR/8JbqHA80gnoM0LDPqxOqkfoj/AMLNiU8yA59DQfihB/f/ADNfnk3irUyOJDx7mkPinU1TcXJB9DVfVn3IdW+x+hp+JkO4BpQB1IzXoHhzxxHeDMbggkY5r8q4/E+plwRKQMjIPNfSvw01m+m2bmJDY5B9azeGfVi9ofpLpOurOibiP513s2sW+maDeapdyCKO0geVmJIwFUkHgE9R2r5s8I3MpRAxBzgc5Ndt8XLqSz+DfiC5jlMRMAjJ4zICQuwemc8VCgk0Fz4v8FP/AGrqUup3M7XUt6Wd3bb9zcSMYPBPGQeQOortrzXLSzUu4LM52RqMBQM989fwrgPDEjaR4dQ2oCmUKUZhk7zkscDvgAemKuS7LhjeXRxOQGJPIBPZV6AVpW6HsYecUtzuY7gXG5nkAkkAJbAwB6DJq1AzSKFsztQZBySCcdSB2rm9PTfMUuXwAud55Ax16c+nArtdOsFfaYGLuwBDMCAATzwe9eNVdtT7DCtzSNGytgFVpVKb8ngkE8dvStzSYFikVSXjgY7GYt8wz3GRxz69elXLbSEeB1mbCRsAWLZPJrZXRWt3EsQLxuQFIbBJ9PYgcjPXFcnP5nuOLSSIF02e8mS6u5VEoOTg4DlRwoAIJBwOmcEc12Ol2+yV3uIjlIiArAELEcbiAeRgE44z6Gkg0tRaCJhI4BLgEkbCM9eMAk9TnpRZz4ndI41eYAEtG4ZecHlicEAZx2z1p85L2sdtp1oBb2zusbzoSsAiZWkIlBDBuSQMdM5we9dzoMgh06ze/wBwIJX7RsUzogIiAZjgNjIGeNvWvF4dbu7S7KWxUCKQkM6lAd5wGU98AkkHAyOK7rSbzUQ/9mIjyLFMxRZD8kryjeTGGIAJxnk4p+1OSVFt3sezpp9hfTG4RLd7mQTKsRBQup+bcu3JUYGSCSD+lLb2F5eQD7OyRJLGJJZFJ2uoYybFDAYySRk9Mc9RmTS7nWV037EZ9sWA0cRAEoVhksAByMZBAPJrY0ePRYrdGlt0v1hkcKYg+SHIUqVJBIJJHAJGCa6U09jz6ituYMkV7YTW4vIIknIcOXZhti2hVClcgMcnJ7kCrsujSTwadBH5kjxbgocLkhMsQ2eQc4O4cHPPeuyh821ltbOV/MIPm5WQMoR4yMgsCQQeoI474rPU2ul6ZcT3HltKAD5ecC4RxgkyAY6DOQeelUmclyOz8Nte2ZvBeQTgh0ctGd8SuAOqHlnxtHGCTnIqpqunaXHbNa6fATZAiNkkOwNIGOGIfoSeQAcAKB3NdJY31rdXJs4tsVw0ZTADOzFFLKsfCgKONznPBxina/dpc6PBrUToqThLchWUIrMdxBQnAKYAUnBPPFaLY5222kkeX6l4fieEyP5kDTBWWSNVA3SjO1lU84AJJOMZx14riL+xvrCdIII4jHtBUE7iXdto3g8HA5ODkHpXa3+r6JHI+nanfqyxxl5dpG4OCM/MBg9RkAAkHg9a5TxJqulSzLezXK3MJj8wMrqgI6K4UEkEFCMEDPUZFc8mrnq04S00POJg07Bo4mmcgrGWQBVcADepOegyByRnHcVxl/PfKGaeZoi65DAKod8jkjAyACBg4yc4r0GW6L2yeTeNDC0e4Bjv2ZAAYDGRnBxwfeuQvLdp4gjkiISH5WOXcgAq2084wTkDvWbPVhpozk1RkLSgiKUFmO471bPX5fr0zjHbNc5d3LTkTHO1FC4IABAPOD3P6n0rsdYYLbO1rIUnBCnYACexO01y8qM7KjsXQAiTIG4kd8diOxHWuR7s7Emc9cXMbObt5ArPlQWGBgfdwOmffvWV9vhBVWYITncZCACPbvVvU0mSEuzsUznDcYx0wK468Z5Y3nnTz3IwQWwVHsBx+td9KVzz6/uux10cy277EJMbc4Az1zzXFeMpTFi8EgETpslJTPKcjK/xAgkEfStPTtZ8l0s7sBgo2qzHgZ6D1rmvGi2cdsZLmTKAHzFLHAznDKB1PqPTFepRlaSaPlsa1ys8c0HUtY8PxXWsWUbiDTJWkt3RdsTqTtJOTnkYJB5BNe12fxktL6yFz5208cA4r56u7iW3XU1a5jkivbeWEYdQJUAAJEYOQVwMnAJrwr7dcxnMchAPOB05r1J003c+HbabsfesnxYt8HEoB9zVM/FqLn9+CP8Aer4WbULps/vGI9RUIv7nBTeSD61HsULmZ90n4sIf+WoA74NI3xUgVRmbr2zivhUX10yf6xjjPGelIb644YSZI45pexHzy7H3N/wtmLjEwwemWr0nwZ8Qo7+VFD5J9DX5jPfXWRkknPODxX0l8H7m4a5RWbOffpQ6KsT7R9T9TPDmqGeNTnJIHfNer2jmRB6kY/lXz14CV/s0XJOQOtfR2noBCmRyBiuLkRaMDWYV2nPXvXiniCFctn1Ne86ygZDtGK8Z8QxfeyPWuCpTVzem1c8XlhXzj9aiaEMR0H4VsSxZmPHeonQEjcOh7Vj7I7PMsWFunH1Fddb2w+9g47VkafGMDj/Jrr7ePAA289K6KVPU5asmnoc9eRsilsZA7GvGvE928G5s4JJxXvGpqfLK4+tfPPjVDtkK8Yz+dehGnqcntDwnxD4le3duckA5Ga41/Fsn976c1i+MBIHbkAnuTXmbPJksDz3rvVJPY53OVz2Y+LnONj8jrzjmm/8ACXSEgF8g+9eOszZAB7ZJpjM/HzEA9cV0eyiLnbPZW8XtnaHxjjrTh4ucKMyY/GvFN8ueHOB0oaSQ9Sc/Wl7OI+ZntLeLnXDFuPTPWkHi5jzv4+teLeZIRy5pVMhU84z3zWbpRDnke2w+MpVPLZH1q6fG567gBjua8HV5FONxP48Uu9mzgkEfjTVKNg55Htz+Ny2RvA/Gs2TxYWywk4PTmvH/ADZACWOe3AqIzMAFyST7UnQVw55Hqj+KdzHdKOPeom8Tnj5zx715eWxgtxnvigMTxk/iafsguenP4oOMGTr71E3iZiDhzz715mz85J4HHWkMynjk4rV0ojPRW8UNwu/gHPWu+8Oa1JMFBcEEgg56CvntMt90gAHvXqnhAb2XcO4rN04pA9D6n0KYyhCzZHbFe4+DIVbUoyTzxXg/hdWEabRwcDmvoPwRC39oxt2BxXnVYWasawb6n3N4FQrDGoHQD+lfR2jgiNBjp1r598EJiGM+oH9K+hdH+6o9a5TtT0Ozj+4KfTI/uhe4p54oBoY68iq8nerbc1WkU80HUQEdKsRDB/Codp4qdaAJSKTBp9FAEdROpzyKlHFRyMDQBVNMHenmmAYrKRm02xwGalVR3pi9alqbO1y0f//U/VTzFPTmpeozWJbXKsOD3rWRyw68V4VzsTVySlxxmlAGKjaRQMCmbcyHjnnOKMD1qp5/anrKG6dRQCkmT1Dc9KmXkHNVbpsKc0A2kUOCRzVqPGRzWYJRk/WrcT5IoMW1c3IOOB6VPVW25BNWm45FBmKDinbqrtIBx3poc9zQBdHH404jFQKxIFTk5oAKaTjikZttV2lGeaAKt2Qcn6iuG1kZQ/SuvuZRkge9cbq8nBA9MUPY6IbHzx4xi5fAzkmvmzxfA3ksAOea+oPFqHLkjOelfOviuPKnA7GsGaHypq8RS7O4c1lOgxwK63X4R9o3Y5JNc9In93tWyONtXZhTRncOK7vwyhypI6muWdMtyK7Xw2ANn1oTvoK57z4bU4XjtXp9smYdxHGOlea+HSAE9+K9TtMGE+laKLZnzanA+I4wYnOOCK+QfiXFmFywwQD05r7K8Rr+7fjtXyR8R4m8iTaOmRzzVKLUkUpXPz38YJm8dsZJJrzOR9pxzkcV7F4wt/8ASX44BIrzKW3bB4GCM/jXpweljNoyA5z1xUokIGByfemCElyu059qnjtJ5AQEOByfXimxDDKxBXuOKTzSX3ryPerMdnIJAxBqZ7Us2OmeKsVxkMxDYySK1o2ZgMjg1TS2GCy8MPUdatRLjqOR+tZy93c6KbuShCc+xJqnMuAOe/NaaIw4H8XOKhe3U8MTkg5px11LqRaRhPLhgBzgYzTDKSAW5Iq3cWxXlR+dZzIy/LjkVZykvnjuSM0pnwMA5x0z3zVTG7GRkZ/WrsUG75mHTpxQJuyuxsLFpBzwSOfSvqj4WO2FA5AIwa+ZUsgDuX1HFfTnwrjKomBjBHB+pqJuyMlO70PtvwgxAixzjBrQ/aIvktfgdfRNgtPc2qKCQCCGLHGfXHNVPBsYBiJGRkE+9c/+11e29h8JdIsLg5a/1KMKoGAxiQnBI5AyRz7VypK5qz598K3lvd2CTzx4MQZgFUnDMQFGB1wMjPeugjtw14VKqrqoGSwChm9c9/btXJ+DpmurFW2gSKoB2nCqRjoe4x613umaYLj9xLGCJpGckkEnaQRn0rOok3d7HrYdXRv6XpjmIGDHmZCsp+YDYc5yccHOa7/RnVX8uP8AeuhLMxBwB6DPXFUjGZI4kt12EjYQSBwOpXHORnoajudRstOvbe0wJHwS+WwANpIAPYnqSevQV85iG27I/QcJFRgpM9F06WDcpkUuzgl1YAL1wCSfbmu/0+5s1RIpQrsHIYI42t1AwMcccgjnivmXWPiLbW+mlYJYo3mwrBQ37pAMl2Vjk5Hp061yX/DREWmRiG0jhu5YlKKShRJH3Eo5YlSAuMHHY9CeKwVCUjevjaadrn6C2+lacba2uUnMkbOJXIcEjaCAGHcDv3I4IrlNY8LukYfdCEKhiYwULjJO5VwMkDoOlfJen/tASi7iiit1nMzt5YtQEhJTljG9wQSHHOcAZOBXdad8fjP9rupred5bBiZCwAeCJSTtAyQTjGCB0zitnhppHGsZTlszt/Eej31hsbIu4rd90TyAiTa45XcSRkZ7irlhrj2oW3lmhCMgwAd7IAeBnIw3oAPauauPiN4f1NyUvi7jmfyFZwxc/LgMATIAQSBgADIya88v/FlpCZoLOcygMzHjGVByCDjOa5JprTqe7hJwk/ePsjQ/E0zp5VnEJo0XEZBDuHIO6QFyAChA2gDOecV61o2oLIsNxOJJrq1URvKBtlcsuCWUcLghmGMcc1+dum/EU2cqTNclJcsBvXLlm+82eeRnI9TXtnhrx9NJFHCkoggZkJBlKBzHyzRkk4Y8AZ4BJ9azjXcdGKvgoyTaZ9YXep2w2wQ3KwKgDMYxu8z7ScbSWB2Z24IHrnpVq61Oazt5oLlVeZWRAG6IVPJ25IZVGQQOhxXiA8VPqkUd9BdwMIoyssM5wQhyAyhQNz8gcnqc9BXOX/iieyjDmFA8bjyzG5WVBKuWbB3AkDrgkHjHSupVk1c8tYB3PWtf8S2EMttc6Y5nieMJsVmDkBgSsjg5BPAGACAMc15brfxDk1AH+03ilEEisEjDF2k3bt43KQWA4JIx3Fed634ru45dzXEkSyP58ZCDzDj+JsAZzn5j1yK8u1LxNbXdyY7kSw+U5YjcSzA9V5P3QeT3Fcs8Ty6HtU8LFJXR6re+JdRmM9zJbwJbYRmZCsRLNzwDkgLk5PT8qy7K61TVLuWS2uAg1Aqm9lXDRqMbQQBtKg/eI6DjrXPaLPafbP7RuZpJw8ZVC6ABs43IRyCpXgk817JZavZMk1ze3MS3ePNkZXUI1uwwECqMZxwSOOPU1MZykx16kKcNUaGladeI06ygtFENrzELunVB9xTg8AAgHrkj1p93prWkhLSkNLDgnZyE6hSWOTgEAkY4B71s2+t+Go4G8mf7QgDupTmIpExCtuOCcgdOoIANPu9btluofLWKIOpjUSFWyMFgwJOMHOMexFdqUrXaPJhUTfNdHkF/p0l5KUZB8m4lQMOCCe3U4965aazlCLGrOjlWJ3DBHpyexru4tXtruQrNhJppGjllkIQDClsg56kZA7ZHvWTeQQyRoIlIkZVBBOcKOM5z3HauWbaep6lNqSVnc801C0aeHylyuzkkng+uDXnV0i25fc5IOcAjPT+HPXmvXNRjinjLQOwRSwx0JHr/APWrzrX9NZP9IyXjc44zwR3wK66CZ52NTWpxbSWh/wBbuVhnAIOcnofSsfXJpZ9LuL1dxukiMZCEIUABw2CDk4qV0nWcRDKOSFAzgEE8Zz065JHpXN+K2u7aCfy/LkdXMIlUgoCTjcR3GMjJ717tKD0PicTO6Z5HqL29rdXdrbQpLNdWTEjaoAIBbeSQTuJJyOMgCvFWAY4UfL2r2DXYGN3Lq1tAojs8h3U48wlCAW9cHJHYgjNeTqPMQt1ySQSME9691Kx8g5ptoqFWDADgEc/WoWQgg+lauz09c1XdDkA9M02iHNIzzuOew9KYBhDj1qw+B09Tmoo8ljk8dRUFqaaINrEgZxzmvpz4MKDKgxkjvXzhsyA3cmvpn4MRHzoz6nmgzbTZ+kPgCP8A0eL6Cvo2xjxCv4V8/eAUP2eL6CvouyX90v4VySSs7G7aMXVo8ocnrXjPiOL72DxzXuGrKPLbP4V4z4hAIPPXNeZNXZpHTU8jdP3v3c80xocsOO9X3X9+RxgE4p7IxPFYna5aKxcsE5HH+RXWW4yAce9c9YoAASORXT2zBVH5V0Umc1TYy9UUBC3f0r518aglJcjGc/pX0dqOxkPNfPnjVBslOfWu+L1ONHxX4x/1sm7kDHH1ry8HkcV6r40TZM+8YB79eleZiMNyoPHtXfTV3Y5nJXKZJUFevfNIDnqDWjFb7iGODz0HvWvDpvzDjPfJq5yS0ZF30OYwPXH1qLrXV3GjebkAgMTn8K52a2lgfEiYBOB+FZqaezHzNasrAEk0+NGOAAQT3q5FbM5+7j0zVlLd1A3A5qk7jUkymIWA96i2MudwwTWqyMB0INU5lY8kYIplJma2cHiogCcHkY9DVxkYk57U0RnIGODWqWhdimQ6klf4vXnFOOFYDtjNX3h4/CqbIV5YZIFOzJK+C+7HIqIIOoOD3FSspzuBwD2pwJUAYzmizE3YSMHIXPfNeweD1O9CRgEivKo4juFew+DITvT6jrWc1oJNvc+m/Cy5RFxwOa+hPBS4vk49DXg3hdNqocV9A+DHH21Dx1ArzaiOxdD7f8EsBDHkcgCvoDRyCF9sV84+D7jaqAD05zxX0Ho0nyqWHXFcDVtDqO9QAAHrTzzUVuQy+wqWkbKLaCoHYZqRzj6VUd1ByKDYlBzxU20cVUWUE8cVaVt2PagzctCQ8UhOKe3TNRttAz3NARY08VCxyaSSUVB5gJ460GgN1ptGc0EgD3rNrUBQcVMpz7VSaUL9KYLgjkU18LJckf/V/QfS9XSTGGzz0rvrCfzEFfL/AIX8R+e65fnjj1r3jStQRo1yclgDivnFNXOhNXO8Zxt9KyLqXb061MbxAnfp2rm9SvUAPzY+ta3XQuWiLTXWDjJq7a3Ic4A59a4Y3mWC54Hc1u6dPvPt2NNO5mpWO2hJwcnNZt7JhWJ6elaNt80ZJrE1FgFbnHFM1bMM3AGTz1rQtbgErXIzXRUnOBjNOttTw4yM80EM9Xs2EmAoxVmZvL4NczYahuXPHTpTr3VRGueTgdqBF+WYK5BHPrVf7VhupxXEz65tlIYgGmLrSMflbJPagD1C3nVsDHJrSUdc1wWnaoCB8wyfeujbUj5Q5HT1oAsXM3l7ic1lPdDHOelZF9q4jBPGawJNaXBOcUDSub9xefN3NYl64kBbHaudn1tQxKnJ7VH/AGoJEO7HTpQ9jeC0PP8AxeM7se9fOHinIRufWvffFWoIu8E4yRXzz4ru4mV+Qc571ild2LufOviJgLnHTrXNoG9c1r+Jpz5+QOMmsi1w6ru4NdahpucDfvMimj4OODW/oVwIyq5AIPesm7QbQTxxVewvfLlWP3rVRVwPpbwxcbjHnnivXrCUNEVx2r5/8KXRATHORz7V7bpsxMXGDwKu1jMz/ECZib6V8pfEGE+TIe2TX1fq5MkL5Havl/x8g8uTJ4GfyFRZt6GkVc+DfGNn+/kcjIJNcFHpDTIGwSCK9l8Q6e97qJSIEhjggeldfoHw7nuVT90zgY465rlxePp4aDlOSR0QoTm7JHzxDoHlgMU5PtV6HRNzlUTr19q+vrb4NX10P3cBIbnpnH1wK14fgRfQoX2EnGeOBzX53U4ywcZ8vOrntRyypY+O28JrKnyJgjocc1gTeG5oJmWVTsBGDivtiX4S39mjMUyMdMZrD/4VvcXk3kyxAEHIOO/5V7mG4jouHO5aHNUwD2SPkgeG5pB8oJ9+tQz6BLCQSpGB6V+gejfBNpYgXjwSBjIqfU/gQsuQ0WeMjA6V5WJ43wNOXLOR00suqct7H56DR5QRLg8jPIpj2hYY28+or7I1v4M6hZK/lxEgDjtXjOo+Cr60n8maHC9cgEnj1r6jLs+wmKSdOSZyYnCVIKzR4jJpMsnQCsa60uRGbIwB3r3p/DkiqEK/KRnJFcrqeh+Vn5OCfSvoni4dGeOqbV7njNvaMHKyADnj3rfgtVK/Ljgmrl1YCFhtORnJHcVft4BsHvXoU5xaMJ7GcLTDZx0xyPrX0Z8Mrdg6DOOhrxRYQMZPevoH4bINy4ORkc1rUsomFN6n1/4QiYtGvfAFYn7Wukw33wy8PagCubPVooyjEgMsqH05wCM12Hg+AHyh2OKwf2sVQ/Dfw7bMHRG1MSb0wQWCEAEHjkZrgS1Om58r+EFSCxndWV28wyZhPyEMoAwD2BB4969X8NQsiy3tyoZxEWUBgCSD1w3QgZIA615H4Git7R7z7KweJFQggsSWIwRz39QK9R1jXJ9G8MukREUpbAKrgFSBkEn0yOlc1XS6Pbwq0uzA8V+P2sDIkEskOGBkVkAyABtA75PcDr3rh9JurnUHO2dn80tIqnlIyTk7mXn8O3SuYtPNvrgeaqExMZNzliRg5GFPHNeraLpcYti04ighb5pXOEBP3lye5ryqiUXpufUUJuSteyHWPgCHX9SN1rNwtxGJAyRMCgkYDAJZfmwP4QOMgZr6E0Pwb4XlWINpVpNJASy+ZEAFIU5KsTknPOTySK8A/wCFo/DTQpzHf60s0sPDrEGkHP8AtAYrtdG/aS+EkKhft9yRkIzi2kc7AQccA8dq4/8AaE9FoevbCpWbV/M96b4CeGtf0oQQCOy/dEbrVFid8gcSMwJODkgAZ714J44/Zq8R6Yj3UEt1rltbRtEAHJlWJCSQgYDAUE4A5JOK+iPC37Rnwf1J4IYfFcFoPKMe26geDOeQdzAZIx0HOa9A1XxFpGs2UT6fqX9owXJ2K8JLAo4wXABBBHqe2a3VSoviOGdGnL4LfI/JdPEB8EaibOWJku4QYHjmAMm1+cq5I2uvq3PYVmSeP5riaaGScpE8vmKwO8oMZALAng9wODX3b8Rfh54G8cRiyfSojIqY861IinLoSpk+bIIwfutwTXwD8QPhTqHgvUfLjkle3ld9qSRMsqxq22MscBX3DnKdO3FdtONOq7Na9Tyas69F2izodP8AGlwbhcTKASCwDZUgH25H1HNe6eF/G5YhHlYoFJjOBtQ5UksVydrYxkDgnJ4zXxXaQ38BCW8Q2HIDEAYx7n0r0zwytw9xDFchYg5IJjDEMcfxMwA6+hxXNXwcXrax6OCzOblZ6n33oHiW+8kb7xQ0eW2CNXAJyASwAIUDjB4PGaoaz4mubjFs6IEckBVcgRsvJdD0G4AAgcAjiuB8FW93cQtb3EBknERDCdhBGQFJRiAdnXHPXOKy/EUk8CFLmdTK8kqnaAY3LqByoB4A/izk9q8d0GnZH0axV9yvrXjeW13XLOfOaUhZHJZiNvzdTwQSQDivO7vx6tozSxS/vA4YCUhsMRge/I6k9OlcRq8ruWZZxKwYHc4yBz0yOhHYnkDg81xJjvtRuhbIDcTSMNgKsHUHoc9hXZHCwsm0eNXzKadoas9cvPiRfTs8GlXbRbsFZHdUwMYIAJwDnge1cZd+KPGV/OkERjknibcNrv5gPGTtU4bkAZxgda9H8D/ApPEM32g6mEhJCTxCNZWDt/dJwpAPTnJHIr6a8JfAj4b6NMJJrb7TISrSBlZDGiHO4MCSOSfkJxnrxXbD2NJ36nlt4iurSPBPDWja/rVlE2t6ne60shHlRwnCIVbLFyDk4bGMck8npXv9p4X+Lv8AYBsNZhi8i3hLKykE+UCNmVwSZEDYLDJOTkV9U+DdG0G7spLaDyIDYqHCtFlyGJKrwOCSeQM8V2viJIdPtnljhSI2wZCyq3mY24ICkg5xxg8Ywaxda7udsKCVonwhqNh4v8OXDPqAihtLdVniUHz5SjAkMFjxuDHBzwR6ACls/HS3SSW84CXDAO8buFKFeu09SGPJ9K9N1a9WGNore3EeeMqg3YHIzknnHXtXj2uQQ6rEbrebadixDOisQ5+UEAew5xXnzqxk2mj36dCdNXizof7TjvXL7BFMCCFkPDZ6lfTNU76I3lnIYRkoxwVHGT6H1rzmfW7mG52Tv8y4CyAkAnGDkHrk11mkaizMIGm8xJeAxHJJ6/h712Uo2OWvK8Wn0OIutIllv3WNMzspIHcFQSxP1FeeeILqV1awjcg3ATc5GfLBIIIGRkjOMdwcV7RrUEE968nMBX5VaMfLgdAV69ep9K8q8SQGDVLfVJUDYZC/SRAM4JCjnAwMjtn3r3KS1R8RiXZNdz5p8RzuRPeGIkRn7OXA2qfLXLZXJwWyCB2xiuYt4mZSWIJc5B7Z7kVta5HIPt85jUGV3aQrggZckfKOmM4x68VQsADEvr3HpXrxd2fGzTUmkyMRnpUNxEVweT9K1PLycsMEetQToQuQDWzjYyu+py8oKlwAccdadbKGHHP1pl7uClh1BNFmmdp6k81k1qbJ2RopCCozwc8Cvpr4Nxnz4x09q+eLZAAF7HrX0r8HIR9oT2pNWJvqfot4DT9zFg9hX0bYLiEZ5rwDwEg8mL6CvoW12iDgjoK5mirswdbbCt714f4llUZBHrXtuvNiM814F4ok+98x79KwlBbnSp6bHCLIHm2jjmr8eWIGc9hWFbS759pPQ11Vra7xufnPSvOm0dqfMiaElVwQPrWpFIcc9qzZoxGqgHsapQ3MrSLH2B61nGaTFKDexd1O5XyyuMGvDvE8D3W9FHXNe8PY+erZOQfSsC78JSXhYRD5T1OOtTicxpUYtvdEww0noj4a1/wZPfzF1GQBgjtmuRk8E3dkAdm4Hsa+8Ln4fMpHlrgn2rBuvAEixNJtyc5x/kV+a4jjahTr8iloe1SyluLk0fD8WhbiyhQrA85HIqddMaJhEc5HOT0r6A1/wc1rcb/LwSc59q52bwzMZB5MeQB0x0r6vDZ/RxNPmUtDhngZQe1zyJtG+YDHzE8Yp83g2S5tzOyklOea930X4f3d5IGZM5OeOMV3DeALmODy2j4II9a8zEcS4ejLl5tTsjl7lG7R8cvoOxWQJg44PeqEumtCwD4P1r6L1vwVdWjM0ceUxyMV5jqmnMuYnTBU8g8AfSvrsBmkMTBSi7nkVsI6b2PK7mBo+pJBPQVmSpnsR9a6q8h2AxYA5z+Vc5cDk9wO9fWpuWqVjzJLXQz/ACiQTnvUotxyT1FIpz0APNXo8AnAwfXtW8V0Mne5RaFvXpVSeIHDgEYrYkXjLEflVC5wU9qZKnraxiGPknqc1YhiJIxz64pgXDfjV6Bc9u9BoyRLdQ3y5znoa9e8IQldjHIORyen4V5gifvUPoRXsfg5FBTIPas57Eo+jPDURMaE9+a9t8MqIZgxbrgjNeQ+G4MxpgDtzXrdj+6AIb05rzZq52xWzPqXwlrKhYlDA4IFfTXh2+WRUy2e9fA/hXXmjuER2IAPevqfwt4j3hFJ6VxTVtTdPQ+n7G4RkCg4rSDDaeM15rpmtKUCh+OprpRqRaLcDkHvWKd0d0dka11P5afWshroZrF1HVgiD5uO9cs+vRhyMkimDPR47hSPTnrWxDIjKOea8lttfTePn4+tdXYaurbdjdetBlHc7gsuM5OKz7m5QIcMBWXNqOE4bOPSuYv9Y8sHD0Gtjp5LtR7AUyO5DZYNn2rzZ9ejJ+/yOozU9nrqk/Kxz9aBnqMJLtknIqeQAc4GAK5ex1UHBL896s3WqAEkNnjigCSa4UZJHFZUmoAHjjmsC91kZIY881y93rGc7GI5/CpeiaOeb5dT/9bW+G/jOOeCN2fccjnNfV2heJI5EQhsk4xzX5KfDfxTc2+1d5256V9meE/GYZIsuQRjrX5/UxTpz5ZIzVRXPuRdXWWEbTzj1rjdX1rYW3Njn1rh7DxTA9sPn578+1cpreviRztcYzXZSxMWtGdF09j1K01ZZn5JIr0PRJTJtx07V8/6Beedt56+le7eHTnZzXqQd1cOqPU7QgxAetc9rBwh9ga37T5Ygx5xzXP6yAEbnPBNaG8uh5HrF6Yep4Ga5+01WUzrliBn1q9rkUkru2e2KwLC1bzhnOaCD1zTryQoeSTj1puoXcvlnBPI4pNMhIGMdQKs6hav5Z9hQVY8i1TVZbadtxOPUmsiw8RSySkFuc8c1qeJNOd8hRk559647T9Lkjm3FDwe1BJ7lod9JIqHJzzmuua7kMXBJwMVxGgQuiJkcY4rtVtnMR4znnNAHI6xeyrGSGI59a85vPEUkZZA3I9TXomuWp2EEc9a8b1bTJ2mLc4PTFAbNFuHWJblyxYgg9M1ti+mRCd3auJsrd45Dv8AlOe9dNtZ0AX0oex1R2PPvFN/cSbwSeOlfP3ifUZowwLdc17/AOJbZxvOOtfO3i62cqSBzzSpmU3bVHimrXbTS4Y96n0/Ei4PPtWVf28guTv4Fa+mIVUenFd9tDjvrc0LuP8Ac+gA5B5rkfNMVyMdc8V2l3zEeMjFcRcoVuQ2O9KN2Uz27wjdMREM8kc19AaRJmHg9q+bPBm9mT2x+tfTnhiwluUGFzkdBSnOMU+ZmN32JL5C8DYBOR6V85eOtHuJg5VDznGBkZ96+2rbwlJcQnzQcHnA7VzuveAFaEq0QYHJ96+OxmfUqF5J3aPYoYeTaaR+beieA7q81jzbiLAQ85BxzX2R4O+Hlsqx5iA6HO2ussPAyxSriLbtPPHJ/Svb/DehLGiDGCO2K/lPjTiueIvGm7H3OCwyVroxNG8C2oVSYgBjHAFdBceCbRbcny+o9B2r06xsiNmegGMVrTWiGMhlOMde1fzvHOkqqc5H03sD5V1TwbbEsoQYxz8tYa+A7cOZBGMnrwK+i9R05C7sAQO1ZRslDgKPu9fav0nC57eg7SPOnQu9jhtK8JQ+WAygAY6LXSv4StHQ/ugcDg4rtdOsfl+QHBOSa6aOw3DkHivzvNc55qmjPRoUFax8x+IPBkLRnMYAGQcCvmbxN8O4Jrt3EQOTnJWv0Q1nTlcEMvFeNa7oEUjtgcHPAr6DIeJa+Hd4SZz18NGT1R+f+p/D3bKFjjyD7VxmsfDCSaL5EJJPGFr7rvvChaUYTAxxn0q5aeCEeL5kyPQiv2CHHNeMVJyuzxp5fF6WPyP8YfD+705TthY4OchfTNecpYyxoBKhUjjBGMV+vXi74X2t7CUEABAJzXyN46+ErWXmmKH7vOR/Wv27hnj2hibUa276ny2Pytx1hc+N5FMb+4xxXtXwvvGmvktlUs8jAKgGST6ADkmvOfEegXWnSgMhHcE9OtN8LeMdZ8C67Z6/pwBmtpFYK4ymzoePXGea/fqdZVaSnGzR8gqbjUSex+r3gvw5fm3ikuLdoJUIGyQYJHqBXM/tW6ELn4KRytlJLHU7KWMZIJJLKygdDxya67wn4003xr4N0/xJYTFEuQCMcMGzhhnJOQR3614v+1F8RNRvPANn4Vu0idTexzyTgEMyxZ2jHQHnk9TXFSrKTs1qevXwThBTi7o8B+HUTiC+JIwZU6gEjIyRg+g71f8AiDcS7Le1QBkALEYGMk46jjoBnPStP4bRSNoBvlAcTzszKVAGEAUEHriq+swm81KUSYKFiVAAIBH3QQexPWorS1uduFjzRseQ2Cw2eZ5CzueCSQBj39AK868TeI7fV9TTSHu31u6lIWK3SRo7WE5xulK8tgZyOnrW/wDEy38UeS8piWRckym2j2qi9AQB2GOSa8T0zRdVujIunYiduS0WeM8FSQOAe9FKEZe83qZV6koe4k7Ht2nr8HvBoW51kxeItSjBLKVxBER0EcQABUnje5Jz2xXe2H7WWi+G9sXhTwfayRjGcokYwBnA2rkc/mK+Xrbwzr2i3JfU9KmvYCCGEIZmB7tgDJGPwqp4jgs7zyJ9Ls5YmK+XJEYmUhxyTgDnA64PWup04Sd2xwxk4R5Yqx9i6x+3bceIbL+yfEHw/wBIu7UgKVkRXyP4uGQDOOhyOa8vPxJ+HOtXb3HhWTUfhxeSHKm2meawDDoJI85APqnA71846H4M8SeIL+LT9F0ye8uJS4jSOJjvKAswBxjIAyR+Fen+E/hD4116G5b/AIRrUZzGRGI47aQOHB5zxxkcDrmqlTpJbkLE15PY9R1D4u+PfDLqvjTT4tTtnBjh1Syk/dHdg7xInys+MHDkH1qHWvEt/r+iHVNNuJNTtkyGjntwixgjgBg5BJ9UG4elcxpng34/fDIS3CeEtVTSJ2Ins7q0aW1nQdVeMgjJHG4AEV6H4c+B0fxJWTxh8E7kQSWaiTUNDu3aKW0mOWeOMnO5GwQu4A9BnNc8oU1qmdMZ1ppxlc8K0q6+3XbMyNEXb5sMCgJ4GGfp+AJr6e8D+Go7143cyyAA7iwEr4PQjccEA9QAPSuNu/AFvDdpPOkpnZQzZQIM5IYbRyGUjB9OtfQ3wv0mSO3iyYpHJKkNuLgI3bjADDk5714ONxS2TPo8swEnK8ke5+AvBNrc6fPew2ssBlj2yLFECZQB1CsQF98HArxDx/bR2NxPdhHdogY0BUkgHgZJPJHt0r9A/BujW0ng65e5D7midlDKdiEkZ27epJ4Ar4z+IGmW5eeSdS2CQoIC4wcAsM8ZP51xOr7NJvVM96lQ9pJrsfCfii8gjuEW8lmi25DMiqjEgZwWPGAPem+FvEtlp1wBDbT3ZTG825TKRZxuZlORn1HSvStQ8CHVdVeOA73lIXCnOD94kHoQRxxXHa/8LviTosYuvC2lz3SliGlCIXRNpJAY4AGQcZOTjpXu4epCatc+VxeHqU5tpaHuyfGKygtDBqM8OnoVDM5uUlYhcbSFAyDgjIGSKxv+GmbRbqXRPCOn6jrs/IUW7fIWzlScoWcE9SwBxxXz0/gPTPCtqPEvxs1CQ3VzGHtdGgk3XkwcfK0p5EaDGSMZOPWubXxr4m1C3ls/BlvF4Y0pB5ZjslIldc/8t5SS7uR1OQD0xW/1Sm3dnG8bUiuVH6NeDvHnxt8QSSpqGo6F4Jtp13LBMpvLlWOCTgyAoQOcYwK9n1vwF4zvdGjuLH46DU5wilo1trJueeMBy5GPbIPWvwnu7m+S5Y3NxLLMBtMpkYsCOoz9OozUdhd6nDMJbC5lhnBwDG5UgHryDmtvq11pY5v7SSkkz9O/Fdv8bvDsT3Fnrlj4oWAklWtzazsp9SCASR7V5jpfxw08Xp8P+NNMk0W76KJTlMnhc5AwD2PQ9q+dvDvxc+I2iW6Xl3PLqdkrFG8/L5OecNyRjsa7zXfFnhj4qaK9qYhbaxGpaAMRuZxxtLHkq+MD06iuJ4aPNaSPeWZqUbwf3nvurWlvqFol3aOLlJAWUqQUI65GOcVieG9RuLG7GWOwEEAcgg/yr5/+GfinVtOQ6I0rG2uCViLDPkzjgRuCcgZ4r2zT9Ri1S6E9jEYJD8tzERjY6jDAcnjI4x1rF0nTdug1ivbK63PbdQ2m9ilClzMvIGMc9AR379K8E8Wx/Y9ZurezIUgOGUZU7pVAxk9OATg9ccda9thcXOkWl2xw8PAOcEEH8815F49t4f7SvbgIFuTsbJxvLFMAkHrwTg+1ehS7ng4tNJnyrr17Hb6WmmQr5RWcJKAAHYx5JLEZyCT37Vl6bllDk5JH05/pUOvTQy3ca27yMFLBmYbWJDHkj+XqKt6eMICTkkk17MYpJM+QqLVmqvIO7/Gqty3ykdquhDt64B71UnjZfUitG7majfU4+9GFI+tFicVYvcYIIplqAeg9qmKvKzNbaHQ244FfTvwbUeah9RXzPbRkAMg5Ir6h+DkZEkeeoxxTmkkZ2Z+jHgRR5EXHYV7/AGiK0XPTFeEeBebeLjsK9/s1AhHuK4y0rnHeIThX9B/WvnnxTIMtg9yK+ivEmAjjGelfPHiKAyu2FJyelYTaSbZonbQ880wPJckZ4ye1er6bpzmJQ3cVg+GNAeS4Mrx/KT0Ne9aX4WMsIKqSMGvi8bmFODtdaHt0aM2tEeS32juEBXqc1jWejz+eMgsM179feFnjQYQkY6d6xLTR3iuAmzAB5zXxWIz2KTs0z1YYSWzRy1lockpWNUzk5ORmvSNF8GbsblwCOmK7TR9EiCLIF5Iya9L0ywRUBxt49K/Gs/4qai05WPfw2B8jxe+8EwIhbyhkD0ri9S8JIqkCIYHB4r6vm0+KVDxnIxXB6vpaliAMAn9K/m6eeyqYhtM+rVC0bHxt4k8EW9yhVogx5wMY/HNZPh34bwyXIaRcrnoRX09eaIsr7TjjvWpo+gxRyKypnFfWw4lrUqLjGTRxywsXq0cJpPw5sEjHlwAZHTaP51o3Pw9so4tyRAHB5IzXv2naSEUcDGKtXGlIEIIyMGvgavENWdS8pM7IYdKOx8N+LPAFvJGcp16YAFfJnjr4ezxzubeMgk54FfqX4g0WORX4H0xXg+u+D0kuWYoGBOBnmv2LhjjCvhpJ82h4uKwSmtEfmJP8LNQuIzcOrHJIAxkV5xrXw+1WynZTCwTqCAea/WG28CJIWSRMoTwB0Bqvq/wmtL6DmIZxX7fR8ToqaVRHy8sllK7R+QzeHpIcb0I7cjBzVebTTEOhA65xxxX374s+CZi82SNMEEkAen5V83eJvA17pyNmMsFyOelfsOT8XYXHtKMrNnz+JyydNu58+SDy+CM59ay7pht2rXT6vatHJ5YGCnB/CuSnDZyeg/Wv0+FRSV0z5q1pWaKij5i3bGK0LbB4zWSu7ce1XrZyvzY74/KtU7uxtJ2RuRDLDHrXtvg2IMqeoxmvELdiCCQTk17p4JzhTj0rKb6GcW2z6W8NRuY0xjHFekpuWILng+3tXB+GFHlpx2FejsB5IZeCB3rgkd6dkjnYNVmtbwYJAB4xX0l4F1uaZE3McnHevmeK18+84GTmvpLwLo7xCLaM5HJrmqK6No6o+mtBuJZUBycECu7WRhBjJrjfD1hKkaqRziu9W0k8onFcqR3JpKxw2tXZSLcpIA6815BqfiGWCfy0PGT3xXrmv2jshUArzya8N1nRpp7g7VOAaCXJnVaLrL3MigMcg817Dpb5RDkkkc9sV4t4Z0uSB0JBJzwK930q1YhXZSCaAjuW5JPlI7/WuB8QXTQIxUkcc816VPZN5bEA15v4hsZGR8jqKC27Hkl5r7QTn5+ewJ6kVtaJrUlyep3ZHHauO1nR55bjzMHCnOK3fDVlNEenGRx9KCOY9psLuYAEk5OKsX11KBu3dKp2ETlV47DvUOp71ByMVDdnY0TurnDavq8qTbcnOT3xWTBqHnsVkbAzgZNZuvbjKWGc5NUdLjlkmTeo2gZ9zQnfcwq7H//X+JPAkcgcKeCOtfTPhx5lKFSeMcZr5u8LBoAhXknHNfQmgXEYCsTjIH5ivzXNopu6PGTd0eyWup3MY2ByM+vSsy/1t/MClySDg1XS/tvJ2qRux1JrgNZ1FY7r5TwvXnvmvHw7ldK52KbTufTvhLUd2zkknHFfSvhmfcEJOM4NfEPgvXInkj2nDcDrX174SvBIic84Ffc0ZPksd8ZJpHvlo+YBnuKw9Zb5PUkGrljMDAvPJ4qhqoBj/A11Rd9zuUU1qeYahEJJSnqKsaXpiFwCvvTpuZmJ610+jqpYZFWQ0kzrNJ0tMDgDAqzqOmL5Z+Qc963dMCgDGOg7VYv1Hk5xzQI8K1XTY2c/J3rBh0dFkOFAye9ejasqgkgc1gWygzAEZFBmb+h6aNq8Z69K7ddOHkEAY49Ko6JGoxgdq7EqPLGBzigaPK9X0sc5Azg151eaPGxYlBXuOrRqc5HavObtF+YY65oG0jyt9Gj884UZz1reg0ZVjDYHStRIl88sQOK6OJVETYA44FS2bQeh4P4q0sKrYAH/ANevnTxRpa85XOM19deKl3RscA8nt9K+cfFihUds4ODwBUxdmRV2PkjxFbok+1RgAk5FGmoPLG4c+g6Ve8T4M54454qHR4ycd8ivT3hc40W7i3JAGMKc5rkrmzZpgAOpGPrXqL2bSIoA4IrEm0eWSZQFzk4FcM8RGm9TZwZ1vw90qa6uY0VTkHGOxAr7l8FeGhEqvIoHA/OvC/hX4e8gRSyjPAJ9c19kaDAghCADAAPFfkXEnEvs5OEGe3hcDzWlY17TTI1i5UYIrH1PSk252gmvQYEXyMFRwKxtRUcDaOK/ljOOLVztNn3VDBWinY8bawjjkLYxzyBXTWKpEysoHTFJfqkUpOAB3qlaXAEgHvX5Lj8wliE3DZnp00k9D0ew2sFJGc1pyqm0g8gg8ViWDHYtadwWCZU1+dVV+8PYT0ON1fAzg4zxXJpcLvKtyffvXS6sScgnPNcLNKBOd55FfW4Jy9m0mcdVWZ3+lsAQM4HWu2jZdox6V5lo024hgc9q9Ct8Fc5ycdK8HGpqWrOii9DL1VEKH1zivNr6FGbkcgkV6LqLfK2fwrzzUJkHDdT0r08vukc9VvmOebTFkn6bvaupstFRYgGAJ7YrLsJP3xOM+9ej2CKYUKgYI5rvxeInBJJihre557quhI6H5RnGK8Q8WeEoLhXSRAQfbrX1rfWiFdxXg15fr9kCH+UHsM16GU5lUpzTTZz4immr2Py/+KXw8jFvK8cYJBJAxXyNrnhma3tpZVUggEEc9MV+rnjjRVlSVSoBOTnGa+XPEfhBLnRtW2xDzUglIwOeFzxX9z8F8V81BUajPzzMMAnPnTsfJ3wD+LV94PmvPCt3ceXaySGSMSAuA4bDAehAwRjjPWve/jbeR+JPDlrfWThY95kkLElmBAGfQckkfSvi/wCGmmC88VXbTg7LSC5kfIyOmwD6kk89a9cl124fSj4QlJuUnkhWJmOQqltowOoAzjj8a/oZQSakup50Kn7l0mfVnhS2OkeENPV+Nturk46mTJGMe3rUNpZSXV08cgAEnBYYGQfXFbd4FtYktYEAjtkSM44B2gAAfiDVjR4t8gVEJd2GcYwoH3iSfwwK4MVK6aPQwVK7SNc6Np9np4Z03xZCsAN+QOoIwcg55rmtR0OwWxng0C3trOZyQNqrEXVgW67SBgj8K9L80oAkDMiv12jG8D1HtVldOje1ktJXVmuFIzkEoCQSTu6H6dq8OOJUG0fXywUZ2SVj4kt/E3jPQDd3gtbllP8AoyvHHvU7TkgOAR36gDI4rr9F+McNvEYdV8NS3KrG6RSm2JKNIMb8beSeck9MDFfV8fg3RrzyYRGoihIAADFWI7HBAx3z61sw/C7RpFKNGI1kIAKgKpH90E5554Iwat4yD3ZMMulHVJP1PGvD/wAe5NPttK0zSvDDQW1ioRXWCOEgE/vGMj4wTkknkkZArv7r45+MfEOoLHYXsVsX+SOWFQ7lV5U4jCgdMEtkmuui+Dfw+jkDvp0Mbo43s6sShA4LPKQPfIBrdfwP4Ml+zSWdm810zbY2UhIQyEYwgALYx1Ixg1DxEZbG/wBXkndpGZ4V8Z/ETUNSF3p8tzNLC28tJKskZODuJjBAGcdMk+orr765SPXdH8V6hYWllrZn+z3NxCqxvPZHd5izhAA4DAOMjIPAOOK7C30ia1hiknc20tqd4gUAhgQRjIxxgkYPIx9K4bxjA8drHPhZURnlJj+8E6jIPJG4jA6joaPb6PUpYWNSabVj5p8a6YNU8SXk8MaKZJXY5GzJds5HbnPbrXoXgfQ7e12wON0ilSxTAGB1BJ4JP86yUtReXrPlpAh5GPuljxkHqc+le3eFdMaKaLzVfdKB5UYCoxkPAQEjqeuD16ZHWvDbcpO59PRhGnC9tT6T8B/2cvg/UraSMJcRqjbgymUAgHgZwVDkBiCDivjj4gaJbvcXNq8TFo8iRSBvAPcgEgZz+VfbWhy3D+ErtopIY5JQzywMMM4AKNHhCQSSBzkAE18z+N7S2uLmaeWSOBHYOqkYJUgDaAoxwRg8nmu/EXUEzxsBZ1Z22ufKVv4feCS2jjyGgkAUkZABOABj19TmvpPxJZN/wjWneHtFEel3GqBI3umRZZLcruLzJFnDFAMKD1Lc5ry26tjZXQeErgEkggkkH6cfTjivW/Buox6l9neXdJHM3lyqgBcDaRlcjPAI4PAwDXJhKrUrt3udmPw96d0j5y1j4DfAOC4lvL/RNQ8U6o4DTS6jqMkc87sfnOEIVSD0XgZ4HrWbpnwn/ZUvbprBLbUPBWosRtD3siEORjaI5QQ4B6HODkV9u6voOk6rYyRavAEdCQWEQLEhdpBA5Ck8KT06dK8H1z4HWU0Ez29y0cDqwkCFbmydXyDujbhWJIOVAIIHOBX0qxEt+Y+U+qUrax1Z86al+wd4b8Va7DceGPiHHLb34ct5kADqyxswLngABwATg5B4rwzV/wBiH4jaLcac1hrOl6lDqEjwLJG7IA6khgwI4JII9ute8678APiToCteeC9Ua0Nuvyxh5XSc5PG2QkggE5CHZnp0rgJvDn7Q1pbhJZIrlIpWbaHMbb35ZlGDtyTngiuuOLny6NNHk1crpOV0mjzu6+CfxOOnwaZHd6ZpUIR1EKyF5P3RKsCSDk8E5HauFtfgX4jsWSG1Md+8rZUxnBjI6OrnBBB5A6e1e9S+F/jNPd276vYiINlfMiaOVySQMgqwOSPpXrfgDwXq2kWLXOqo73TRlVLFchl4IIycH2zR9fmnd2NIZPSbdm0fGi/C3xxo2rHUbu3WRJCu+SJsFyDwWTHB/vGvorQtGeHTgL63WGeRVEjx8M5UYUnHUgcE9+9fSI0q3ujF5iMWADNkD5B/dA6celc7q+mRw5KZ2gHJI5x+FYvFuq1od8MvVLY43R4RPp08OFJRg2CMBQOPr2rg/Huk3eo6/b29qscsVyqEFyFB2Drk89eBjvXpWkWojeWJhuSQEqevNU9S0qTVfGGgRW+d6qRjoEVCSSO2ckf5NenSmmtD5/FQeqZ+cuvRyXviDURFHh/PdNqjBBVtqhVwM8AdK+lPhb+zX4w8Y2C6pqJXRrJ13J56EyuPUKDwD1BPav0Rj8KeHxHFe6hYQGe0BYkxqWOOAd2M5J5znNW9d8ZeF/CnhybVtWnW2SIFm3HgKOQCOpJzwBWk8Zyqy3OWhlcJrmqPQ/Pf4g/ATV/AlomomWO/sWO3zYs4Df3WHY18+ahCkZK4wBwK+g9Z+ON78Qr3WVto/I0ZNohjYEM5H8bfXqK+f9XlLMXHGScCvRpTbimz53E04U6jjB3R59ex4Zj/AEpLOIbwcnoKvXeCCX5HeqtqVV+OAcYrpXc4pP3TrrRAGTAyMc19P/CGMedHgckjn2r5osgNoPXIHFfUfwbRpZ4to4H9KibvuSm7H6FeBlxbR5GDgCverVSYgMdBmvGfAtk8sMRAz06A19E2GkMYg3PIHavPliKcHZstRle1jzTxDbsySEc4rye40ZrqYNt5J6V9F6zopfceeK5+20IeaGI6Y7V8rm2Z06VJtM9HCUHOSTRzPhPwswGXQYzwK900rQ4o4goUACjQ9OWNQpAwMdq9Bt7YCMYAFfyZnXEb537x+lUcFZLQ4TUdGVhlQAAO1cDPpKxXBYJnuc17feoBHtYDuK861DakjNjAHX6V+c1M/wCZNXuegsNZ2aItKj2IOwwc13NggbBGSMdDXn9lcxiQL2JwPavRdPZQgwcnHWvyTO8dOq2uh69CCTtY1fLURniuR1i3UqWIxjjiuxP+rNcZqzMQw7c18jhG/aHbNJLQ88kiXe2BnJ6102kW6sQCo+tYoYGYqvQHkV0ukt8wB6A8V9NXk+Q4lq7M7myt1RQMVPcRr5Zb0FNs5Btpt6wEbc8ng18dduZ6CS5dDgtXhQPkjOeDXnt3YRyPkLuBOee1egaxLyBiuWjcbznoK+0wc5RjdHmTi29Cjp+iqx27Bg10h8OqyZKg4Gea3tHiR9uRwfauuNomzgAgiuLEY+akXCkrHzd4i8NQyq/yAk5HIFfL3jzwRCyygwjBU9PcV9/a1p8ZQkjBya8E8YaOk8MoUcgHtX6Lw5ndSlVTTaPLxmHUlqj8lfGfgiOHUCIkAGP8a87v/BJeENtGAO3evvLxT4Glu71n25HriuIvvh7NDBhIi3Hpmv7XyrjKmqMeeSufAVst1bsfn3f+HLmzkZlGEAJxWbbQsM5x1719UeJfDDW/mB4iCAeo4rwnUdMNvMXAGCeRiv2LKc2hjIqSaZ8niqEqbszJgiBIHfI5Fe6+Co9hRSOMjmvG44yGHHfivcPBik7B1AIr6VpPU4Ybn0x4ajAjQ9elehMyfZyNo6VwfhxCIkx1Aru5IcwBs84B/GvPnueguhm6PGr6so7BunavsnwJYrLHFlBzXxxocZ/tcc5+b/CvtzwErBIQOBgVzz2N4bHveiacqgbV6YrtlsR5J4FYWighAT14rttq+WeOCK4zoPMtZ01SjZA5NeT3mmIszfLg5Ne8awAAeK8h1If6Q3sTQRcZoemRFwNuSDXr+laeqgYWvOND4lTHc5r13TM4HtQNN3JprH90flHSvPNdsYwGJXmvVpmOwjPGK4HXeUbNBputTxO+0yLeQVznmptI0hDKCE4q9e581x6dK2dCDFvbIoMk3ex1lhpUYQfL0GKqanpAYE7MYrt7BRtGRVbUwCh4rKW5tK6dkfOOuaSqzHK8ZNYkVokcoCrg4r0rxDGm/p3NcXHG3nj07U4kPU//0Pirw3cx+Wvl8/WvYtFuCAN3tj2Jr5n8NXksLorHOBwfevfPD2pxmEZ5cD9a+JxmHbdjw721PSbi5aKEnOHAyK8+1S7ZpS7HJJ5ANdK0rNEZGOSRj8K4HV2YAsDxnpjg/j2rioYOzLVTU9U8Bam4ukAbjcOK+7fA96ZIUweeK/N3wRevHqKHbt5HGc190+BtV2QJjGSQa9pw5dEerTndI+vtLmzCuR2NP1Rsxn6Vyejam0lspJOcd6l1TUWaM4PaumGx6dPYwrgZkGDjPU10+jkIwz3FeeHUdrndgc11OlagGK4IrQJbntmnHIB+lT3v+rPPFc5pl8dv5EVc1C9YpwaCDjNZ6v7CuetCBKCeaTV7/EjHIPNYcOpBmIyM0EJHsuiNkLyB1612Lf6scg8dq8t0O+O1B3wa7qK+PknJ7UFlDWPuHHXFecXanLnNdVq98QDkjjNefXGoxiRvm5xTsSyJf9ZXQwjdF9RmuDk1IGY49a6C11BvKPPXpSGnY5jxSoUMMDFfNHjFtuQOODXvvivUOGyQMV80eLb0Yfd3zSjC8rktnzj4odTcjI5JP40uilWZMDAHYVleKLuNrkngkHqO1bXhSOa4njJ54rtqPkp3M1q7I9Z0zRZbmASFSAfu1pr4cZZ0YrwDmu50KxcWSb4yTj0qea1mSYNsIAOcYr8izPMJXdme9QpLqeieC7IQW8Q2Y45NfQGhyBEwMHAHTivB/Dd5tiCyZBA4Fep6LfLuGCccYr+aeIcXWlKSifZYaEIxVj1uOXcgC8cc4rJ1F1HfOBnFNt7l2xuHHTJrO1O5dA23v0NfzVisJiamIu0fTXioqxx+pMZG571UsI/nX696ZNMcneMEnrS20pyNvPNd8sNVjCzRzqSuejaeQeMdK07j7remOK5/S5X28jFbE12BE2RnFfJ1aFTn2O2E/dZxmsY5x7159dcS7sZ+veut8QXRQMQRyK4g3Mcjktgn19K+rwVJqGqOOVVHZ6BKgY8AHsO1eiQDMYZTjPpXkWkXm2QBSDz2r0i0ulKdRmvIx9J81zoo1FYj1MYRskivNdRUs/XIz3rttVvFUNzXn17eqT1BOa78BTdkYVZJlixkRJ8NzmvTNNlTylC9xxXjsV4POB3DHSvQdKvRsT6Crx9FtE0pJPc7K6bfFj2/lXm+urgsD3rrr29EabunGK871TUNzsOvSuXA0ZKSaOmrNcp5V4l08XGU25J74rzB/Bxu7G9Cpl/LfgdWBU5Fe26hJHIjFuAe9J4aEIuCCAwyDjGSRyMfqa/V8vzKphIqa6M8KpShU3Pwu8HxQ+Hz4p1C8i+eS8+ygHqEjYu4B7dhWhpet6drvj3w/ZJbCOVLhDGAch1Vt20+nTNeg/tSeEh8PPiLrOgW0Zit7q5e/jAHDpcKM49ea87+BPh621rxheeIL5S0Gg2rXCqDgNcP8sYz1xgFsd6/0fyvHQxmCp4mHwyR+bVaPJVaPrq8vjcBySzIzliuOQSxzz7YrT03UI43ZASDuAKqcnB6kk9B/OuWNwvyMxDy45OCFJOSTz2B4+tFpdzzOY4QGC4JKr74GD3FRiHo7H0mCauj16PVNhiZ23RnKgjrj29K6qzW3uREQDvUk8gvgDnJH9K8l+2SW8q218Ggb7hyOUPBBC+nPWu0srrcrb3YGEjcSOvv+NfHV27n6HhrNI9TtZXkgLwOkhGAEzsBDcABfTPaumsbMuRYRkIcY43Z3p97G3nnNeX2et+UWiV94JBbAwEBPBYnqB1I716HpWotte3iCIwIyQMAk87kZeSCOMDoTXFq2juaVjtINMtCT9oRZd+FKyOwIA6gtkgA+5znHFdJbx6dpsTyW0Txqdpwq73c/wAKBicgZGM9CPpXJ6dLcRlLqeWQMpLABwcqDg788kgkYA5xWw1yvnC3tp40hiJAIYqCUAYAg/dyTgc8mvQp6WPOnLWyLt1N9pMV1vEVzODLskBYRnJ3AscHfjnPavH/ABPdrtmbYJSQZSQS6hHO0kA8jJGSPXmuw1rWBpzIZYhGuc7Fw7h34UkcknBJJHYCvGNSulvtVklWQyhSVBOUDjtkdie9VJ6sujDW5c0KzNvIlxLkhnWIqDggMSM59sZr2jwTA10Uv5WEcSTROJtgG+QB1CZPALDGR3BHcCvObG2W5QqoDxQqHCk5BdupYfTtXpfhqDyZLW1jkARCVTjci7yMuwPGSBj6c1lTl75117tOx7rHDqtppNvbRzN58MaNIZEV2BcbgoC8k5BUEnIx6V8x+MdRcXssM8creViFgAqlCPmYllxgjPavoxbgWVlOsDgu4e1At1WTBxhWDMTnIOcdh05xXzd4u2pqN1Gp8tp2PmrngSAAYOeQDxjPPNdmKfu2PPwUGps8t1VVfy5N7GXBJwB970OOeld18LrtIr8kMIBFGzFyMnIIY/Ke5HA9R1rlRaWwkkknJDNkEDop9/bNQeH5/s987NtSRxsDBc4B6j8a8qDsz360eam0fVSz201uZZbZHSVuWJzzneRj+6ByR0rK1G1NvJLJZSgghiLeQeUvPzLuYDCnaBgAjHes3Q7q3u5ZbfzY4IoxhUMZBwcAkDgjGOR3rcmukktfIOQVwC0qYDFwf3hDcAkZ5I4HNerdtI+aUVF2ZzcJa13RXURacAL+8w4cgY+UDgYB4PU9azp7G3uZPmgKBOVIUsW7HKgg4H1xWlLaxTpFdR3QRAoQmQMyKi8LxkPtA5BJ5zzUd/ZXCBYItRinCnYPNiVMqwBLEliQAef1rnmp30eh0L2beqOJu9FjJ8lEUFyQSxIwAc7iD3rJksEtoiYYxkEnCcqcdTjpz1r0G9u1jjVbxo5HkBGVDEkgc7uOhHAPQiuE1S6B+SKUIwJLkDgn29q5G2nqzpp003oc3NtRHuFAJcgEMwyCerAVyd5NI0MsU5IIypwoP61v3U8SncTvY9sf4VyV5Mqlt5GHzjBJwR9a9XDTbaTOTFQsnYwLFjb3YBVlXoDjGQelakcoGoadfSAgWsrAgKASGHduuCQOPaubnlKTopc7+SMk4BHpj1qPW9Rkg0mS6hwptWR3wCQSCeWB65JxX1ELuFlufG1WlU1PS/GHjr7FYfuZBboykOFC8gc8nGRk9a+A/jV4y1Xxrp/2nzWFhaThRGCdpIHDMc8+1dTq/jO88UeY0MzfZi5VsFRhhwwIxkDiuJ17TYbrwjrFpEuDFAZo8HgNG27j6A1pQwz+KRw4vEx5fZwPPPA0i2ulzSEDE5OB6YNP1Rsg44yCRSeGo2i0WAKCS2SfbNXpdMluSDg5Oe1fSRWiVj4Kq/eZ57fTfK49AKpWk3mMBjjgZru7jwhdyknBIbpkVBF4QuLdg+OPTJHNVZ9jklKxPp7jKRjOTjBr7V+BmmiRoSF5JHSvkLTtFmNxHGqYJI564r9CvgFogtY4JJUBIxk183nGOWFot3PQwVL2jPvXwFpHl28QZeABX0BZ2ccSBSpJwOa818HiKOGNQADgV6/C8YjPqa/AMZxM3N2Z9lRwPdHJ6pYjaflJB9TXPi02EZGBiuz1N05JHGOK5maaOMA8da+GzLP5zpuNz06eE5Hc2tKVCBkA/Uda61JR5XTFcXptyjYbtXSrdfu+px+lfzFn2IqtNpM+xw8UkVL+T5MkZ5rznVph8/BGa7PU7pBGfxry7Ur9SxTI9q+Zy91GtTWo0PtJQXXjHNekaXIdv5V45DfKJQCRgHkV6fo18hRcsDxV4+i2rsVCR27S/Ia47WXAjOOD61vyXiGI9K4nXNQQoQGHJ4rxcJRftNjeqzmFk2zkj1rqdNlywwMd689a7BIyeM84rb0zVYhMoDZ5r6mth247HLGauj2Gxk+Qd6W7lAQjGeDWLYagjxg5FNvdQVFOCOBXx/sH7Sx6SfunNavMCenYVzUbbpdoHUgUmp6kJJGBx6VUtrnc6kkZAr6+nSkqZ5rkkz03SGCgLjIGK7GN/wB2K8+0a8TjcQK7aK5j8vqOa+UxUGpnXCpoYurYMZ4714/rkKyMUAGecnHWvVdZuY/KJ+teYTTRTTbe3Ir6DLrxVzlryTVrnm1x4eiuZ+UznrxT5fCEMsRHlcY9BXoSWyM4BUY7e9byW0flgMowRX1M80qKyXQ4lSTWp8N/EX4co1u8kUeCQScAA18BeO9BfS7h8qQAecmv2c8X6fDNbuWQHgjHtX54/GTwetwZ5okCgHOfQj1r+kvDziSqqyhN6M+QzfBwcW4nxVEFZgASMYPNe2eCzym08EivHRZTLeCIjbtOD9c1714I0wRxh5WIweBX9sU5c0E+6PzNKzaZ9DeHsmKMZxnArupY3WAE9AK4/QI/JRDgsCBg+ldw7gwgDniuZwbZ2XVkZnhyPzNYRf8Aayfzr7d8CptWIemK+IvDrA62PmwM4z+Ir7e8EXChEHoB1rmqqysdENj6S0cDYOB0Fde33D9K4TRbpdox6Cu1W7TyecVxHQc7rIG1uB/kV47qX+uf616lrN1Hsbkda8nu7hGmbp1NAG1ov+uSvXNL7V4zot3H5qrkda9f0y5QqtBKRvz8KfpXBa6wCnA5xXZXNyuw4xyK891y5j2nk5A7UFHm97/rSfUV0OgDv3zXNXc8e88jitnQruPcFyM5oJ6nsVn/AKtapal9xql0+6jIHIqlq9ymCPaspJ3NGtTybXjukK9wcVzcEeZxmtrW7gGYrjjJrKtJo1lXOPSnFO5J/9H85fD7eaUVjtIxj1Ne0+H4yoGT75rw3QCBKiRHOeDkZNe+aCY4Y1MvPArycTOPRHg2fY76JGeEEHIxXOalEhjYN2/nW+2oRJEAowMY4rhNV1A+aVPTNePTnq2Jp2NXQsQ3QkBI2kEY719a/Dy+llCFicEjrXxrpF091fRxxHABGcc19l/Di1by496kAYwa6HNM9XDptXR9aaDKPs6YHUetaGpbvLP0rP0G3xCgycgZrW1CNwmQOxpxase1DY8uupiJWH3uegNdVoUx3KOccda5+4si8znByTXR6NbGNx1HTg10J6Cluew6UxKDHTAq7ek+Wfbg1S0pSFC+wrVvIsxY6Z5rRMg8Z17dG7EEkZNchb3D+YRk5yD+Feg67ak7uDyTzXGwWDLISQT0H5UNgeleHZSURic54rvkf92c/WuA8PwskS59a9DhiJT14zUpko5PWc+Wx9RXkmpzMrtt4xXsetJ+6bjnB4ryfULVpHbYM5FVco5i3kdpjnJzXXxOTEv0rl4oHhl2kYyeldXbwkoMHt3pPuSzzbxSzbHzzzXzZ4xdjG6gduv1r6k8TWbFW46mvBtc0QXsoiYZOenSsZVlTTdxKDlsfMy+FL7Wr4YTKEjtn86+m/AfwuWGFHkQZ45x0rpvCfg1YZQSnXk8V9I6DoawxIqjivxviDi2VObpweiPfweAb1aOT0/wktvahSMgAAcVT1Pw4qqTt5IyMCvcfsCCLbg4ArltXshg7ScYxX4vXz+U5u7PooYRJani0Ni1o3JOQOMDiu70RslfwJqpNZmQnHfjntW9o1osDKG68V8tmeOhbmdjuhTa0R6Hacxg/jWdqefLOO3FX4j+5O04xWRqkoCH61+X1Myp+0PW5Hy7nm+ozOJdpOACc1Jp97kquR16mszUHZ5W5yMmq2nLKswIGQOTXpPF05UndanHGnK+57Lp0yMq4OAa1LkARNyMYzXM6XLmFcAZxnpWvcO4jO7kEV8dWxNLn2PThF8rPP8AX2XLFxx715he3ZSYhDjHpXo3iLcwOeQfTtXmF5aSNOSOle5hakJK9jz6qaOo0GUkhiTkEfrXq1nIuzHfvXkmgxOhBJxyK9Rs42IznGa8HH8qnc2orQzdWQsrbCTk15pqbPH0PNeo6kwVGGMnnj+teV6ksrP8yk8kV3Ze4tJNEVk7aFCzmaS4Xk46mvU9KzsGOoFeY2FsRMCRXqOkp8g5zkVWZNdNiaSd3dF+9LbCrHPFecaq4R2yO1enX6HysbcnFeZa3EWLZGDjiuLANXR1Vtjk55Nygdj2zXQ+HbRRMr9MEZrkpNwcLg5Heuw0GUhgTznvX01ZWpvsefFpNNn5hft/R3S/FixlkPTTYmXA6gMQPrivB/gokltomr3MXzzSTJuxwUVVOCPTuPxr9Af23fhXqfiaDRvGmmRm4TTrWZLqNOWEQYEMO5x3HYc1+c/gS6l0LU7uBdzwXER3ADAOTwTnsecEV/oPwNXjWyKgoapLU+JxcWsQ21ofQUpe5lVYiounXhjjJB5AGSB0BJzjp1zXO3d1ujjVCEDkjBBAwOCTyOfaop76Kz3y3MSyF4wkTSHLoxxhtvIIAyOQRz64rmftaSF48hlXIJJJLN6jPQemK+3q009iaM1FpnoGm6gYgIWDIDgKQA5ccjksTgDJORk132kXr3CgCQtHAQrB2Klk9AOh+uK8f027ltPszYiXghXI3Eg9RjkA16TpeqzW7r5pBfg5kQEbO+McjivmMRRuz7nCV9Eevadd+eQkm5kRQGiHPfg474969R0WX91LHc7S6ICpB+cZG5dvbI4yPwryTTNUtIblJZAVDYy0eMAe7HOQO/HSu3sdQks2ikMaCWQMpym6MoM8lhznkYIrzmlE+jc7pXPX7Rp38tdoxIiByxwoDEBt2OhI59q057mLTtivOrFGCsoJQFSwUENkAgEgEnnBrgdL1eeINYPHEMqWG7dtRTzu3euccHt3rn9W8VmEwWS3fkFZCGZUKPIrkZUtJlRHkDoCD3IHBFJbdTFQ6Ffxj4o0vT7clWXcSwaQFi6fNhQvmHI5PA6Y5HWsvwlptxdQm+nUr5m5vmHPtn3PWvMrBLr4g+PJrnUJlfRNEOSQQ/nXAACx7uQQgwxHI7cV9MW32a0sH3ONowDt7kDAx0AAHFOrpZPc6KRjabNOL9LQlCgYM3GCTjA/Pp7V634esLjUZ47aB1t5JWEYLZVZCBkhnIwMDr69K8j06aBJHZwrESEuGOCQOg7V6v4T8XJpksMErxyLGAYlO6QhicsQuT1HHByBWMV79zeo2otpdD07xDpev6bbCaeKMWybCzohCRE5wPMjJwSTgEjHArwTxc0b3LyPtl3MEeQg72AHUnuegJ9a+xfEHxA0jWdEls/skEFqcArDuV2eIBzGy8AkHBLEEYPHWvj/AMYyaXPcvcac4m+5G5jDLGSB8wAbGCGOMDt3r08XTSgmnc8vLKs5ykqkbNbHCrp51HhnMUSdCDg5PTJ71xN+lxomrRXUpKK7gBup5IB3Z4zkV6/o2ly3JdmGJgAmVI+QjJyQQQQMYNYniTSI7q0NrfAZkBAwMYAXgj0OefevJjFp6nvyTd0jpNC1tLu3jK3BhkmDCYyEHd1VVDkEjecknGSCMda9DglEFrHd30axMUAkaQly7oT0jGeNuBk4GR718k+FNauLTUJfD2rspNlLkknBmwuBtBPYAEc8ke9fQmnXsN7C62e6Np1CFd6+a2fnOA2T0HJHQdK9NapWPCnTabSOnuVuZY3NmDKk5LmVQAqxg5VT3BxnjHBrk9Qnsh5ksU24QjAZgu+QqduMdWJJwO2BW7JfCa2ht7OLZOSjKSu0sp+UYUHHYjk5PXIrGZAPIRQ0b2lw6ySlVZcAEHGeucDIAOD69adjHla0Zxep3N0X+wPGyTnEYWRyQFxnDY4BOMjB9q5S7ZbCRo12xFAUYDJJOeeuRx9a3rzUQsg+cQgAp5ZTaMqCQx5JJJOfWvPtTupIQYTIERyEIUZzjvk859T3rjqpHoUm0rla81OLznYtgIx8tcEE+mD0rkdQ1eJlKRAFHBDAnkE9ee1QapfyPEYmLIASCoYZ46H2B9K524u7e3CJncZF3biMDPoRzyP1rtw6dzhxNRJO7LjTPLxnO0AD1XHQGuw0DRV8URazpCnMV1beUSOCHOCOe3IHP1rzezu4ZGGQQ4yMngEdz3yRXrfgS/tLD7UXk3S3G4AFCuwIvZskHrkccGvpotxhzHxU2p1kj8u/7S13RdWvNMvGKSWU8kLoTgKyNtIx3Oec16Zoc9zquhaqsSFglvKshJyAGAA/M/pTPj7aQW/xc1W7tFXZqCwXTBRhS7qQ2PckZPvXdaP4bPh/4dy3MsZEt7D5jBu+4/KPoBivTjXVk29zyFRk5yaWiPNvD9mLbT44+6gfWuxtoFZAwzkHnIrA091MSjIDHr6V1NpKm0cgAcGvfp6pHw1VOUtDTjthtzgYx3FVJrT5hxge1a8bKyjBHTtUi2TyHc/yr2JPWuy0UrtnM4N6JDPD+ifbL5I1XOSO2e9fffwn0EWUEQVTkDnP0r5q+HOgLJeJMBuGRg196eBtIUImRjGK/n3jnNIU/cTPt8ow7UbtHvfhe02wx884FemRJtXk9RkVyOiQBUXHGAO1ddJtVAGPQcV/ImNzR9D9BpUtDm9XlKqy9weK8+uruUv1IGa7XV5CS5OMcYrzXUJgCQeOc+tckMUpwvNilBp2R2OmXnCgEnscetdlHch4uCCRzg15bos/zdeepr0O3wYjyAa/Lc3xjlJwWx6tBNLUzNWmypYjHUcV4rrd68UpwcHJxXr2sEGM89Ac+9eM67AZSzqM4yarK4ptXM6z1M23vZGlUsepr1PSbsqg+YgACvEbMy+cAx75HHSvU9IkLYTPBAr1sworl0OSE2pNHoTXoMJUcn61w+s3Z5XPArflUpEWXIPvXCa1J+6Jzg5rxMHRXtNDqqTdjmJb9vNaNSQcmtTSJJC4JOecda5HLmUt1wa6rRclhk9Oa+srwiqZyQm20eradchIwDyfrRqN2ChQEjjPrWTZLK6DacYqnfmZFO89j3r46NBOd2d/tGo6nKatelJBg9e9UrPUC8wA555waxNZmk84r6Z5qlpbTRzbQevc19pTwydLU8x1G5Ox7rokzOoO7nNd/Ex8oc9q848OKAoZzya9JUKIgd3UV87VwdJu7Z1RnKxxOvTMqEkk9RjNeYTXkqSkg459a9Q11EaJsnnnArxe9DxysM969vC4aioWMpuW7O90e7WRl3nJPrXfJArRqV7CvHdDlJmTv6jNev6c++NQfSvm8fD2c7rY66SujjfE9g8kZ2nOBnivkP4k+Gnuo5/l684Ir7o1i1EiHHcV4f4u0ZJ0cqOR6ivr+Gc2eGrRmlszzcXRTi0fk/4h8PnTb938sYJ6AY6V1HhLIYR4wCRwa9h+IvheJS8+3B5H868q8PwtHcIoGcHk9M4Nf6V8P5lDHYKM1ukfkOMounUaaPoLQCgiTdnGO1dBduY48p0xnmsLw8F8tSxxW5qTAJ8vYH9a+okmtzgTMDSL8Q6oG6c19g+BLyWRIyxJzg9a+MtKthLqoAyTkDIr7F8BwSIsanoMVw19bI9CifUGhu3ljBIBArtfNxEVIycdc1xOhqfKUY7V2GGMZbH61wS3OtnJ61cERvnNeK6lftHO2OOTXseuL+7avCNZt5WuWwMcmpEdP4eu2lmHJBB9a9r0qV9g5NeGeGLdldSepNe4aUjbQAKANyaZtvXsa828QXDKjMCenNeh3IKrnHY15j4kV/KOOcj8qAPML3UnZyM4z610Ph+V3bkk8iuGvIyZsspOOfSu28Nhh2GDjigD16xlZUDc46daq6nMzIWBIqWzyYwmOhzVDUi2xlx0oNo7HkfiC9Mcxxk4J5rE02+kkuFD8jPHNWfEQd5j6ZPArJ0eF/OTtz3rWnrcyZ//0vzc8MMikuTz6V6Ta6x5IG7IPGMdK8P0jVBbyGN+FI4Pqa7D+112rtyRjqK8bEU5M8lK57EmsmRAM5PoKxtTmaX52YAnkZ6VxFhfzKPNJwp4JJ7VVu9ca6kMWMqpwOf/ANVeTSwzTuzblPZfh1by3Oqhcbhmv0S+HmmFYUDKCABj8q+Gfg1p8st0kzAjJFfo34HtRHGm4dAP5Vq1Z2PWw8ElY9s0Kw/dLuA6dBWxqNigj6dBU+jxDyl+lXNWXbEfTFNHalY8qmtY0lbPc1t6bbIZFwBjisq8YLMc8jNaOm3kYceg4rpi/dM5bnrOlWy4HA6Cta7tF8sY9KwdLv02jHA4rXu7392OmMetaEHnusWijPGea5hLZN+3HJNdDrF+gY7T3rmxeR+aGyM/WgDu9Dsk2qMcZrvYrVdh+mK870PUFCryPwrv4b6PywfUZ/GghMwdWs02vx2Nec3dqqs2ABgV3+rX6Ybnsa86uL1GL7iB+NA+ZHOTWmZgQAea6awslYbWUYArmZr9Fl4IArpNM1BWxyMkdqxqSaRVm3YwfEdggQ4UZHr+FeSvo8Ul3vZQCD2r23W2SRSScivN5VUXRK9K+IzPG8sJW7HoUKeqTNXSLKOMbSoBzgEV6ppESIEDDHFec2EyDaWzwfTpXoemyBlUt6V/CfGGczjiJQg3f8D9GwVHRXOpbbs4HGK47WdoQ464wM107yBYjjpiuM1mcFDkZGK/JMPmeInPVntToRSbOVQEyFWwCO475rfsYlZwDjHrXKeeoYDPPb2rpNMlGfm5Ixj8a9PFVq0o3bZyxhFPY7mC2Hk8YxisjVLZShyOc1sWky7fn5GOBWXqU42/WvlKTl7RXZ6PLHlPJtQttszHoMmn6cke4DjNS6nKqsw7k8VR07eW3DmvtrN09GcEUr6HqGmQpsAAGMVtXVv+6yoGCBWNpa/IMHPH610cjAw8joK+MqtqpuehGPus821u0XGSBmuBa1WN2IXJzivTNcUYPHbNcTsMbFT3r6zBzfIcFeCLWjaeZH3Y4BHFemWdiAnTkVw+jTIrggckgV6LbsexxmvIx1SVy6UVynOarZLg8ZPWvPr2zQtjHPXmvT9TkCq27nn9K821Gf5z9cV3YCcrIU0jJgslMoUDknnFek6TYfuo2xzwK4jT2DTLtH9a9K05gERRwMZqsfUlaxNOKbsh99Y7k5HavM9atFR2yOlesX8hCfL1xXl+tuxZz0xiubL5y5ka1YJR1OAurVCQ+ACe1dBoVqBIBjpVHAdwpGcHiuu0eABge+etfT4mu1TsecoJuxL4s0t7nRYZI4kle2kDEOAQYzkOCDwQQeQcg1+NP7RHgkeC/ifc/wDCMaDeWWmXcZlMpUGzZyCZDE4J2xjrtOQD0wK/cO/0watpFzpzSNGLmJo9y/eUkdRX4uftReOPHvhc3fwp8SweWYWLLcEMPPtuSpUj1Bw2Pxr+o/BrP1OnUy+T95bI8jMqEFTc3ujzjXGbeJIEWRTGiEgZJGBtPbjrgjg1yzNI8qOQQCMAkgnIOD24rc1KVpbSykRioktoCOcDhenP+RWHNLHFGjO0caSuYwC3I2feZgBkIc8H14r+t93dHxEJo2bS7khd4ADHERkALuBPcAAjArrtLv0UBYxJgNuMhGEIx0DEkk57Zx7V5vbH7QTFC5eTnaeURV9WYkkZHrnNa2mXggmMbMJYjhXjIAIA7qQDz6HGa86tTTPpMNXtZH0BpN+iA2sqFJF3EKwAdSV7rzkY5613mk6pcxwwM4R0nBYqxJjHOCd2cAt0wR14AzzXh0EsUKxGw+Zo4yxkllLEgjgkAYIPTkfhXY2CteQPI6RwlQrMbYKROSMgkgjBQgcgZHU14VSnqfW0a21z2JrwmN7FvLt7x0Z1iZGJwMAKpI5BJ56EdM1yHiTVZJ7W4t7xWklClYysZBKhcsq7CwIB4wWOM9Kt6ZqUtxYLa3rXDzJy7SgvvOcgK3BIB6nP1zW4+hx3cRhnhRBb5kBUMSu8YLNzkgE9DnrXL7NcyPX5lyN9T580Txvb+Cml0W7lSKeFjJLgYCO6jHy5HJUgHntWlf8Ax2tzaNAtxG8hHyBggBJOPmyeDXy58ZbwJ441yC3lEoiuXjDYxuEeADjA9DXgFxq+oxyny3BUD7pGQec19FTyyNS02z4jE57Og3BI+79P+PckWpG2lCTiRgXeV9yjHTBHA/I17J4e+LKSYnkkigYjc0bMRGeeCrA5BA5ByOa/LfTvELJJsuIzGpGcxk4GO/4e1dxbeJLyzP2izmYFwDuBJB+oOajEZTHZMeF4jm376uj9S5fiYXt2+x3pleMDDxOCSEHIJJGQOAOpAGB0FcRrPxvjspRbard5jjUHz1Il3buxAPBHQdDXwLF441cW6W5kBZP4wSrA9QRg4yPeuP1zxXNN8sztcykknACnPcswABJ9etcVHJ5KerPUqcR00rwj6n6leEvj3pwDoLzykkAUSMFIdecJheQTnkk810mqfFHTrpWmedXMgILZUBdowmATnOOtfjWvi3VonDQHZk44LE8e4I598V3eieMtfZomS6bKkEKzEjIHo2f1rtnlG2tznpcTq+sT9Gpb+31LWItdtWNw0CFJduBwDtGSwIB9AQeO9e66LqhuIjFetLEVVR5i/MZAADtVjtx1GSoB65wK+Zf2bjdaxZapezbpJd8UUeAHIIUuxCkZAAGScADrivpP7CumwRWNxFsYrsI3AFzkkMDlgMk8KQMn0rx6kHTfLLoe9RrqsudK1zq01xLeMW7MwMe5g4IVEJ52yY3EjAAwaoT65AREb2QRSKrkxpE7SmUrhFXIAUA5JcjArk728eZJLdWCEDLNwpbb94BQQSxGB1965N9VuGvDuJR2JcrJuG4Ecqw3kOCMZHbrQjVtX1NbUrjUJJMqSUYvKpfAJLnk5IB4HqSM8VxGq3iRyRywtvRVbIYjPPKnHYnvVq+1W2+zlomMtqhCSYYN5SOdwVVbGEBOM4JOMnmvPb+/RzIttIJmQkllUnKnqRyBkflSVK7dzKVdKLSItWu3kOJAp2HaFwAT6bsDJ/DFc5NJDKJZmBgb0AJJI4AUcEAn36VQ1a4ljRmExEjgtkSFiAehyQTkVSt79BKBqqzvHGAJGRgJWyOCMgAflzXr0KCTR85i697mjpZMt2kagvlsDqCT1xx9K9h06+i8mS5kAs7dI3cguSIyvB688kdM14z4bv0fWFntlkMcW4ZlG0kkdWUEkHGO/vXoHhzR9Q8Za23g/TLiOAiPz55Zv9XHECcsRnLAk8LkEkdRXoyg1Fp7Hg0p3qpdTzfwT8J9X+PHxgiaKOQ6bZIk11OsZKJFGSVUkk4Lk4APUD2r0/8AaT0eHwboKaWqhfNkEaqowFC9APYCv0I+HGjeAfhR4WHhrwpKt5dzkSXt0WXzLmVQQCAM7VGThc8D3ya/On9s7xPa3Gq6ZoUQxcKzTttOdoPCjHp3rlpzU60VHVHrV4KhQnOas2fGCXJiVQrcmrceuNb/ACjJNc+zgge3Ss+aQ5619pdxR+UJ3seo6f4ojYjcM4GSDXUL4miuIdqggryB9K8L0po/N+ckEk9+uK7izJY7V4BB55ryMRiWkzvo0r6n2p8FroXUgDDJJBwelfoh4QtYzBFJgDoMDrX5xfBBWgKFjkZAzX6J+ErxY4E5+bj8q/iLxHzKssU1F7H6JlVKLge76cgG3b1wK2rneUHSuX06/BUdM4FbVzeKI88dMjmv5MxOKxE6urZ9vTppJs5DVzICSzY5rhbxUZjkg5Peug1/UVAbOMCvItV17yiWQgAHmvqMDTq1IpX0PPqcqdz0XSgFmwG616LbN8nOfzr560jxUhcEEY7c16Ha+JlaLh/1/wDrVjjsDUT1R0U6kWrHRaq64I5wT3NeX6hLGZWRyQM4FaOr+IUUE7xjHr3ryy78QrJcE7gck969PL8FUtexx15xWp2UNnHv3qBz0r0DSbEgpwM15ho18Zyu45z0r2LRw5QZOSAMfjU5jzwjZkUopu5tyWmbcgg5rzrXbEn7vTIr1g8wkGuO1eIMhGB1/nXzmDrNVLnbUpXR5fHpw2k45J71saZY5lVQCD3xT2VUyCO5rd0ZCXUnpX0datLkuc8Yq9jqdN0/hcjI6c1U1mwBjJwOAa6y0UqgPYDNZGp/NG2FyMGvlKdZ+0Oxw9254DrFoVmO7vx+FLZQKpU9wRWp4giPmE+lYtnONwQ9utfoUG5UlqeVZXseqaIjHBU8DHSvRoUd4xkngVwOgSx7VA4yRXo1q6lD83SvhMbOUZWR2whpa5yesQkoeK8sv7ZTIQeueSa9g1eT5SM5HWvJdWkGdx6nOa9XL5ya1ZNWKS1INPgCXC8kZPavXtIgLKMntXjGmXGLkemTXsGjXOApzSzROwUJrY6K9tA0eOvFeW69ZKVfcMk/lxXq9zODGPpXm3iGZVWTAwBXl5fKSkkXVSs2fHPxT0wC3kdQAQCePxr5W0e5H9oMD/AxBr6s+KWoILWVc8nI/nXyJpI/4mUhPUMcV/oN4YVqrw7jN3R+ZZxFKZ77ochkVAmcH+tdRcwP5RLdMVzvhpSI4ivUiu0vIpPI7dK/oqT97U+OW7MPwpAG1cLjPzZ5+tfa/grTyURsAAYr4v8ACe4asCTyGyfpkV9xeC7qMJHg4wBXBWep3UT3XRbT92MA8CuvWyzCTisDRruNkGSOgrsPPj8s4PFcR1s861qwJRhg9a8mvNMU3DZUck17hrNynlt0/OvJL24XzmbIAz2oKcWP0XTVjmGBx7V61ptpgKMZrzXSLtBMuDnmvWdMuUYLxQQTXNp+6JIPHavMfENo21gozgd69fuLhPL6cHNeba5cxhScc0DSueQ3mkKXOR1BzW74f01lYELzkD1qveXYEnykEVt6DexKQDjOaCuU9FsdObaNw/L/APVWdqlgwDbRz710lnfpsGMVjatqCbW3Y/Cob1NErI8J1qwP2o4HOe/SmWGmBJVZlHB7Vq6vewyTlcc5q1pLI8i4HI5rWk7XZDi7n//T/Ji0je6woGCeB+Nel6XpKww/vySSAcH+lcf4ZhE1yGkwBxzXqwiyyoOQABWNY46EBlvpf22IxxKAD6Uo8IyQyI2zjvXe+GtPSFhcEDjqD3rotTmiCA7MEnpXmuTvY7HBHsHwg0fyEiYLgce1feXhCICNRj0/lXxl8Kp1mjRVGDxg19t+FEwiZ68VwVFZ3O+mrI9r0lMRLx2o1U5RsnjFWNOI8lPoap6vzE2Kzi11NTybWJ/LlOOAKwINUcShFbHStTxApLtjrXIW6P5o+tbwd9EQ43dz2vR76UKAX9K3Lq8ldDz7VyOhj90ueoroboEwnA7mugXJ5nnmu38kbEZxz1rihrzpKUzmuo8RQs67QO/Nebi2ZZznjmgzPYtA1CRkRgcA16TDfSbPvY4ryHw2rCJAfwr0yAExj2FBLRl6zfS7XwT0PSvKNS1vyGfufevS9Y+430rw7XIHMrkZ60E2uQDWJbic9evTNd7o99NgZHpzXlVrEyz7jz0wa9D01iiDseK48Qnyto3i9UdLqN65WuCuLsifGcc9BW7qcrBTnmuElfN3lzwOcV+T51Tm6Urb2PcwzXMrnfaZcGR9rHjtjivTdLkxH16V47Y3aBlbGCa9G0e5wq8mv4Fz+nN4io5b3P0TCSVjvZJQYgCOCOa43WHVVOPQ5roWuv3XzHgg1514gvRhvmAAHX1r5HBU257Hp1JpRZzU11+944wa6bSrzcwHrXmhu1lmITkj0rrNGlbzA2OPWvrsTQtTPNU7s9jtJP3Qye9UdTI8s49eKr2Uw2DnnNZ+q3ICHB75r4+FN+0Vj0JaxRwOpSCSZwx4U0unzEEL0Ht1rPvZw7sQOcmk02Q7xn1r7Dkfszz4bs9g0eTKj0xW/I3yHmuW0VwURc8+ldFPlULD0r4ivF+0PWp/C0chrD8HPPauHnkJcc9a6zW7gKnyjB7n3rz57g+YQ3Q19Rgqb5LnBXZ2Gi/6315FejQOcCvKdHuQrkdACOlehW10Co5z9a87G03cqm0okGqyZDd+a84vyCfqTXYavOcMVPAPNed3E5aQ5ORnrXdgKbsROSehqab/AKw/WvStPbKpx2ryiymPnL6Zr03TZvkXntU5hC6HSaubd63y/hXmmvMMnAFd3fviPf7V5lrErGRgBnPSufL6eptW+Ey0wz4A5HpXcaRFhgOvSuBg+VmPevQNFJbB78Zr1cZdQZ58Nzv7SHau4cE818Df8FAfhhFr/gCw+INrDvudAlEL7UAJtrnjcW64VsDHbNffkA+QelQ6lptjrFlNpmq20d3aXKGOSKQAoyH7wYHtir4Uz6WTZpTxq2T1Xl1FisK69Nwa1ex/OyZnu9I0q7Zf9ZaoARwBgEYx07VhwQx3VyruVWVyI90j7cgZ4OBwPpjtX0v+0p4E0D4efEC68O+GLUWeloglihViQN5JPXPAPQdq+ZbtjLbGBiBGrFyNuBkjuRX+p+U5hTx+Fhi6SspK9mfls6TpzcHui5tumUGRNlsj7VOzkHPCkggHJzyQeK2YPsFjF9qEscsqPta2ZykhQg/Mq9AB6/pWatxocSgoPtUrRiLGGVIXcfMzDPJAAAAODnngCq0ULi7a4R5JmTCqzgEgDt3wB6dq9Vwvds7qU7WPSNNl8rZ5MpDg5ODuADDBJHAOR1J7V3Wl25l/0W4VgQpKyJgh1JywQrjIwOcnIPSvMNBSW6usZyScg5G0EckgHjAHI969V0y7eN7eNXLHJCEcJkck4UcA+vY4NeRViop6H1WHq3aPUbGHybhPsEmMlVVZNoKErwSoyDxnB6+pr1jQpLgxi3jQzhGCysODJg88k9MV47oiRIwlZD5ABWNYyPlQ8l8AYLk5BJOSOtemaTOrKC8g2lsKxUkqMcbgD2IHFeJOTUk7H1ME5QaR+YvxK0NrzXtWuVBST7VcE5PIzIcA+uB3rwyXw/cQuGnbePZTnH1r9OfiL8DNS8Qahca74RaKQXrGa6t53EREh6tGSMAH0PSvBNT/AGevimimVdDDqp4CTxuSD143gflX2+FxVJQSfY/MswwNVzbS6nx81mI8DZweKhkNxGMRk4r2HxT4H8ReEbkWviPTJrBycK0qEI2f7rDIyPrXFT2J5faCBgZwMHPp6/hXqpRktHc+dlSdPRqxySvdkHAxnrikWxlumKtznnnnmuuhtRkbwqL3LEAAe5OAPx617N4J+BHxO8dx/avDegSmzPP2i6K20R28/KZcZz0BANZOSg7yegRpTnotT5nk0mcMDGpcg8Cuj0fStQkdESAoeuSc19pW37IHxPVlS6n0y0ETBNzTs+TjLAbVPIHXnFe1eBP2VNE0vUVuvG+qpeJCQwtbUEI5B4Dl8MVI5wornq4yjFXuezhssqzkm00vM7/9mTwVc6D8JrQX8bPPq8kl+oKAMA7COMBj1BUHIHYmvYdYNsNibEd4gUdCWL7ycHJ69Ohzirt7dJGiLbx4gjBURoCERE4GwnBAC5GBXJa1rDRRO5RpPIQAiJcEKckHceoA7dT2r4bEVfaVGz9Qo0PY00jktXj3MXjljCKNgYAupA5IAIyAOmc5zXnmq37vcbA2IYgDGgDMhBGPmbIzk544PvXYX199otDGkTxKCeJYmQKwwfunqDnqMjmvOtV1PzYTFNEsSQEv5rRkl89BtUEttOcA8YpRi7WJnJWuYF3Po9jZxwMIlupMkMNzELkk8Anv0DGvP/EOq3cEkVlprLLe3JKxkoxPPUlU4A9M10F5f2paW5MrO+N2CmFyf74HIA7AcdK4/wAxX83XYb0w3VmRGiqNqvnggZ5BGTknIr0aML9DwMTWsmkytNfMZXiXZvtwqyjYFJJ6FASckHqDWJcXMpm8yWUujgKcnLHDd88kdselOluEeYb5GCyksSwCyFx94/QmsO5uhJIHk+YkdQM4A9PevapRR85Wq6O7PQ9MaWG7NzbwxRROWjGxyypnGThiTk9ie/FX/CmtaIPG3la/ZC/s5WPyz5VMpxk7SCASPocVxum3cWkaddajIShitnmLKcnIwFBBHXJGak0rVdM8W+GEm3H+0oAN2Dy7E/MQAOfp0rpqxvFrucVGqlUT7H2zcfGbwHoscgsYVtRbxGRlVcrgA52kk45wBX5h+NfGWo+PPFd/4m1CQyG4YmNW4CRqSFUegAxxTvHGuNarH4csZSRgtcnOSx7R59AMHHY8VwFqTuHGKnA4NU1zF5tmTxC5FobwbI96oz/dHrzVlfmUe1Q3JGMd8Gvdaurnxkd0iWwhEjrgYwc16Tpl5BEPLdASMDNebafKISC3J9fWupsrmIyFWIAOCPrXzeKhJto9im0o3Psj4SatbqQBxyOK+2vDGubVj+fIOAK/MbwTrkdjIqhsE9Bmvq7wp404jVmwQQOua/lfjvJJVKzqWumfZZbiYpcp98aPrWQo3ZOK6O61ZTHy2OK+c/D3iUXCp8xyRxXcz6hLPHhCScDiv5br5RNVrJXPsqddWauSeI9UBRypzivnzxHrTpuIJAyeK9I1l7jYylTz1rxTxIdquG9Cc+9fdZTl7ptKUWeRiKvZlTTvEtxDKGDnB6DNdnB41lgTHm5zXgUF04lABI56V1lpbzTxh3O3HOD3r7nEZTBpOUTz4V2+p2mt+Ph5B3uc+1cvo3iVtRux82QTjGa4nXrN2yOgycip/CVsIpUPfOK745TSp4WU0rNGcqknOyPrHwxLkI3XHSvf9BmDxgt1wK+cfC82Am3kivftBlyoGecCvwTOoO7R9Bh5uyuj0KRl8o4ritYnPzAHvXXhg0B3cVweuFV3FRwe9fF4OH7yx60noclLMS5X3rf0OYiUcnFckZVZyMjrXU6Mf3gUV9NiIWp2OKL1PVbR9yD0qhqhAQgDjHartkuYx9Ky9XUCM8kAA8V8dTX7w7JytA8f8SygbsADivNorwwz7d2cnmu48TNsY4OeK8tmu4opiM8ngjPNfrGX0+anax4M5O/Me66FqHyr+FeoWl7ui9MV84eHtQRmDb+BgYzXqdprEYiwCTj3r5XMME1PY6qVa25vavdHYfmxXleo3PmOVzkA1s6vq4aMtuwBXnE2qpI/Xv1r0MvwklG9jSrVi9DpNNYC5HsTXsOlyDykPHSvENNk8+YbeO1exaNE+1QeBiuPM6ZjQZ1U02Yj64rzXxJPtV+pzXoF3mNOPSvMfEcmUfPTmvMy2neokzoqt8rPjj4r3GYZcHnJxXzP4fdnv2ZjkknNfRnxTQGGUryORxXzl4b41Aj/AGq/0A8NKaWHbXQ/Nc5laaPo/wAOZSJD144rrrxz5HBPSuW8OuvlJk1114w8jp2r9+bu7nyJyOh3xttWC5wckk/jX1n4M1t2RNpyDj8K+NI1eTUvkODnrX1H4DjkRItxIzj8a4qx3UT620TVJPLH0FduuqnyOeteYaKCYh9BXW/MEwRXGd3Lcyda1R9jZ7k14/f6/wCTOyse55r0LxAx8k8cg189a4JnumAYgZPag0PV9F1tpJEKnJJ6V7PpGpyBB7180eFFlLIXznNe/aOCFUk5460GfJ5naXGpuY+uODXlviPV5IwxrtLhvlPpg15D4qEhiYDuOBQUlY46913Mrxq/I6YrpfDl5JI2ScdOTXks0E4uzwe1eneGYXK5YelJtIbZ7LaXsioQGxWNqt/LsbnNSxK+0DGcCsDVnbB3DGARXNOdpDPONR1KT7YV7+v413XhucyyJnknrXlN5l9Q64ANeoeE1UMgzzW9KQH/1Pyx8M3AWbaxAx1r2ewEUzRkHORxivnWykZJAyHaev5V6PpniCaKJAMDZjqaxqq6OejJI+i9FCwqVf8AL0FZ2t3YdtiHhTzXntp4ocgEuAx6kccVZbWYHb96/JI5zmvNcHzXZ3Npo+yPhEyxwxLnkYJP1r7l8KsWjRh0wK/Pf4S6mJDEkJB5Gfzr788GS5hXPPSvPqvWx1QTse9aax2AenWk1MDYd3IIpNMO5B24NLqnCevBrnNDyfVIxI5yMnJrMttLWSZWAxjmt285kPGMGtLTkUuBgciuiluZttM6TRdKAQDHpXTz6UfIzx/n8KvaPCvlhjjt2reuVQQkbeldhaPCtb0kEkEkjNcj/YqB+V/LrXsWtoOeBz7VxpCs3T1oMBmh6SflyMDnHavSbXSx5XQdKydEjTavHSvRLdEMQ4/hoA8t1jSgUfjrxXmGoaICzbhnjivoHVYU2HjqM15nqEahyR70AeNT6Ptm3KmMHOK6fTtKZhuIwMd6vzRo0vzcnNdNYwRrEMDnFZyimgW9zzzW4DChryXUrjyrkODyTivdPEiqEYYHf+lfPHiWVYHLZxya8HFYWFSm1bVnTTrNO50lpqqgoc9DzivT9I1MFF5HIxXypDrjQzou7K55HrXquh66ZoV2NnPH0r+IuNOHatLEynGLs2fd4HGJpJnv8l9mEc9jXmniO7fBXk+9TR6mfJG4k8etcZruqblcZyMcEetfkmDwbjUs0e1OsmmUYLjY/ueldvpNy2QB7c14/Df5uAhJ5716Do92QwycA9819DjMO+XYwhUVz2iymfZnIHFZ+rTjyzzyDVGxvVYYDc1ga9qAVTg9+ea+MpYaXtbWPTdVcuhz13cbXb5upNXtIlXeMkZHNeb3WsBJ2+bPPftXTaTfRyBWyB6kV9bVwzjT0Rwwqq9j3nSXwFZTnArflnbyjnrXnGkamqhcH/69dFcakPLPzdRmvz+vh5e02PXp1VZnOa5cHJH4153NdMJTntWt4h1cBjzjHfNebz6svnFQ3WvtsBhZOGx5terE9K0m5LSbV4JIr06w3CIFjk4rxPw/fIWzu54716rZXbMnB4PNeTmFBqVugqM01YfqzHy39TXm9wzb8ZA5rs9SuOG3Hp2rzu/uUyWU9z3rbA0naxnUlY2rS5MTqFwSeTXpOj3JeIBhjIrw+0vh5wLHge9ejaXqKYUBuAKePw7tdIKVRJndajI3llcjGK8w1iZgxOcEf1rr73UFaPg4JHWvMdYu8uy7uB3rly+g29jrqVU1oW4Z8uFzya7/AEOfnbnB46141DqIjkDZ5/Ou80XVw3cZJr0cZhn7N6HHGaue42lwpTDH2q4ZQELAgHBAz6muKtL5DGMEk9TitWO6Zx8qkg/1r4j6pOU/dTfoeksRFLVn5O/tdKX+I16wy0kUm1c8ZR1BXPsMGvjXzkEjxXUbTpMCNqsEwegOSOcGvtj9rjzn+KeoK/yifTrW5jB6gAmMkDv718QXpWGYuyB1HVTyCT+XXqK/1L4Ei1ktBS3cfuPyTGT/ANpk+5UgsxaOybg0qN+8jbgg/wAIYjjOO4zWlbSPHdJ54YBAWUowHznsepIHpWEk+1w0mVPJLD7xz25PNWJJ0UGWJZCXI2tIwIQ9zgDJz07AetfpLg2mjnjUSd2ekabNJMQWBMbjAC8EAc4yBxz3r0TRLmKOON/tLDk5DEnBHQe4PrXiFrfJGVVZyJRyDHkD8eT+Vei6ZqCRIpdopQOVVzyXODjPHHHSvHqwep9Hhayuke56Zd2sUqsz7Dyc5JQIcYXaCOScnPoK9E0m5SUIkK7UJyVAwc9iMHPNeDWGowCUyiRUHDkEYQZ+XaAecZPHXpXoelXe2UfIdhQEbiUAOeGJHOPTFeJOlfc+4oV7Lc9otLu3t5VdC28tsMbkEOD656HjjmhNT+0fcARmYhgScgD8QPyrzmG6uLhBGY8OoIwQQDk9SCSTjsciumsyyyF4mwybCWJwCo4IAOQcnjIwa5PYyvoz0eeDWqPRbWw07WrOXTdYt47m2JCskkYlAX1YNwARXhHi/wDZc+F2r3Q1C3ju9E+24JNsQYQQSpwkqnAOM8AD0r2jR5oxKrSIVcjOFAAcd856j6HjrmvQLnTXubUyWsglJ2jaACBg7sZUEnGehzz6da1p160NmcNfB0KmjR8v+AP2efhp4C1m11O+gm1m83CSOW+KPFGuSAViAAHTHOcZr6luGRbQearOhXaY3faVA6bcAgIeMAAHHpXIy2EsNxIbkZMe0fMuQoJJ5B9M5x+taF95SsIBvEhA8wNwGAHJDYGAMggYPpWrrznpJk08JQoq8UrmDcanKkbCYARRZAUcgAn5uMk/ietVo9SIhiaQeaXBJHygEH7vOSRx2FNv7bErzKCdqlWGOT9AM5x75rgrq5ZHG9WLjADKpAIPc9s/gKxcJS6nZGotjv31fzoMTuYwoBChuGJ6j1OfpXPXmpRbdkSAKGDgMclTjByB29K5GTUb6MCJXeRGBPJyMemTwD9M1lahfkW5u4GAZwisxBUknsCcAgHg47URpNPUVSrFoXxRez3bvdXM7IFA8vfkgAjEinPb0AHBrzbUbtpfLubNXDnABViS4BxwuOAMYPrWtql6bkyididxBMsjcKV+8qk8HJ6AV57qdy4keaGN42QEEgkYGPuggjHPfB5r06cDxMRVSWhga5dvPK4cjKAghgxwM/3SQBz0HPFcPNO+1uQgVflBHIB6kAcDPp2rU1O48xCRKzyDG4MCCeM9STkDp2ri7m8Te0inzDkF1Q8kHoA38+OK9WjTdz5LE1kzZa5DQTpK+wYwqAZJJIIyTyADzxmssEKyqr8ZwACQR6npVRXcu3lyBgMDAOMkd8kcitGIopVXPzuwIB4JAIzXoKLieBVnfVk3it7W28FXyTltl1PFCNpAYg/MSCQfxFcJpXjbSfD2ngaJZzHUdhQyTlTECRjIUAHI7ZNb/wATJ/K0vS9KUls7rh/QAsQv1OBXipXHCnIH867owTjdnn87vZCStcXV09zct5jyklmPBJPJOPc1o2iEAe1UY85AP51qWwIOOOfetoaKyMZ7NmivYDoRmopvukDkep65qbaRge1V5FNa8ztY44/EZouBG4DAnntXQWcgeQN0IHrXKzqVZvUd6fayzq42k4PU+lcs4Xep2Hrmn3y2m2UkAqeua9v8D67cXVwiRng+hr5St5Z2A81iAD+dfU3wgs/tXls2CAR044NeJjsqpV1aUUy413F6M+6PABMsUe4EHAIPYV9G2diJYR68duK8W8C6YsaR7RgYHHWvo7T7VkhHTHA4FfB1OE8NfmUFc9JY6a0TPPNds2QEuMjtivBvF9mDA44Gc4r6h12D92xYZxXzv4uTapBGeScVzy4Yp2uopM1WNezeh892lk4usFTgEjNekWMRFsfbPasW0jia72sOAa7WNIzFiMYA6mvAx2TVGkrbHXSxC0szz3VoA6sQMkGsOxna0nGMADnmu21hUhQ7Rwck+9eY6hfwxhsNhgDXkVsuk6Lppas7FOz5mz6L8Ja5DkAtkjGf85r6D0PVlEQZW4OK/Pnw/wCJJLWZMvwT9K+k/Dni1WhQeZngV/PnEGRzg23FnuYbFqyuz6p/tk+T97qK5DWNSLLjcCOnHvXFQeJNyE5GOmM1zmr+IAqkK4GT61+eYfLJKpoj2PrN0dJHcAzdQRntXf6PKnysOua8E0/XomYhmAJPY16doeqxsUG4461247BSSs0SqqZ7vp10QuDzisvWZjIrY44rK06/RsEEjioNTu02HLc818LHDtVNjqlUTieUeJ5gCSx6CvmvxdrEtjIXTg56V7x4smMmVQ/rXzr4qt/tTFSNxPev2rIqUVZzWh85iZ3+E2fDHi2eSIHnk17BpviCUxjcevNeIeFdKESBWU9a9SS3aFRtXAxya680pUXNqKIpSlc2tR1gyJjPXnrXEf2kftIU9C2RTdRuxCD8wOPbvXN2kwnlaRjgDoajDYVKLaRUqrvqe4aDeYZGOBXtmj6gGVSGHTvXzFo2rRxkRsckcfWvUdM1lQqYYjivjM0wcm27HoYeqluexX9+NhBI6V5R4hvVCvgjgc5NWr3XEWP72eO5ryvxLr0ao5Djkc+1cWWZdNzWh0VK8bM8J+KF4jRsgwASTx6818+eGm36gzkY+Ygeldj8TPEccm5Uc55Ix071wngyU3D+YwwNw4/+vX93+H2EnQwsnJWufmubVVOpofT3hxQYUrr71R9nO0jIFcr4cX92meK6q7QGA45AGc/Sv2Y+cMDw/Ypc6l77ua+svB+jE7COgxivmLwepOrHjjcK+2PBUClE3DPA6VyVtzvpaK56Xo2mOEHGcAV140wmPpzVnRoECAAcEV1flJsPHNcR18zPFNe0tnRtqmvIrvQUeZvMBJz2FfTOtWy+W/FeS30aLMeM7iR6YoNWc1omi+TKigfTivYtJ0uQgDBIrltGgUyoD1r1/SoUVR3oM+Y5y803aCMY4NeVeINMLZyCRivom7hj2EkZwK8t1+0iOecd6BObPCX0RS24nmuz8P6SVJGcjinyQqr9QfbFdloEMefrisZq7HFuW5sWulBgciud1vSEIYY9a9Vt4kAPFc/q8ce0/L15rBxVzZnzPfaQFuycck12/h6BYGQHqMCmazGq3Pygdav6LzIPrXTRQj//1fyIsmJcY+YD044rqbRgO351ytt98dsjPHrXRWjgNtHpSqKxwQdmdBGSPyqOR5Mj5zgnJ59KWNhjnrioJpdpHpzXK9zuR9ofA2dUiiZwSWA5P1r9GfBMqtDHtPXGfyr8uvg5qDgwRLjHGT6c1+lHgC6HkxfODjFeHVSuz047H0/pL/ux7girGp/c/A1kaPPuRGB6Cte/w8Rb2Nc7KPML8kTHA4Jya09MbdKv0xVHUABKcVf0xQHXA7V00jGe6PWNIYiMD8K3bn/UmsHSeUB9MVvXH+oNdRscBrfUj0NcX/Ht7Cu01vufU1xS8sT3BoOc7LROVFejWo/dD6YrznRfurXo1nzD9BQBhasowR7GvMNR++RXqOq8gn2NeYal/rD+NAHIOMzEeldJYn90PYVzcn+uNdLYj9z+FZyfQDk/Eo4cDtXzh4uQnJPQZr6U8TAAHA6ivnPxaDtcnkc8VikrpEPR3PnvUL97e6G4kAEgY9K9Z8J3qy26YYg14h4hYJdHbxyDXoXgm5PkrknHevi+IcphiaeqTPTwlVp7nvYuD5HyHoOc965TU5xsbng9j1zW1DcIbZeOgrldYkRgT0OOvtX8uZhw3UpVnKktGfTU8UmrGCZ034B5yMZru9DndcFjnHT8a8euL5I7kAHoa7/RNTUhFyCSOc9q+iy/hV1qfPWWhyzx3K7Lc9rtbkGMcY46iuT8Q3DCMsTwe+aSPUhCnykNXHeItWTyXBOAMkCufE8F03O9JWZrHMW1qzzzU9W8m4bnIBPWtPSvE8agKHwT2zXhfinW3iuJNrgcnHNcFpvjO6S7UMQQD1BrF8M1XBxa2BYxXuj9ANH8Sgog3Hjqc10N14l/dH5+g9a+ONM8eExgbwABzz3qzdfEZY4vL80HIODmvhKnDVRz2PThjbLc9g8U+LRGT8+e3BrhY/Ei3E5cSDA5OTXhniHxsJYnk83kc9e9eYW3xElW5KK2CCO/av0LAcLTnRvGLuefXxsb7n6C+HNdVmGDxkdK9m0zWQygZ/WvgLwh8Q7fAErAHjmvcNP+IdoI8iUAjpk1+fZtw/VVRrlZ6GGxMWrpn0LqepgBgTnI6mvLtW12OAEEjqe9ee6r8Tothj3g56HNeL+IPiGm0neO54NVlfDlabScR1cVC2rPoaLxNEJsBgB9a7/TPE8QVfnycdj/APXr89IfiJmcuZRgE969P0P4iW0hRPPBIxnmvp8fwrOMLuLOGGMgna59rXPiVDGPnOcetcXqXiCBmILEk+p9a8QuPHkewbJAQRjg1yOpeN03bhLznpmvBwvDs76Kx1zxS6M9xvPECxNlTgD3rp/C3iYTOFQ5OeP85r5EuPG0k6spIAzjJr0T4c68J7gBZA5DDHNfVQ4VqV1yKJxzxqirn3xod0WhV2bOcEj611y3iYIUkDBJAOK8o8OXLz2y7TuJHPFdnDFcvwQeRjJr9NyrgGjSgm43Z4lbNJXsfLn7Tfw8t/ECReN7YA3WmQPBKuMb7dwcYPPRiDX5Za9C8cRRFBKkAkHsvHPvX7h+NbdLvSLmyuRlZ4ypJ6cjHPtX4zeOtPOk69dWUiBI3d42zwQ4JAx+GDX7blGCeEp+zitFojw6tV1JXPGri4cMLcPvw24Ejk9OAfwqJJo0lU8MSCcDgg59f6dKL+FYZAJAwXJAYEA8Vk+b+9BlODjgjp+NfYL4TG521kzzfubDmbGQCMKT9ewPT2616Dpii3tUiuY1mnjOJADucEHJKbRg4HTJGK8l0+c+YpViRuJBU4zxyPx6V2FvrCxW8UNuwEjcSiNiQQDwAAMj33ZJ7Vw1KDvqerQm073PVn1dLKyMmQhQgxsygknqQck8AcDpgmtfw141humRJXZZEcEAsGIHt1Ax3zx7V8xeKPFstvavHbYZQCSSOpbgjsOOK860fxRd6dE8MNy0b9WIGcg8kHNcrwjauj2XmPs3qtD9QLbxXp9gRLJOE3g8kgsD1JyWAwPTiuN1P9ojwfYD7Ossl2YiCWROABwQTkAetfntd69dX+Rc3ZkR+SpJ28+xzzWZNOr8+cCMYxnjHuOh/GiGXqT1KqZ80rQR94RftYpa3RuEsIjCXBECMpypPOWZc5A64wD6V7D8Ov2vvD1zfrDqsL2JfCN8yiMkt97PGcD0wR79K/K5JS2NmHAwOoNa1jqs9mAyLGWHG5x8yjvt7A++M1UsujZmMc9r3V7WP2G8eftF+C/D9wkU9yl2Yxl1t3DBQ/3WLHlj04yCBz2rymL9qfQpZliZ4JYnwGWd3LkeisFABPGck1+dFxqdjqsO69WV7nGDJI43MRyD1JOB3JrKS702MhTD5qhSMEkEH1BBrGGXQWnU65Z3N6paH6uWfxl8KXkRZ5WsgFyHJ3hnY/cUrk+xzgV0V9q9heW2YmEYiBdgrZcf7wzg/gSa/IW31G6tGEmmXM0A/ulyRj3z1/Gul0n4geKNFDC0v5ChIYxyEuhI75zkfgRTngLL3TWnnkVpNH6M314gmSSWRWmLAqqEj5ewwcDJ/D61w8+psVeO2cJGhJw+BsyctlQMn8Mke9fIMnxt8RG3CXPlu3AYAkKfwJJpND+K09xqaJPIbd5WChlJZMngEAnII/WuZYKotbGzzaEn7p9YT39iZjM0bC3UKMFyAARzgEHLOSOQCAB61weuIglKiYSI3EqxhgVI6DJzkevAqEaqbtA8sqsqEFnJ5JI6gYJA9vWsC81QyfvbUqyOMbt5wx77s4Oc0QpNOzMa2JU1c5zVrkxHyBuAIBCk5APXr1xjtmuYaRBEW3AEMSSDk8nkYGODWpeSyBjGWG8Ek5ORz7n24rnzMsLB+C4IAXHUZHOenevXjCSSsz5jESbvqbdrIm9CynBBCq/AAPYj/wCvWzCr3M8FuilzkKQOpycDn8awbfE8hZycDkkc8nofpXX+Eojdaqrk7Y0Oc9vlGf54rbV6HA2+pxHxKnWbVJI4yCkGyEAdBsUAj868uABz0GDjp6V2viOVpvM3ABvNlz3OfMP9MVx5YLkAZ9eO9djVkrHNT1bbHxhWABA471eiTJC4APWqCPk8jA9a04WDMCp5HGaRs0rF8DcAemRioHVSCeRj+dTj7gqFzz69voKdzjUfe0Ma4i4ZievSoIoyGGDwcA1oXDbV29R2PrVZHHHHeobdztsrGtGgAXJOCRX1t8DcbolIBBI618i7+g7AivrT4FOTNGvuP1rW2h5skrs/THwRbgxRsAMEDNe/2cK+SBgdq8K8D8WsR74Fe+WmREPoKTStsQm7nK+IoR5bBQO9fO3iu33FxxnBr6N8QMfKavB/EIBYhhweprCUVbY1Tu9Tw+1sT9rIxgZPNdcto6wZAx9Kt21jDLcDg9e1dMLFFg5FeTVoxldM7qZ4j4mEiKVQdByTXzxrj3KSPIGJxkkV9aeJNNUgsB1Bz7184eJrPazYAxk9q81YOne9jp9o0rXPN4tZaE7snP8AKvSNB8by2qoobI4714NrczWtwdo4JwaXTtQfIJb5B6ntXzObZDSxMG2kXSxElLVn2NF8Q1jgG5yCT6//AF6wtQ8dvN0fjOTg/wD16+f21lJIwEIyOhyf8aqDVHIHz4zwTmvyT/ViEJ7I9tY123PovTPFjOwKvkZ5BPP869r8LeLlkZElIBX0P/16+FLTWmtSdrgknOTkdK6/w949eK6ByRjjPavGzThqUoNpHRDHJOzZ+k+m+JYwAS+Bjrn/AOvVfUvEqujYfn618q6R49kuFVN2c966htdaaI5fr3zX5BU4ecKjbXU9RYq8dDsdW1cTSEA54ri7i3W5cdyehHSuZu9a8qQuzgk8YJ6itfR9WS6I7e1fQRwc6MLrocs6ie52+k2ITaMYxXefZ0eDGQDj8K5awAK7gemOlas995cZXOMDmvma8pzmkty6crK6OH8QWwRX3AcZ5FebS6qlqr84ANdL4x1vy4XCMDwRivmXVfFTxXLpI2Ax556V+j5PllWuuWxy1sRBddT22x8WrHcKzMBnjA//AF16xpni23CIwcZx3PFfEi60srh4pQQByc9DXWWPiULCEaYcdea9zHcMSdvdZywxivY+ntc8borHD547H/69eOeJPFs0yPsY49j/APXrzK+8Vec+0MMDjr1rmr3WGkJJfI+vrXoZXwu1JXjbzMauLu7JnG+Kdba7uvJLFucHHTmu+8DqoUbeCSOO1eKa0zfb92cZ54+te3eAFOxGByTgkH1r+nstw0cPQVOKPkqs3Ko22fUPhxJPKSurvFfyCemQeK53w6T5KeuK6a8d/s/THBr1mzEh8Gq39pHgcEV9s+CwVRPw/rXxV4OcjUjn1B/WvtPwc2Y0/Cuarsjvp/CfQejnAUY6iun/AITXLaN0T6V1P8JriZ0nIayflYZ4ryS/wZjnoCa9Y1pjtk9f/rV5HfsfNPPekbs2dG/1inuDivXtMJ+UGvHdFz5sfuea9g0rnFBgaN6f3RPtXmGvHIbPavTb3/VsK8v184JoJl0PPZSd4x1Ndv4eyTuPbGK4phlq7vw+hPXvis5GqPRbcZT8M1z+rrkH6GukiXbEPpXO6t91voaxZszxfWv+Pn8au6HzMo7ZqlrQP2kfWtHRFHmocc8V0URH/9b8hbRccnqDXQQdsdfasKBTyT0PFdDarg/LyeKVU8+G5sQn5R9Kim7n0qxEm4e5qOYDGB1x0rkvY7NGj234Yan9iniIPJIyK/ST4Z373UCO3HA9u1flV4MnIvYipIKkZA+tfpd8Jb0SwRD6cfhXm4la3O+i/dsfbvh+YNEvoRXVXh/cH6VxXh1yYUGO1dldD9xg+lcPLc6TznUP9cfpV/Sz83NUr9R5rEfSrmm8MAeuBW0ItMyluer6Of3Q/CugmH7k1zmj/wCqX3xXTy/6giuog8+1z7p+tcQv+tOK7fW/61xAysjbuM0AdZofVfrXplpjYfpXmGjdV+tel2nMZHtQBj6p90/Q15fqR/eH8f516jqn3fwryzUx+8b3oA5Wb/X10Nlnyh+Fc9JxKa6KxH7oH6VlIDnvEgyrfSvnTxYnyyfQ19HeI1zGa+efFaKFfPfOKiPxFqN1c+VfExMc549a6LwbdrEBv5OOMVgeKos3BOeDmp/DTlNqjtWlal7SDTRn8Duj6Gtb1GtgTxxXKa5exhW7kA9KktZs2wxnNcprMr8/TtXwuIymE3ex2wr2RgJFNfXgEWSxIxg9PrXs3h7wjeuqysGyQO4qX4a+DUuyl7KgJbnBFfWWj+FI4kVdoyB6V9HgctjCFmtDhnO7ufOt94bvba3MuxsCvGvFl6bWN45fkcAnnkV+hV34ZheFkkQEEelfHfxu8DmK1lu7P92UBOMdsVjisuS1SKhO1z4A8X6qA8u5s5JOP5V5FDrUiXQAO1c4NdB4wupheypJkMpI9iBXl8lwNxZOWBqKOWwnFxZjWrtNKKPXhq7rFmFuCOp4rEudZuOdrHHNcZbalNt2O3HUg+tEl5NIAUQYGevBr5OrlUaVTTY6I4jRXL+oapIYWMsnBHrXnpuZYp2kRjye9Xrs3cjmN1Kg8j0rMTgkvk7hkD096+4y3DRpwumcVas27HX6d4ouLU7QduB1FdRF8R3jwqSnC9c15WUGCfSse6BG7bnPoKyxWUYeu+aSNaeInFaM9un+ILTpuEh5PNcXq3i2e5HlxuSeeR0rgNxVQSxyRyMn+lETgjngc960weS4em+aCCpipuNjXGq3IG52Kjrkc5qeHxTqdsxeN+D19qzlVSdg+cMBjFQTW/B/h9q96tg6M1yyjc405p3ueo6T48vWGySQkkd66Jdf887y+c8nmvA7eWSFsDoD+tbsd7cABQeCTXziyKjz3Ssj0VXklqehat4rEKeTETk5/OvpT9nmK7124XaNwBGT+dfEM292DNyR2561+n/7Hnh6GSx8/ZySp6emc179DL4ULaGLqzbbR+gPgbwuYrOLzBzgV6wdEjSMKEGTWp4e0pYLZNoGSK7A2J2DIGa9P2aWzOffc+cfGvhzzbKTYoyykD0zyea/Iz4+eDZhPqGpJGWktW84qBjIPDflkV+6PiLTRLCyOoAI54zX5+fF/wAJWsupSLMmYrkPGwxwVcc/pyKylotSktT8bNRjFzbICMkZB56Y4/pXHXC+UwTsT9a9l+IPhS78EeKrzQbxPkRy0bgYDxHBVhntg4+oNeX6lDzngDkZ6/yrWLVtzRhbOApaMDAGCvapo5pFcLkF25G0crjk/pVCL5RtHpgn1/8A1U7eWbagwehbOOvHqP51TJ5+XU6jRvDMfia6EF+WeBzsIBCkE909eM5PTGRmuX8afB/xB4JvAt/byXGm3BJtr6FCYpRxhSBkqwzgg+mRmvcfh3HAjCJnCT5AjZepHdVJJGe/GTgGvqqy1KJNOSyvL1H8pQY9yYTk4PLA5x1I4PpmuGrinTlZ7H01LLPbQ5k9Wfm/4b+DnjHxl+68K6RdajIjBTsiIQMexd9qj8817PpX7E/xxupB/aGgx6bCzBTLPdwFQTyRhCzcd+pFfXNj4pvFm+y7wVmBV1jYheDgcFjgEDIBIHuOlaUfxG8T+HnR9Nu5LiOUlCigyhOcEjPGCOozx2JrneYyW0dDqhkd956ni/h7/gnxLqbvZ6l46ttMvGUSLi0klhIPDDeCGyp4wATjkA1w3j39g746+Crd73wy1j4wsFIOdMmAlAPIbypdpwRyQDng19LX/wC0x4s8PW586ykItJP3c8a8ByfuHjknuCQcVpaP+2PLdrFbXEEsAVdkkfkkAg/KDzxkAmrWLb1SNp5RS+FPU+MdB/Yn/ae12aOL/hFxpkchxm9ubeEnI3ZCl3bAHJwOB1r0q5/4J5fGeytovt2vaLBPKpaOJZpWLYUFsMIyMAHOQQK+q3/bfhsJlSa0gidSrqWUAgjaN2FGMELgjHOcZqtaftm22u3rvLaRXMkpJZiFSMg9ioPTgDAIwB3q3jLK7TFHKHeykj8/td/ZC+POjTP5Xh+fUUR/LMlnLFcAnsSoIIyOxGfXmvP7z9n3406eWS/8I6xboMlmktmA46kYByfUdq/WaP4067rQElkq2KODJ5cY2F2PcHOSe4OMnrisW88UaxqMrefPPOj5yXcklm55z29T3rm/tJLWJt/q+93Kx+SEXwi8fXF4LS30DULi6yAY/szqAScDcXwME16hp/7PPibw9aLrPisi2uYhvFuhEjqgLLukdcqMkDGCSBya/Q22lQKzQy7FYDczHIODknOc4A6DtXlXj6+a9tJbJZB5g+Ug8kcHKjB4GPXih5lzrl6mLydUvebufJ91cNHi2gyJ0AUmM5QjqMkdeO/Wo/NXyXErbkUYYDoD7U7UFhtJHNoGBz+8EhxyOPlYdR+FZAuFYk8nIAIY8D6ev4816kdUmz5+c1FtXG38hYgR/dQAj3yBxWUrHzh83I4xj09qkuZ48mNFIAJJOfyptsnllZWGWPYnofWt0jz5O7bN1X2RqinLNxjpnPau50IGytoWBw91II1HoAeTXCadbyXt4I8jc5wTjgDuRXb3N2lvqlrbIMrZEKP9onqazau7Db0PLvGEH2TWb21HOyeXkdDlia42Vce+Tmu78eKIvFV+ueC+4e24A4rh5DjNdE3e3kRT2YwAkjir8KndwKz4wWbryauw5GRg8H1qUVLY1k6VATtyfTmnBztz61Vdj2HvVHInaRUnIwRjnqPxqGPIYbgDx60s7cH6g/lUEblm6HB71DOy94mqpGB0HNfW3wJT95Fxn5s/hXyPGgAHO7npX3z+zJ4clv3ibYccEkjPB6VVziqn6C+AbSaS2iKJgYHWvoSz0yfylbb1461k+BfDMdtaJ8oIAHOK9xg0tfKXYgxx+VPnuZqlqeB6/psvltkYx2HNeAeJIGRjkc5PFfb2saIrI3yjk185+N/Dow7xgA8kHFZyasXyW1PnrTU/0j0OfpXbRQedB05H9K5a2haG9IYbmBORXcWsfyAetedI6IrQ828QWbFGAHPPavnLxZpsrO/y5GD7V9eaxaKy89ef1rxrXtFE27Yoz3zWfW5Z8P8AiXSnBc7R1rijazwLvVePTNfUviTwwpzlR17CvO7rwvhHwuQRxx0p1HdXIZ4h/aLxOd2FbPFX1v8AcCxYDFN8UaHNYyfIpJHNcOGlPO44rxPZU5PY0cuRaHVXesnmKBs54Oafp14UwSSCDniuXjjYgg8knrWvbxMCApyBU4qjT9nY41UbaaPX9E8QyjbucjaOK7ZPGUqxYc8EfSvDtMdwwBPSullSRlyWx6V+SYvA0nUd1oe1SrSS1O4l8UtPMFDdOK7Tw/rboy7269weK8Ltll88Hr616Lpe5ggU4I7V5mNwFONJWR0Rqts+pNF1rzkB34wMVq3+osYWIbPFeWeHmlaL5WyRgV1UvnshBJPHIr8mr4WCqfM9FTfKeZeKr95d8YOQc8183eJYZjKct9O9fSOvWZlLADBycmvHtY01TmNjkjI5HrX7LwtyKqkeLirttnjaXF3CTFGc7efqTXTWDXbDa+QTx9KtjR8XO3Az9K3U0ho03AYz1PNf0G8JTqU9jxVOfyObna7jIz36VlzXJzhiQR1rpb+CVVCuMY7muFviyO5J47D1rnp4CK0SNHPQzbuTzLkdxmvoT4fgRwo/sOa+boXaS4GRgYxj1r6L8DsVijwPlJHHpXsqPLGxzXuz6k8Pyfu0711F9OBDuwSoBrlPDhGxMflXTXxU255wBnI/CoYyXwayvqBIH8Qr7R8Gf6pB34r4p8FMP7ROOgYc19q+DgSI8e1cdU7qe1j6G0f/AFa11P8ACa5XR+FX6V1I+4a5EejHocdrJ+WSvJtQw0rt054r1XW2Plvx615NfkGXjsTmp6jNfQ/9YPrXr2k9FryHQ/8AWD6169pPAWrOd/FoaV2QFP0NeVeIfvH6V6jf/devLPEDDJ56Cn0Iktjh2+8v4V3nh7PPXtXn53F844r0Tw9938qT2OmOx6LF9yuZ1kEg100Z/dj6VzWsHg/Q1zyKPGNU/wCPpvrV3RpkimTPXvWR4gm8qZivJzWBYar5dyDkkntmtqIH/9f8kYFBULjvXQ2qgckcGseFcEDjk+tdDaoSo4pVTz4mrAo44qKeIAEkc1oW8ROOOR0qK7jJyc4Pf3rlsdK2sXvCDyx61HGCMMRn6Z7V+mvwnaOOCLHtx36V+Ymgkx6lE7HaARgiv0P+D2oefDGOWIAOfXiuLE3T1Oug0lY/QXw1LuiQqe1egy4a3GeTivLvCYJgjbPUZr0t8/Z8+1eeegcHqK4kbHcmp9NXLqcjGMVHqQ/en8/zosHVGGTwOtdENjOex6vo/wAqqPSupmUeSfrXF6RdxYGMkDFdXLdxmDPNasyRw+tKT+BrhnOXNdjrN3Hz6kmuGNym4/WkM6/RRll/CvTLP7h9xXlGjXSbwDkYr0yxuohF17d6BtNFLVThCT2FeX6lnzGx1AJr0bVrqPy2we1eX6hdo0z8dRQCTexzMmfN5NdRYDMQHqK5Ca4VZuneun026QoBjFZSE9DM8Q42HIya+e/FyghvYGvorWgHRq8R8UWJkU8Ak5qFo7miasfIXimPE2ccZNGgQSOw+Q9O1eg6x4aa4nO5c5J4rsfC/g4eWrGMZPFdinoYtas5mGO4W3G0EACuW1MTmUKwODgccd6+oIfBebf7gGcVymueDUTOU5ByCB3rNqL0sS07Hq/wg0tJNLhcggkA819O2dgFQMBwfavB/hdGLW0iiI2lQBivpK0YGIYPQD9a6ISsrIxS11Kj2IMZ3V4j8TfDcN/ps0ZTJKkdPavo/aNhG2uD8UWH2i1kTGc5HTpWVTVNs1ho1Y/BH4veBpLPXbgW6EZY59OteN2Pg6YjMqEknpX6r/EX4bJf6pLK8QJyTz3ryqH4UQxzrIYQQewrwnWnC8Uj3o0Kc0nsfGWl/Dl7zD+UVXPcV0U3w88pdqoM49K/RDQvhjY/ZUXyhkjkVB4i+Eyx2zS2yDIBJ9q+KzJYi94tk+ypLRn5j6t4PaKPYVxjuBXmlx4WmW6ZUUgdsnt+FfevibwUYcqyYIJx71l+HPhSdWuwZkzESD/niunK8bVUvZSOCWGi536HyJp/gKWf5nQkkDtkGs7WvAj2y5WM5PHTFfq1pnws0ayt0i8lScDPBz+tcx4l+EtjfI8VtCNx6cV9f+9PThTopWa+Z+Ql54furdypUnHpUFrotw77dhx05HrX6I6t8C3ErgxjJPQg1mad8FpY5wrWykZwSAa76Naai09zzp4aHNpsfIOj+Cbq7RSUKnpkDNdvH8J5ri3C7G3Y9Otffnhn4T6fp6q0kKkk56Zr2bTvhvpUsQVoFUHgnFeVXxtS+jPdpYSkktLn5JT/AAhuIFEqofxFYN/8Pru3XdsbgEjHGPrX7HX/AMJtNKf6pdvvXk3iT4UaezSKsajjjBPFctLMKidmz0KmDouOiPysh8I3k8wGGwDg8V+tf7JHh1tN0Re5JAOeteQwfCdEnDLCpCnqPevuT4I+GU0SwSILjn09f8K9uGNc2lfY8HEYGMFeLPrDRrZRbpkdK6Mwrgdqracn7lQB05z61puRtGeDXrxqN7HzzhY4/XYfkZs5BB/ka+I/irZNcX6bULbWHHQHPX9M19x6y26Nl6YB5r5n8X6ZHcahGpUEg5+tY1q3LqwVNt2R+fn7Q/whn8ZeCD4j0mFpNX0KNmKKMmW26lT6lPvD6GvzBmRWYrkFMAdOc46gdcZGPX2r+k7SvDsO3lQD19QR6EdweQRX4w/td/Ci1+GnxZuk0WHZpmrxrexR9omk4kAx0BYHA7ZqaOIVR8q3LnRlBXZ8e7Np2txUZGJPmXKjt65rQdDu+YYBGM+5pt1GCMDjbgEjivWemjMLJrU6rRPENzp8At4zsTIwGKnHfODg+3BFez6N4zljMd2zGOIYDggYIwc4zkjJx0Br5WllCuJCoLDjBGTiuj03VVhwj5kcAlgrEYB6YJzx6jFefiaHtLNH0OBxrh7rZ9H3OstdPNd6UXt7iNsCQM2MH+EggA57nqKqJ411rSpjc388aDBJMbgKQO5PIJPoOa8og8XTRwxPG2dvBbADj14yQc+uKyp9Ycyi7ilESKCASQwJznGCOh9AR9a5FhujR70sZ1TPoWH4heH9ShWRICbsDCEF5YwidMyAgKT6bME9h1rhtavdI1R90KhEOcuOH3HqWEZBIxxzn3ry+21O4mnku/KQMgDEhcg5/uxse/p19CK14dbUwyi3ikZkBZ45QiIAQSWwpPA9Bk0QoOOzOeWIUt2dZZR6Fu2alCqQRMFZGVXbaP4iFGcHtzmvSNLuPCmlQifTowYZFLKFD5GeBhSSAMjnJrxy3eC7Dz2uXt1yHkLbFQkjYSr4xk8KGIySAOtR27eVdysILh5c72iAPVsEgjIKjnqRgHPWlKD3a0NadXladz6Jfxva3TeVphaSNcAFEAKkDuc5HPf9K2tM1m4v2Mt9OUkGxAA8alsjgbeuM8ZGea8X0ydY2bU8EiTEbKjq6Kc9DgjDAdjknrXTLr1vNEiuVlJJZGYAABecHacbl6jPTpg9a8qVNbJH0dDEXXvM9WutfitcREea0pwVQjAQehbJBB6nHNeV+L9ag1E+bFJIhiBVjkEkH1PB68DI6Vm3WtlHa5SdollZsswU/Jn5mwAcE9cYNee6xfW5BaIx3kkhOWfc+R2yTjGOwAxWlCheV7HDmGKUYWjqzjtZkmaTa8hfHAOMADNUywjiGcNkdO31q1IrSIUYEDPfpj271QlADKinAUZI9BX1MY2SR+bTlzNso5LOZW55wSegAqZWZmCcE+vaqkjAnB5TOQOlammxGe5UEgA9T6CtzK53OhpHY2T3zgbyAsee/qarbjJdCUnJzu5OMkcmqNxeLI4iiyIIvlTPAIPU/jWjols17qltbKCxeRVwvJOTggA8Zwe5qVF3bHZvRGT8SrNrfxK5dCC8ML/XeoIP5V5rJEcZIr7q+JPw38G+INUsDfeJotD1N7YQxQ3asIp1hO1SJF4BzkEEcYrzG9/Zk+JTQi40fT/7XtyQBJZt54IPII25wDzjNWlpfoJpxdnufMKqEGAMk9avRANhSCK6XX/B+v8Ahm7NnrdhNYTEkBZkKNgdyCM1ipCyuQcNjv0zSIk7oXaAg4qvKoX8atlWAGBkikl7cZ4oOVayuYM68EnvUKLnGO3vV+ZOD71HCnRj9MVDO1Fy3XMkYI4J5Ffrv+yF4fibQra8KklwCST2FfkjDxKnHcD86/ab9jqBf+EXshnPyipm0lqY2u3c/Rnw1p6R2qBeBx2r0GKFdgB5Fc7oUY8pcdABXbxqMDis7lnK6laqVPGRzXivjDT42tpDtI6gcd6+hr5AUOOK8f8AGMZ+zuoGeppN6Ey2Ph67RIdVkQg5BOcfWur09AwVSMnFUtQ06STV5nA5J6Y966nTNPlOMjGQRiuJp3N1sjmtVtiQRt7VwM1grht45ya9l1KwZVOVycV53NBslYHgHPWoa1EeL+I9JiWB8AZPPFecQ6Y0ueMjpjHNfQmr6YZo2wARWXYeFZJU3RJknnpXLVlK1kaxjFrU+R/HvhpfIaRYyCRnOK+Y9T042twV5AFfpx4o8D391Zspg3EgdulfG/xC8FTacTJJAUA5yeOBXnRb57hKjpe54BCVJHJIzW7YQ+buCgkg1jW0Be68hRgE8n05r0rQ9LkdxHEvfk1ridY2RxxpptJbmVaxNCR8vOemOldAZDtAccY9DXo1h4Rupfm8g8jOfX9KdeeF5oY2SaIjg8+lfn1XDt1HdHoxg0tzzaOWBZBwcnv2/nXoPh7EhG7g471yNxpLQuNwxjp716F4T0u4uiu1SxxzgVzZhhJToJQWpcLqSuep6CRuCoMcjNehKPNj2qmT/Oo/C3hK6G3dETnHJFet2nhWRBkxYI6HHevyerkletU0TSue/Dktqz5r8QaZIhMqqRk9K8s1jTg7gMAeeor688ReHHdGDJzk9BXimreG2GV2AEE4981+s8PZZ9WknLU8vERTbSPEI9IDy5Uc5wPwrpRoj+WrFDge1ejaP4YdpVUxhifavTbbwZOYBmHIr9qp1kopM8h4bzPj/W9GwxYqSCDxivIdbsFXcxXA9hivubxN4MuV3fueACOBXzP4v8NT2okOOB7dK3jUV1qZzoWTaZ88RIFuvl6Dj86+iPBCloI1A5BHFeICxlF+FRc5I6+tfR3gjRbhgj7cHIJxW8mmtGcSg0z3fQARGm046ZzXS3n/AB7kcnOcYqroOnS7ACoH4/8A1q2bywk8ggnABPFYto0SZB4HUnUD2wwHNfbfg0FVjPsK+MPBEDJqJGP4hzn04r7U8HqAEXI7Vw1WrnXSWp79o5yFI9K6gnah+ma5fRwoRfmrp3I2de2K5k9D0TidcP7tjXk14P359ya9a1sDym59a8ougDcE56Gl1EzW0MHzB/vCvYNL6rXkWiENKBnGGzXrul/w1Zk0y3qDYRs15Rr33mr1TUSNjc9Oa8q8QEbjz1GaBJN7HG/x7e54r0Lw8uB1BzivNZSEfJbpXa+H71NpKk5GKG9DSKa3PWEUlMegxXMaxyh9qvpqICE81yWs6kjZ+Yjg1zSLPH/Fr+W0jLwRk14hP4kFreKhYKQcZPvXpHjLVkCyDJGc818ieLtZ8q+BDkjI6VvSVhNpH//Q/KSCMcNjoa6WyjBVcg5rItYjtz1xXV2FuWYemOlFQ8+G5pW0JAGRzUVzE2CBwOtb9tbMSM1BdWpG761glqdBz1hCxuk7ksAAK+/fgdayRwIXwOF7+1fF/hnS/tWrRKyHG4c1+iHwt0hLWGNFAJIB/SuLF9Dagna59ieFE2wRZ64r01gfs4+lcL4ZgHkRnHSvRZIiIRnpivLPVR5zqzeW5+lcr/aGxwFJHODjpXT+IQVY+4rzt+JTjsa3g9CZq6PWNF1NyByccV10mov5HU15pobHaOetdk5JhP1rUlRdtzlNc1N1zk9689fXlV2GeQa6rxEhMZI65OPWvG50lM5JyeTQO1tT2TQdWd2DZIzXp9jqrbcE54rwjwzIcKp4xXrFix2DAzxSTC99C3q2ouUbA4wa8n1DWTFO28n6V32qZ8pieDg14hrjSGVy2R6UNjSsWp9ZLynBOPrXXaHfSS45zjArxqFpTc4cnGea9U8OnAA96yk1cUo3dzt79g8Rz1rzfV7fzXPAJz3r0u6h3RZx6VxV7bFpsAc5qLgoOxxA8PpLKGwMn2r0Hw/4ejXBIwccfWr9lYqVHHzY5r0TQ9Oi+T5Sam8h8jGW+gj7OAQOR6VyOu6AGy2M454Fe8wWg8kfL09a5nWbEFX4A4pXkHIzyXw8osZl7D9BXt+lXqNGOQScd68gvI1tyWBxjtVrR9fVZhCz4PTGapVWtzlkrM+hkkDKACORzWNqaL5TDqKx7DVCSAzg1JfXYZQw5wckfSuhTutWSnY8q17Q4LyRpGQAEntXFHw5bIC2wHHtXpmqXSxqzEYJPArmFvIWjc7gDg9a5eXsjdVZFGwtI41CqoP4VcurWJonRwOQfpVeznHbI5OM/wBKNTugkBYsBj1rzK61aaRoqjPBfHOhWgdZ8dTggDitbwlosENqjKByOuKx/HGpwptQnO45rX8MaxD9iSMOBjrg15uAoQ+sORm6rTO3a2hDbQM56mt3RfD6XbF5FBAPGRmuahu0kcBeQetereHyqQhs7QfSvsVBXLda6scfrfhyxTdmNck5yBWBa+F7KQsyxjI56eleh63KsrFF6+tULBdh9j1pySsYqbve5x1xoS2eHCD1GB61v6TZqUQcHOPxrU1VotqjjOKv6PGgUEnOAK+NxkkpWPrMLNtJsbf2Q8n5VAIHp2ry/VdPMk7Fhz+le63UKPFuA5IrzvV4FR2wAPwrxoytK9z05N9DibXQIC4ZlByBmvavCNvDa4wAAMADtXmSShdoAx2r0LQJ+g7E17FOryq5xzi5Kx73p1wnkZqa4nHHPPtXKWN35cWCcCmX2pxxp94Agda9injIrdniywrIdcu0jRizduea8Q1ST7ZeluoB4rptc1pmJXIcHIrmrOLz5kbsc5rjxGNi00mb0sLZXZ0+jwyqQxGelfnj/wAFENHjjl8GeIFtwzTR3NrIT/EqMrqD9MnFfprplqqou3njJPvXwR/wUR02b/hBvCmooCYba/mjfjIBmj+XntkgVjhcR+9STNcRQXI5NH4zavaCEi5tzvhc4yP4e2D75qntMsfzDOeSRx0qy9+Y7hoJxutpiRJjnB7MP61KEFq3lBg0bjKn2r9CT7nyJxt2rK5bv0rLaQxqGUYIPb0PUfQ10l/bMJCrAZbkA+ntVL+x7i4ANsrNG3GcYOe+0dzT0Li3ey3MTzN5LqSGHIOcAey1PHc3cm2R5RycjJHB7EDnH4iuitvDSM6bpwxjPO4FWUn1Heu2svBcF4yNJctI5OcrGoRyPvcnGCPes5SildnfClUlszzZbl3uEk1KfymcgGQqXORyCFGBgdOorVnl0t1HAuBEVEUkDrG0p64VWHzY6EjOT04zXtVr8M7K4iDi0JlJBLGXYCCe4IOB6HBre074V6TbSozRzwXgYLFJCY1wATl/m5ADBcnByCQMYrjdWHc9SOGrPWx4DDLptxE0enb43BV1BQtOpPAG5SMjPXGSDgjGK2LfWopLZ4L+ee3ETIsao3+lNKCMkFuQADyGJyea9uPwy+zzPAFuEMRDSxhQJFMgGMOSAWHUhOBnIOM1S1DwRfB38xIVUkkqsSSThGAzlyWOc4y2c8tUOrBqyZqqFVO55uPEhMh/s+KYO3yytIyk5H3WcHjdjv8AlTW8R3RURMpEisBIu0IFI53egYdDng12F34ctTbFyYPJQDcArl2OOdr8A5PAyMA1x0ujXTYgllwpAQqoV2B6gvnqfQVmoxe5Up1loivDqazDZEi4JHKnLA5znB6UkJLTZjALHgOBycc4x60LYRJK6sAsqjG8DJJHqBzVwRpaQuzBQ24EHcS/Hseme1dcYxWx5851GryZVmFxskkKACPBJJxkE4yN3XnrjpXOzyq7koT6E4xmtS9neRjkl8jgNgkD2rFlwhK5zj9K7UtDyZ25nYiVdzDnitRJhaWzfN87nAx1ArKVlVTI2BjpnvVdrjzH3NyCMEdq0MWdBBKMhGJI4GOwr2T4R6T/AGp4pgZ0DRWymVjjgY4WvDrdjuCRqDgZJr7A+BGiCLTLnXJhiO6/doR3C85X29ayrVFGDZ34Sm6lRJdDG/ae0+WXw34e1hAsn2a5lgaQDJQSruUYPAyR6Vgfs0ftNeOv2efE39q6HGmqWNzEYbiwnLBHUHOUOcBgTwa9e+OekDWPhVqscas9xp0kV7H6kRsA/wCUZNfCFuzSIYscpnGeATn19axw83KCT6HRjaPLUuf0T+G/Hv7Ln7YWiRWPizSItN1m7UJmRRFMrgYYRyEYOMD1r4l/aA/4J3eKPAMU3ib4dTHxBoWSRGozPAgHQ4HzAdM18x/B745al4T8Ly+BPFNgmv8AhiaUSeWpWDULFw2TLZ3Sjcp5yVOQelfo18EP2r4/DXiC5s21G41n4Yia2iN3qjomoWcl2pJSSEEmVFcYLoCADziuq558qTtdH4v6pol5pkklvcxeXLESrA9cjqMcGuXeNjnI5FfvJ+2V+yLpHijw9P8AFj4VWcZmRfPureAB0lRxnzI9o6gcnHavw61Oxe3neNhgoSDjIxnsQe4IpnDGDW5yU8Zxj1GarqvAHetK4+Y/TIqoq4I45zUM6UXLZcypv6AjpX7S/seOP+EYs/oBX4vxKSw3cDIwfxr9nP2O0P8Awi1kdwxgVlV6GS6n6eaH/qh9BXaoBtFcXoX+qX6Cu1j+4tZlFG8+6fevL/E0ZkidcZIBr1S5AIOa8/1qHzA20eoqZbBa581roiyai7MoyTnpXYWehKuDgZUcDFb1vp2bw8DJNdhDYDb90Z+lefKbvodihdaHkOr6OQC2zGBXkGr6OylmAzjrX1Lq9idpyB0PavJ9TsBKkjYwOc4HWhSvuTKDR47aaPJd4Tb9ARmvXdB8IxiFdyDOPSszRYIFuggXGK940azUxKQMkjnI6CtIpPcSdlY82uPCMEsZjKAAjByK+d/ip8HbHUbGR1h+cAjJGR0PtX2/dWq46Agd8VyWvWcc1pICAQQQR9a0cF2Lb0PwF13wPcaN4olsGQjMhAAGAeeK+ovhx8K3e3jubmIMzHgY6e9e1/EH4fWU/imPUfLACPk4A6Zr2HwvYW1tbR7FAHAHHNckoJpowjo0zgLD4cCKMHyx06Y6fpWF4i8EWawuHjGcHGB3/Kvqe1SIcYHIxXJeJNHDwNJgbcHJx0rgnhYNXsdKmj89NX8HfaNQWBE53YGBjivo/wCGvwmgjjS4kjPzjoR0q3ZaBDdeIhhNwDDBxX174R0eGC3iBBzjjinTwkGrsTmiHw98PLGOJB5YyAO3pXcr4DtQuTGDn2rvtMtkUKFXnA6iupS3BXBHAFdkcFS3SQ1UfU+atc+H1jLGy+UATk5x/wDWrwbXfhcrS/u0ySfSvu7ULaMhlwM1xdxpUMjD5MnPpS+rwTulqP2jPmPwp8LLaF1eeIk57jivabX4e2UcQjMKnI64r0Kw06GJ8FMY9u9dfDbr5YJwcV3KAc58y+JvhraSRPtjA464r4s+KXwzEAleKEY5zgdc4r9WdVtImQswBB46V86/EHRILq3mUoM4OO1Uo+ZnJ3PyCfwGFvcrFxuyeOa968IeF1jiGE4GMcV2OqaBFb3shCYwecetdl4ctEXaoAA44reNlsckkWNO8PCOMMF5HI4qvq2mMsJO3nPQCvWrS3TyQfTFYGuRxhD061TZmeTeH4FtbskjDZz+tfS/hLU1BTnnjNfNW8Q3xdSMk4/CvXvCkz70y2M+hrhqnRS3PrLRtTBQc5wPWurbUh5Xr+NeSaKxMY57CunaQ7SoJ4rmudvNbQi1vVV2Nz39a8uutTTzWOe571s+IHKxvzjOa8L1PUp4bho0JYk+tCkrlnt2jaqvmrg8k+tevaRqfTPf3r5b8NTSSurMSDmvctIZtqkscAVsZ3vojvdQ1FGDbjjIrynXNUUvgnoPWumv5soSD61434guGV2IJyO9S2gWm4281JpZMRnnofpXXeHp3PUnnFeV22+WZcdT1969T0GBsDjHAqHJFJpnfNPIIzgnpmuF1m4lUMQxyQT1rtXiYIcc8VxOswsyncpJwcVi3d3KPmfx9qdxFFIwIIAOeea+NNf15rjUdpJzuGMnIr7D+INqzQz7UJJBz7V8OeJbEwanu5+9xXVQ1dmc9Rtan//R/L+wj8zFd9p1mWwB1wK5jQ7bzHHHIFeu6VpysoyOSB2rz6+KjD4jno0nLUit7RwF3LjHNZeqRlMnZkZxxXpkWl7IsYycdTXKatZEE7l4BPSuOOPptpXO76u7DvBKQrdJIow24ZB7V9+fDe4TyY89eK/Ozw5diy1BQ+Rls49q+7fhxfq1vEwOAcfrU168Lp3KoUXayPuLw1cxrGgBzXfz3afZ/wAK8T8OX6+UpDA8V2dzqOIe/T1rz5VovY9VUHbUztbuVZiMda5gWyysdvOeeKh1HUt1xgHjGDmtrSNshBwCCM1tSqJ6MynTa3On0XT3AAAyOK7c6a5t+nJHSl0O3TYDjg4xxXam3Qw5wMetdhkjwvXNLcgjBOa83m0LMrN6V9Aa5bJg445rgHhjy4K9+tAM53RdKYSKFBxXqWnaa+z8Ky9GtYtw4Ar07T7ZBF0GMVKM4nm2qac+xuPWvJNV0YyyP8mc19LapartYYGSDXlup20aynAHB5ps0ueGS6Q0E3ypnHftXZ+H7WRADjAzV68t4mc4HU10OkWcexeO4rnk9SXI0ZrdvKGfauVvotsmR1r0G6hVYMY5FcFqRYS8DvUXj1LT0Ltjyy/SvTdE/h/D+deYaec4r0/QuduKCrnosAzCK5zWE4aukthmIVg6suQ+fSkxN6HhviR/KLc4z6V5K2sm3vshjnPTvXrni2M+W5UdO9fOWoWl3JqG5ASM9TXNOTtocjV3c+kNB8TLJGm5wDx1NdXPr8MiD58496+etFsb8IvcA9a35/7TjjGMAd/WuT2rT1FyHT6zrUDblZgOvfmvGdd8Vy2rBbZs4Oc9qreIJtQLEgkZz1rzqb7Q7fMM54NKpi2o6Fch7VoPi8SxhpzgnGT2q9rHia3ELlG3HBxjnFeR6dZzOo2ZwR0ORitK7tLjyShzjBr5XFY2VtHqHIeY+NNdlvJSFPIPJ7ZrA0zxmbFBHJLkryBU3iWzdA5wc85rwvVxd/awsRIyQBisMDXqKfO2ZtH11oXxEWRwjE844r3vw34wE8YVmx6A9ea+F/CFjeSuhIyeOa+lvDmkX42uFxj3r7WGNb1ZagmfQwuEuQX3D5ueeKia9jgV3JH51x8R1G3i5BGBwBzmuXvtS1KaURMCgB5967niPduWqeqOqvdXe4uFiiY4yfp1rttEkmkCknsK810S3M0u5xkgnr6V7dodgqqCQOg/GvhMXWcps+xw0EopGlL5piGQQMV5/rayZfivZZrWPyB8vQVwmsWkZL/L2rzVddT0JwR5QgdSu4Hr6V6FoEuDxzyKw7m0UAKFx3zWpo9uysQrHNW8TyqwQpJnqVvMDAa53V7kRxEZz1FatjGwg5JrN1KGN0O4dDWMazkbSpJLY84kilmfcWOMnrW1p8beYgPYjpUwhXf8gGAa2bKLMwyAcEV17rU5ElfY67T4ztP0r5L/AG8dOluvgDPcKhIs9StJC2eFVwV/LJx9Tivs/TYkI6dBXz3+2Npv9qfs5eL7dFBMEcM4HtFKpz+HNdWE0rRt3LxEE6LP5vNZTZPJIgICZHPUiqOnamin7Hd/JE5AUjnYSex9D39K2NZ2M8h3A8/zrhrolH4HFfsK1SPzWUbNo7O+t2ZGXYMpwGJ5I7EUyyu1gJRnPllQu1ux74PasPT9SZoxbXLHb0Vieg9D+NPvowi5t225wCynJyeapRQRdnc9Etr/AE/cnnxCLYSGO7c5Bx0HQcd677S7rQHCxrIIkYF0V0DlsHgg5ycjtjPtXzumrzoDG5EecAso3E46nnoT7VqWfiSa25jkkKqdy78ZLjoQRk49c1xVKEpN2eh69DFpOzPrDTLudJDFFfxXKFcFlYqcg5DKpGR15GO1ehwiyNvGJ7mIoSxVdiEygDLeW3Qkd+cg+9fIuneMLhoI1llLhyFbflASeACQAQo65BBrubTxr9m1ARwFkigAz5aLJkBQM+m0HgYAYdTk9fBdCaZ9bRxkGrXPp2DUtOlEpDyyp5YCBRgsCMYCyckIM9Tg9RXNyahFbwyXFjhIyxURlSQS/JzkAg8nocZ46V5RP4wjlhlm811gLBmmnIdwSRgAYz8p4AAxjrxWXq3jcoBLBcgQlsNzkSZHPzHkE9gBgUnSl0R1PEQSuzrtVe1ML3TQhIYvukFgzN33iPCgE/dHPFeb3eqWF5fS4iklWJgWjJBIBPIXHDMT+I74rCu9f+2zxut0zQKCGBOVU4zwB1PrmqVxryCKOCJRsTDEsMdTnAI5/OvSpUm1qeNXxEN7mvqF9o00gk03ebZ/miWVR5wYqMhsHIAPIrlbi4MszsRkDGM5y2O5yT061JJd3N+rxANHChyACCAT1GRyaq3KfKFAyVGeenHrXq0oWWp83Wr3domZOwZzKxJOOuMYrMuZ0UAyEk54A9KgvdTiRmggPmMerAgqD6AVkSSOTuY5J7+tdJwFia6aX742gnt0xS25DuSSAB37Vn7grDzDwOo61ftWEx3qu0DoDxn3oIZ1+j2k1/dQWlupZ7h1jU54JYgDPp71+jHhjRI/D2k2ulRAhbeMKSegbGWx9T0r5g/Z/wDCrXmoyeKrnBis2McRK7hvYZJYcjjt6V9c3Gw7gMsIwADgA4/z1rxMbWTfKj7PLcNaLmzD1uxXVdCv9KlfAvIZYumeWU4/UCvy/wDOkglMUsgJjO0gDB3Dg8fXNfqmWAY7txA7AZIBxz+H9a/NL4j+E9b0fxxrFnFp1wLeS6kkt3CMUdGORtYcMBkjg1pgJ3umYZpB3ulsb/hu+h87y5QSs4Cj1BFexW2nqfKeVCHiAwc45I5z718w6fBrtrMi/ZLjD9liZicdMYB5B619N+Atbi8RaeLa6zHqNphJVYEMcdCVIyD616VZSjqtjgw84v3Wj9aP2GPjpd6lL/wpTxe7XZlVxYTSndmFBloHHcYJ2mvg79vj4IwfCH4tG+0dBHoniVHu7ZAuBE4OJI/oCcj2Oap+BNb1Pwh4w03xNpExtrzT5o5Y5BgjJIVwc8EEHpX6kft6/Dex+J3wJ03xUSWl0IxXbSRoGdoZ4wsmB2AJz7YrSElJJLc5MZT5JX8j+cSVMk45xnNVFTOMAEZr3O9+FANyqaNq0U8bAk+YpRgqjcSSOCAOSegqlc/B3xCtqLvTZIb1cAgRvg4IyDzjr29a7nhKtr8rseQq0O55NEn75R0II4r9ov2PIz/wi1jkclRgY61+OU+m3OnXZtr6JoZ42wysCDx1PPUe9ftB+xssFx4Qspo2DELg4/h//XXm14taNWHF31R+keiriJM9h0rs4vuLXKaTGPLAI6gV10SjAx1rKxpYp3fQ/UVxWrKWyDx1rt70ZFchqYBBJ7VlJ2QI4y0t0+0HPUmuxigAj5rm7MKLj8a61RiED3rym7yZ6EVocnq0OEOTjGa8g1OQR70PAORz717JrDDym59a8C8T3f2cuzcgdvWi9htXOattQW11IEsAAcE19CeHb+Ka2Gw5BA5FfHl1febcNJG+05zivTvCnip7ULHK+eAKpVbGbgfSF1IAuR09a4rWbtFt3RevQ+1UZPEsM0Zw3FebeJ/FCQwSuG5OTXX7WLQmmeYeKr6Br5xKQCrEg/Sreg6ssiKobI6cV8w/EXx09rqRlRyEDEkCug8C+PLbVQrCbBJAKk/rXO2jGzTPsPT5lYAKc5GaTxBNHFp77iMkHvXCaZrtuEDCTkDmsXxH4geaErb5fIIJ7D8KxnK0S4q7szntL1CODxAC3OScAH3r628J3sdzDEUOABXwPuvBqAuVJUq2ScV9FeCvF/2eGOCRsYHUmop1baMpwPtnTpRwd2eK6dbjCD1rwzRPFNvIilpOuOhrs/8AhJLcAfP2r0FUikCgb+oTjDetcbLeRo+7POfWsrWPFEEcTMGGecZNeGax8RYre42CTuc4PFQ6ivqS4yvsfS1ndxzOMEZ+tdfC4MeCRzXzH4X8eQ3TAmTqPUV7FaeIIZIkw/OPWrVaPkL5HVapKoXDdMda8D8eXsUcUm/jg4rv9Y8QRLCVLAEAnrXy/wDETxE90skcbEjGMg9K5p42nF7oGrrQ8U1fUoZbxwOPmra0K4XJIORkc15ddPObk5BBJ7ntXd6CHCHknn0rCWYU+6RLg+x7HbXkYg6/rXHeIL5dhyxqwTOluMZwfSuP1sSSRs288CpWY0r25rlOk+xz9nsu7vfknBxjFe3eFrN965OMdK8Q8NKXu9nX5uv419ReErJSVOByO9bOtGaumXCk1qel6HE/lrnJNdNJAVjL461Z0ezQKOM4A6V0U1mvkkbOa5/bRWjN/ZniXiEN5T4HPOP1rxufSbi6uy+AK+ifEFggRjjnrXE2lkhLMQMg88VVOV3dkNu2xleG9HMBCsOc5zXsWm2j7AOlYWmWiM6FQPTivTtKsVKjGB+FdjatuKO5w+qQuoI9Aa8c161kklHYDrX0zqmnptJIB4NeQ61YIXJGMY9Kxc1sVM8502wcSZk547V7DoVhmNe/AriLeIRSltvFem6HMgUYUEcVLaFFN7HVppmYgMDpXIazpAKPwBXpEd1GEBxgYrkdcvIxuUgYOam8Te3c+U/HGjp5M3A6HvXwH8QbdLbUNgHJYZ9q/Rfx1dweVOBjoa/Ob4pXiDViV/vD/PSuug0pWOastD//0vg3RNKYFSqYI6kV7XoumAIpZT261x3h+12ttK5xxyetez6TZgBcDBwOK/Ks6xlr2Z7uFoJotW+ko6Z29K5LXtGVVYhcZJPFex2tl8mCMgiuW1/TztO0AjnOTX5xHOKina57LwnutnzZJpTC8EgU5BGMetfTHw+v54Yo0ckEYryVrOP7SFx/Fya9f8LW6gJ5fJ4r7GWZNwTDC0Fdpn1h4Y1NnjTBx7V6NJd7rf5m7V434Yhk2pnjABr0uWORYB3yMV5v9pSb0PoVhYNHN3t0Hu/lP1zXoXh6TdswMAgV5VNC/wBsyTjkV6r4dUKEGegFfWZZXlUeux42OoRirI9z0Q5RB6V3A/1Brg9DcYHtiu6DjyD719inoj5U4PXQdrV50zZYr6mvRNdYBTXmxZd/J7mq5kYts6bReXAr1HTwfKHPavKdGkUOOfWvUNPmBTr0FHMhJ2ItTwAee1eU6n/rXr0vVZhtYk9Aa8t1KZC70nJWBts5a4wZSffFdTowGxPrXFTzqJime9dhojjYPYivHrYqMPUaVzp7tPkK/SvOtVX98cetehXjnaeledao5805HevPjjot6s6EkkWdPI3Y6V6doLAY5ryW1m2/McYNeh6JdBSueOM16sKqktCT160YeUOawdXkUB/pU1peL5Aznp3rndZvkVGYntmuhyT0Bo8912LztwzwT0rz4aRG92PlOM+ld3cXSTOecn0plvCDMr4wCazcb6InlRp6RoAMYwnBPFXtQ0FBFlV4HFdTpMahR7c1d1CACIj15rP2XdDSSPm/XNAEjEbCOTXnzeHMSEbT1r6D1O2jZiv94muPuLREzx3rnq0k1sQ3Z6HN6R4fjVV4xgYNWtT0ECAkL2Ndbp0KgDaeD1q/qFupgfvkV4s6MEttTNzZ8m+LtFURuABn19a8Mt/Doe9JZOAQBmvqfxdZqQ2eOteVQ2KtKGUcBgSa56VFcxHU6nwR4XUsjBOmBzX0/oPh5BGFCY6V5n4Jt4hCABzkV9E6PCixjjrXv0oJo2hvYw7rSEjXaV7V5zqWjJ5uNo717XfIFzzXn2poN4fPUniux2tax0Loctp9qIpAFGMcV6/o+3Yo7gCvNIdvmcda9E0qUCNG9QK+GxaSqNI+tw+iSO0lGYMD0rg9WYbm612kkoEJPtXEaqVO455xXCdk3rY59sOvA/Or+nMEcrjBqlCCW6dBmrkAzLvHGe1cVZLc6aTR3FpMPIxWDq10ADzx0q9bDbCTnOK5TWZM5OcYJ4p0C5vRogtJN8hOeCa3bd/LmGfUVyVg53Z7Zroo5B5w56Yr1Yo8xaSPTdOm4BwTkV5j+0Hd6fD8EvGq6kQIpNNnXJx1424z3zXoelyBYi7dhxX5Zf8ABQb4932nLpnwm0V/Lh1Ii51FyeBBE4Cx8cjeTn8K9zL8JKrUUlsjnxWJVOHI92flTqSBnbrggcEc5xXE3yKxPsefavQNVDR3UiY5yR7Y7GuJu0XJ478+9fpy6I+FnZswFDKxPQY9K1rZzIu1yNoHA6AGs98qSo4FXbTJYZOR6dK0Rk+wy6tpBhguQRWVLG5wpHfOMkYrsZYmZV5wAOK5q6lkjYjAcDoDx+tMXkZam4iY7GKg446/zNai69qMeVEjKDkfKcYB6AdOh5rNbUIlOZYm/wCA80v9p6SeZGaM+hQ0rLsaKTj8LNJNc1YyBjJgqCAcYLDtkdDVhb28l5Kgv1ZVOAT645xWfHqmirhjNnHqhqzH4l0W3ZpEDyFhztTHP1NNwVthurN9ToLRr5SsgJQgELk/KuRzwRyfeuntbPzEW5uJSkCEht5wAB65/pXnTeM8qIrPTgHPRpTvx7gDv9azbm91HVH36nO0oGBtzhAB22jikklsCm3oz0u98SaLYxG2sj9oZTltuSP++umK5G4v7++U+YxSIk/KpwCD0yazrSAZGxASB0PQ/hWzFbgqC5OCenQD8KYm7lARAAYXgcAgc/jQ4CfePJHA71rhdpKw4BxyTzVBrdQ5J5bPJ96BGXGjM+ZBwDwK39OtJry5itrVTJPKyRoo6lnOAABVAoC4GME88V9Kfs3+DTqnid/FN5lbXRgWiDDIkncYUDt8vU+ma561VQjfqdNCj7Sooo+qfB/haDwr4c03Q4/vW675zuALuR87EDtu49a6W6dI8RbsCXkZ/vH0PpWkyxyM8UchKAglkTaATyVJ6nB5OSRVK5UO6PwQBwSBkEe3qK+SnU5pcz3P03D0eSKi9ijFEsaBR0kbJIGcHuCfSprawstb0650e9iV4VlICnIIHBDA/wAJB5BGakDZSe5RgWJ2AD5QcdwOgHrUeg3aRanJbyNlpYyNvcEZ7/yrL2klqmOdKDbTRlXXjPWPhFG9zrFguqaCMbr63gH2m2GcD7RGv309JAM/3gOadqmj/Dv47LF4v8AavYy+JoF2jydsE8pHG2RTgP6f416e1tBeWT2bRF0KkOrEYZXGGDD3HbpX5cfHj4aTfCj4gJdeGHks9L1TFxaNGzKY3H+tjDAjG0nIHYYr6nB5hGqlTlufG43BOi/axPtXw3oGpaj4gsvDeoWbWt7NdQW8sEilXDtIFIAIyQRkgjjFf0CeINA0nU9DTwZqqK2m3VlJZyoQMCMxiPj3BGfqK/CT/gm3b+P/AIw/GOLVPFN5LrGi+EYhdyz3XzyiTBWGMSEAkZ5wc9K/dbUrw3Wqy7RvVCF55GSSTj8a9mlTXO12PExWI9rb0P5t/iF8O/iP8H9d1Lwd4p8P30NpbXj2tvK8Tm2vbSOYlJY5lBUZjxndzkYIwaTSrmc2MsmiXbQxSLI6xRbVkIiAEgMkmQMgjJUcAcV/ScLTSdf02TQfEVst5Au5Sso3YB6dc8jJr8vv2t/2a9L8CTaV4z8GaeItLmnlS+aI4RPNQhWKAHBBxz0NfW4bHNNU5nzFeja7ifn1qcGk61FHDf7L9ZThWlCtMp6na6nOB6kDPWvsb9kPVrTwlq//AAi17cq8F4xNrMSMEgcxtzgMB0z1r4qupL/SLgTyqIgB5TMRKCVOdxBQEE45JAzTtJ8SNot7i1mjvbaQbzDHciR3jPHCSCN1I9ASc13YzAU68LrRnFQrzpvU/o80pFMSFcEYHIORn0rolTAA9Oa+Cv2UP2j9B8YWkPw+8Q3BttasF2Wv2j92ZY+yDdjkcDqc19+NjkYIKgZ4x1/rxX5/WoypzcJLbqfTUqimmZV2cqfqK47U/utXVXT5U9sVx2pyKAeevNedPaxTRgWuBc4z3rr4yCo9q4a1mU3IbPJrsIJAY/pXkPSTPRj0MbVkHlnPfNeAeL4PMWQAZ44r3nWJgYj2614zru2XPf2qWy0j5r1CwZZty5BzXZ6FYySAfMQBinavbf6QeAMntXXeHbPIzj0rJrUdh1xaTJbnYSPc15x4gtZp4W3sSR6dK9r1C3xbHnArznUoVcOjAEVg3ZhY+LPH3hq4upX2qWBzkgVneBPBM9vcAplAWHPfPvX0ZrOlRtv3DIOat+FNJjWdQUGCc5qZVOiE0jc0Dw3chEDEkEc5Heuqm8LiNSxQEj16V3ui6aiqoGCOufStS+t0jQ8du1TBtvUzskfPuqaFGspGzBI7VQtNKuEmGzIx3Fei6zAvnkg9faksrZBjgHnrmumME+pV7nQeH7K6CLuY4GOK702tysRdSemOTWbokSgA444GK7r7OrQcd6p3TsmF7Hh3iSO+CMpkIAJNfPmuLOkwy5AyeSK+sPEVl8j8ZzmvmzxRbCOYkDBOcmuWq3ysfOZXhzUbuO4AifgDmvd9G1O9lRMu3AHU14Do4CXHynB9fWvbtBlARCxHTpX51j8ZOL0Z0U2nujptUnneE5c5x1614vr8TzlxIxOOnFezXzq0XtivJPEDAOcHGK+Kr5jNvdm9o9jzK9scEMByPX2rrPDdo7RgngZ6VmzsspGDye1dt4ehVUHTJIrxpZpNOzbHCjzPbQ6eCwP2c4BPsa4DxBatGrfLgE9K9ah2rbkE461wPiBQyFupGcGsIZtUUl7x7kMKrbHnmhxxw3YdhgZ/HNfSHhe+UeWoI4z1r5jivPs9xu5znpXqPh/xAoZcNgjt9a/ScBmr5VdnHUw7bdkfYOi6gNgXIGRXRy36+UWzxXhWi6/hBlugB/Ouin8QYgOHOT2r0JZwk3sQsLKxa8R6kixuSelef2erRtMw3YGcc1k+JdafawVia8sXxE1vckl+h6VeHzuLmknoTPBNJ6H1Do18qSKrHvXq+l3gOCG4r5T8OeJ1nKFycg9a9r0zXgEUg4yK+gebwSu2rHmrDSvseg6lejBycjBryLW71N5wevFbeoa5uQnfjrXkmsawpkGW/GojmsG7plywztqX3vCJFGcc8ivQNCuwYx7V4MuqZuipbfnj6V6t4eu8qvOcitlmkeljenhZJLQ9fe7VIBk4OBXn+v6iMNk5OeD6VpXl5tiJzivMfEWpkRtgjr1qVmkG7NnW8DJu9jxP4g68IYp/n6Zr87/H+t/bdVK78hSOlfT/AMWtfe2hnVycENyDXwBq+qtdak7qSCCAc19LgqsamqPJxeGlDc//0/mrSkjibefXivStKulLqGAxx3rxWzvwGwGIAI4Y5rudHu2Egyc5IwK/Fs6oXTPqMNKx7/YOjrh+ABxzWBraxjLdTzVOw1BtoWq+pzvIroScnkV+Uexaqb9T2lPTQ85v2SNztAznoPevQPBk2GGRxnjJ7V5vfqzT8dAefeur8NXDxTIOgNfdxpP2auckKlpH1z4cmDKhU16Y7qYuvQcV4h4bvCkaK5IOOlelregxDJzx35rzoRtKx7kK+hn3kjG69Bwc16J4emUBO/A714/eX7faBk5Gegrt9D1JflwQMAV91lM0nY8XMKt02fSeiXC4HPpXZm7Ah6ivG9E1QIo3HdnGK7RtUjNv1NfZOqkfJe1RR8QXowecjNeXy3y+YRwADkc1peJNYCoy5GSa8YvfEHly439TzXP7eO9zDnPcNJ1BFccj869L07UFaLOR+dfLWjeIBI4+bpXqGna4uwLvwSM1jLFQS3E52PRNX1JVRuc8HvXjera1smdWIANaWs66qxFdwOAea8T1zXlMjcjPrXDVzGMU7MFU1sdmuqrJMVyME/WvQdFvk2Lz1wa+aYtb2yAqec16Ro+ty+WrKw6gda/Kc0z2MZP3rHq0aUnqj3S6vE2HB/WvN9avlVzk5BPrSvrRMR3PzjmvPde1YMCQwJJ718rQ4h56iSdzulQfU6i11YCUKDx9a7nR9ZO/52BwMDmvnWHVJDLuyFA9OK67TdfCPsJBI5zX6dl+cKUNWcE42Z9OWutAQhSRnHrXLa9riBG3EYwe9efQ+IMRZDc+ua4XxL4rCqU34yK+op5jB6J6nO5aHVnxEom3bgADjrXaaXrMUu1mYEjGOa+U5tdYEPv4Jziuo0nxaykEPkAAV3QxqZjztatn2tpeqR7BgjOOa0L7UUaHJIz9a+c9F8YgqMt2FbOoeL0jg/1gJ5xXa8QpJXYnU7M6HWNWiV+o6nv6Vyc2sRTg7WGB715XrHi1pZj8+Bk9a5oeJ/3gCuCM5IFYTrq2jMnU7n0hpl+gUdBn3q/fXyCBssAMHvXhFl4uGVUtgAVJqXi9Vt2BbOQQK8OtiIR1bBVV1KvjHU4iknzDjpzXlFnq6yShQQcHkCsHxZ4r/dyKpBc5wD3FecaZrMn2jz92FYgYBryFiLyvAXtFc+zfBmsIGC7gDkd6+jNH1hAqq7DPbmvgPw14kEcqqpOcjvX0ToviNpVBLdAD1r6fD10o3Z0RlfVH0Lf6lDtZt2DjPWvNdW1WLI+fqTXL3/ir926q/IGMVxF1rjzsqsRnNdM8UlFnTTbclc9Lh1KPzRzkGvRdKv42RF46DHNfOsF/IrqxJOfftXo2j6sp2Y44FfJTfO22fY0tErHuj3Q8gDjp61xWpXi5IbHcVE+qf6OPmGcVydzel5DuOcnisrHQ3c6u1JbBXpircR2uM9azLCXbD9RSpc5c8muKqkdMXZI7KFx5JB7Yri9ckUSEZwBzXQwXX+jnkVw2uXAZyOhJxUUYpkzZPYTgqNoyc1orMv2tQSDkjjJ7/T+XU9q5azuVjTBGeeecfrXwt8ff2t38CXOo+HPBWyTWAGh+0sMxWzjgsv8AeIzwPWvp8DhZ4iXLBHl4quqKuz9Grr4oeFdO8QD4e217Hc+JZbd7lrSNgzwQRD53lwTs6jAPNfzs/tb+L7vxF8aNfu5cqIJVgQM5b5IVBP0+bmvrD9gm8v8AxJ8VPHfifVZpLzURobGSWYlpJXnmAJLEk84/LAr4C+N1yLr4k+IQ0ZQxXtwJAeSCZDwfr1r9XwuWwwlK3Vnw2JxrxFTmWyOie7S7gW5ByJlVh3PA55rnbsKSdnbrWPoepOdPiSUkmJduQfQ5rVd1fDAY31c9yb3RkSL8zZ9KIm2sOcCpZ+9U1bD880kI3xOpXjkgetYNyx3n3zVuGQEFe9Z9wTk0w0Mq4RTwBg+1Y8sJLY5xW7J0JPYiqToWO7PFBmYohYg4HSpYoHONwz9a0hFngcVZjt++QAO3c07gQwQEHknJ647ita1hZVKqVx701FVDlQ2R68irsZdvlGBnkkDpSGjVtFTHzHBHOOlakahyAwyoBIHSsK0QsRklhnknrW5FnBjUHHYk1LOiKViRlBHzgAjoRWZOyK2MZJ9KvuCq4YjI7nmqBTcTjk5wMUrlWXYms7C6vJ4rW0HmyysEjAGWLsRgY/E81+lXgbw7Y+CPB9poalUuoAGnwOJJZOWw3YgHAxwR1r5j+APgtZ9TPi6/AhisiVgL8Kz4O5v+Ag8Hsa+sJZ4Rb/ZULIkgOJIsPgAYIJ6jPevm8wr3fs0fZZVg7L2sloX0vwW80kJFEWBZuACByq465Pc1SW7e4klkkAMa8yFDlyPRFHc9zVcK06xXN9EUiiYFUPLEjoakRmuosSphckIF+UgZ/iYc14R9eOa4mvpBCirHAgOxWzlx7gdPpWakhtruKeAh5YGDSAjbgA42g9xitaGSAMSAq4ABxngDOBz2znmssnzbkLHIqnJIzjp6kHqK0jojGSR7FaXCXMAkJE28ZZSSMBuVGRjOM815T8cvh63xA+Ht1YWcAuNWsHSazWIfMJOAUHc7xgYGeldl4amkntiGdQIm6EAZGTkgdq++/wBnH4SBmT4keJ4AtpESdOhcEs7EkCVgRggHOwd+TXZg8PJ1k4nl4+cIUJKXU2v2Svggn7M3wOstE1GFT4m1zF3qLL1WZwNsQ9o1Iz719DWNvJDEC5LOeWJ6ljzTpHk13UGvJiPKjJCKeuf7341quvzZHVeK/SqcWld7n5PLfQojcLlU8zyzPuTf12FhhWx7HB/CvKf2i5rc/s6eNrPW5TJLaWRQyZWMtNuARgTwMnOBXq0y75o2UDBYD6A18s/tz6/HpvwVGkQPGb3X9SsrKSJ4zKGRC8jFlHUYUc1pFXqRM5u0W2fi/eXF4t6sEdvqZgjIWNILuEkyhQCyjJYj2xgmsC9ka4mtre8u2URSEGLV7MxgsG5xMFyMjgkHFaeprYz3092x0YXO4KEkE1v8u3AYMCCDkdepPFI0Ws28yea8thbqAzyy4vbdcc/6zJdFI5AI6n1r7mOyPCbuX7O61DQ723ubWKTTHSQNbl5RcWplB3AwS5LgkDgZ64Ffrn+z9+19ovi6ytPDPxFmj03VhGscd4zYinZeCGz90jjIPWvyAhs2vdv2cQwxXJciNHE1lcvEPm8skh45OQSDz6ZHBzZJEWxtGNy1gYC4ji3o+5UbcyEEhjkgAZAOOBxXJi8HDEJX0ZvTxHs9Fsf0o3N/bXUAnsp454yM7o2DA+vIJrzjWNWt49zE7V5znp+dfhponxF+IHhkBbLVJ7ZFLrIVuHGOAzfu2zyint612em/F7xxDcjULe9uo0fiWRpMqXLbQApGME9Mc18lWyWs78judsMbGWjP1006+EtwHiII+td1bXWUGTgHivzv+Hn7T/hZEW28UmayuR8pkeMhCehP5ivrnw18S/CHiOAy6LqsFyQMkK4DD6g9K+Or4LEUm+daHt08RFqyO31u5AjIB9a8f1K6Xe284H1rrNe1MlC4IKkZBBBH414NrHiOJZnjLjPOQa8ps1dSxd1KZGkDAg5Ndd4enXgZA4rxw6mJgcODjoK6zR9Ywo5CkACsZ1VFXYe1PWdTmSS2KgjIH615fqEwjLF24JwK1r3WMQ5BGSOa8n8Ta7sQjd1968x1xe2DUbqNyVBBAODg103hZIw6tkYPrXhKa7mcrv4J6dq9E8PayInUbh1rlddJ3LdTQ+odJeFFG4ggioNWuAilcjbzXnNl4nUJsyMis/WvErLEzFs4HGa0jikc7qNIi1vU4kmG4j86bY6pE6AhweR3rwfxF4sLzEB8Ee9Zmk+Mysyxu+COcCvQjXTRn7ax9v6FcKygqR2716Kko8oZI6etfLXhrxau1GL8HGR9a9NPipfJG1/8/nQ8RGLsylWTNjxDdIFdcjv3r5r8VXCMXwRnmu/17xF5ochhgZ/OvnfxLrhBPz43EiuKtiE1aIpVdCzpt+Y5whbknFey6Nekqv09a+arC/8AMuBgjI717Do16VVAWycfjX57jqLctR06/mesX2osIeSAAM1474h1YM8mxhgdq6XUdRKwnnAIPWvF9ev1aR8sM9q8FYBOSb2N3iUtC9DqhaUFjgDH0616joGoxsnByeK+fra4fpkZPQV6Z4fudqL2OecV8zmeXqm+ZH12CcZJNnuZvQYcZGMetcB4h1FIYTtYZOatm7HkbsjOK8t8U3tw6HZgjJr53DYbmmk+p9VCMLHn+teJTbTEqcEHk54q34e8as1yAXyGx0NeW69NI7uqjjBJPvWboNw0VyjsTgdOa/So5fyUG4PU8Wo0qlkfdGh+LC0Q55wB17V2K6+0qYB5+tfNHh/Ui2xR3AOa9c05i0AZsjPfvXwH1bE1arTbtc9+nGm0rl3XtYmKM2eO9eVT3ry3BdSeK7PWpVSFtwzk4rznzfLckA8k9elfd4XKZ06bbd2Y1aa7HpPhnWWhcKx5z3r23TNeJQfMcdK+ZNKm2zKGHU5r1vR7s4AGMd8183ifawk43djKNBbWPQdQ8QMEIznr1rx3WPEMnnkbuMnvW7rl0FDMhzx0B4rxDWb1zNv6AE5rCjiK6kkm7epjWoKK2PWtH1JJpwd2M9c817t4cl8xFYOMACvkHQtW+ZDk7u4PSvojwrrZESgnjjIFeZjc6lRnZtk0Uk9j2i8Jkh2ZzgZyK8r8SWsxV8Z6mvRkuhJFuHQiuM1yberpjrnnuK6MLmcpNO71PbjCFtT4L+Mdputpep5NfDN/bvHeSKBjJJHFfox8UtOE8UqLgjBPPvXwP4ntTa6kUPUk81+/cOYp1I2ufL5pSu1bY//U+IbK4cynceD1Neg6RcspG0ZwQeOelcFpltk7m/AGu40y3keUBQQD6V+ZZpKD6HbQqaHqmlTO4Gzknkj0qxqRZcg9SM1f8O6fuhHBye9aGr6cwX7vIr83tH2mm57kKvunmkMZubsREA8969E0bSvImWTABHHHWsHR7Ii6MjAZTsRXpdlHvZG4HPYV9VTjF09S+ZPU9B0C2DqirwO49q7uYeVbhRzxXPeHoduDjGRxxXX38P8Ao557dhXkVIRTuiXXS0PNL5gJiW4wcjNbWlak0ZXLdAMYrntUBWY7jwaz1vGgIBPA6AGu/C1nFps8bFV7rQ+hNG1wjG5iDxXWvru2A5evnXStXcMADj2JzXXvqLNb8k/nXZXx1r8rPB9uyTxR4gwrDfjr3rwjUvELSSnaSCCa3vE18WUnPIryKe5EjsWbHOfyrhWJqVNROpoer6F4gcMAWOfavV9L19mQKSRkV8w6bfhGAJ4PcGvTdH1HgbXOMd68vE16kdEc/tLs9D1jV2KPgk8HtXk2paiZZiMnJBFdHqF+GhJ3cgEH615xLcB7s7jwa8F16k3y9zrou8lc1EuZUKjOORzXo2h3s0gBYk4I4NebRhWYbcnGM+leiaNIiqFIySBivj8wyec5OTdj66lXUUkmdxc3eIeTj6V5trGpgttJJ5PNdleAeSWBIGP515VrLhHAz3NfP4fLVTqK+5u8Srbl+3v1aMopII706DVvKlJVicCuSS9WNHww4/Csp9T3XB+fGcdK/Q8LRqQg+U8WpiIczue1w6zI9vu3HpXm/iXWJBLwSevHtUdprGLd8uDjoBXCa7qhlfk5OcHtXq4WFRT1MPaRlsasV7JOAAT74FWRfz2brhjjOcd+a53TbpFUdiasahOMLhsn1r6mk5K2pw1Zu2h6fo/iI9CSCe1aWp+JZBECXryTS7j9+ASc+xrW1SZlh5HTrzXbzzU9zj5m3sRXGuyTXZwSST+dOuNQaJMk478V5+t8y3Z3HPOBg101wytamRuOOprSvVmluaSu9bG5b+I2G3LEADFM1PXHa3L7j0NeeC7ABycc8VJd3bG1Kk54NfP1pOWjIOS17WpZ5QmTkGtHSD51v5jdT1Fed6zd7bgFCeprsdAnaS1VVOQfSvTo0eSkjaB2elanJa3yqD8uRwOtfR2g6kWtwxJyQOK+T4XMV4jE9Gr3LQtS/cod3AronJwSZ6FHQ9E1TVDgqCc4/KqumXJnYh2OSOTXDajqR3nJOD75rV0G8JlY54xx61n7d2aR6MGm1Y9F87Yu1jkDgfSuk0m7KuMkDArhTMxxjJFb2luxlHocVtTjdXZ9fS+E9afUNtsOc1kLO0j9OGqKQt9kA68VUsZHMyr1PaolBrY1TTdkz0C3nK2ynGMDFZ6agfMH1qPz1jtixbBAOR7etYMLSSt9pPyRDJZm4QAdyx4ArndJy6aluSS1Z30WoYtyzNgDJPtXD32px3l2UibecgDHNfI/xl/aj0Pwxcy6F4UuodRuYgVlZG8xEI7Ltzk+ueh6V8X+Kf2pfiTNA8Frqq6LDLkFoxmdgewPbPavq8Bw5iqy57WXmfO4nN8PRfI22z9Bfj/8bNN+Gnh6502wulOtzxlVUMCYQQRuIByDjpnsTX4sa9q9xqeoTahPK8ktyxYgli7gnO5VPAySeT0q9qmsXGsMNQv55biSViSJSXkkJ6Fs9T6DoK46Ync6shBGCI48liTnG9+gHqBwO1fqOX5XDAxstWz4rGY6WLdrWSP0c/4JyQGXxj47vgQkY0qCBlVt5LSylhk+uFIwK+O/2pfC8vg345eK9MeAwQXNwLu3LdGiuF3Ar7biRn1r7S/4J4vJEvxCvECkxjTMBPurhpSRnvmup/b5+D7+K/Dlp8Q9Etg1/okbeeVT5prZ8EAf9c+o9q9irBunc44NKdvI/JPQ7kxxtbejEj29c11KTHHSvPrKRopN8ZyD6HJ59R7110M2/BJ5xjFfPTjZ6Hrx2NRpNwweKqODuH40u7PX+dNZvSkihC2PyqFz3p655pGU4pgZ8g4qvVqXkfhVUj+HvQZgCM1YRsVVHGfanKSSCOlA0aSHOD61qW0XmsMsVAHbrWRBuYgHpXRWxKjcvTp0oNUX47bySF79s8Gr6IM4IyQMnnFPtYMAMyZBBGCef/rVppAIIm8sD5uSCcnjnFZTnZnVCm5a2MlkGcMo56ZOau6HoN3rus2mkWWGe6cKCOdqj75P0HNOe0Z9rbvkblsdR6AV9G/Bjwo8VvceIpisKsxhjdhkhAcOyds54z3rixFXkg5dWevhsK6lRKx7npiaX4Y0+z0PTMSG2jEQjClt5zySegJ61deGUvKt+3kI2NsS7ScnnqOmfesptRtYRJbQ7lEgO4k4fcDwQegz6jrWUmozQF3gUPNPlWBYkbP4mZh1JPbpXxjbk22tz9FjSUUorpodRJffvQqoUkUgfOckgdMKPXtVmBJUjKMTEjM3A/iPcY9fftXLi5SBEJ+RJ1JKnG1cdAx6gHt3NW7e5W7VknDBAoComSEH49z61VmJuyuzfuC8gUKMG0yQFOVIHOCR1Jz0rPgeOa9V0jOVJJGMElgMj3ABFVFllMJMBDKRtJB5HOMDHf1z0r6f/Z3+AGr/ABX1gXd6GsvDdiw+13QBLyEc+RGTwWJIBIztB9TXdQpuo1GxwYmvGjTcmd/+zB8DZfHWpP4h1xHi8N2LBSDkfa58k+WMjAVcAOR2AFfof4i1RSsWk2Q2whQkaINoAHHI7AdBV++ksPC2jweH9At0tLS0j8uKOPARFGBgKOpznJPJPJ61zlgmC9243SyHOT0AH8IHavvMJhVCNz8txuLliJ3exetQbREjY7uOeK1LeYXW8sRjoMDHNUlUy5aQ4x6VahgaTDRAhVOSOma9dvZHm+RM4BkABwqYOcZOR2FfnN/wUS1W7tR4ItYpBBZRxXd75hBCrOAI/nKnKkqSFIHBPPWv0cjy0qRKpQu3Cnnpya/LL/gpFftL4s+H2nJcPZwWWnXdxNcxliYhLMiqHVQQUYjB3DGOlVQ/ixIqfAz897m+uVtYr66uZbWdlABuIVubRwOSokwHBbrk8EnNTabbOrtqsCJYEqXM+nOXYEgcvCeCMcYxn8KrNBNptwNqTWSTxmaKS1T7VaXKk8krkhB6k4wc0uoXOn6TZm+urYWnmqCL3Tj5ttKxwP8ASFAIOO/UA8HFfa2PnjGv7gtI+oTSQpBqDyqJXjEcF4YmGchcCG4QdSBjnkZNYl5f+DrxQdaP2VpITKschJdcHYitJwQAeTjkjgdajudUuNMsb2S/thLO8ZaQuu2C+VzgvEpOBIB12nPGMkHitHr/AIYnt2W8jlu3HkkRtanASIkmFWAILcgknoASam47dyWf/hDCCt1eiBGMpx57PhQRsG0ckGMk+oFSNrHhSO2kmt9bmlEshUCN5AqkSZViGB524P1p1t4g8Kwyp5eiT3U8scDfJAFVvLcsSu4clyevTaPStGz8R6QiW623hi6mQCLKmJV3PFIZCpbGF3AggHGQPShNpgkuiKg8TaXPDKp1aUzMFkQyRlkPlSdFBGOnzH1NbVr4ytLWzS8s9aKzqZVTyo3jcgMCOB1JxgHtWWviXVxlbXw1NdqgSOMSFAFV5TID64Y4XPoPShdd8QSWLkeF9kc6XDKscilgHlCyE8Z3h8AY6jOK0umrNXJ5ZJ6HvGh/G/xLowEcuriWNz/qpA5ym3KnB5AOCuPUitTU/inJrQW4W4WCUEDa2dp3HgbuxzxzXgUeo+J/tJhfQljILtIGnBLvFEQwLYwAEOQPWprJvE0rxiSygii22SqquxPK5QkgYBOMkDsTXm1ctwlVe9GzLjVq03o9D6t8F+LJZ5RDdsGJJ4VgwPuD6V7jZ3sS4KkjPQHrX522l14ps7aO+gitkg8uWTMbOXJ34YZGOAeAO1eiaH8RvHOmXEq3AM0SyLHFCcyFyVDHBPIAHU+tfE5lwtKacsO9+h2LG/zLU+2b3Uz9mYAmvIPE2pgZ3tuIOeK5vQvizaakBYatGsErqrFgT8obOMk+pHBPWszxbMVxdA4iflWBypHsRwa/KMVleLwtW1WGnc61iVLqUI715LnOcDOcHiu90bUHDLyMDvXkFjK07s2eDwMda7fSbhkcRk9OtfN4qSSfc61NtXParbUHZAwboO1c94g1dhbkbiCAc571mQ3cgQquSCOorg/Ed5OEK5J4PevEjXaaOSpM5HWr8zzkKxQkdDxVCzu5IXVs8D0rFkmkmk3P1HAzV61UM20k8HnPFfURq/u7mF2+h7d4a1WRlUByOnU16dFrTLCQzEEd68Q0D92VIbg4ruZp8wHvnpz0rwquMadjRNpWZqarrq+U25uxrwbW9aa4mKREYB5PrWzrt7JGHwSeSMA15zM7NIWIxzk12UK7kk0Q5XdjtdAuzLOokIOOK9s0m4BVBkdK8A0M4mDLxmvZ9JcqA3oK8bH12nqdEEzq9TvSsJHbFeRa4/LSdjXoOpT5XjByO9eX68xUuAeCOlYYOrzyTuDvF3sVrK443EjGcY9a9F0W8DAbMdQMV4zbSkuF5wD69q9H0aYRINp5zXBmlFzTdj6bCYpxSPW47hfJG8Z+nauK19ll3cdc10NrKZbdcnGOuK5bWlD5U/pXhYDDNSV0fXQxqaWp43rFnHJI4XrWFp+nqlwoI4B4rsLpWjlZcZBOOmawUIjuhnJGeOMYr9AqRao6M5qtfmaaPZPC1op29iAOvrXsVrnyOmOK8Z8LszsCp444r2W1WQwDvnjmvncJRlKbbR7GHrpJGXqyr5eGIJ7Yrzu5iEZdeoBz+JrtNYE0aFie/wBa861S92Rk5yQeQa+yS9nBp7NHQ66NCwllEoXsDwK9H02WVVVgxHB7V4ro+pCaQbT827Br2TR5gUCNg5HJ9K/M8em6jsejQmmr3IdVuLmQEKSRg15HqBl+0HPX+teyapsjjJGDwea8f1iXaxk6HJI55xWeHhFuxddJxIrS+W0uF2kYbBJB6EV7t4T1ZJkUb+cCvk29v5BMGXIz1A6CvVfBepTBVbJ4x3r4biDLLJzR8o6jU2j7R07UWkhHOcDHNZWrzK8bg85rmNC1BpYhgkfWrepvnO4kg85zXg5RCaa5kexTr+6tTwb4gQK1vN2Bzivgzxdpzy6syxL0Oc+3rX3v45I8pwnOQQcnpXzZPoKy6gJGTeW64Gciv6L4fq+zjc83MK0PZ67n/9X5C09E4yOTzxXp/h/TGklTAJGc5rjdL0iZp9rDpwcdMV9F+ENCVYo2Kgg4yTX5DmjbudOHi2jR0fTmiI4OOn0qXVYfnOOcd69b03w/EyA7etVdV8OwLE37sE5PJr4ZUJc1zvvZHgVu6pcMvQk13+kRCTbjnnkVy2p6UYLkbBtAJyRW1o9w0EiKTwT1r34S5IWbM3VaPcNCjwgYjAxW3fkeUSnOBjFcxpNyzImOmOa2ruUrGSfSvLq1Uzz6tdtnmeujy5CxHJrgbm/2ylSe9dn4kul+ckj5RxXj9/ehWLq3BNddOXMlY8+rVbR6Ppd+DJv3cdK7Q34+z4zmvDdKvixG1uc969AhvW+z85PFYVXZu55nNdmT4ivMqTnua8quJ8qzKcEZNdX4iuTtODxnmvM2uQc8nvW+FaaOixt6dfkuFPbNel6RfFVHTp3rxG0uAJzg8dq9L0iRiox0xXFmEkmYuLudJq+pOI+Dgda4iG/ke5JyeOlbd+NyncMjGMdq5mNI47ggj7xxXDglCU7tnQpWtY9M0qZZUAYjJA/GvQ9OG0JjtgZrx+wkEZG1vavStKvcIu7npXfi4pXVrnd7fTQ7S/lCW5Gc59K8b8S3SJ3GcmvQtSv08llz1rxLxNd7s7XyQelfHulF1lZB7d23OevNUYAhCB61gvqZE/DEmqlxIed57ZzWEsoFxyeO1ffYfDR5EupwTm22enabf5tzk5J7VhapdAuTnJ6ioLOVfKyDjrWHqM77ifUdfSuqjRipO5rTm0jpLS+URr0BPY9qtT3jMAr4wPzrjLSYBRvbGATnuakkvJJHCICx9c16KpJaopz5nY9A0u7H2gEYAHTNaerXQkhIzgH9K4GymuY5F3oRzjituR7m4UqMlR0yOtNw95MaTuYqvH9oLFskGtqe+Z7fZuAUDOPWueWxuDK3GDnNaiaZczgR4Iz3FaVqV0kbS2sYklweoPGajuLxmgKgZwDnnpXUr4ZlK7WG70qK48MXITZGpyeCAPWvNnh22rIlQdjwvUpN02ck8noK7PQJWaJFT5QB26Gtuf4calO5kjgJz0znFa2meELqyjCNGV2nBJB6V7fsvcSsVGLT1Mpd/nBiPfNegaNqDwpyCQeneqMPhy6kYbIsgd8GumtNCljQLtIIHOeKyr0W4qx2wi1oZt3qpLFm4A/Cug8K6l5lxgnIPArkNSsHilIII56HnNaWgsbGZZJR5aHkk8Afia8hUpN2S1OulpJNnv0IUorEZz0rptNhCsOMgmuM0HU9LvCsIvIiep3OAAD61Y8WfEnwh4NtHt4r+O91AqcJFh1Q9snoTmvpcNluIqtQUWfTvFUqdO7kj1CfUIY4xFuGOAecn/659qdcat4f8PWD6lrV9HaRIpJ3EbznsFzmvgzU/ijrmpTvMs05uX/1ZVMIpPYKuB+J5rzy71PXNUvVk1G2luy7AM1xKQCT0wOg96+/wvB0rqVV28j5utxAtVTXzPoTxv8AHm71C7mTQp2g05OFWJcM5/2m5PPYV5Z4g8aeMvFUBt3EsVlBFvaKedoIioBJZgOT9O9cPL/bkLta3Go2mlLIwkURqrsQh6gngkccHrXLape+CPKu4/FOrz6nLjCjzmQk4PIVMADOOOo+lfotHKcHh4JcibR8pUx1eo2+ax8t6/q1jJqV3ObvKNI22K3AC4zxkjk/jXPLqnmsY7CwO5uCzgknPf5umKgn1S0W5lWzt/4zgqvJAJAwW56d6VJdWuclYhDF3Zjgkd+nTiuWU0nyxVkcyhpdu7LlwX2De5dyAqhTyR/Eq/U9TWBdDAMEjfd6QxHdgn1PUk9/Stad4juLTBEAAMg9PRAOgz361luNuNuLeLkEnh3U4/EZ96xbvsdENGfq3/wT50z7L8OPHGqeUEe71K2gAHYQwliM98FxX2/q9jF4j8N3OnzIJQm5Sh5DKQRtI9CCQa+fP2LdCi0f9mrRrzYUk1m9vbxieWYeYI13evCflX0HDdtZXuUHyyEo4Hda7IWas+phJvnuj+f/AOOXwvufhP8AEbUfDaZaxnP2mxkxgPbSMSg+qnKkdRj3rza0k3L1Ax+tftP+1f8AAKL4n+FJ7vQ4gdd05muNPccbyRmeAn/bxkdgw44OK/E2WC7026ls72J7e4gYpLG4wysDyCO3bHrXzmJouD02Paoy5l5m3uO0YPep92QKzFkBI2nIxmrUb561551stoQe+KlZd3eqverKNkAGgpMqTIVABqkV56VuEKQdwye2aoSIRk4oM+UyiD09acuRjip2XnpQq89KBWLdrjcvr6V1FrDIzIqkYPWuahibg9RnpXdaJaCQruBAPcDr7D3rOTstDto022bllZtKqmUkDoCOprbFuFXYsYPbLDkirtpp+9Qm3jHTOB+daLwogVI0IAGCM5/WvPlO7PpaVBJWMC30uS8ukgjHMjgADk88ce9fWNjFeWWkWml7VtLeCIRgOeTjrgDkEnkn1rxjwVYodYN62EW2GVYgsN56ce1exTTyGIy3oEhIGGUhAHPOT6GvGxlRv3UfS4HD8vvPqJNDAIRJMQJUIKlyckDrwP61CdSUwtDAscDOfmZSSSDzn6+1Yk10iuQS08snTaSQfb29KcGwqfbFMCJklVPzc9we9eVe2h6tm2zchWGUmeQ+ckWGbcACT1G3PcelbaTNervDmUMR5eAAwIHGQPSudimt5IjsfGASCTgru7gEcn616J4N0bU/EmtWGgeH4DcX11KiRqiktKXGBkDlQM/NzwOa0hF1HZGM5qCblsj0/wCDnwp1X4peLLLw5pu2OJcSXtwEytvAhO5z2JPQDqTz2r9ptI0nw/8ADrwtZ6BpMQtrLTogiBeD0ALEAYLk8k+priPg18KNI+EXg0aTZgSX8+Jb65AGZbkAZAJ/gjHAHQjnk81o61eXesXpj6QRsSDnOT3/AAr7nBYVKKTR+X4/Gyq1HZ6IzZZp9TufPlBCZyO+R6n610EEKybFj5HOeMYqnFBKiAqcH1HWtCOOcoV34Y45xjFfQJWVjwWru5oCOGJVQ8sBkgjinea0fzFgRjgL0/Gs9ba4J3uTxxkHk1bht3OF2BFY4GSeSfWpbQrE1o0ztLLHncABk9MN8vB+pFfiJ+3J4qTW/wBpq60yyuHs5dCsrLToGfJs7kgl54JRkDOSNuSCSeMkGv2y8S63a+AfC2r+LNaOLDQLOe+fjg+RGZACeOpXAz1JFfzM3+uan46vNR8b6i8WpzeKbqe6u7WQHzIpZJMlFaTgOihCEJwQARggk9OFi5VU10MKskotM3NKsPIuLiJ5TomqeYrR28hD2dyBnKqpITkYwSVbHbPNclrN9NJeXQtLc2Fy+5pIAd1lcKgwQobhvnyScArxyQMmxe6tpy6aRIst7pVooa5t5wPtKMfu+WzDJBySEycgEAjArjD4js0Cf2/I02l3cYjhIKgIFGYzGQCeFIKEEbhlDX1jm0eNYjTVrbVJo7SSNwNNHFirGQQShuiOwIIcn5VOADwOtdVdeMbe9aWxg0S/hMrTxwsXXDmUhCSBgAgjYQO+TWfp3irw34YikS9E19qTlJ8RQkyyqM4V8YUDJA6Z4Herdp4vlvYXOm+HLu5NugYPOywqj2gMn7wAZU/ODnnJ4xUpj5WWP7euJXEaaDLCgaUbjKEdAVESIFAO0oQVHqTkdaut4m8SM0qpo0dlFO7sIZbksEyogbBA5KcbSc5JOKyG1D4gyWym20S0sY4SiyMzGWUrbL9oSRskHgHBJGScZ6U6O18fXmowRm/t7QS+VDtt4sskc+bhFBOckEFgfU4PFXfuQk0aKy+OZ1NrbPa2YgEqEQREsXsxg4ODkAEAkngn1q3Fp3j6eKPTH1OOIIILVjDAQQXXzGjClsF0IBJ6E/lVKPRfGFzGm/xDdIlzGJCoVUDCeQxsrYAABUbnxycZzUs/gm0mtnu7vWbxJU+04Mt0ST5RxDgAgYcqdp69Mmi5aZG2i+LJLGe6g1q6R0iluGHlRjJdhGWwTklyvzAdAM9KePDWp25lku/Et6oWRwyLNEpYwICWUAYAyMIRyM96oP4Y8CRXgkutRWVIXiVxJdEkgxgzNuDEAEgLjGB196ypdJ+GdhYyzXN3BFJ5DrGDNJKouDKCoGDyUQk5GOcdadr9Qb8jorjwxoDxy51iTzo/IYyG8B+WdiJWJGAQg5c4zzQNH8JW7uun6wsX+tVxHesZWVcGMDPUyZJHTgVjQwfChbl5IL2zNstyHRWQktA6BSDnGTI4JPH1qUP8MrOSGzlvbEyww7WEcMhZneQnAIGCUQ4HfPTjine2lyXZrY6KDRLoSi303UyHmaFUjlCy7yEMuSQfuAHAB4zWxpXiHxFDC9prkPmWzRhwykgAPIYwSCMA5BI9cVwhtPhdqk8R0WeDTgBPudJ5EJQg+SoJOBkjGAAAOK3ba2meO3ttF8RsxdoAyyMtygDru3ZI3sqyAgZAwTTqqNRWmk0crg1qmeiaRJJbT+bHKtzEWPCn94o5ByPQYr2fSbDzAlyozvGRj0NfJ0V5rljDHLJZLcRCMzu9gWd13SnJdTg4yCAM9wMV7f4G+LENrmx1UG4tQCxMiiKVAMc4zyecYx1Br8oz/hWFaLq4ZarodlLENWTPdIbURxjIxmvPvE8OAwAzxXrsB0/VdOGqaLOt1bPyCpyQMdCo5GPevLvEQZN3mcA5xxX8/wBXB1aFVwqppo9VJNXPELk+VMNw2j3rasFErDIyTgnFZerKZJjgZA6VuaACrgOM9K9x6UxqLPRdGtjGig85xg/WuskgPlEe1UdMSMxoRwTiuilUeWWHpXyOKkmwcdTx/XrZ1LZJwf8A69cC0bcgfMe/tXp3iCZcMpA4J5ribSDc+89DyR616+AaaaiEad2P0eBlmUl+nNetadN+5VVOWA5FcDbRRxzDjHHau7s4lWMS5IOOfevNzbDyWp3KCRZ1Gcqm4nGK8y1y8DE811GsXb7yoORjp0rzXWJG3HPceua8LLarcrMwmtdS1akOCyc4rvtDR5MHGRkd6830aVQ5UnqOh6V6/wCGrck52g5P4V9TiLOKRSm1sem6JaqYSsoIyOPxrP1rSosZA5PFdVpibYeVGR+lZOsbyB6AnmuzB4emrXR6EMS0tGeK6nYeS7YPJyQO9cU8Lfawr8FiMA9a9d1G1DIXxyASD3rzK7imGoCU8gGverUYaLodsK7tds9T8M2fkIHxgYBya9SiudsI5x3rzjQJJJYFVOTgAiu2ZSsAUjkCro0IJKyPVpV/My9YvFkiZVOTnrXieozSm5dXPc4z0r1LUyY43ySK8O8T3ckEhkQ9MmtMXQToWW52zr6OzOo0OMCYSjABNeradcMhGOg6189eHNcLBd3UEHrXp2n+IBnjIB61+T4+lNSd0ephK7stTt9TvPMjwegzivJtXvVaQqwzXSX2rJIpJIAwa8o1DV0kuvLU5J4GKjAU3e7R6NSurO7Ib6bMwVOhIH4GvSfCCssiqQQCRivNNoEgdhkEjmvVPCciRyJ5nzDIA/Gsc8pxnStY+ZlNNs+j9IbyEQDjOM1q30waM/Nz2rE06NzbrySTzn2qK+leIEHkjgGvj8Lh0mktg9rZWR57r8JuS6tzyeK5jSNEjkusspz79q6bVGJzLnlSc+9WNAIkmVh0av0XCTcIaHzuY4ptWR//1uP0rQE87LLgZGMjvXu3hnR/uDHAxziqEOhAT/dwAa9X8PWiRFEz6V+RYmSkm2e0ocuiR02l6UAgAXnjtVfWtL2xnK4yCTxXoGnW6BQfTk1T1m1DKSp4OeK+eqTgkDg7anyjrenbpcbeMnPFc8LZYJI88DsK9V8Q2vlSk/XpXmeo580NH24x2zWE6sGrXOWrGy0O70OVFiXd1xW5qUyfZzjriuP0mbbCgHUkDJrS1S8ZIgMdua8OrO2iPFnFt7HlXim7bD4Of6V5Fc3OXKlsnNekeJplO4k8kdK8cvLkxyE4HJxxXt4ROS0RzThL7zstLkxICDliRkV3kc22A7yep/CvNtD3O2/PJxXfx28jQnac555rlxkmnaxMaVjlNclWRDjoc5ry25m8oNt75Fen6xbSrG4xjOea8f1PzI9wyep6GtcE7rRnSoaXLOnOZZQF4Oa9o8Pxs6oOoAAP1rxLQSDcLuNe9aAETYegIx+NedmTaepk49TVu7VfKJxzXB30BW4DA9Oa9alt1ki4NcHq1oI2c9x0PcVwYNttMhoy7OZlyznBHavQ9HvAVGTk4z/KvMVkw4TGSOue9dlo8rcYHGRXrYmTUdDnk3fQ6++bzIm7k15Br8bLIcnqTXrFxLhOQMV5R4imw5PbJ4rycPFzqKTIvI4O+O6N9p5Fc2AzS/PxjkD3roZZBKX5ABHTFcxNcHzjjkjpzX3VBGqTsdjp0ZeDJ4I6Vk6nsUlCcdqs6fdnygrcZ6nvXP63c4m5GVJxXRTXvs6IbWNGxhNwViAJPQEelek6f4fhWNWkGSBXIeDo1nZd3UdBXtENoyxgZwSK+hp0k0ehSpLcp6bolvPKihcd8Y71t3ugJaw5AwDnHFbOhwt5q7jjnGa3ddUi2JzkDOBVugtDpcEjyC109JLrYcYzg4r0uy8NJsDIvGPSuG0shtTKk4G6voXS4Ea1GDzjqKfs77jUYnBR+Hy0pVRzx2r0rQfA0RiE86A4AIyKW0th5/ryOvNe26XaRnTwcAHaO1aUqC5ncfIjym50C0hIXylx9Kli8CaffwjagBHJ4ruL3ThJMAAfWuw0PTBFGu8HGMnPpXsqmnokZpanzzL4Lhs7nydmcnjA7Va1Twpp2l6RPqV8y20MSkl34AHt6n0Fe4XM3hG1M2seINVt7GxtslmkcZAHXAHJPoK/P79oP48T/EGdfDfw/gWy0C0cg3cx+acj+MDpjjjNehhcrdeTTVo9zKWIUFe+pVvNT8K20r3+pXRMQJMaxqXeQDpwOgNeY+I/Gq6tOYdOsBHbIMgO4BwB3Ga8avtOIeKbWPETAOQx2FQM+gPaqXneDobqaS41KQlVwFLkgg9zjrX3uD4ewdC02rs8Otiak3psd3LfXskJx5UCT8LhwCfY4OcVkySquBa3drFJwCpIOcfeJyf61zP9q+AbZVdHMhUkkAs4Ofaqv9reAIplnhtjcMGwcK3Ck9SenA9a+sXs4JKCSRwPn6v7zek1axhgNzeeIxGEbBWAANzx2zWY+peEJbFI7zWbuSUthQCwOc5OcAZwOmfU1UXxP4JtvNew0xjtcgkwEkEsMHd9OPqa0JPG9qsj3i6E5HJAEJyD90D6jOPqaHO4RhpoZMuofDi38oXTyXJRXJMjvIQSc5UckYXJGOp4p9h4y8J2rXcWh6MLxvlKtFatlADnhiOS4AUnkjk5zzVpPGdrZSNdWnh64lnJwsYgGQAuCMngbME59TnrTD4/8QTyu8Ph2e1VRITIqBTGBhWUEDkDgexJI5JrCeuiL2PlLxFe3E/iDUrqC2kCSzOVBTYRk5xtPTGe1Yix6xJheLZDwS5ySD612XxBudcm8V3hutNNpPcbXCA5GAMZBHGDXBsNWkdvlCFeuTnFfNzVpNM7I6olJXCZJldCURQMJkdTn396jkQ4lkX99KobezY+UbTwPXFMeO/hXM7qnHG0Z4Pt/Wh1RonCv+6RSGkJOXYgjAH86xlexcbX3P6HPgzpkejfBXwBpyx+Xs0a2YjtmUF2P4k5rpL+ANvdehyARxzXPfCjUP7U+DPgO9jA2yaNaLkHJJRNpz+XSuunwIyrdDyDXsQS5E+pxSfvOxDaOL61bSrwkk8qynGCOQATx1H0r8yP2vv2dpRZXHxN8J28lzLaMTqEa4LNEx4kGOoUng4zjOeMV+knmGKUY6jpWpdL9utxMAJHRWWRJFDJIrDDI4PVW6EHjHWpqUFUptdSoVXBp9D+Z6CXCDOCCM5ByOen4+oq8koxkV+m3xt/Ys0TWpr3xF8JUbRrl3Zhp1wQbWZwMlYJMkxEEnAfIbPBHAr819d0DXvCeqzaH4lsJdOv4CQ8E6FHBHcAjkHsRwe1fJVKE6btI+hp1VNJoRZBgVIsnPWs6OTI9hV1MEZ9cVzLV2RuaCMvX0pGO47fWmIwI6dafxn3pGhUeMjpSpHu4Jx71IT83NOLLgcUCS1L9lD+8ByeO2K9S0W1Bj3KDhTypOOPavPNOkVcNxnI4r0zSLhpBhQAM8k81w1ZaaHtYeN2jroYkEYXBKdAvp+PX9au/Z0WPCDJPQDgA1FaMxCM7HJ/hA5H1Nae0EbDkA+hwa8GdRp2PsaNNOx2PhK2e2tfM3kPO+QFAwAPfFbWosChLxiQuxJDk4yON3Hep9KRLa0t04wgyCSAOfamXDxEiNlVACTvJXkn+7xwfevMnPmbZ9FCCUUkc1c3MtnCST9mz0A4z9TXODV5GuE27pXBADE5APcBepPv09K3NRtPOJjAEg5IJOetYtlo8slyWQhlHGBknI7H6VUbPQ4qzadkdzoa3M0wa9dkU8CNcFiSeCSOhz2Ffs9+yJ8A28BaIPiD4miMOs6rCfs8Dgg2ts5yXGcnzH79wOOlfK/7F37N58Z6vB8Q/Fts3/CP6U+63gkUhL25TBHUkmNMc5zmv1l1vV0tIzDAQ07j+HIGTyCF7AdB7V9bl+ESfMz4bNcwbfs4vQxfEOrmYrp+n4CIoUMMg4Hr/wDXrJtbcIiqOAB2Hc0Wtu8hZpeX6k+5rct0GQD24r6le6vI+Jtd3IIISp+UEgetaQTzRhhhakVCGOQQPUcVMkPmJnPyA9+uamU0aJECLIXK4O1P1rWtrf5yVIIXGAe5Pp9KVEC8AEHsc1ekaCytmubuURQxKzu7HARFBLMSeAFGWOewx3rCc1a42rH5vf8ABSP4lz6V8PtA+CHh25VNX8d3D3F0rnaV0zTyJJc8jiR9qgdSAcdK/IFtVVbv7XaSpY6mIBHdxSLuikiRuW24IlBOBvQlgMAgHBrtfjV8Wh+0B8c/GHxGvpAmhCU6NoMjuQhtrZnwISCCskzBnBwVOQp9/Fbwya7c2Olq8aaqJWEMkW1AA4+Qt82VYkbHBGMnpivfwSjFa7s86vqXr15IriQvOLS+soH3W6uT9ogA81BHKeDnlo2ByCCpFc5ZTeDZx/bur34stKnjUC3YfPvjbLlAACTIDuI2gEnAIqvDp1v4mnsV1NDp6aXO9pJLLMsTIc5CYJyQMkgjBOeMAGuqMvwn0a38jUHt7u5QSRBgC5TEgdlBXIbKAICF4yT0r1U7tnnlzUfiF8OlCpocF5qk0QeHzIIiqsEIlJDHPQAAg8jqKf8A8Jvr2qidtJ8KSLHJI6nzpAFSK9XPzYPzEsAcjoo9TRN4+8Lugk0rR7+5PnzxlYoQiBLlVZVBAUZRU2jIz1PrVpfHfjm5d9U0/wAKW9pAdkjRyOULFf8AR1I25xkAADGM5IqkmU2iOfV/ihrjSXsFpZW8V2Y7iS3VM7PtDeTmNgRkPgAenfiqsmmePtRhu73UfEv2SCOO4kBtkVCRa4iVtoHLsSVAHpkVYTU/iQGQ2zWFpHCHgCmFndFtQWLBjtJC5Ix0JOetL/wiPi3UvKOpa5KnmG2SOKNFSIC4UuQgUEkADJOcgnNO3ci9yaL4c3V1cwwa/q13dWlvIiqpcxNgxbpHyT0BAAAPU8VzCeGvAEq3P9o3yLdxW6BhcXJKxTl9xXOcDbGGIznk8c1pj4aWMlvFqWqzXU4MUkkcNxO+z5JAqlsHJA5JwB75roLnwd4M0LU2nbS7cwi6bCk+blTAVSNgW4LyZOR3wetWklsS1Y52GP4T27mRIrSWyuZJ8HaCREYwI1IzktuJYnp65q1Zat8JdIe3e3WMRMts0phgafcIxichcYDF8A98YIrPF58NrUvJIbeO5kMCySYEquICfNGF6AkKMqOAOaP+E08ERCdIUdW2zA+VAxjR7iQCORSF6RgbRjAJOKu67iWrsXx4m+H9zGiypJPevHc7ZDZv5YlnYNGFwMfIgwAepNbEPivwRBevdWFhezQRzpMI0s2RwkEIUjngEvkv3A4FUrbx5azyyQ6d4Yu1WdonjtSgUE2kflBTIRwxY73yMHIWg+J9ROnxRJ4SvLeWWOS3DCZRkuwllDYGdzDgHog680rpsHB33K9vrfgtYJRNpskTPHFHOslo7YIcyPKoUYBIK7QSAcnIqHzfh9JCxDQo7tdtGwRolM7sDbruxgYUZweM9Oa27jxzPd27JL4XvYDI7OwR4yxWdfKgVl4+SMDKlcFzyeazl8T6LFFIuoaHexI4jBiCJOClqdpRcAHcTkkn7pOBWhFi1BptlFeFfBviYo87owBdZ4sBPMcuGwQA64APOTgU+d9VMKT+I9Pju9zIBJaZD77l9/zDqW4IABwAa5c3fw0v4SL0S2F0YwpEkDRHznkLiQupHAUgKDweTXWRaHLazz3PhzxF5n2RnnDKwnQLHjyQyjkuckY68j0oT1IlFNNM3vDXjiTQL6S58MamsMpeQC1kDI+d4CxlWBDnB9e3Wvo/T/FeneNrIRX4i0/UxkeVI2wOw4KrnjPHTNfJN3cXtg0sHiLSUvbaNjGZYVZJXFt+8kOw4IOH5IbqOlWNIScy7/D2oxXLyhDJYyNgpLKTkhmGVKbQCTkcnHWvn81yXDY5XnGz/EqlUnTdk9D1TWI5rTVHtZUKOGxtYAfXpWtphBIxwccCuNj8TQa/BbW2pq1jqIWNoJJAdsyuSAoJ5cAAfMCDW9o900dybW9GyVOQD0I9Qe496/Fc4yGrgoN2bij3KdZTaSPX9KuGCqhHI711EtyohKk8muJsbqMBShGAAeDzWw16jICB1z+lfieKkuayPQVO+5xPiAId3fJ9a5+3YFMDqK29fZdu8k5z0FcfaTu0xUZB7DPBr63J0mm2UoWdzrLIu0q7Rk45zXe2IkZAjDjFcvo0HmMuUwe+PXvXpNnaIFX6VtmM0k76mso6o4HW7QnLY4rzTUrJ3c7OcjoO2K921rTmZTjgY7V5Nf208VwQq8e3FfH4OMVNtdTmqIydHtjkLjBGK9t8NgRgCTqSMdq81022CyhwMHAyPevVtEjTaGH38jrXTj6nI00cp6rYYMHy9B1rB1mULGfLGTzgVatbl4IQMnBzmuV8QamYojsUEc5PetsFj6el3qRKVjjr6+UMQ55IIxXFSsZbgZ5B6VV1HUZJJTtyCTjOccVTsLnzbsckgcYJ44r6WriFODcWWqrtoeyeF5DBKFkHykDGBxXo0ssTRdc5rzjRpMKv0zXSSzHyzyeB618/DMp05WbudkK7Rg+J7+GOJsc+uK+f/EMnnJI2ODnHevV/EDOQwPIPWvLNTjDsI8cHtX0FHGyrLU644jVHP6NasGGzjkAY45rv7SCVQM5JGax9HtgJAAe/SvSLTTt8WcDmvHxji200e1SxFlc4DVpXRCuSOOleUXU7RXYlBI2k85r2zWdMOT8p7815RqOmeXL7E9K3wVOFmXUxTaSudloWL2BMcEEE55zXsHhe0VJgoGQSOcdK8R8N3H2eYL/BkYxX0Z4QWOfEuSASOlfHZzCbbiloEJqx7XpkLpAAOeKoanBKQTjnnArsNJtwYwCMjApmp2a4bCgEDiuDB4B6Noibb2Pn7WFnRiGU9TWz4Wt2llDgYPWtzVdM84g4JIOB75rvPBPgue4kDFNoBxwK+vhgajiowR87iU+e7P/X9XWVDKcd67PR7vY6jI4xXiy6vDvzuA6DrXV6VrKCcfMOo71/P2MxLTsj61xVrn0rpd6WxzVbW7xQp5BODXGaVraFSNwJAFY+v64NjHPI6c18NjMdKLZnZNHKa9emSVlPABNebXrfvh6Gn6jqjS3Q3PgZPANY8tyZJhzwa82hjKk3exyVUrHo2hWymJZH544PbNa+p2qmEjYOnasbRZ9qInGO1b+ozfuD24p1sW3s9jlVKJ4P4stWKuUH1zXjpsJJbrDKMA/rXu/iFgUdfvZ5NebrEPOLAYHX0r6jLMY1B33OatSW6NDRbMRhcAcHpXptpaAwZPBPNcdpCKzDAPJzzXottCDbk84rgxmLbnuYqHU8816JPLxj1rxDWLRWL7VOTnFe/wDiBAilQMg15TqFoMF2HXNdWXYjWwpwSZ57o6NHcKD8v1r3HQ1k2qQTmvJkijhuQWBPOfpXrGjTqEBUgHHAzXZmK5rE+zbV0jrZbto4+euDmuL1O/JJ3HBGD+Vad9cv5TEHkA15xeXcgnbecqfWufBUZNqxEqTa2NCObzHaQnJJyRXbaLIpjA6V5At4UuCF4Xvk12+jakqICefoa96tSai00edKk77HpV46i3PIryfxFIN3WuzudRjlhwOCK8v8QXYPIPGfWvMw9JqexpGjpscvLK4LhjtGOM1zskriR2UBR/OtlUedi7HjNUZTGZCuMAevrX3NCCSRoqTeyNC0cvByOg5rm9TnPmhfSug3eTCGj5BHIrh9TvTHMzNj5un41FKL52X7NpanqPgW8EUy5PLDivpWwMMkKdASOtfIfhGYysoBIyc5HbFfSWkTSrCgDEjA5r6Whod1JJHpFkscDhuPc1neINat0h2BugPOevtWVHdylDyTXn/iu5liiPzEbea9Hk2sa1HoS6drNtHqBZn3A9RnvXv+g65FLCI0bg4wDXwdDq06agcE4DZ619GeEtbYJGxOMjnNXOi0rowjPufS9pcIXBxnvXrei69bQWw+1SBAF79OPrXzppep+bgg5+nbNcx8TfHd1oFrHplmga6nXcGY8Rr647n0HpV4fDOpUUIp3Y5VYpNn103irw1bCW9uLhWS2G5lUjp718RfGb9o2/1/foPh6WTT9NUkMLVz9onKdMyKRsU9CBjNfPniD4ha9rNqdNub14YGyPJgGC7erkdR7V5yBqjb4pZ4tORhiNjguSTkk5r9Oy3JvZ61tT56tjHJ2gbWs63rmuoBLL9jt15zK5Y5PU/MTk+prk2h8NicnWNYkuQFIZQ2EOOmFU1ny/2E8ksWp6lLcyDhuQRgHkLj1qwt74WiY3VjpvyRMVYsm7gdSc+tfUKMIK0UkjgbcnqyhJqPw6tZBHhpUySrtucA46EGrDeIfBygSx2KkYAUCLJbjnPGetXz4n8LoSselM6ElowIgNpwOvHTvVT/AITLT1mVo9KkQsSGVYuQQOMcY561CaW5qm7WI4fFegW0rPBpm0pghRBkh/YY6ntVuDxhYHH2fR5Xl+TAEHJUtncVxzljj60i+M2dHjtdAlklWRCzGNRkYIyCTyeCfpzUx8U+IEMS2ujSybFULIoUEgfdDEHryT+FF09gt3Ebxnfy5ifwvKgAwHWNUJIbOSMfezwB6VJF4t8VssUcHh+Zw5UEEKA5DblJHOOc5+lSReKfiLuTytHjKSOoHmON0Y6FmHYbSc9eTUbaj8UJUHk6bDAYZCCxlKAYUrnOMY2HP1FJsZS/4SXxzBcwTWugSEkBhskUI4LFyDkdS2c+wq7b+IfiHFJFNF4bRoiFKrJOoZ8EsuVx97JLsO4we1QHU/HhtILW60a0dnZR5jTskqIEI+bPTCMR3JJBqip+J2owTSTR2ieaJJAzSkSxRFfmZgMAEJhRyTzg9KmyJbPK/i7F431Se21+40g6dbCERAxupTYoJGTjgnJJPfOa8H8nWWcqu0AnJy/BzX134u0P4q+INMfTCbWfzY8yRZJYmJQQ4HQEghAB3r5Ov9I13T7p7S/H2eaIkMjdQR1yBXg4qm4yujspy0sUHi1Qt5ZKsoPIzwR/+umq8qyBbobVTLFBgjJGBUfk6mAGDqQSSCDyaRV1FiTKgJPc9wCDXA22tWbJLsfvb+yNrH9t/sz+EZy+ZdPW4s39QYJjgfkRXu0se6P5R1AP518Yf8E9NYN/8IPEPh64I8zSNXMhUHP7u6jDKAPTKmvuCZPLZ0Kn5CQePQ4r3sO06eh59RWk2c7NAX7Bcf0pba5+zs4Y7UAAJPHXitUxsxGAcE4BPTNerfDLwvpuotLq2pwLPhtsKOAQAM5bB4PtWsp+ztLojLkctEeJ3dpCyFlAaGYgMoPCHOA2OvHf2ya8F+Kvww8F+O7NNH8daaL3LCK3uIkxc2xfO1o5FG4Jxnk7c4zX6kaj8IPDniW3E9iRaahIGUmJSELY4DgDpjqRivlHxn4EvfDGqNpmtXsaOIykUAlXa4cgbgQdwwBgAnjPeuH6xSruzOxRqQ2Pw1+Ln7J/jz4cibVvDSSeKdBTLGS2T/S4VB6TRAEkY6umR6ivlwP+8xnocHtg+h9CK/okm0+7sJREAyNGCVZchipO3I9COh7Eda+QfjH+yz4Q+JJuNe8OSJ4d8QSElmSIizncdTNGoyHJ/wCWi9epFedXy9t3pnbTxivyy0aPyuQhkDEjI5FOLZHX9a7zx38JfiH8M702finSJVhYkx3kAaa2mB6FZFGAR6ECvOEbdloyHAGSVIIA6c88c+teJOLWlmetGcX1Je9SJ1qoWYbsc4xn8aVXKk4OelZeu5ppfQ3bcqMc85HHeu90iZkdDnOeg9K82t5GDAjBOehrsdOu8qFJxg5OOSPpXnVFdM9ag7NHrNjcqkC/MQxHO3uK6jTQ15fQWyHAkIBLDJwPvcfSvMLO6RVV0ONvqcdK9W+GmnHW9eM7F1ihXJI5LFj6joB+NeJONk2z7fC1FKSitz2K08P3F9lIEkVMAZOCQB3AAyPxqDUdCSyV4Ew7qACxGWBPp716zaWS2dqrS5t4mBBCFt7gdzjt9cZrCYw3zC2giDOrZ3hDsHp1+8fXGTntXzUVOpPljc+olFQjdtHmFppLSICwBbHRjliBx/n0r6q/Z4/Zi1n4p6yl5qsElj4egYNcXbIQkoDH9zFkZZz0Y5wBXu3wa/ZWtjpi/FP4wubLQYY/tC265SR4lAIaXIAjQ9cZyfSv0C8D/ED4W69p8GleANa06aKFQsFtC4QIAMYWJgM++Mn1r7LAYCUbOoj4DNc3gm6VLdbs6S3tNK8H6DaaD4ctFt7KyiWGC3jGAiIMYyO/cnuawDZsr5uiWkc7jk5IHYV089tLJOshBjuDncR0APZgOfxFVPs6rMwuUzLnbuGdpP15r6+mlBWR+dyvJ3bKSwgDCjggVow25CgqBn19zU4iIOGGAOPb86txIQDs4YAkHHAI7mrlPQEiFbeXO6U5z2+lTpHuB4OBTbNkKGN2+YncQTkfUex/nV3eFBAHB9PSudybLSsR265Jc5wM49/YfWvz2/4KWfHaX4U/BFPAOhXRh8R+PWeyjaMlJIbJFBunDA5G8kR5HYsK/RhmhggeVmEccS72lONqAAtuOf7oG4+wr+VT9rn423n7RX7Rep61Zv5+iWU7abpMDElUtbViJHAHeWQFyRnIxSgnOSRM3ZXPMLTTrXSNAj0rVZRaWc8aoJVYplSQZFEQzvMRIZSMHPeq+gfDzW/GOrQvcztHaW8kqreLtRJQmXOcsGycDAI5JwSDWho3gX4gayIrrW2toorPzXjNwnmQxGAbSQGwAQxABJAJHQ4rqr3wFqtxI8fibxHIUWW0ZmimW3iVCu6WfIwCi4AJznceOK+tp07paHmTale5Sfwj8NdPsXfVr60M0UcUpxL8xZpMzoVY8mNcLgcgnFPttf8AhjaAWWh488vciJY7Yud8uBGVbBy2zI65BNQ2Y+EHhs3Ms89uGliuIoZMfaWSWSQbJAxzkJCDyOSzVpH4l+AtMlhbw9ZNqiWkkVxCiW21GVFMaxu3UFASWIOcn1rri7aHNyIltviDP50t/wCH/C93LEkguf3xB4CiHDFgMADnGOCxpq3fxK1lUNvp9rpsFq7xRCQlQHtMyBWCgghAQWGPvNntRJ8RL+4khbSvDF3GjhrXDALvKP5scYB5AJILZ5wDTY9f+JV6GgsbC1sozOsjC4mYu/2skMGxkHzMA8clQM1qrvZENIuwaR8VdRKzvqlvbBzBiIWuWDzdY1Qkgj+JyDnGCQMVjnwb4sPyah4nuysVtLKgiYIWEUnlgKMkkucgEc7R6CpbiH4uXVtFKmsQAW8U8gCo67kgba5ycBSeFBBzgDGKvx+BPG2o3K2tx4mkTyLxLby4YcCMyReafnYZAA4BB4JyDkmnr1TBRT2JG+GdjJftFf3N/IBeCOQz3LABBEXdlwcAs+E4GO3WoE8G+ENLQS30S2pSOBmkkckqfMYTuDvyREuAD2JArKi+FY1EjdrNwTJBC5jaZ8q73BT5znkg5cHI5IzV+7+HvgCyR0lWYoLmWCMTyMC6FP3bsSeQ7je2zI4BNSpdinBMUy/C/TQ8cVzYyzoboQbQCEJXEJcc4IXLHPVjilk+Ifg21hml0eyvb2WN1aIfZQ8KrChX5hgbgJG8zB6ZFW2/4VX4eWS+Q6YXge1RFEoxIEXDhgoJIZjuzz9wg4rOk+J3hOCWNrRZZTbKYm8qIkO4YybhkYbe4AIxgqB34rVNdUTblZeuvHOsy6ZBpmneGbjCRJCzybQ5RJjPJIC3OZiACR90cVoSeL/FcyQOvhlYQVllE/mqHK3rBUcDB5wCqjoRzWAPiVdS3yxWOjXV5OgkwVQAFLkDzDznClyQo6qOMUyTx74qmRml0BpbaCJDcRbtmBbgiEM3YISCQuQSRU3imQ227nQHxD4wYJPF4TiEsixli1yDxZMBtAIwQOcY6E4qpNrt1arcW+reF7lEKvACJAXQORMeNx+Z8EEgYHXBqK71PxY6xWkfhn7BkG1ZpLguCWb7QcYyI3cACU9ODVa4+IeqnKaj4XubZ0cXE86kSgmceUxUE9MFdgHQgnpzWvPELSsXrrxv4WuEE97ptxAV86WRp7bdE32mMpCrkDogDEHuelU4dJ+GGrvEbO5jtd+JQRKbW5YJARgICDuMmAM81CnxG8PBo/tmjXdpBi0SRZ4iyPHaAxqF29Bn5nJzxmprrU/h3r06LfSW5vyyoJSioSPMy7xrgAEZAXJ5BJ4qLpuyM7WNEaN4u05HGnakL+IRJDJazgSuWni8yVRKOjAKCxHHY1mT65ot67t4n0yTRb24zLHcD92jCcIUAkX5VUKpOCSWxnvVqDws1tDa3HhnWZ1O2MPudpiZ5nKhCQMBEQnec+3NTtreq28QHibTV1NERyJbdAEKMhhgdo2GQq4JAUYJ5zWibWpLafQ0pYZLBknhkbxJp29wVc4nhjizDGMHgxuXyoyGwOea2tB1e0FmILi4F5bwFIlctmeBkBaRQM5wCDkHniuKjh0/Z9r8DX5iMAlnMUsh+zeXEEIRj1V5HyVAzjpVm7h0vVtRi0q6LeHfEMbxoshkVxJJIWkkldmADIEOPUdMVFSMa0XTqq8XuZttL3dz6NsJA0EF1Yzi4tJ1BVh1z3BUdDXUW8EsqbmHT1FfPXhnxBqmiyONbt5kSVUla4iiJtnEqqlv5agZQkgkg9a+sdDthqFgJpVKSoArL6kjIP4g1/LfF/DEsDP6xD4GfU4DEKpHklueYanbyOQpGQDziuaay8iUPECOc49K9W1WyChsqQQSBxXE3EQVxu4x696+JwM3DRHoTXbc2tDLnGAc9TXqOnRu4TJxkd68v0aaJZAoOD05r1nTSpjUg9RXi5li5Xtcqmn1J9QtQY8BcnHUV5PrdmEui3BPcmvZb2ZRDgjAx1968m1xleV9vJGK4cFN81yakNdTHt9i5BwrDHP9K7vQpBIMk8DivLXkdWB6AHtXb6NeOUEgG3B6etelj03Zs8+UdbHpbuPJbn/IrzvxJPiIgHI56V1fnuYOvXn868/1+QlGA65r5ek0qqSRjOm3Y8uvZm8wqepzmn6LJtmAbgA8Z461Un+d33EA5/Sn2SlZ0HTJr9H5UqV12CNN7HuGjzfKuOmK6KWQtC2OSOtcVpRKxjnsK6EzEoWB6dB618BXrtVGjX2bOV8QXKpCQOtecTSLIxYEHmuz8ROWjbHPNcDG21vm5wTX2WXzbRnFPmR2GhWsTEMeXJzn2r1GxhjEIVhz2NeT6NcHcq44Br0m0vNqAdPfPFc+Nm07nbztIydXhVC5PI54rx/VVQuSBgEkj6V6jrN+mWJIJ5BFeRX9yJbg4wfYV6OWTvJJkqq21Yt6JbCW6RcYAIPNfTnhO1KpEFB5xXzz4Ws57u7ClSCcAEdOTX1t4Q0e5iSJWUkADJxmvQx+Gc3dI9WjNtWPYdGsS1uGBwcdKh1ODAPByDiun0q0dY13g46jimaxDFsJxzWdGgkkrHsRp3R51o9g19qQRwGUMOO9fT/hTSLe3VSiBT714N4XaOLUjuHO6vpvw9hkUgdea/Rctw8VTv1PFxVJ85//0ONmF+r7Qe+a9B8NpcSBd5wcjoK6Sfwr/pR2ICD6iuz0Hw9FEVDIM5HbivyTG5WpPQ9wmsrS7jQHkg1l6xaXMiHgivcdN0BJEB/T/IqDVvDq7TlQeuMivm6nDkJ6s6E3Y+KtdWa2kJXIIzWLYXs7yqXySO1e6+KPC4aRiijPPHauCs/CrC43MmCOPapeRQpwtDcmSudTo7uYkcelb14JpYuAcEeta2geH2SJVYEgCuruvDchhBUcY6V8vV4ek5XRHLY+YPE0jW+5epIrgoZd0pWQ8H09a+g/FXhbIclASR19K8bn8OzRzkICMHtXo0sqnRptrVnNUV3bobGkuNy8E44r0W2mEdsQa5bRNAlcgsCDxXoKeHZjb4UE18xicBXk7pamfI+55X4guVUbyQRnkV5ZeX6PlAeufwr2bxH4ZuQh2r0zzXhN7pVzb3BUgnJIOeK9PAYGrDWSM502zKdXkm+Q5+grttE+0LKqhcgAZzUGh6HLeSKCmRnr3r17TPCEgUbUwSOtexi6U5pJLU7qcPd1OJvXAgbKnpjIHFeT67KUJZMgivpPUvCFyYGQIeRzivH/ABD4Tu4Y2d0Jx0A613YGLi0mgnTVjyFdQLZyCpHrW/puouCAG4x2rNn0KWOU8EH0zxWzo/hy/lAbYeueor6TEU00nboYrCtvY3/tnyfeIJHIrhtYuxI+3nivUR4TvSNxQ/z/AKVxWseF71HZjHgDvXlYejad2jX6rZao5m1uC8Rjxn271SlKbzkZPbnvV77DPbkqBg/nTV0q6nJZAcivpIwS2HHD22QxHLxFe4GMHnNcDrVs7TEqMkfhXp9vpM8akODvPY9ao3Hhe9uSXK4xyB60oRtNsqeGTWqMnwSdjqGGCT0+tfTekjEKEjggc14xoPh6S1YNswe/Fe0acrxQqG5GOnavch0PPdNxN6BQVwvU964XxcoeNy3OAeBXeW5DA7fyri/FMf7pmr0qb1RlPY+eCgXUGcDgk8V6xol+YPLTdjI615y8Ja7Y443HpU9lJfXGoC3gcosYy57AA9B6Zr2aVN1WoJanmzmoptn1TH4v0jwjoB1vUSHIX93EDy79h34zXyf4p8Y3viHUpdY1iUATsfLgQnIBPCgZzS+ItcN9MljbsZZwcAHJSIY6k9PeuGhu5be7EGgqNRvyCskzKGSMk9uOgFfoeX5dCgrvVnlVKrmrJm/DFrEsKi3hXT7Z+NzY3k+uTzzWbcWfhuNC+q3wlmiOCN5IP0Aom0aGadbjxTrJO0cRq2xR7gAg1XfUvAOlQb7ZFu5MlThS5A9eRivYbZ5yVtCE6p4NtYI5tOspZXdjyqFgSDkc8Vdh8YtbzNLDoc7xOSrJtwDkdccVVm8aacmXtdMkSDOVKx4AHrjHWmTeMdaMaGPRHO4nZnALgjrihPoax3J/+E4KqsQ8NTEu2AMc4IwPy60i+LdYEhj/AOEdlZwquke5VIPRTkk9cE4xUTeOfEu3EfhwxiIKDnGSXGBt4JPQ8A02bxxrRkS9tvDUj+QFyA4y5jyq/KcEc5zzWXM1KxrYa/j/AFqRLdLHwzLtyB5k5UYJUouCDyOTjjvUKeI/iTds4tNKWCIAABmCgkKdpyB3QHn1qN/Ffi5FWa18MOCmyM+ZKqgclQQB6EH8aj/4Sj4os0EVroMSNKNqbXBLhyQqsDkZxkcAU22MltNR+LGsuGudMt1jVeQXbkc7gx7kIMe2c+1Phk+Kzxuhsrc+YXCqzkkZG4nYcZAUgE54OCPSoorz4p6jGHbSIIpg+SWmZAquDgbCMHKAgn09+afbH4qX8aeeLC3gOIpXkJLDKmXc2CCFYDbkcg4qSXfoXbxviSgmW8SyklAdRKQ5MbhQ0jopIySMRgkkZFQ3+nfFGcfa3jsoJUL71UkGQogdmK54ByARjrRJafEyWFSxswJQwkxIZG3Igkcgk5wSVB5PI+tQNpPxHinX7Rc2VvcuSGkb52Lou6QZzzuyBgHORjOOKVi0lbUgTRviuY3hW7tY3kd5MhcMzEKHO7PZyABjqM+1eNfErwB8QbC5uNf1NortWw0s9uuAP4MkMc8kHOM5xmvarjw98WraFVbXLWR1kKtG0XCYxuZuc8uwIGOT7CqV3o/xolhl0n7RYXdtOHEUcgWPKCTywUUnAGcgEk4GTzWFePOrI6ErO9z49VdTx91GwQQ2eMHp0NN8vUt2ZDGT9a7zxL4D8beGyl1f2UcdtOPMSWFlliKEkKcr0BIJGQOK4kxaip3SFWD5IwQeB78Yr56pTa0Zu5n6X/8ABMy91O68e+MfBccZmfVdOhu0WMbwHtJdpY+nyua/VHUrWW0uZIpVKSAKCGBGX2gEfnX44/8ABNjxPc+E/wBrfwql04jt9egvNOkAOQ/mxExjjHO5a/pg1fw7p11IxntI2ckiNmAIDAnGSQRjHWiliXTXKtifYuep8W6T4Y1XXrxIYYGjdMozEEIAed3OO1e3xXmheANFl1PxBcLa6TpyfvJicYPXAz1JPQenNenxW9vb7ZJjFBEilpZeNiqP4t2BwMck49q/Bv8A4KF/teWPibU3+Evwyvy2n2Bdbq4jJ2u5OGYN3PBAPYGrq4vnjY1hRS16mZ+1D/wUv+Ifia4vfAvwSuD4b8PI7xy3kYIu7g8g7XJ4BGeg9K/MqT4nePxrEOtyeItQuL2CUTLLNcvI28HIJDEg8+1cM7+aCFB2jjd3J+vXnrVY9eua8dSfQ7LXVmfrZ8GP28NC1zTIfD/xpi+x36EBdUiB8pyBgGTGTG3ckhlPcCvunRdW8L+JrO2n8MarFqdvKoKyiUEncMg5XIz9SB71/NarlRxwfWui8PeL/FXhK4Nx4X1e60qVuGa2maPI9wpwfyr06GYSpuzV0jhq4WMtVoz+kCbR7kW0lvBELhnPMasoGDwTk5BI69K8r8bfs5/Cv4gRY8Q+GbS2uWHF3aAW1yCR97fHgHB6gqc1+NmmftOfHTSozFa+LbkjgDzVSUjHcFlJyfrW3J+13+0BKhiPicqpGMC2iPH1KmuueNoz0aMoYepHZn0t8Sf2EvEOl3cKfDXXrfW5LlZGg0y9ZYL2bygS6xOAI5CACcHYT0GTXw74k8NeJPCV+2leKdKutIu0JUxXcLRPkHHAIG4e4yK7y7/an+Od1FIj+JDG8ilRLFBFFKm4YYxyKoZSR1IIJrP8PfH74p2VlHpGpasniPTB/wAuOtQJqUBBPOBcB2UkkDKEHJ4IrxKsabd4o9OE5pas87jnKMSc5HYYJJHHA4rasrsxyEqee4yOuM+vp144r0XQfDXhnX/t3iHXo20y4e4Hl6ZYDZEA+5dirI25DuA2gkjAOSciuz0nwf8ACnSdW0nU725l1i1STzDaTmRIb3a4AhkeICRQTnc6kDAwMHmsPqkmm0dkMYloN+F/wq+LPxiupLH4X+G7zxHLAwEpt0/dRE4x5kjYjXGeQWyBX6Y/Cn9g74++HNKE+u22maZdXLeZJHPfDcgHQHajcd8gkduOtfNdz/wUF+IfwbvD4Q+Hvhbw/pXh21DlLGwgltbZJyxGXMb5mJAGSzNgkZOBXkvjr/goz8cPF6NFFFb2EcvO0KWXlcHAGMj0yTg81wVMHF6SR6FHMqsXeB+s+k/sw+HNOlf/AIWd4903TIgcm3sZRPKSOSTJIcKPbFZt38bP2SPgHcfY/B8sHiTxKA6RS6lcxeVGy8kjGMAYzgDJzjNfz3+K/i38SPGNy1z4g8QXUpbjy43MUQHoFTH+NeeeY7EuxJLHJJJJP4nJ5p08JShqlqZ18xxFXSctD9UP2gP+CgV58SLgW8bSa5DETttY1ay0uL6xn95MR0BYgccAjBr4f8QfG/x94ovrK/k1FtJOmHdaRaeTbrAT1IKnJPHJJI9q8ODEcDA7DAAwPTNO8wkgjjAwBXoLQ8lu7uz9bv2ff+Co3xa+Hgs9A+JsS+NtCTCrNKSmoQoOMLIvDgDswyfWv2o+CX7VXwO+PdmkvgXXYo9RnUl9Nu2ENwG4yFRj8wBPUHNfx5wzMFIDEFsdD3FdBpmu32mXUd/Yzy2l3EwZJYHaJwV6EMhBBHsad29jO76n9u4sgvyxEq+ASCDtB78daeFKKDIhwDgkcgj6ensa/mM+C/8AwUk+P/wvSCx1TUY/F+mIQpt9WJeRU6FUnHzg+mc1+ofwu/4KofATxbFbW/xBtL3wdfSACSSRPtNqGx/ej5APuM0mpLVspNXP0ea3Fmkc8R3qjHPHOxiTtx7Enn0rTR1kUMikgY5x+teY+Dvjt8FviKnm+C/Gel6q0oA2Jcoj9cDKOQ/4bf8AGvVUiAB8jEgOCCpyOfTBwQe3IqLmidz4c/4KG/GWX4Qfs2awuizi21vxay6NZEEhkSc/6TIAMHKw5GRjGfwr+cf4f6b4xsLe88RaLp9skMcGIrm9G5ojbyiPMA6FmYhSSCCTX23/AMFSvjHN48+P8Xw00mRpbDwJAtoFByrajdgNIcE4JUELntznNfMel2fxhRbTQPJs7WKyEljGZOURQhdULDg7TlwSMlhk5wK9XBwTld7GFWVlY15PCPjvUNQW217xMbdPtQiuI7RFGwxR7nHOQVBODyA7EntiqVp8N9EGnrNeXNzfmWB5DHLNyS0n7sMrAAhEy7AHjpzgU1/BHjrULe4uNV8STndHbOI4QI3JkcIFZsZyU5JAHTJqYfCvTLq7L3+rXt7axXU8TStPuRUKECRuUwZHIH06AjNfSJJbI8xu5qWum/B/w/dHz9Q04GG7SVBGN+5Fh+TqDy78t/CABmqUHxI+H+kWs+0i7nuIkXyoQBuaOUvKQFGB5hPGB06VPB4N+GeiMlndJZki1iEhlkEjGWJg0xBUlAVXscZHAqXUPFvwwsJZUW4tikctwkYihUyhJxmNk3AjCJjknvgYNXZdxGO3xb0zz5L/AEPS7iaF5ZZAHRmIacAOcsABhAQnLHrjrS2fjD4hGwjv4vD0ENvHA8qyl1QILZtrSckgLGjBQSOGJxyKtT/GLwdb4n0PTW1KdhamOKJSRGLPO0vkYOclyMZ6D3qmPiR4gupYLLw/4X855FliIniASUO3nFSGJwPM3Oc9QcelOM2upFuhctLz4nTuLXfbrbzl4PKkDo4wvmjh8AGMjeWJ+bpnimPH8RdVRLi81hS1xBFdlorUyMHkcREEseGYjO4qCQOOMGnz/Ef4lLJNPB4UgjPy3JMcqFzHdAwyFSMgea5IBBBAOBwahS9+L983kxG00h4/MEgUiXcLNQ24gA4EQ7kkEnvVKSejuxcrXwkl34Z8TTWwfVPE17cQeZeRiJVEZaKHBkO5AT8z4CAnI681oWvwh0XdaSaxO96He1Vpp7n5BHJGWdyCcAAEIpA+8CMGqVpoHxU1CQ58TyRPcT2qTpGilc3EZaYgZwCgwWzgEmqUfwnF0yNrWp3NwbiAsfNugqH9+UG5AcgAAyEZBBIGBVP+6jQ24dF8DWEDbpdNjlME0YjZ0Eod5R5mQcIGSIHALAFjnjNVZvE3w40K7ngttSsWeP7SqiNW2AzKFiCoMgFBliRkBsYJqOX4Q+B4ZpVvhEyJJMoZ7oBcquIgVDE4cgkvySMAii30b4P6VNE92ILma28rKkr+9RY9pbng+ZIQdxOdgHA5zLcnukS1fcoXvxX8G2myLSLoLGHtVVQjAKYMAMScFjkF2PQnGaz4fi3awzZjN7LDBGUWOOAByCwYEEkgmRxliQQBxWtZ+JPhho0wt5bK0PkxCNn2pIHWJyWcLtBBkOEznlenrU83xF+HFnM6g29tMftMf7mNMRLcjIbIwHRQAoQYIJzk1OvewcvkZf8AwtG0M0s99ompwJcSMW5YRh51O5tvUnaRg+lSr8Y/CsyJJf2t4hEsEjosQQIYlMaxo2Oigljnn044rbh+LHge48xjeLHcLiUyBVJRgnlRhS2fuqAGGSOTii1+Ifw0uoLXTL6f7QNtuku5MFoIiDIM4wWckMCecZHTitE33IcV2MmP4nfD7U0gttceUOI0t1YneEgR9zkMuDum7g9sg9c1qRav8OPEam1S7sY2lgORIu0bnkG8gcY2oAQck5qCTWfhNLLthls4I0LCUSREYeObLtgAn5kJQEgA8kDpV19A+FvidZZbZ7NWuROyhcRqCHjZWjyRlUQlTjBJFaKVupDjfSwt18OdMmzP4TvprZGefy/s7sfkMqiKNkLH5iCSQO3OMGrX9qeLdGjR9Qgh1aCPESz2sRNyRC0kURaPPKg8EAgZ9cVhXvwqtI4ZL3RryXTRM0skOyckRFNuzzDnJJGWIyMAAHNX7e58b+HmCXulR6vCFAivINyHEMjiJjEcHIcggKQDjuarmT0I5Lbiw2Gla7GdV8MTvbXlgoIeBFBzEAf38R4Ls4B4A75NW76e3e3k0/x/pUFokgMcdxvkMAKShpHVl+eOZiQoDkLxg8GsbzfCHiNUvra8nbUIDEplgAgvIniiJ2sowDvc5IAK7QCTniursrbWrBA19nWNJtWaVpI0U3KQwyAyRNbsCCPNcAsoIODjPakYzitCSG7ufCaRXd/fSTaXCiSXG4g3fmzo0drA4jyrqBj5gBgngcZr6S+CGq28ugP4cYyyXNgiyFpCzOQy5YFmAJwc9ulfN2nQPDA/9ngNZ6Q0rXLFkctfyMdq7iCCIUIIxlUIwCOldd8KfEupaR4onnuYVWKNo7eWUybjcbxksB6gHJHY8V8/n2A+vYCdLqtjWjU9nNNbs+jtfmSHcv3sk4NeYalJvIYHgHjtiuz8X3CwTOqNkZzn1zyP0rym71BX3ruyT0FfyrDBTpzakrWPr6cuZ3XU27C7ZLoMuDjqK9p0e+MkKcAHHTvXhGhRTSTBwCwNex6XHLbojEHJHSvncwwzk/dR7NKndHSX90AhDEDjuK8p1W8R7krnAJxnHpXbaq1xImU6AcgmvK9WMqyHJKnP1zXn4LDyjKzRpOimmOLCSX5eQDj+VdtpQAUbfUcV5vbyuJOOeehNejaMjkA+pHU17GOpS0SPKVDW7R1MzMsAGcDriuD1hm8tuecnFd+8Uhg+cZOf0rz7Womyd2QcmvlsPhG6qdjoeE0ukeetAJCXcHOa0bG0eSZdgzitOKzD9vaul0PSWM4YgewIr9FnStSSOeNB3sza0uxcKGbkY6VuTWoETYHC9TXRafo58sfL154qzc6YyIVIwD1FfEYjCr2l0jrWFbPENcBAeMAgHua4Z4fLYnrXrfiLTmCHcMYPavObi38uTpxX0+X0klqcToNDNKco4Oe+cV2H2mWNBzlDycVy2m2rPJxnrjiu3TSJ5YskEHt6GuTHUU27MuOHueca1qTrv2nrkEHriuFsy15fKi5BzjHT9a9R1bwvdENIwJAyeKx/CXhyS51uJGUkZ6Ejv+FenlVFJpinh2lex738NvBwlCOyEsQDX2F4f8NLDCm1OMAY9awPhx4Tjgsot6fOAM+9fSmlaPCsS5TGAK+6lhm1cqkmrHHQ6P5KZA4x0rj9btvKDqw79a9+m02LYeBnGK8o8V6cY97KMDrXlug4M+hpSvoeLwn7LeiVOPmGTXv3hDWklUDOSOPrivne5l2TlScAnFdv4ZvmSRQjkfSvUw2JlTVnsFWjzvRH/9H6mm0lVlzgH1962NO0+KOQYAIyPwqlc6iIZyJRk1c0vUEkkG3uRXy+Iir7Huo9Z0jTw6DjA7YFT6npQaM/j1pNHvuBzitHUrzKEd+a4kktkao8L1rRQ8uAoByea5caCIZRjkHtiu+1m7CzBWPAP86x1u43fg9OlRKCa1Q2b+h6MhjRscntjpXYz6GnkDjt6Vn6BIuFOefrXeyyj7OOB0rm9jHsQeD+I9CjKvkckeleUXHhqMPu28k5zivoTxBKPm9Mc1wMzQnoB170nQT6ENanO6P4fQuFxg5GeK9ItfDY8g5UGs7R8edkDgivSbAKYT1zXK8FT3sikjxfX/DClGG3IOe1eD6v4NUyMwiJyfTNfXviFcxNgc5NeTyxRGVi4Gc9+lR9S8gseV+HPCPkyISgAPQAc+9e66N4ZjOPl4x6d6y7CGATrsAB9q9Z0T5lUkAcdh2o+pIpOxxl74ZjAJZAePSvHfE/heNi7Kv6dq+qNTx5Z4HQ9q8j1lVlmcYGMVpHCJO9kF+58tXHgdJ5y/ljj2ruvDfgePywGjBI9q9EazhB4UAn0FdloFogA2jP4fStHQvozWNWyOQPgSIxBljAwOeK8/8AEPgiPyyBFkHOeK+tPsyiIZGOK86122ifK4zyaj6vFbWLdRs+OLrwMPNLLFgL7VmHwwIHYMgxg9BX01NYxKHGzOBXm2r2qLcfu+mear2TDnOS0vwUlwgkKDGM4xnrVm/8IJb5Urg9uK9k8MW8Zh5Xt35qDxFCqEFR7VrCn1ZMpvlZ43Z+GkyGZcjvxTb+xFrt2DAHGK9KtFTnOOgxXGeLJI4ULZA9sV1qNkcM5Jqxz1o+Dxxmub8SoGgYtyOatWV+rN1GDzVLxFPG1qWQ8DrXfFN2sebKSV7nk9taqPPuHGQhJHNclf3IgtpoHuFsUkO+WduwHYD6V2N7f2+naLJdzAlJWIIHXArxrWJ7eeKPWfEchSyDAwW45L/3cjvX6PlOGVudnz2KqX0Q6S4k1y3ePT2NhpKA+bdSDa8oHXGeee1R2l/qF7E2keCbc29tGvzXTjBOOOGxyaklhu9ft49Y8WSJpWh2wLR2qHaZAOhYdQPbNZUPi3XvFch0bwFY+TYWuQ0+NqkdMgnk19PGVmcKXLsao8I6BZSLdeINR8+5IyxlfCknnpmkl8XfD2ymTykjYoCGCKSD7jArP/4V7aSQvN4o1H7dOhy0RYkA+nGOnbNPin+HWjneiwRHhXUnIBPp6fhWnNLcLJsdefEzwynlRW2n3E6IMEhCANvB7c5NVZvi8lxceZa6HcFolHlrszkDjuOOtaEvjv4dW4mxP5qKDhYoyxBJ56DNZkvxR8GW9s0VnaS3U0ylQqwsHClgQcnvxT5vM05baltfifetbebBoF4hiYSEsqkK0ZwccZOSaY/xH1KPeE8N3bkkBSRgFkOSDkHqSc+2KRvixon2aO3GmTlDGFZxFzlyWIPOMg96hm+L+sKXa30mZ4pyA3mxAgSSgZAB6ZUA8VDaWqdwEb4l+I5jJjwtKGiBQksEAWP5wWyCCQxOT6VBN408ayGCxsdCeCWVjHFKZSQCgzgnBAAY5Jxn8KlT4p+JzYvKfDkjx3BeOQqgO8SABgM5wcAcjtTG+Kfi57Nrmz8My24OQqsVEe9yGckYJwcDAxyOKV11LirjpvG/xBudvleHidxyB5vBEeUxnGRgkk98mhtY+Kt/5kkWhwEyGFVcuSSGYqi7RgE4BGRggDPc5QfEPx1kaZBoF219tdmjciMZceazHgkAsA2M8gYqsvjb4gedEh8Jzx7XKgiU7+F3qFBwMoCSD1OcUXi+pokuxdew+K2oHypoLbTS0Yd8SgLyGYqpwcFwBnA449agl8P/ABMaCOGW9sGeGIsoADtEFUO5csRlyCORjke9Ni1H4ozkxJ4bMQjby4xNcbHABwASuBwAUPPOeaYsXxoWAqtraXi3YSRWV1cASMThtwI5C4IPYCoco33Zm4u+4+58L/Fa1tI5jq1rNKxdwQMuwSMcE5O4DcOo+/wBxmtnyPjGrtGb2wt5VYxqAjkgqyoNrYyPnPIHGSeK5xbH4u3YhuVntLUlQolI275QpZACOQQOeRgEAnOatTaP8a9NL2s8+nO0Su7XHn5EJKiRwSDyQSCcZ+Y1Dsk3c0Sl2L8mgfF+4jLzSaWkGFjaOWQkhTIVUMME4GGwecJz714t4h+EXxAtLi4vFjtZ4CHmBt5C0YQr5mF3AE/KB69a9aay+O7SNarbWaFSd8RmUuCSqkZJJwCdox0BI9akfw98cIpBFcyWsChlgVQ+RzLsBPcgdOewzyARXK4Rqammq3Ryn7Kd1qXhj9pb4Z3d1EY5YPENmpjYYJDsV9Ogz+tf1t+JNd8O+GbSfVvFeoW+lWltvLS3MqxoEGSfvEAn3wc9q/kE8Xn4i+C9f0L4iLqUCalptwjW1xAi74Lm1O9NykYOQAckEMKq/GX9or4yfHG+N98QfEL3oIQGCLKQkgA7zGODn0HAPQCvn69GXM7HdSkuXU/Rr9tz/goXD4rsL74VfAyVhpDMUu9UU4M20jhRgfL2wOPavxfneWZ2eRizuSzMTkkk5JJPJ5qaV53+QsAwycHoB7VRbzc9Rz1wK5btK0kbJJbEZbHyDikHQ0rI/Uj8aFQ85rBsYbRS4wRQAQQOvWnjGAT60XAYf6gfrSgnnmndz9RTKSQChjxz7Vfs5nhmjkUgCNgxJGSOeDj2/nVHGSVx1FTRbSpZ+hGAB69q1Sd9BPVandWviTVGu5bh71pZbqNEcyn53G4r1bJGByCCD3qW21W6ktY7i5LCWDYqTszExIshYg9tuDjGRXAKki4lWM/Ick46Eccj61oqt1dSBQWaSUZDFvlwfl5PX3P512KvKKtYxcI9DqfFl+19BA+d4d5JDISSZd5yWZSMAgkjoD78CuBUttwD7fgKv3Lj7OhbCujNGQCTknlj+B6CssZ5H41z1G27s0irIlK9cnHFKq/JuByAcU0ncVPYkg0ivh2TtnNZFkjYz8owKYTjjuelNbhaA3IxzxU6gPDZ579qsGX7pA5AwapgdhTwjkABscirQmXkuHQbUGN3cnOMVpQXbLli+TnBOeTj3rE8tgfnbIqURoCGJxgetXp9oi9zqrbxHNZTCaKRo5B0YMQV+hByK9m8F/tQ/Gz4fXcF54Q8Zalam3GFVpmli56fJISDj3FfO3mQwkOxBABJByevFKtzbsCMZIBUEjPJotG2g7s9i8M+IPFfiPxxdeNruyk8R6nLLLcXMs+GDT3Clt0jEgA5GQBwBwBXqT6t8ZdVWS9a3jiimKXAkdwCqOCpkBB+YSHgnOQBjp04TwH408QeG/Dv2Dw74aa7k3NcG6MRfILBFboAFC5TpwTnOa9Ettd+MeqxT6dY6BFp6W5MMgmCRBFVd8YxyT5YJYEdc8172HiopXOKpdvcdYeFvitcGC21DXhYDzLuASRDeXKRmVmLZBAAIVT/AA5yMGpm+FOrXlr5tx4kuyl3HpkkqggAvK2NwYHBWNc4yM5OTUPk/HHV1jlW8itleCGUYYAKruI1fgZJk5LYGNo54xV7/hWPi/UrprO88YTiJJWtmCjDMEi3sw24BTfhUHUDmvUbtoloc4Q/CnwPpHnnXZzOTJfBi0+2VyVxa7uoffgngA5ySamjT4SeHp/7Quba3uY7QwTGTIQlYCFkjC4O8lxz3wM1Rg+FPhf7HDc6zeXV3NIlvIzmVy0UgYrJGV4wFUcE5wDitRfCPw/0aAzXYhljaSdomEqz4JUCDEZPzHHzMOMjjip5XuQzKPxG+Hekkafp1hI7usschgQp5fnsJWdCBkE8LgDGAeKuW3xx1ZrxL7StJUFT52be2YMhKCJ1Y4PVQRkkZPOAas3njz4beG4ILuzt4JzP9nuokRCq7oSVaNxwcHJkzk5OBwAayT8XPBdnYvb2cE92MnzVC7cxJJ5uCO7O33uvAHYmmpNPVEq9yyvj7x/JOo0vwuYkKKge6dQx+yktGzZH3IwMsDnkn0pkOp/FrWLiPUbS206xinKCOORyYylyCAhOCQJTkkk+3SotR+MulXNw81hoV3bEmcxSD5yiXSkSgqoIdS/AIwACRjmqM3xQ1m7Iu4/DTJIYo1BYbYi6Dy1EiHAAQEkFeQTzyBWrmmrXZtcv3kHxavEe81LU7LTkaG6heYPsd1iIR2BwMBtoRCOuDjFZcXw/8Yah9ol1bxjKsbvJ55QsyPiISMwZX5yDs6A5HOami8W+PJZpYNF8PRwXqM6gzvuBiAMixqScOQCWbIBP1NPgj+N0mx7S1h0xrtogDuzE/nKWX5V3AmTBfJHAAHTFZuz3uxXfQtWnwQ0dwE1rXzBPA0DmVnAMcDqdxKYGWU7U5OSc4xzUVp8JvhrFa3E51GS5mSIAxNGzp54bLkHIACoCCOSTgA9RWPH8OviNeRm8vtbhZ/LhlRSTvkHmkKZNwGApBckg5xk5rRt/hF9qiuxfeI57i8VJZ1VJPKDEuBGqqSAfNJLADGwHJqHFfyju+rOgm+G/w4t0itY9OEvnGURTNIXYkhTCGK7nIUckgAHkYABqO28PfC5457m3022a2tzbFWYgod0YCiTaAT5kgJYjJQDgdTXO3Hwk8PyX0ccfiS6luZShCuhLSCRMkrtP3t/yDBGQpYYxy0fC3wjMLUz6rPKQ0T3MYLAJEARKIycchgAuQC4ORwcUve6RHzLq2d5FpPw0uo4ReWFlGkTW8YKqHZz0cnAAwxIQeuCeKqT6J8NLiQJNBZW8cSgTIEyRulJYrtHzEKAEJBBB6A81lxfBbwVHDBJOZ5PNVRjewUsH/eYLEEhUJIBAO5sdKml+CvggBzYT3G8RpJEY5P3kRkfYA6/KfufOdpIArdc9tjndr7svXHg74daqWsdN0+2V55G2yRsD5G+QAKQQMBFAPB5JI61j3vwg8JalJKdOjEDwQPuNvcEL5pZVWMZyAdp3uAOBkk5qtd/B3w7ZSrLPeTW0ZDtHkuHwJQi7gM4IGZGzwAMmpb/4P3FuWh8P63dG4jlmh3LLvRmDpGWI4IMi8nbkbe/GKOV9YstKz3ZLffCvXtFlmvPDfiG9gM6OAkoLrOhYJ8pBVSH64ODsBPSn2eo/EXw80H9p2R1C3BDB7V8ZeC4wC0chGdhB24HU9TwaxYfC3xMtV+wafqX27LOwWRmYh1dYSynIJGCMAjhc81vr4n8c+Eo4rHxRoyXEc7BfPgQOXSGcE/uyMgBlIIBySOapWT0TRm5XdjY8/wAC+OLi0h1f9xdWIEKJMn2S/JHmFg+0AuXdwMAkgAEk9K1JdPvPCyQPYavLKYzbwCKZSJgEAkEMcp4IMjnccgKOcHArMXXvA/jFm00XcF+9yYFcXUMlpKUNwWZ5JCQQQMbViyQB0BFVry6sfDUF1qltFPe2ViJBY2905kR2lY5JZuSAgIU8kYB9K7E0lqc09ze1u70Wy0l/7H8i0QAxwwQgvHJLO4yFOckFsnOccdBkVMLQaDpOlwOkkdzNIGnkZdzCcnkLg9COQMZ4zXIeBtLn8RNbeM/E0ph0+PemnxA/cbHzSbQSDgkAZGOMjkVoW102teJLqe6laOy0Uo+4DCy3A+VCvHJQEAjqSeatT0em5z1Foj6dFx/wkOgjUwCI0whcdCy8c56E9SKo+H/B0mrXYcKdoODgZB54q38Htdi17TfEPg7UxBObtmk0+WM4JlgXLjGAMSAn6EY7Cvp74ReGUuLRWdMlThjjjg1+DcQYONLEtpbs+4yyPPTVyDwd8MbWKAeZECx7kV6gPh1aiEBY8kDk4r2HRtBjt4lwmR0Fdnb6MoQfKK+KlRpu9z65RstD491f4fLACyru79OmK8g13wgs0rrswT6Cv0E1zRIyjAR9RjpXhGq+Gwb0gLgEjIrnhhoX0WpLeh8raR8N3e4yQTkg8gmvdNG+G8bRA7OeO1ezaR4ShQBlTHTNem6P4fjjQb0yK3eDjL4jlsrnzfL8O8w/KpBHHSvN9e+G0pJyDyfT/wCvX3//AMI/E1vwmOp9K47V/C0MnOwZHpXD9RpxldI7ebSx+en/AAhU1vIUCng9cV3GgeE3aVFK8j2r6Hu/CMbTthMY56Vt6P4WgSRSEGR1OK750k46bGMYpS1R5tYeDpyu7YcDjGKluvBU0iEBcfhX0zZaFGIlG0dKlm0KLYfkFeHLCwbuz0UlY+AvFng25VWwp4NeJXmhTxyFXQ5B44r9HPE3hiKVCdgPevEdQ8DxSzF9gHPpW/sLLQ8+dJbnzr4f8MTysHKEjOeBXqlt4Ym2BWQkAHtXs3hrwXCoC7MjNes2PguAqP3fbvXnVcPNu1hKKSufFWp+Fpip+Q4IPGKxvBnhf7P4hRmiycg8jFfdF54Kt9pzGD16V55J4RjtL4TxJtIJr0MDh5U6qbMqqXKekeEbMJAmQM4xXtNhbgIDjsK858NWuyNEx0r1+yg+VeOCK/SrXWh46bT0ILqEeWT6V5R4siJhk9MV7JeQ/IfavKPFUbCGTHpXk16elz1KDZ8parmO6dcZw1dN4YYmZflzzVDULXzbpsjksa6jw5ZeXMPlzg15NraHuJ2R/9L6Z1qF/PYrwCc/WnaDGxlHOQG5rY1KFZJCSOgqHT4TFOqp0JBr4XE4jzPeSuz1vTEBA5xVq/DDO444OKpaWxCrV3UnIQ4HOK8xYldzZpdDxrxG7Ryn6muSs7qR7jGeK6fxIzyyFWHGTyK5e3h8uUFecCtY4qPUix7HoDsIlIPQV2zPKYh24rzvQZXEaeuK7xppPIGTnjpWjxUUFjhvEcxCtkYwOvrXmM922/HbNeieIpHZGGB0rzGZXZzxg5oWJi+hDTud5oMwdgue4r1qwB8oj2rxjQm8thjrkV65YXLeUBjtXSsRGwXMrW4Q6HPXk141qLiJ2RTkgk169rUzbT06EV4zqXzTNznr0oeJg0Smrl3RZDLMuevevbNGhG0cj7teG6SWjkTpj2617Pos+5V4zx3rL6xBGmhvahEpiIzxivJNdCwuxQZr1C9kzEQAOh715J4hdyWVep6VLxMexnJJ7nMQy75jkV6l4bt49qkY9TXkkIIkA5GTya9N8O3RChR0PSs5YqHUzslseofZ08rB5BrgdetYkQlRzzzXbrO3k5JyCMVwuvSOQV6jmo+twLU2tDym7dVdlB6A1xd1DDJcfOMk9662+Vg7Njgg1xN1MyT81X1qAe0O80fyoovk9BiqmsKkjetV9KlYxgD61X1e4aMn1NJ4qK1JdS+hjXG2KLKdRXiHi7U5JXaPOADXrt1cO8RAPNeK+K4MuW5BJzzXVSxCm7IhtWOVtpWU/MaxfEmsCOAoGOHwB9TxV9SVIHWvOvFExOp2cZJCO4DA5xwQf5V7tCPO1E4KjSTbKPjnxTa6VZWGjbRK7oScAc57V5bpt/FpUf8AwlPjUG6mViLWzAyNg+78vXOab8SAbnXmvbI7xAVUAHpgDoKgi1bQtGebX9blEtzHDmBJcnaMYIUdM56V+u0YKFJLyPj5S5ptjbmxl125TxJ4+uBaWG7fDZhgAMdAw9MdqtyePNS1nOifD/TAI4jgShdkY7cMOtYmmaKvjd5PE/jud7DT4vmgthwZQvrkcA/Wt67+I2j6cyaT4P083ROF2W4wBxgZI9KtO+hTepFF8PPEmqM8/iLU2SOQZaOEkYPoDjmtiHwF4AsRFcSxAPENrGRs7/cgng+9cpc6b8TPEyr9okXSbVMHAyZDnpzkVOnwvgaA3Gq6rdXoJO4bwqgj2Ayauy7AkdbP4k+FuhTmyaOKOWNcExqCNwGckrnqDVUfEnwVDGWSSERSHJYRA7Qg25PAOcHimweEfh/YxtMloiJL/FK+WIOFGOp4PJ46U+5n+GmiSiO2NpItwDGVdl4LMMsQMkkY4Bq7SWrRolfQpw/FXwSkUtvYmRoi3zKluRCQAYxtwCQTnP1qdviVpBtwmnwXP2i22sF8r5JDEpVGJbBBZWxx6fSrUvxC8A2ebQi3eCTACqoAcO24E4HBGMHn0xmqS/E/wcgJSSBJXTaT5TMsXmtuGcjOV2AHjoaSbvuEoJFeD4qx2EEix6e81wgAg2oxClQdm4n3OCME03/hcF35EVtbaBdTPEuZEkRtvCmMtjAOQpOSSBnHFWJ/irpR02C5Eq3BZmSVEgCBA7AENgEgjGTjJ5GDjpA3xlsbWSW8WFZ5NwBiSJkBBYEEHJOMgAgnJzVX7sSsiZvivrU+4W+j3ryMSGxGVZxkR7AxyTleAex9qi1D4heLS8t9feHLqKWUlHkQeYoDZU4B4DfKoGM8A1dPxb0q3j860tb3z9wdJdjZKD94QAwxw+QR6DIqm3xYhdDL5d08aCTZGI2yGQAgsTgAMSSTjJxgdTRd9GaLUqr8QPGl9BBY2Phq9MpQiLzQgiKohlDBiQCfMGScnjjrVFNc+I8s8trbeHpXRI/mjmlxtMYG1jt4OMkgdCG56Vo3nxj0a5329ta6pcxOBucQDMQ2+WVQHICFcnoDnj3NM/E7W/KjkTQtQ8ptgMhiw5d2O4LgAMDgEDp1GeKylVadrjsOGpfEySZ4rTw3DbQoSQv2hgchgDgkkEgHb07+gqgsXxjhu0WPT7eNiPlaSf8AdFHYrtJIAYkgAkY6elaF/wDFK+uZUng8M3wmIBEpXAA2lmKxgAk78E8FQBkgmsn/AIWH45uLIrb+HboOrsA0gYogCggkEdhk8DHOahyXdlkgu/jdbFTJZQTRygIFD5Yl4yVkZs5HGXGeMj3qWJvi89zLZ2ulRrKsSEym5DKoQLIpDNwDkZOBzkgZ4qtF4z+Id/DGlt4WuJkLOW3s6BsMCcYAxhSFIJPUY5OKD4i+J8kqRw+FZhHOQViBZiQkpjwwJyCv3RnuMjIrFyjbcdjjPiaPiiuiwt4rtIEgF3IA8TAv5isQwI9gdgOOceleASC/Hceg75xXvXxFk+JM/h2C68Q6NJZaZPLHIskoAaSQMUDYLEjcQQeBkjNeFN9r58uHYABkk5PSvJxCvLR/edcNFqUD56sdwBBBzntUDB8jJ4qw5uySmzBx3pnl3OVymPevLlF31Oi+mhCQSDz05NII2bBzwanKTY5PHqOmfehVk7tyeoqFC+rFzEAjJ707b6nmn+XIM5P5UbGPViPrUtW0NE9CLY/rmly4JOMDFP8AJYj7x56CnLb5IVnIJOMHrRYeg0MThSOCMc1p2E2mQxLLcM0kwYERlMgY77gcnB7VUtrSe9lW3hZSWIAJOACSBknsMnqf516vY/C/X7WOOScabOJFIMUk5JMpjDohwAQ5BG3BwTnng1vGLb0RDascq2taa63Vu9spW78p3ZCyHEbZYheQSRnr3xis9brTvJS5iUO0DgyLK5xKC2AhwM8rgHp35rvR8LvElnJbThLKQj51BnyJ3j3lkGQAceWcgHB4IJzVaH4R+J71ykLWUTEElTcqwILFSQFB4TBJyeAOM9K3dOpbYzTR5/rFxDPdTywRR20UzmVIIzlIw437V5PCngAnIHrWBuyRt54r1bVfhhf6Zpk15HqVldSohlEVuzu8sSAM0nTAxnoSOAa8wEJ65BB7gY/WuacXfVGqaIvmwc0nBA9qkKxc72JI5xTgIgcBckenPvWdmUQZjz82SfQVIMjmNCRU7gliVUA8cc9D0P0PqaZ5jHAUgdecjGQM4zVcr7gNzIeMDnP6UqxvnkjHt1qaK2v7klYIWc4B+VS2Ae5AHGTwM45rct/B3i25uDa2+l3Usg2gqkLEgv8AdBAGRnBpKD7CZz5hBHU1IY4sDjoDyTiu9svhV4/1HcI9InjCgktMVgUYOCCZCADnoOp7A1HJ8L/GscMcqaPPMkiGQGIiUFQMtnaTgqPvA4I78HNX7OS6GdziUWAJy4ztA79c06NoPPUTElCy/dHOM849Tip2sBbzBJEKOCMq3BwRx146+9dz8OzoMWvCfX5ooLe2gnkDSjIM5UCMYAJJz047c4rqhC7SYm9ND2tPi9ZWulQaJpmjXF1aWVu1nEDvTEDYkweSA5fkg5BHSkb4g/ES7WG/0zQpd19HuE7gjeQ3ls6AcgbSFYcYrdvvir4QiuJX0a4jaOVoZ2JjEaBwBGylcdcAk+gORnpWAvxjuMNa6XpVwWeA2sWFIV/NYsNqgZBkc5IzggDjjj6BLlSSZxPV7GxLN8bL+eCG9t7WI/aJrQQyvkF1jLGMrliyxx9NvcdelQyeFfinqFtK766tiEitJWCu5eMk+XFGTkAEjLYIAAA5zxVZPiR8QVW6Fh4XMSyCSQrKhUAcrOwJORnAG5SMc881oGL40XbIkVpaaJFHKIGlG3YjyKJY9zMWJAUcNyM4GckCpc2iHfewyL4Q6hcGWTXdcu3kFxcoxDmMy7AGDDd1EpIxk5AAx1qwvwy+HemwR6hrF05lD28rM7EgRKcXCgKQA6nAHXrnpVG48HfE+4mQ694kitpmWG4HJKIdxQKVGMHkknHFOtfg1a3dyItX8QmUTSXcTtIGKK6YK4CnOJXOQDzgZPFdCTavYTdtzpoofhNpM+yPy4pW3wSeSI8qWIdXUZI4XIIzyCAe60snjL4bXe3+zRDAYmjk8u4UeVEHjwFwDgqSdxIAAJA5Iqra/B7wPp1xavfvP5Ek6JLsmjII8v8Aesc55LkBQcEjIAzzWm3wt8AW8Z3wWtxM8SBUaVsgxyBpygU4jCICpBJAOfanyzWtkP3exmH4o/DHSpbYaerTiKCLMrRKjiS2b5FC4IYSMCWYjBGOM1j2/wAYvBUVuFdLqaQNKsgCABlZvMYgdSXbgn1HTFdcNN+HWn2izqdPjlmedGiRQ8kAYHyw2MDKKCSSeSQKa/i3wFDqMUjG1BjngkUOsRKHYI1VcnA8zLMwweoyRRLmtukS0nozkJvjTITFPHpF2yqwlaRlYgkkBzvByAUITGAKoTfE3xnqEs0ug6FdAXASTzMYLLE4AfDAqAAQhABxXZN8R/BNnbuZJraBbWOMQJAQWBtHwFcSAnez4bIJGByO1YusfGHQraznfTrv7SoZo1jZMTzAsZB8oACKJR98EZIAxg1i5d52KVOPY5+WX4yavDJa3OlxxrKsxAlJiYKCPM53BWCA5AwcA5A6GrNv4T+KSTxzG5t44/MMZliAdgZYwQcHIIKEjnB5IwDVC4+OD3DOLPQ3UXIcvLkszo53MFPQKWIPBJwAM4GKkt/it4yd1mj0a4nR5ImkVUZYZZCpDdhhiTx1+lTzR6yuDgloi4PAXxHuLiCS9vxIZ2SKMwsIjFkFIJGJBwuQcqcHA55Iq0vw2+IESi2XXln8yKBTHGjeYwaQ+QmCpIyRv/3Rkmsd/GnxYnicf2LJsuAmI23IzLBIGLsoIyVwAxOMZ5HNWpJ/jXbW5iurJIowJy7SO2V8rCybmU5Uxh1JIwQCCM9KtSp23YciZpw/DLxmluNQPieQkx8tGMoUE+xQS5GC7jKkgDAyeOKpzfDPVp7w2Nx4luFmZZ1jJfdvRJVGAflA3tkKCe2eBgFHf446UUsLq2CMk02+YjzBIdoLROxyG2K2SmARnPXipJn+N9reTS3VhEjyBgzBERQVxIpDE4BHyvkcYPWlemujJutivN4C8ZW5mjstda7AWcsszKRhHVHb7wOSSBgdcY6VS1Dw98V7a2u47a7S6SPzjJGUIkKSbIiMgYIyQFAIOOfWqt/47+KdpdvBrHh/dPh1maOHDEeYeMgknDE4IPOc84rNn+Mk8EtydQsriyv2WVPLZ3Jy+AMh8YwASOOuKXPT6N3NOWXa51en+LPimLi8mufDc9zJBBICyqNim6byy0hJKlCRgbSMHpV60+MMmmL5OsaRcaY4cl1jhIQeVKGULk/NgjJycFuD1rj4vjDBNAj332iB4iwj3klAu4bflUqC6AFupBJ6V2tv8YPD9xFNLdX8QuYI5mgaS3UoSJkaIsCOpxvIHQA8Yo576cxg07/Cdd/wn3gHxDok2nGSC+gEYkWB4o1lYRyOygLIQJJckhSCQAegqtZeCLLThp0TvPJdweXIFLtLh9ok2j/d3BG46nFT63rlu9naXAWxkNxeSpZ3UMEZa5KuJDJERjlHfbngIOCCRWAtz428QX13JpMdvoUF7L/pd1KxcmXyyH8vGFfeFBBHG5M5GefRpSdu5zSi27Wsb2ueIbjU7uw8A+G183UHBMUJlwkAHzCRmwACoGdgBB4Ayc1b1qBdF0/TfCGikXt3GDHA4cq8lyx3ysx5yASWOc4xj2rLvIPDnwvszOk7ajJd7WuLuYAzszL8uwAbgc8ZHAzWp4cjuLInx1ru+11G7jK2owc29scfMyjALyYBY9l6c5rZN8+pjUikrI6nwRqem+FfEnh/ZKJDa3QLIrMzyLGD5mTwBzgjOMnrX6Z/AnVNO1KG5+yuWjhkb7w5IySCRnPQg/yr8q9CiRWm8UXM4336/wChSGUREqer4UAkMQRz2IzyTX2J+zJ4nmtfEFytwQItRt0ngxkByhw2AcHoQenI5r4rinB+0o+2WrR7uT4lwk6b2Z+pljGix8DJ71tw7BgYwK4bTdQDRDa2QQMGt5L9cZzxX4fzK17n6NzK25e1hY/KPpivENRWMaieB15r0nWtSHl/KQBj1rwrWdV8q9JJzzxQpq+5xzlc9o02OPyAUwTxXf6YIii8dxmvC9A12MoFZ8EgcV61pGohoQVIPNejFq17maep6AFj2H0rl9QSMduhzWol7mLG4c1zOq3iIpfcPTFcrep0NrQ5u4topHPQ5NT2EcccgTHA6Vyl3rSpIwDjrVzTNWSaRcEA0m1YaasewWKxbelW5o4vLJrntPvVZevNXprzERGRXPyJ6nTF6HLazBHIjg464rgLjT4WfGAfaus1zUkjU4YDmvP5dZjMxAcE561SgmRNqzOx0S0jRlUKAQe1enWcCbOBXlugXSOwYkcmvTLS5UKMEVLpJO5MGktRt7BH83HQVw01tGLkfKORXY305O5R3HWvPr2+SCYtnkE9eldFKC5kcVVo7OwVISFQYORxXf2cxMYx7V5DpurJNJjeCTXoljcMyKoIY+1fWJJRVjytnqdXMylDuPUV5h4m2FH44NdvcTsEOa808TTsVfacfWuOsrqx105uLueJXtvGLgspAO410/h9E8xSR3rhtUvjHK3TOT3ro/C9+ZJEJ7V5DptPY9ilVuf/0/rzUJY0kwxAzTbCaKScMoGMgda53X3lMhI4OccdOazNMupYZlBJIyOK/Ccbi2tj0ViHs0fRWl7eAeMd6uaiqFSOtcfpGpbkBHIAH51oXt4SPTI7cV4DxzLdZdzzzxCsSOSTnmubt5UaTC84qz4hucknnqa4q0vnS4O4kAkniuuGNdhOvbqe9aDAuxOa78RR+TyOgryfw9qG5ADngV6Al6WiCrkkim8c+4vbpnNeIYE2tgdq88NuhJJxkH0rt9cuNyPk89MV53LM4bI5OfwxWkMa2HtbnXaPbIZBxyDmvU7C3TyunYV5Tok+JVPckD2r1Gzmwhwa3eOstWaJ3VzL1m0Gw4HrXkl9DGkhDAZyTmvWNauwEPXvXi2rXJaYkcjJqljU1oyZTsaOnwI8q4Of6V7BolmuxfpXh2mXWJQBwe9e06NdgRJknOK5pY5p6mSqs3ry2XyjkdsV5Rr9uBIeelel3t2PLIBOOteT+ILlmdtv0qY45vYTnc54RoznkCu88N2wIXHrXl8cp3nkjBxXpPhmdgihugPbrUyxgvaHrMNoDCFJx/8AWrjddtgFY9hXURXZEQ6/jXK6zMTGcZyc1ksW7juzy+7t4wzc5GPSvN9Usy1z8oxzXol47F2PQkVwd6GWc4Y10xxbezMW3c6XQbdNgD4zjGKr65YBnJXn2qXRt2wknoM5p2pyMD9DSjipN6hzSOT+wLt3OOcHAryzxlYbkygwfpXr8jsx98HpXDeIIWePcRzmvfwNZuSaBSbep4ja6TM7rkDaBySOleeePLRba9tGGQUJkJHYAV9FW9orjGAM8kAV8/8AxSi87WZLOOQJItqcjOAC3TPXtX6flMHLERTObFSSps+WvE4lurq7t0j3+cvnJzgtg84Irm7EaJd6ZFqesJ5z2J8xYieoXgggnn6VYmjnutKN1FIHu9OkcOQSSqA+mBwaw0nstLv11C5jAsb4bkY8gnHI5OBzX6zVcY6XPk1F3udLHZ6748KXniC5GhaFCuUjzskkQd1Hoa0x418EeDoYtO8PIG3DBZFBkYjpu75PeuG0/S9d+IGoTl7s22j2xAaQcHYP4UA6k9OtemWtv8M/BqbLcRvMAD5lxtMoI5Oc8ZrCnvudFrmUnjb4ja/ci48P6LIYgoRZJQQOhORnjAxWlF4R+KOtXM0ut6zFo8WCGihIyW4yAOxwc5qG6+LiXQOmeHUlumOQqxxYBJyN2R2waoDUvjF4m2mxs00tIAQGkBDsc4BOc5JIx06Vs0hrU6lPg/oJikn1HVrm6NsR5gd2Ay7ZAUj1Aya6Ffh18PNI8kyWMMmwhn83745LD5j6gg9OM1wEPw0+IV+8UfiLxG0BdA4Clhk7WGCflGQPanf8Kjtrxku7/wARXM8UmM5ckkgBQO+ASQo44oT1+GwHcwaB8PtJ82KaGzMtvIjFSyBPJCneNzHlxkEcDpWra678M4bplLaf55BYgeWwYohUEnuQxyRjnFcOnwi8DQztZSmW7mRWVzI5c7nx5eeOcncCfUVpr8Ovhlp/7jUtKke4uz+6jjAzsY5UgjBGQCDnpjNb3D3fM1P+E18BLEFkuLH7XBuYlRGDmJBGuCSAScnPrgGqcfjvwWLcWs81jLePGqmVfLA3QgqAuARzuzkg5IqVbH4YW0MksljAlqnlGLhTECzlgCxO44QYJAxnmor20+HEK7brT7UShdyLGVKy5bzVOSSSu0gcDNHN5IVl0uSQ/EbwQYLj+0HsYghlJZSA5QKIzsByMjk8cnsKz5vjL4KaIPBMIpZCyuY4g7PEWGFKgDdgKM8DgnHWlgm+FWmXO+Sx09ZoChVCVILglyCpJxkHBPoMe9Pm8b/CqCMusNmtw0iMxQK5XyQY2GQARuJ3DHYd8VN13RpFK2pVk+NOgWhee3upZxu3IBbYGxmMueAcqHATB5APXFVX+Omh/YRBb296Lu2AMLmDBjMY4GevO5ifQik/4Wb4CtzFbILUwRBlkZIwCMqIgVDD5wOXyOv5VpJ8UPh+InknuoMqShMKEMgkxGMKVxwRk4yRnPNZuTvpJGvLHzMO6+OGkzxHZBdyEEIzLEQHUDYO+ASmcgYyc561WuvjJd30EW3Qr2SYFmYJbsBtx5Y5HUBAARjGeM1u3nxv8Ju0kcUSIZflDyRE/u3I3lWAByCoA46HpWVD8ddHjbzIVYJGQYY0gbLMD5oUncDgyZBxwc8Cp5nb4gKrfFK+vZ1ni8OaqxmEYkWOJghcE5ZBjG7eBg4xgHgkCs9fixrzM7/8I3dRyPtYuEbzEbcWBGQSQJMkZxxkds1uXHxq00Rmax1CZ3DYACOpAiUujKwHAd2dQCAeMmqF18c9DnmAW3nAWMxqFQ4AQYTIJyxZSxJJ4JBxgnGWvWRXocB8QPF/jfV9FTTtV0i6soGkjZhMhOSFLKAcDGSWc+xrx6PT9fniYRabcuOgZIZMnjOScEdOT6CvqT/hbcuo7be30y+lMIQzRi3ZijY8oyDJxlosD5hgHpnrUZ+L9+8All0i+LwB0aWKMqCZSI8ScEEFAAOh3Z5xxXHVoKbvdmynbofJ15balaysL2zkhIGR5iMhwehwQD+lVH+0IRlCMe3Yjrzivr2++Jr3+n2ltfeC7u7VsiJbiJvKmIkCspJIzlCVypBVscV4hrHg3WrvVrj+wvDl/bWxkuXjikiJEUEWGIZicZQZDHPHFcNTDWta7NVO+55cVuQpATABGcD16U0w3H8IwCM5z1r2ux8D+J7S3uPL8GXF5LAr+fLcAgRo8W7OARjap3A4IIxxXI6r4E8YWThxoN5FA6RSLujySsy7kI2k5DAEgjtycVzOg13KucA0M56nB+tILZsAO4PXjp0rdm0XXYWCyWUsRZQy7kbLKSApHHPJA4zU8PhLxTcSeXFp9wXKlwChGRgHIJAB69unfFZ8nkWnHuc6LUkrlyeQOOtbGmeHdQ1mYW9mhJOAXbIUbjtBz0wSQPrXoek/BvxHexGa9ubbT7dZUiZ5J1dwWQOCI0yxUZALAYBzmu5s/hDp1lpqvea9MLuOFA0cYKRCWSR9qK2fnUKA5PBGa6IYeT1toS5oi0H4SaTDLcWcmtTy6ntSBRAVijSXzCJlYkEyBEXOAVJJGCAOdI/DTwpblpE8QXstt5kTHaI8JapGWeQqM4YH5FfA2sc4OcVp2nw08OSXk1ynjG4CLdEzTkqjJbbfLWSUAtskMmFC5JIBJxnjJtvh54GFvER4guxPPAI2QOgQyvKGeMtkgjyiGAyckfhXfGklGyVmYuTepZX4e6bZywQyeMrxPKkdYo0TIjMuGgABcDLAkPgAAn3xSRfDrR1tQE8ZySOEkDLAFTbeHl4lPUrg7gRkHkEjOafJ4R8EQOBJqmoPCzrcLGspJazQ4YHKArIzjIJOMYxxUV34I+F1m8TXNzdtLAZBMGlOSbon7MSygqgRCgfOMkHPpWrWlrgmXZ/h78KpILlU8TXtzIYYWtZ5HjhiCwyBbotnJJIJKA4z2B6V4t428JeFdKIvPDOsJewTBplgcqHihZsRAkdWIByMDGPevXLbw98FobGV52kJmKW0MlxMWHnwMGncgEABxwpIIA7VpNrHwZ0u7m1AaVbSotwLlbeRGaIYXYsSkZJXOWOTknp6VlKknu0NzsfKcUEEjH5wqqAckckNgfTI9M5PavSfCcnw+04xvrdvPrLvyxgjYCAKMjCkgSB+BlgMYyAa9ch8Z/DTQrq0tLPToI5x5sbTwhTGqXWN8g3dWi6AHBwTjnrch+Kfgk2q2cUcECSL9luJFRgWjgUtEVAUYDE8seT3rL6tG920UpXVzl7jxfda0yNeeDmvvKYoytakAylAIYlOwkBQpIUYBJyAAOakdx4muFe+0fwUqxKqqs7QYG6FhvOGAHJyCMAj68V0kPxu1mSdbrS7CWe5Egl2qhybraUyrDJ2quSBkkntimDx94/uLeNtD8OXXlNE8lrII2IEBcGbapB3Jv4JBOBwcV0qmkrJkt+ZNY6Z8Z5IzNp2kwaL5RgeQs6pmO5bESshJJXuQQcDrU0fgb4qMkT6j4ut7ISy3Fs0kcpKhUAbzGkQjKMx2ggkjPFQre/F6SARw+GVintpEjnmZwCZbrIgEih8E/N8oIIwPu1TfR/jRqEaSzxWsG+GVV3SKhdLNisnC4JJZeMnJI4FP2aXQG31aLd18MfFurI91eeLprlVtTPMCrnZPAQqxnJAJHG1+oHY10Nv8KfC8bwf2v4g1EaVFIj4ecIHS4UiWReFAUNgHAOcYNYP/CI/FWa0lvtW16COKLybjylZiCl6pXJCgAbTjcGPBAA5NWE+B3iG98uLVvFJjtHaaE5LOiwAEq6BiCI3YBQ2Bk5xxVqKvojJtPS5dHwv+GumxJBqkoITz4pS87u6zCQCDCj+FkO8kcHgcYqxaaF8FNGhm1PbbTQAQgid1eVxFxKqoSWDSMDzjkY6VlWfwX8JC1iku9buLiVreOSTY6jE4b5olJyThQSTkc8Y71pr8J/hDb3iyTXcqp5pYK0jAm3kjKwNxlkZpMZBJBGcY4rez6pBe3Vi2/iL4W2LpFZJa28u2cGQRqxYSnzA+1gQNg+TBJIHQ81Vn+NHhFin2Wed5vMhm3LDgh4AUWNdoU7cfOD26e9XY9B+FGhW0QltreIlbbEtypffPbMWnUByCCwO0cEEdu9SHxV8KtLmLKIg8xmWbKAOGnUALGVyAI1HHHWtFNrqkT7vmZc3xoM0jW/hrSJ73y4vs5DRbi8edxaQFcnc5JIB6cAGqM/jrxb4htI2t/DkvluELyuzIv7piJMDCgoSAAGAwRjkgGt5/jH4NikCwBpP3sE0cwgVQJLdSkZPIIwSWxk5PJ7CqNv8aibmUpby3MeJYA8UKugib5y2OGBMhLE9/wAqbn5kNtbFhLn4ua6RHpujCxDzyQRrISZQ8iiSNXLDJCDJJzzntUA8IfFPWYpnudSgs4n8q4jMZxLGC5jxGAQUIOSwPJAzyKrQ/FfXZL+O9j0m+v7sRsxDKwUzMBG7EKVwAABk4PUe9NHiX4oTyrY6V4c+zXqzlZGljYESuD5YBIwSAC5zn64qr+o1KXVI1k+DniC7WVNW1+8uYrLz4g0PAJtmypbg8l2yASWAB5GRTrT4HvHfodY1PUGSZ3jlKbkd0KBi5zgYYnBwRkkknNYi2Xxpn8pTe29p9qlRSsburZkDLnAHzbyCSQck4zxUFv4S+Mc5S6tdZVEWASK6lyDGsgjGRtJHzHjOCcHGelZe72HzPyOuj+DHhI3htZTK7sLdTunR0Jc4mlAZiCy8YHIB4INTWnwz8Ai3msFtYzKsTzpLPIsQRlbEgYEAkCMAlCRycg1x3/CpfGBnMMmub2hW6JVYpBKREw3DBwSWc/Lg5AweORWsvwE1aKaGC68Qz20xUSrKxbZJ5sIdjGD8xLHKEcnI5oTvoo2J0ejZ2Nr4E+HlssES6dYtdIZVCySAA5UeUTyASFBIYYHrWfBd/DzRoZty6dbu0heIxCIkGWJlVXZiSUBXJwAAxzWJD8DNGWQrq2q308YSCV2CBBl4mDLkgtgOMA45GQRS23wl+GsENvLLG05VFeUCUjhGIl3hsOvJULtIwcnB6VXvrogSj3LC/E7wlZra5vLcpbCBljiRE+ZAYzuIRxgISSAACSOD1qE/GnwxY2ROnXRNxbLEbWLe4gCRSZCsoGGcg7juznGCRgCrV34c+Fmn6f5c+m2ME8cRLFXJaacMGkjwxAUCNgqhScnkjOCFll+EdjZFn0+wglLTAogVvLlyJVIZ8gBV+QHOM5ByRmhyl5ITUWzCPx4gEd1pum293cwTxvGCpAI/emRFjYEkBmO985J4BJAzVeT40XNs32xdO1CbP2lZxcxklxKAVEkmDn58ljnJAAxgZrpbj4k+C7Yu6w2cZLPEWYFncTgBmUKoQGMAbQMAckknAqab41+FY9U87ToLaa5U2rwRuMwAmMxOGZhghFJYjGc9zipbfWSJsv5WzhLX41LawuLi3kGQ4LSlnJbG4mQ7Dl3k4OR90Ac4zWOvxlhVRCBLFkhZA7s7IEiKqI88BCcAg8lRjg8V1y/FrSZLSUWkWnRtKsSyI0W1A8DbUbaQ28eX8xJySeSapf8ACVeENV2LcCwmll+/JOiqE8oFWLcHgoDjgkkg9eazlJ20kaadjn/+FtLdbpp5yjuAxbBwriMghVJABLsenAB5z1q/e/F2C72mby5J51dYLgRq7QIiqqAF84BIO4EDPUetYFy/wyvbRnXSo7aXaArMJFJmKDcCFkOEDkAHBJ5yKyZIfh4RJObGCASbniUzSP8AOzKqq5zwoILc8444rkdSezaNLx8zrH+IGm3iMrLb6jbWcss0cEoCIHJVVAB7OSWwM49CK6SLxH4NE0w/sCytZbdZZJmMcbkoOckEAEMwwMYIA7g4rzuGDwRdFUg0e3aZA4IjeXuwijUKzHcScvkYIB6Vu6fpnw7vYhAnh+7uHhEkbNHO7zMwcFMgk7FOAgJAGCSTxk0pu97IT5X1Z6BcL4Zj1O0/s6zsrWOylQtcRhMvcPbB3eIMAAYSVbaFOCMEHtTv/Hslncx2tsDrOtHOYLcAxo8TMN7KqngxNjPTKhjgVd8Pab8PymtiHQbpoE2QRQG5M8nmztjyyT8o2OACUYMwPBwKtWur6H4NsoJV0238PwTmRZXUs05fIjkVWfcSFLLgYGQSDkDFegptpWaRzSXzLeheDrq/mOveMJI9S16UuYrJiGjtgrZwgUkM2DnAzgc8Yp3nHxhfvpWmGODSoJiLu4RwuE6iIAkkZZSOQAo69a5631DXviDbm10O2Npp4KJNqGAGbaApEQwWDZJAJIGDnJ6V2E+q+HPB2iQaPptsSDIIxAqqZZ3l4Ukt1wQQ7Z7cjpW9Le5yyTtYk1SXUNS8QwaJpn7iC0jVbojabe2tmIwOAQXcAgcYHBya9c8Aa1HpfijTLXTR5ElpcRGRyQAYnyG2qDgJ0GemR0rxyaW18H6CV1CMy3bSB54wG82V3cFIxg4KgMQB2FdH4fNzpcU+r6gIob+5UoFQlxDApBWJuAcjjJHfqaWPpqthpw7oxhN05qS6H7GeF9fY2iLO2H44Peu9TU0ZQVYH2rxP4Yl9e8G6Vq0ibTJGik9yVABP49a9ZttNaNAD2r+O8ZiJUq8odFufcQxcnG5S1q9LKfnAABrxLxBK/mM3T3zXtWrWDFOOpFeTa1prF2ViSCK4I41vUr28jmdK1yaCYIGOBjJzXv3h3Xy0Y+fg4714DFpgVgOnf3r1DQNPkCjaTjivRWPko6lKu0e3x63iIMWH0rlNd1tAm4P68U1LZhbnJ6VxGuW8xiIye9Zf2j3NFiWjgtZ8Qv5zGNzyelbPhzxDIZUBbgjk5rjbmyLMRIeOcHvWjo9k8coCHg1osa2rplLENs+jtK1zdH97kCtSbW8oQWwRz0rgNFtpAq/NjjvWve28gjfa3IFH13zNfbyRzPibWwEbLAZPrmvG5/Eci3bKj4AP511/iSKYqVJBIPSvMbizZ5S2Bj9a0jjWtbmM68lue6eFvEBaJCzgYIOetet2WvKYwd/Y9q+XvDsU0WME4J9a9Zslm8sYYjg1bzHQzWKa3O8v/EcQBy2CAa8U8U+LTHnyn561oa2blQ4DHBBrxDW0uJHI3E0RzDValPFN6WPWfCXi+SeYAtkepNfTGg6uZIV+cZIBzXw/4Nhfz1Q8HI6V9b+F7aQwJnngV91hcSpwTbHdtps9ZNwJQOcnrXEeIlDo5I5rsba2YqM9hWFrlqWU9iQa9JtNam9z5Z8SQv5/7sEHJzW34SyXUE8nr9a2dd0lmdmxySeRWfoNlLHcKgGMd+9cNVpHoUGf/9T6u1y3G9+OhrlbeE/aB7mu+1sxl39cmuStcC4GfWv50xz0uj1PZJnpOjW42KMACtm9gJT6VR0dsoo6YNbl590454r5tpt2MHSjsjxfxBARn6muJNuBMMDpXpPiFcjaeOD1rglwGwT04rvjCyvcwnTtsd34cOxBnrivS7cqUyRyAK800B+nHGK9Ejf9yOO1ckmm9QjBtGBrwRlYYwAAa4RlHmHvXV65JLiTJyMDjNcAboCXHTnnNd1FWsactjsNGA836EV6pYqDHyM9K8j0W4Hmg56kV6haXA8vrWNex0rZFPWVUo+4cCvGNUZElP1Ir1bXbseS3PPNeJ6jd7ZmJ75qqUepjUepoacu6VW969k0YMY156AV4vpEu4qc9a9g0iXEac9qVR6mKR0l7H+7PHavLNeUJI/v0r0W9utsLDPY15Hrt6POYE8YFOAN2MRMLJgnOTXo3hwqFHGOa8ximSQlh1rufD1yFCqTgZ71UmZ3sz12Nl8rniua1Vo9p/Gr6XSmMcjgHiuD17UtinB7msVLWx0Jpq5zl6ys7BevrXB3z4uMHnPFbb6gspIzzXO3+55tx4Fd8I9SWdXozjbjtTNXZFY89ao6ZIQu3rxWPrV7tLKTiltqSy5CyE+vFcvr3zIccYIxU9pffOOc8VQ1W53j8cV9Ll7s02OKbdjO0+A/M2OFOK+KfjVqskGs3WrJmRIrpIXA4ASNdpJ/GvunTNghkcjJALY9wK/O7xnrlv8A8J0+haoglt9QDHD8Au7bm5Hp+lftHD6569+xwZguWnbueS6zdzaRqo1+yTy9P1BAkoPzKeOT6A4qhplv4ekd/Dmuqbi1lbzLcE7CgPIIOfU9K1b+EeHprjw7rYNzo+pNi3mPIQk5IBHIx2rz6/0i7tNQNi86tPCcW05I2SIOgB6ZHev0Kqk53ex87FdOxf8AFkus+GGTRNPOBOcQmMY3hzgYx3HevQfCvw78NaNZpqHjUfb9Skw7JI/7tAeTnOM+tebWXibX9I1EX2u2hB04F185cgkrgbD3GOe9dJ4b0PWfG+df8a3ktpo0rny4k+UzKT83I6DHGT17VlHljKy1R0qHQ9Jm8afDrwuh/s5LdXIICW8YMpUdcEAjJ7c1zkHxN8ea6xg8P6BKwXBLSEruUZbIJAI554rorTU/hT4G3Jai0WSM7/mBlfKfMBu5BJ6A96oS/GfTwIl0Owu7uVGIjkSJgsiFvLKjjglTgH1rvb03IV10M6QfHHUXlt4LFbdQSR5jqWA4yQWPbNWP+FffFaeIJ4i8Qx6ck0hWNIipdyXCEkpwBuBOc/SmS/EPxxqTi80rwlKEYsSspJQscgZJOQCoHXgkEUkcnxz1iJrGOwtdOUA/6xV3hHXcRnJ4Iyw6HI96xSV92zVRsT23wgl3RjW/F87lWCsImPzEOSV3A5GCQQfepZfhX4SQRS6nqd3eXEEiq0YnYTbWyp2k9ArEDjqDWZJ8P/iAS8XiHxBBYxzby626eYwIVQMEYGGyDkHsauf8KvvXMFwPG1xPNbyt8yAgpIGAJOT0IAPPGa1/7dHfuzTPww+HNvfeWoadFDKUnnIKMV2fePH+tBAA9cVYbwB8LI7W4tm05priEKBIZ3cbiu1OCeFDAkgHNYK/CGyuRdJN4mvnnuGO4EqyFg4d2OMkkLluO5q1B8IfAQzFPq99dkmPakkhRA+f3hLjoRkDBGMmizfT8RN+Y6Dwx8NpJkS10a3uUlkyrvK+AJRjALNglCCRnH9K0jY/CeDzfsmhWqW8xhVWnkQAHdvY7snghWAPU5we1Qz/AA1+GkMMxgLELJEu4zmN8oCJQp6cyEYODxwBzVIfDj4X26wpfadKAChMzTlIpS+VVVjHKkOcEn696fK30RSt3Jr64+GNvK0Eljp5Rt7oFKsFBPnAhgCMkL5WPQ9O9Pfxl8N7SXba2VpFLYwBCAo2PEihuWxgu24EHBORirA8G/CRbCe4g0UWyq3mlZ5wHCFTHHgtkCMyA5I5yQehFZ09j8MraBYP7Is/Ou4l8uJ3EhRJl3LIrZ4K7SCSTyemMVLjLog16EVz4/8Ah7YqI3sbHyLaUCOeCMyncnzAAtxlgxJOMZGK0U+LngWynS4V7S4R2CRs0RSVQgMSsyAHBwdwAJyee1J/aHw3023sxY6dZtAmEbOwNm5beo3EZ4QFCDgHOc1Bb+KPg9DcLCNOg2xxs52EKXUkyLGdwGCoOzIzkZpNu2rJ5vIlj+NHg6VRb4t7YOyqziPBRHHlO4UqQx2DPPIzkc5qq3xl8FPAYW8gK8ZChYd8qvLlZGAwAGCoADnABNNtviJ8OovLEGkWRMaEkMFBJRuQHAAy4foRnIxTj4++Hls4mtdOsZntQqlhCquqW2VX5SSH8wNv45JHPSsXKNt0Umr6j5fjt4Zv7wRTRb2ucyTkpy7FhN82BnggKewHAwKpt8btDuJ3SW58mB3dVkjtmkdQCbjcARgqZsAc5UD04qq3xY+H1sF+zaZZSFi8TYhCIwA8qMEj5uEJkLD+IY5q9d/GbwTZILHShCRErAqLUIMooiDbiDglMkYJ55PNZ88e5o0n0MJPjfFIskssTTCVRGw8kbXjbMjLvIbBWX5gAMHIPQU//haPi/VLGNYNOvri3iETXLJECCC534YYBExAyR6YFXX+PXh8RFNOWa1lkwCGjUiMJH5UaqoBXaUOSeufeqo+Oem2qRJZwzzw2iqAwjOx0iYmILkfIu4kEcgnvVqdtmSo26FWXx/4/uopfJ0K6md1MjuQU8xZiFyQMEB4wEJHcH3qa08U/FGaG9vLDw5dFLeO4BkJYFPIAUkEgljCpAAGAAeQc05/jPfFnj07SrqS2QBIozAXcQKTICSQQQs2CAeMA06f4rfEC4VrO28PXMds86loxG5IM6qbiNQVYjzSAeD2AGBSck9zRJdURXl18aNc8uM+FpTJYyxLC0gwYwIxKqHOABtAfgAZzxWdb6R8arwQzyQQFJlt5Y0eeNdqSuqq+Q2Qpz8/bHUU5fFnxBv5plbQLqSV1VgQ7eUHlOBJJgZcMPkGTwTtJ7VHcah8WtRjM8XhqSK2AmdQ/VFtMLJgEggRMc4AAJPOQK529dB3XYguPBXxbgjeCXULSBI4LtQI3JBgiJ81U2rnkj5RkE9BU0Hw48Y3gE2ueKba3fzokZV2u4WWLKSAgYwQAhAPBPPetNrT4yXUqwtpltaS3MsCiPzlR1JQSgSZJJ3A5JOTng4zWQPCPxK1O1E95Na2YkjSZN7jcEuZSmwRgElgSWJbomASKqKitE2Mc/wmub2KG81PxKZpTGgYxruAd2B8pAPmJ2AsTjAweta3/CqPBNvdDzdbu7qKKWQqI8ZktyESMjIGGLkg4ycY5zWVdeBPGDiSS/8AEdj5yXEhhMSsTL9nUoJFbABSTGxBzuJwcdasN8OgsYfWvFMgHlKpjhgwURFbcAWYEbGAAGBknBIFKyWrRfNpZMtt8Nvh9FYFmubsym3tVBM42mUyILguM5IUHATjHrmrieBvhBaXc8Ny8ogNwZBi6fcbIbljDEHq5IIPJArn5Phf4bhd3l1m8inKt5iyBMfas5SKQDJAZcEtkgHuetX4fAPwommuZ0kuFsUkSVGkuSd9tEpE6qQACQw2pkZwc9qEl0X3iTl3La+Dfg1HBJZyPJPN9me3MjXOxEvixZZAC/KbcAjoT3qSXSvgZYlLxYYopI5IHiEkvmI8VsoE6yKjk/vmyQcHg+lQJ4J+Eywzyy2kht0V4VYXDZhlmcfZvMJcgghuoGQQcjilbSvg/ZI6yRWilltoyA7Suj2xzMWYkBTIQACAQ+cDGc1aXdWNIp9yM658IbS5aKOxsAGediDGz8XrZjUDDD9yBgDgY5PNJefEz4ZW8KWaWKFjBHaXMqQBw32YErIFZQAXJAY9cDg9qsnWfgnYXQjXTInQXEl0BHEFKCfCpGNxJxHgsQRgZ4JFNtPGnwmt4IdOhIjia2W0kRoFBQwbpPO3KCHLsFAXGcVSstNBPR2KjfHW3NxFfWcDrcIXuNoAWIzvGItijbyAoJBwCCQBxUA+KGpSwmHQ9BuZdJgjAnHlFR9kflwWAbZmQ53DPHTriurtfjb4Ktbm3vYFaFYpXvJECLIzzzgRlUAQBQiY2nqCOnes5vjV4ctIf7Ks4rue2YtbzRvGUZ4CTKrErg53HIwASOTUOXmc7V3sZFx8QfjFqkNs0OhzRLaEW8B8jaRMxV4yxIySEHyBsgdqnHiD443ljLOujrbW7vJesHCoGWEnzCVZh8mSchcZJq+/xrS8mjm0TQbmSeeRp5AyMVFwQiKAASdqoOBg+wrMHjrxhqFju03wjLFFHAd5YFw9qSB8quATmYjJGSTwRVuS/mY7X0sXVh+POs3q2dytrZziRLMlzEEQzYdNwUtjAwVbAIPQZzVaPwj8UbqG5nl8RWjo6tJLIx+dGsycALtyQSMAjIOQSBmrreKfjVO+6Lw8qPPOY38zbGTd7hKGYB1wyADGchQDnGaWS9+NV3DLqslpbWklsBeFgyhykxx90khi5ILAgHvjGKmyvpqNQt2Cf4T+Jrh/LfxVJIIZYC7BCGQaiMO7HglV6EA4BPQCrJ+B1h9qtpNd1W9u5HW5hiUlYyGtiBCqsCeoyQDjAHFZqeGfjNdyDTL3XYbQuZLKQGc7VVk84sccbc8AjgHjtSXHwu8SyMz3Pi1/L2JLIxR9yyRqEIVVYksikEHjIIJ5rTl9fvIcrdbG/p3wp+HkqtJqV295aCciNZLsJ5ceArE5PJeQ4BPAAp0vgf4dWFg8aRWhuPKKCSRzIolhfMiuBgbmXAyDg/WsO4+Cllay7rrxJO8oZwrgKikIoeAhCcgyPxsJyDzkk4px+C/gq0lgn1vVpbkOLaeUCdcBHz5oJIJBDEDIJA5BOaaVvsjUu7OnGo/DHQ/NitpdPilk85BEkaOiLcALCSzDJKEFmzyoOQSaLf4jfDKCNrmXUopJozEJVjgTLpbdQCRghyQRxkjr6Viy/Dr4U2enI8sEpVi0AMkq+Y77gQ64IKqEBALAk47d957b4OWjveyWVvelJFBjkCBfs7x+XCgVhncHG4nGeueKtSmtElYHOPUxJfjD4CgtJNO3T7QJ49sQXY5nYSGRsEEEEBcDjvjmspvj00ge50/QJpHcvIgwXT51EbKSQSQFBAIOVJ68V1l34l+HGixRvpsOnCSwWCTP2ZWaU2x2sjEcqXBBB53fTmi7+Mfge3RbVEYNCtwUNruhAS4YyyEoejI2FBz8w7DHNqUn1RDs94nJQfFTx7Mot9M8M/ZXRtsAZGKRGIZQAMAQUUnk9c85qxH4m+OmvTSQaVZNbyLIixKdkCIZVLRqigAEEAuOwPOc1Zb9oq3aZ54tEVjNI87M0RYoZ1EcrAkkEBB8uRgZJ61l3fxm8WXiwSJos86oB5TGAoCYmPGAMABDg8cZFZ8y6shJ72M3+zfjtrMgXzpJ5SYpADKAFJJRWJOBlmznuSM85q5p3hL45yxfYYtTVVgUSASTu7MIJDEVGQfuljkA4x0qK++J3jm/d7K30C6khdpsRhGUAlQyqIwgwYcbgck4OcYqSHxT8Vr+eS+s/Dk1yFlYL5hLOTLFhVOcEjaN4wOTnqah8jWjNdSW6+H3xdCTWdx4mgMKq5dHfb81q53KF2/MQTkc8iptT+FPjKK1kt7vxgZ0gM6RxwEnc6kOp4YEpJu4PJGM44rDg8S/GGeW20610plE5UxQsQpJkQxK4LMBhieSeM0208L/ABvlZVgEcEoVJM+ehwXcwKCNxAJORyMkDJyKi0V1ZSv1sjotT+CWgWpjivtbvXSV0f5lXDgxAvIDyQS52DPpk9Kjj+FPw/itLgXl3c3twEtpVxKAF3nbJGMEBxvPUYIIPBGTWXB4D+Kt3C5vvEEVskeVIeR/MUwMVXAABxuLbeSPWpX+EHiyeURTeJ0uQzS27bMuUCqJAEyR95iMEYxknpSaj0V/ULtdfwN9/Dfwf0IstxpIu38ll3SyyZ82Jg0hYbjhZCdqgjIByOlZF1p3wrtwYW8PSh0EikF2RUA/eBywLElAfLIIAIIYHNRwfAjTFm33nisSo4QgxpltzkAEq2SBvBQAkkkZHFZEnwd0eFdjazObpBmRXGzZggFSeQOenJyfei9tFEzbV9ZGrdaX8IVQ3B0N2BYtCqXTbiGHmYYDOQgGw4ckg5xnio7vQfhBdWAu7fTLu0leQKy+fI/GUQsIwWJALEr1JwcikHwU0Dz1jtPEVzFK6hxE0ILq7kDYw4BwSASOM1l3Hwmtku0bTvE7RSvuLErlyQWBCPGQCQFJI9AfesnB78o0/Mzrvw78NLF57ae3vYL2AAmNrtUyXG5Sp2nJIIwDwM8mucvNG8BrbzvFHexSHeqhp0f94hC5YAKCOSRgjOMZrZ/4Vfo0Qd9X8TsSodStrA1xhkViuTkYBIweeMj2rJHgXR7WB8+I2guoGcqskDBCFbYSCGY5J4xgdMg1ySVn8JtdbJmnpXh/wBdRYN1c/aY5SFaKUo8oZgsbiJo2Awcsdr5wOMVp3Hh/QbIz3d1r19PckCUHyljXch2qZGIBGSQRgEnnPrWFp/gXz2RNM11Ip2ZFRbiIoZQWK7lIJJAGSAeorRtLC20yO0v7/WpNR0USK08cMJJRUIEQO8YIZ8gA8kDg1pFLsRJO29zt7jwh4it9LS/TxOmnWN+8UjvIhecBFDGXHLHZM2w4P3mXGQDi3aeD/CWnzQar4pu5fEWozCR2a4Mgi85VO+IKCAxA+cPvIPQg1y1ze+IdSe4Xw5ohuNPlWdFvLpWQSxu4/eAvwNuATwccknrWifhl4h1Rf7U8W6zHFI4Aeyt3w6SoNqBj8yKHUA7wCOTnGRXZFLe1zK7S3sjrtU+KWmW2230qfzbuV9scFqjfIhCnagAI2sGJA5IYAcCui0zTptFaTxb4rCXes3QYxsHCJaRBeY1VcAOcZckYJBAzTLG1+G/gIvNaWC2ktvGX82WVhI5VvLG4N84KkjIAI7jisqD7b8RpYr12C+GrViskgUgXbj5xEAcMyZOCxA5OK9GlK6s9zkaS2NeES6wr+OdWIlhtlK6ZFICsToxyZtgyFznAJHAAPesmz1H/AISa8d7OaVtOtj/pRbhJZScLGjE8qCMtjGav311P4lvJfD9oi2kcUT/azbkkRoMFIgSVAYg7SMnCjpWzcalFomjGwNskEBYwwpBtDSunRFjwASQCCRyAwzk8122V0mcM9Wz9V/2YPEEviP4bp5sXlmwuXtwcABtgByAMDBzgY7CvpVVz+NfnP+xn4+vdNmuPhp4gKNc3ha+t2QEBSygPH9QAAT0zX6JLPgDnHpmv4/4vwbw+Y1Fy2T1ufUYSV4IralFlTj0ryfW4yJTnp2r1XUJ12c9a8r1+VWlYrzxXxVOOh6yijmokG8ZGa9P0BRsBx0xXliybWBPtXpHh+6yo/Cuya0SM3ZOx6OiKYCMdRXFa4gEecdTzXXicGAYOa4/W5soQPeuJuzsFrnkN595vY1q6JzKPasq+A3Fs9zVvSJ1E65JArpd0hx0dz2vSVG1TjtWldquwnHJ61kaPNGY15zx1rUu3Hln0rlcm2aNnl3iONMuwHNeVXDbbhjjABr1fxHwr54615Tcg+aTXSm7N3IqHY+HxkK3YnFepWpwgx2BrzDw9nC8d69TtACg56A1wub2ZxnP6uqsGLDPBrxjWIwJiFGCele1auMbvTBrxnWMmdcc4NaU3qi47kXhucW+op6EgV9d+EphJDGR3Ar43tXWG6STI6gfrX1H4FvQ1vEuew7199l1e3uHoRd0j6DtiuwcVm6mish4HFS204KjnPFVL6UkV9nGd0bM8h8QwnLFeOTWDoigXIzya6jxBIPnXp1rk9G4ujg+tcFZtt2Z6NE//1fq3Wrj94wz3rmoJ8zjn+IUmsX0jSkDuaytOmJm3N2NfzbUqpxaZ6bqprQ9u0djsA79a6Kdv3fzcVwuj3hIC5yenFdFcTsY+vTsa8rcIzOH8QOrPtxkc81wrBfMIxzmun1qVy+eeSa5cZEgY11ReliJvqd1oEXCg9K9CVhGg7jFea6PcNxjjHrXaSXT+UOR0rhmrMUXdanO67MMPwB3ry67mCuXXk5xXZ65O5LDJ6V5vfSvvOFJyea6qcrJMiTVzttEuW81Xzkeleo2l3+7z0zXiehyS7gDxg969MtnlMPB/GsZzu3cpTViLXrs7SPftXiWrXW6YqpOQe9enawZGRsE5z1ryS8t55J24LZJq4TS2M276s6bQJXk2gHOK9m0eYiMLnJ614x4es5EceYCD1Few6arBRgZOO1TKV3qSaOpXBELAenFeK+Ibob368V6rqSuYzk8kEf54rynWrCWYtkE5PGKuDSJZz9jeqzlckE16Po0xCDJx0rzmz0ySOUsy4GRx3r0zTLX90GAweKJtdTNnYG/Kw7eSQOo71594gv12/Mcda6eVJAh6gdK8+1uGR1PcZxxXKppSsJN3sclDfjz/AJSD9atPO0uM8/jVKHT3Vt2CMdeKux2kueVOO9exTkmtWbmja3BRMdK5rXXLsSCc4rrIbB2Q7VP1rmtVtSZSpBziuhRi3a5uoxucsl1LGQRzgUya5ebHoOfxrTj0qWToCPpVR9Oljk2lTgnBzXr4eooNK+huoK5YF55OmTzMcAIxGODnH+NfnZ4vTTvGWo32nxT+XqEMpWBl++hHYkdj9a++PGO7TfCd7MuVKLgHsAeTX5tatpmpNfHxN4YKvdOxMsCkAugPLDvmv2/hW7UqvyPn8zkrKKCCU3VnL4L8ZI1nOgLJKTw754KsemBz1rzDWdPu9OKaDr2JGjO61uBkBwegz0+teuz3Wm/EXR3sdWIgv7bcysxIlRx2xwSBjvXlt/JPZuNI8bwMbJh+4uADgH1Vu3PQV93V1TPEilucre+Jb2TT5dD1UkeQVYBjkOVbPBIzyOMZ6V1mkzeIviRrC6fYXK6dp1pCrSSICqJGMLtC9CfQVzGt2aaVsttSdL60J3W913GVyFbHJI6c/nTtF8Q6qmkweG/D8Alv764LBlO1wcDaCPQdTnjFefFtSTOnc+g9P8J/Cjw1Gks1t9qltSC1zcEBHBxgsCcA8HI7Vfu/i34C01hFp6LLhmkiESHCA/vFClRg4cBWB5HUDHNcXoPw50OEDWfG982r3oIkeINstomLA/MwOGycZGQOtdvPf/C/TIXmUWFlCZchUILgbAgfAJIIIJOOTmvdg7roZOye7OTufje4Qvpmk3EglBVWMZAk2kAEE8cbmGAM5+tJf/EP4iazEqaf4au45dyrFKdyghWCoHyOeMqfrXUP8XvA/wBjFlb3KxZYvGu0lELYcjBHB3KOc4AJrF1n48JLclPD9lJcgEyIyITl2XcM9eA5PTsOM02+8ilO7tYxbSL4uz21y7WcVozNC3mvKAU2bmUFT1VhkEDpjmp4fB/xZlwL3VLS3jmRHZpQCcSRHoMZIwQOe5GOlVZfHPjLUYEisfDFzLcAsVaVSkZBIxgEAMQxI7cEU1Lj4u6zmWbSo7coNpaUcAeaCBjOQARjIGACKhtLrc1aduheT4d+M0mDS+NILO5Y+WyQAkAiMYACkcsPlPuDWhF8JbrA+0+OLidsmSNow212KoVxuYk5wTyMHbVE+CfixOlk91qlnB5TQCJlkDMWaVipZQCcKSeT2xVqTwF8WLdlt08R2ggSKGESBMEAhwoClSQQMgnI6jrTVpbJsiN30RHL8ItLK3H27xfcX5iG6QiMhAXbzDlcnJH3ieBnGMioV+FHgl45TqOvXtxI5JDYXYCjbpAWzgkIQQeMMfQZqX/hW3iq8QPqPikwllBAt4yVdjEOqkqAxGFPUE9PWrV58J761t/sUnitt9wXXYoUlnCqdxLcAPnB6YI4zVWS+yytepCnwq+GF2IHm1PUXfALKXBOwMdytkEDAKlTkgk1bj+GXw3tJLhbtbmeJFRmDSbElBBDsuCFADlRgYJJOPbMPwgS4JuLfxnLGkocxuUJDPgY3bQNocjAyMHaKuz/AAN8OqHhvfGs0pikby2VF2OXI5XJOM9SSeQMgCs2nfSIte4TfD74WWLyyT2shiEkSysjyBIiG8t0YEnHzkMCTnFRDSfg5aOBcaMqxgeXtaUnBZSgZWJGDkFsMTg8HrUlt8J/CSSSxah4ku7lrjZ9qWN1VXzJtLkjIIEQBBGRnjJNPn+DXgMXCbbm6ktISqzFrtV8seZkllb5s4wxAyASOMc0mnb4RNPrJkNtb/Bi1RrSytLWcyqQsl2SzmSZcBRgjaIwpOcdTnoM1LBcfBeKePydKtVi3E72kDyL56+YpHIGIwu0E8ZJ7inWfwh+GP2ho3uJJjFIsbGSUrkqSJFZgQOSFQYPUnsM1OPh58IIvKBsDLLcSoojF1vAGCrLtDA5EpGST06CoSkndpErlTvqUZ9X+EdrbF00zT0e4JYHb5rqsi+YpC4wAMbM56knsKrv4m+D9zPBLDYWMUbnMiBVXy3JEh2PgliOEyRgAkDPWt8eGPg7apDt0m3lAUMSXkGCCYiHJcADzhknOAAPpVabRfgdHIsctnaQPLHuiIkJJeNTEcnfjBmwQe4Gfaqle2xalHzG3vjv4YWECxRfZiLuFwzJbKyMk58yTy8gBHUgR9OAc571RufjP4HlUrEhid1kCERBEjFzgzKCoBOwIFQ7fc4J5uxyfBq3ha6tNDs2JVScuzhvlMBBOSFy583kE9uOKvWuufCPQJrG9htrC6IjBAZFLvJat5TI2N2DNkuxIAyOuKx18ilJPqZ7/HXws8jtbwBLiQGR2jQ5R5UW2kRSM7gIR8p4GckkE1jzfH9Ibdjbae88yAGOR4yCFiRY7dieTxGDkZPzYIJFb0fjrwB4cuEVI9PAt5I0l8pBKW+zr5hcMoGQ8hxgEZAAJHSqrfGPwNb7YoVgcIBAWjhcARPJ9ocqGGRggRjJPHoBT17pCTXQw7T40eJHkeXRtGupy6mNkRCE8iLEse/AOfLfLc4HqcVSm8a/Fm5+zXLaFeoztEqkhiXa4UO8bKVH/HxkPjuDkZroLz47addbprBSLmeWW4KhCwP2k+XLFtO0khMbORjBwR3yx8bbi4nSSKyu0kgMsisgZy+xfLhU4JIUKApbAwBgk9aT3+Iej6GdE3xavdKkls9AdESBZZ5JHBIjLhYpE3EMgJXZkHJzwacdA+Kcs0tpeaWizyzTrCxvVAieNAZAQGJKrH1GcEngkiqkvxI1i7mCQaLfuVKxrGSwBgVQTGflwSjgP0IBPSoW8TfEKV5Vt/Dt7cPNHG8iyhnILOD5g2qMCQDb0wecZperZV3tYs23gn4pXxfTHu7SVZEs4stKqvEZSZIjyMkJ1bg8H8aRfAXjmG1S+fxDZ2pniuJ4wryMSrSYdFIXBLkZAAyACapT6v8AFi9hEyaJcBIlnnjLJl1jBEbfPgcREgZ4IzjpmpbaP4z3dykCWH2ZYJESOOfaqRPHCSMF+m5WySTgnpyRlXT7stJ36E8nwo8Q3jz6jf8Ai21IE0rOyiVijxKDGzq2CFkYhAT9TgUsfwlsGZ4r/wASNvjgQsuAqrPuJntwwLcqmTgYyRyM8VkS+C/ideMLh7+2jLLErKJwrgTOGCspALYyC4GQB154qdfhn4rtsyf23ZRE+dKWD/OGjGDtIA/1uCF5BIFTZL7LKbaN+P4XeBZDG+pajfJCimRVkeMEWjjFs4yBwzkn0xx1rRX4e/Ca38qIszlIhAGM5Obtd8kjyKQDtCIFUAhST1zXPSfC6dSkWp+JJHd2EBAgL7Ysb2KhiScHIAHUg8kc1qXHwR0RraS61TWrqSdEC5SNWBmLDZG/Tadm52yDjjnkUWvtEybfctto/wAF9Pvpby8tYkt1D3KxFmAeKRVEa8scFCWJRsk44IGBTDrHwetbVFe0hCGBIJBsUvK8Dh97ZO4bwdoIBIzxkDhsnwr+GIMVx9svktHndhNI6kfZSgUMy8OD5hHB4xnGR1bL4D+EtgbmC7PmSwMIPNFwx/fgsz5RQoChMYIxyfWnG6VrJFpxtrcs3Pj34T6XcD+ztKgCtIL0o0aggSqYzbl9hJEYOQQBk4PrWnqPxo8E3VtFbC2a4QwpZl5V/e+RADLGAxAJ+cYJBBCYHtVOw0v4PJOmpQW9k9ukzkxyyMcQyKVhBy2ch+TgHsasLD8G7K1CyRWUeyCKEyKpdjPEd0kjHcTlxkAgEY6ir5G9dDN1EnbUhuPjrpKSpNp6Ro7SR3YMaZeK7lJjkBAwCAgAHIwOcZrM1P427N9oltNJFCzxYt2wpgXLxr5q4+YOxJIB5xjNdHaeNPhnYX6XVitlaROyzNGlqsgd5lEaxkkkoIhknGB3xmkh+J3w8sYYrS0mwkDAlWCsri2bcgyE+YS5II4HA5p2f8yH7vmc23xk8X6tFPaW3hWSaW/QRtLJ5sjrKgJcxkg4YgjOTwBk9cVMfHXxdurVFfw3OLEAMwK4Z4JVVFUEgEITt4AOfUVLdfHvTVf/AIk1rMsplM6ljkpJPxOFHHBXAQEHj0rOh+MbERy22i3MrxARrKUIYiLJgU7Bg4J5HIOBU6R1chX7Ikhb4x647quiRxSWxKb5WVTFJCoZySTkhUIBB6DAPNWV8IfGi6ae9We1gcyIshJASE368cGPGHAzkAkd8Uw/EX4gR7LyDw5fSRWzBkkaNkAzzckqEAJkPUknB69RTF8V/GO/KQReHJDcKoiLShwQSBJEfLJABVCCuQSRzihSjfdsdm9rEkXw9+Kxs4NVbXYIEePzVdWVtot2KgMSBhupHHTk1aPwR8VvdLa+KfEqwWxd4hJGBKQCPNjbCnlJGHAGckHFVg3x3nnjuJIY7WN5I7hY2KeWftIMS8AEHOCcderYwM1Wg+HfxYVXuXvobB0EjtKzkvmwYDDDkAAsADwD29Ku6eqTGk1vYsD4PeDo5xJe+JLue7ASV2hXa2CSJkwQNhAGQScY4wa1j8J/hnGGkna6uiwfazsSQp4iYkEgngkjABGOhrPuPht4/u7mWx8S+I/ItUdC8kSFkKXahjKGIGAp++DyBjA5qxB8GPPgNzqPiK5d33sEiAJMsTBFB3hgcqc4yDjkewkn9li5mnvY0Lbwp8GLYQ3dxpEz+W6TCKeVlDxAFXUkjJBJyNowAMZzUsT/AAr09447Ow0/7QCFeOQxykSW7+Y0iuSAQVwhUnkDgmqyfBLwwLYwza1dyfvmhKFwm5NpMUnzZIzJlCoO3AJznitGL4MfDC0hL3lzNeOZI45Akrgx5H75jtJBCEYBHAzzVqFtokOfS5oj4j/DeyAmiaKV52faxiUCFJcSsAM5CIVAUHIHJANVR8cfBFpqWVYSLcOWYIZCIhcqgfbIuAMbQXBDKTzjgVTXwP8ABmwVZrq3FybINvUzKHuTbvmRwCwyJAdoGBjrVsR/CiwjOj2lhaQoHlLSXBQht4MyDJDEOq4QHODyME4NPUfu92Um/aF8MJOkkFg9xcEiSWUPgPKB5PAAByyEjOSDnpWQ37Qum2kK2+naQ8Tx7gGYsxUJgRfLwAQmQRkjJJA5reuvF3wv+0g22mWGwEhQeUzOuVKlVTBt8kKSMHPNaR+InhO2nMN2LRJTJCH8sJLDF50flyOzBgT0zgEEE5OelR76e6Qadbs82uPjhqEkrTWHhqOALK0lvmJm2ENlIzkAAKAScAHJzT9S+InxW8SMFs/DDwlxIqFYmBCyhmUKcDO3ll5OAeorqU+MPhLTLd7a2ufPSdURmljGWGDHyyAhcKd2CCSOpzXNzfF/QbL7Mmk3rRCwVEBCs6HySVjPzAcbGIx0PoOtJtveS+Q4/wB2JFdan8ar+MRNo4SK4VCoeVXKCVFjEhbcCAcffPAYkHBNY8mlfGNIRdTpBI9tiTIuEZwYxsZmUFs4AwWA5zx1q23xb0a7BitrHUo7Vg6iNHEwG/BDLkDAJH3SSO1Zg+KHje8u2l0TS53t4FYOvklhh1MfIAwo38gDgkDvisG4J6yZXvPokWIPAPxWv4p5b+/sLRLYLvE06oWaJi4QFQfmGePU8DJqQeBvjDJD5L3Ns6uPLAaUAOS3m9WAyeM5zj1Oay7Xxp8RYyrxaHduEkgYKYZAAyZjCk4JJLMTu4OSR0ABD4/8d2iRk6NdwrDGgeNkcoNrEE/MnG8EA4IAPAAJxR7ncTT7FrUfC3xf00i8mnguINxKyRyqQDIyyHaMZwSBwM5wScVBH4Y+L9xMZLiOG18oExmWVIlYvkgqMk7trsTkd8HmmWvjvxhpTR3Np4cuhbQEOvmxSHY4DplSAApw5HOeAOM1UuPiLrN0JYk0Wctc7GL7GDEIQMhcEHIGCSM+4qeaN/iNPe7Iry/Dv4jSxS399NZwyTRyEhrlA4ji5J2qD3UjOOemeawbXwH41v4iyy26+VI58vzBvLpgkqAMkEkYweTXQX3ibxpqccuoWOlyxWhVXdpECYMaldgc5L5BOeASeSo61j31r8RI7hJcma4jJAMMiM8QRwdrAEEEMQM45IwM1y1HFPdlpO17IoQ+FPFO9/tskFoLZHK+c4y/ljBVCoJJBY4BIOcjqCK9D8Nx2/hvU9Vtb65t9TCW7W4nxuhjKIGBj8zADg5UcDBBwSa84On+LvOhbUEECTSBVMpBGVcltwBOQGbLAjknpXqtv4S8DwaattqsU+pXcW4mQyPDCcsUAUg4x5oJ5AOD+FaU9Vo9fMxm7LVFrUPijpgeC2md742QSOKK1jUF43Uh1LnkHnkYJJ9etLp2j/EPxZax3Agi8M6XdKGuLt9zEwyPt85lXLkEqS2AMnkY6Vo2vizw14T817W2stMmgJAhyJDuhXyyrEAyEMGyCDwfYHHO2vjrxVr6W+neEdMup4LZs2iyKPLRMh2gbAxKvUckEZ6V03aaTf3E2v0Oqs/BXgizn/tDxDfyeJtTR0efzHLRhgCzBl75RQR8wyOACRXTan4jutcuW8LeEYIQXJRI4nES2XlnCvhgNwA+6OMnOelcHD4B8baykH/CV3kOiWcoQFY8eayJuMKbchSACQCScZAJycV2VtqfhzwiEsPDsrMZ4Q5nbaZb53IJUls/OCSoAIAPbue2DSehxVG1qX4JtG8MaMNIsQ8r3DYG3aXuZ5GGFLA8u5yM8BcVJp+g2um6gdR8Qzm9vg58hSQ8dkso+ZVyQBIpwGJwSc0/SdHNjcR+JfFDLFqDEx2lqyArZo+SGdyApI/ibPHQHIrl5NM1/wAc3FzexXsNhoXziafAV5ypAKxgckAg4YDpzknr3X2Zy76s92+DfiOTQ/ivo9+yefFp7lbmUoQCZyQFDZwdoAJ5xk4HJr9lIJhJGs2dwcZwOxr8MX1TTfD+jwaWxaCN1jkXDktMS6sCCOXHAOOCMciv2j0XWbSfSLK5s3EsEsMTIwOQVKDnr6g1+E+IWEbdOul6nt5dO949Db1WVthKnHHSvJtZuJVlIrv9S1BWUjeOleZ6rKZJX56dPxr8NpxSaR9EmjPNx84Xs2K9G8Pv8oPYkYryaNnZxnscV6NoMjR4IIzkdeldNVcyuZON5X6HqQZkg45JrjNauHQHI6ZrqYrpTAdxHFchrLpJEdoJPtXEoa6mqhoea3s4bdxg80mmTZkVRyTWTq7vCx565qjpF7tnXcT6V0yimjKa5dD6D0e4ZUAPoK2by7zCcHpXBaXqa4C7snFa9xfqYjyST6VxOnruQmrHOa/dlw284zxXn0/3mbPGRW/rshPO73rijcLvKseT2ruhBOLQTd1qd7oU5G0KejfnXp9ncnYOOxryTQmVgDnuDXo8BAUbW7fzrhnBKVjmIdYugUb8a8Y1aYic7eSCSa9H1ksAecDmvGtbuHjkyDwR1rajTVy42vqNW73TBWAGOQa+gPAOsFYlRjnBABNfL9pOrXKluw9a9o8J3flMoDDBIr0qVV0ql0dMZpOx9kadfh0GCM4FF1eBSTxgcVwWkagTGMc8DpTtS1PCnnODmv0KhXUkrnZe5leIbkMWYdMmue0RybnPtVa+umnJIPGema0dCRfNBxXXKCZ2U6iR/9b6Qu9OlMhGAc8Z9KS00shxxxntXey2SBs4yT6ipbawTPC81/K8ZXdgDR7IIwwvvXVSWauucZx2pLSHbtAHNbiW+4d8muhJHbTPMdT0nzAWCgYzxXLvpJU9BxkV7FcWY53dfpWRLp8bcqMnvxVPRFz2OIsLPyz8wxjtXTsgaLGMYFStY7TzwasrAWQj2rhm9TmbscHqtsJOwFctPo4lb7o616ncacs2FYdBUCabGTtI6c9KlSa0RlJ3ZxFhpHlkLtA75rt7W0Kw7ev4VehsEXBIGPpWtDbAKABwazbdxxVzir3TPMB4zn1rmv8AhHuT8gOM8169JYggqR1qn/ZyjIxwa1gkanB6doyI446cV2lpZ7OAOAPSrsdmFxtUDFacUK4NEmmKxzd7YBh2Oe1crd6Pu5wCa9Na2VgMAZ96pvaL/dGalOwOx5gmgbG3EZNbdtpjphSMAEdq7FbFDzjpVpbXjp3zUyk2ZSi+hx9xZfLx+PFczeaOsmcKMZ6GvU3sgQeME/0rNk0wk5x1rK2twSseT/2ImT8nU0h0YdAMV6kNMHpTf7PXP3B+VdMZNbM2OBt9JKxEAEe1Yl5oAllLFMH1r1o2aqOBVOazUnkZ5roVbzKc4rVHlcGgrE2NoORVS68OqxDKAea9XaxUDhag+wpx8veqVd3ST1I9u7rU+WPjdFaaF8PLq6vBhHYKQDyc8Yr8vr43/gq6fVLFmvdInySV+Z4MnOCe1fo5+18Yr/TLDwlDcGCW4zJgHAJH3cn09a/NePxLqvhjU5dJ1aBbYSYQmbmGUKeWz0yB2r+o+E6coYBSfVngYyalUsabWll4uddb0O7j03V0AJkJCxOMYAI6knp9a59vFN/YpP4d+IulrKJFJWQj5Gzwvlnse/HNSSeFbG+nOt+FL1bG9lwwiJHkkkYPc4z2xVGTxZOsSeHfiJpZaBGDRpINpIUEZjY8kEnPWvtZrQ57JKyOM1bSo9Js5ZbO4OqaRKpwSuXtwP4mXsAeM1yHhzWbjR/ts+lqWvLlTDGwGWVS2AF4zk/yr1S58ONpFvLqPgqZ72zuYgstlMQZVDjd8uOoXrz3rxWyuTpWuJeQqWe3cvtcbWVu+R6iuCW6NY9T3uw8DeLtSWGXxXq/2C0mjBa1t8mQx7gSrKBgZAyMkkV6FpPw++FdkTc3NpJOEG4STOSMIwDZyQCSSBXi2i3njvxpdSDSJPslnGSHuJS2xcjHPUk46AA13cXwh09mjl8VeKJ7p5SxaO3ViFcsM9exBzwPQ16VHbRE2fc9E+1fDHS9s6wWkJcvGxYKSAyeTxycMD83IxjvSal8QPhrpTRlZ7SJ5MEGJC5QnEbOVGBn5QcZwM8VRtfhL8MDHBB5PkOMiSS4m3F/KBMgbHQglAO3PerumeEvh1oyl2020iiILM1w6nHkRncF3EnLFgcDriuhXWtkirLscNd/HHQmEZt7K5uzDmNFfIIByzODk4w4U5PY+3Nq3+NN1cW6qmkXVwiApLPs4VZF53EA7iHAIPHA6V1h8U+BPDcE8SywiHa6SlfLJwf3OCAMnIJfI9Bmsg/Gnw1BY/ZvtMUSnaNsMTNlQTGW+XjIjUZzwc1TcurRm15HPS+LvG+pRE6P4TmRCzLGbhTtKja+CQAQVY8Y9RWoi/GlcyxaDELoF7kyJcMQuGChGXOPkIwF7g54rP8A+F1ael6LnTLy4uQXDsFhYEmVGWQYyQSTgngDIHpWJH8U763tpIbG11Ayz7WMnlnIXySCmO4L/Nn261lJpfaYJdomudH+OMrE20VlaBwCw8xSS7SFgcOThgTjsABU0Xgz4zagkdtqN/YWkZWIGeQgBQCxVXYAkEEnOBkjBGQRXNah8SfEV6sywaJOjTeaMhG3KXVQpzjqACwGD1pt54n+IOoXb3tv4euVimLGKIhiFeUqeTjkZycEZAOOlRdd2zT5WOyHgz4xSXJgGq6ezWsVtGZHdlCpECUbIA5AOGBBwSBjvUS+APiJDOqT+ItPV7dYZyAhk2oI3dCcLtJIJBABwSCQDWJd6h8R5cOfDF08qPJmJQSo3SrIwJB6nGDnmp01b4rXPm29j4aaMyOREZhgoXnEiKpJBAONhxjg+lHu+Ym30sbU/wANPiPKTFP4ttLeBw6qIdwLl4ASpwCBkYTkgBhxjrUE3wr8XyyTtdeMRLNOrsFUsRKVVVIKtggkcLnggEisWw0L45arMlzY2Ko2YyVeYDeROyqxBOMB8gn0GelSJ4a+M4ldZrmxhdysTpLIBtOJCoD85wpIBHbAFLmj5lamg3wFZnnS58YPcOjSkFAQkih12yBi2SCSWY4425Gc1e/4UL4Yt5ZJb7xDetBACwud6xAOrc/KQx4A39iQQcZNVv8AhD/i61rb7dSswIYjIGCKZEt0hIO5uAMKSpHXPXmmz/Df4mzPGs/iW0m2BwoTLZKRDGSQSSVOwE5BHTkUWj2Dla6kB+Fvw+Sa3lur/UWS5ykpdliVipMjurEEYMeGxz8xwfWnRfDH4QtDEY7m4dyArNLKVO5SZGEaoBkiEA4JOSSR0AqrP8NtbiKJq3i0IbhiRGMvn91tVgAAAGJ8vjvmrZ+EWl4hmv8AxtPdRSYMaxRPuEiIEiDZxy7AxjB4AyalpfyjTfVlo/D/AOENm5S5ZmuGwnlLcOUyGLEE5BJaMccnLAdKYvgv4O3Ewt7KymknmkMSt5r7Y2bEozkjJWEbTnjdk1n3PwZ+HyTxW0vie7c3aloFIBL8bVZD3y4KHPQAsKd/wp34f2ULzrrt7dGUERmN1iCOV2ggtkEq+VOcZFJJvaP3lXXc2m8N/B63htHisAgl2HAl3nfMx8ok5wVVQSxHfAxWr/wknwfsI0TSrCzlSLzJImmCpKPPJiWNyAclSBJ0PHGR1rjYPg/4GaRVvdRvcwoZWQOqS+WqEsVU8DZIVAXqQScdK0br4R/DHSy39oXMt7JAVLql0EyIgWnWN2GGfJUCPg5BINNRa+z+IlqrpmncfFjwDpaoNP0y2Dl1ZnKKA32NGAKnAwZGOTzk4AxWf/wu/wAJ6VaS2tkAZREIlaOMAMrsZmIJORywBBJ6YqxYeFvhRp08tpHYrLPKgEYnYyuvmt5qyMuCCVQbSASOeRUjap8HNP8AKjisLaxnDNcj92sygSARIoB6FOXOehPTjFUlLujVRXU5b/hfcccEaJEzywvNOpWL92HuyfPJUknIiKgAnAIPpWVcfGYSQ+Tp/wBtiaUOTkhEWRCDAFx82xMElckjdgA16Le/E74dW/2e/gs7JFikz5YgUGQQRhFBwMkTbssCcEg9Kp3XxV8Ex6fPp0D2sUSCWGLdBkKk7F2Zdg3KQ5CAnPAGOKlpW3J+RwafFzVtTuRZWOhzzxO28QgyO21I9zoAMjDOokcg9B0xUH/Cw/GeuDa2k3d3LPGgY7CA5LA5zjBMgTHPoMDiu1m+OukSQSot0Y3RxcJ+6J3z7RA25owmIzGuSBjgAdyazF+Mlj9iubI3zR27kGJRA5ylqwMKx9gQSckkYznNZ8z25g5fIwmv/iPfSvep4cu/sW2eUBUBKxOAQNzDkISCMgEZwACMVLDonxmury1t7DSRatclIxG7IXDW6+YyuThl3gk+nPBq/H8W9Sv0e2sLO/v3jAJiZCURNxkkJIOSSRnJyT3otvF3xGuEN1pfhq82yshE3lMZJpZ8BGYsCcGNSAAcYNDemrYJeRXTwr8XryyhnWS0iilgSNQ8gLiK9lIQ55IIfOAMYQ5xikPwy+I99LPeX/iCDzYvtM7ss0jkCIBCRtABMnyKgGSQKuPdfGbV5BFbaI1rG0TS4kAQCJ3MSMdxGNsiFF54PPQ1JP4G+MDeZbLqFsiQyFWENyJFZbRNxkU5xtyMBhjcSBjikknvdkzHP8HdIhZ21/xZP5cfkLvCKQ8JTdJwWJAQ4Az1znIxigfBzwKId8viKVbmRWjMLSKJzOSxUcqQy+WC2c96pQ/CfxhOy6bq3ieK1gcW0WSGZPKuwd/PUiMDLHkCprf4K6kZL577xPIbiwhlnaNAVcOknlJhWPzEghxjnYSe1PlXRMpTSVrly3+FnwkhZbrUtTu3svMcl4HVwYAoCOAoBDPIdoHqCaZb+BPg3AIrS6lvJLkBBLIrDZGY8yTsQQMDbhVHPPU02T4K6bbzPBc+JbmW081FjKFQJLcKGZyucriQqFBGCT61ah+B3h3+zft19rs01w6gMA6IxmIBkTaQSRsOck9etP8A7dC67ktpo3wWgT7XFpbShZJpdssokK20ylYVK+YoLpjccAZ6Zqe11T4ILBJFZaTFLPCo85Z/KSJ1tWBEgJLEiYHDAAEY6HrUN78LPAylJmubtonnfyfPmHy2cikWzBwCMkgZBwCOAO9LJ4E+FcDR7Ck5iVDcl5ZAFNrxPkjH32OOucdK217ITmmrG3afEX4cw2TJpkcTTxSuUZo4lCLdr5eF4zthA4JySSTgVUuvjl4QtbWe2S3VmjiigB2KRMLRyYmVVGAXIDMSRx3OcCW20T4SWs/+mabbNOFaHywzeWDdjERbLH/U5yCTkkAHkU2LWvh5odqY7GyspTIqXCiULIQbRhGQBjIaUfM46HI4FNX8jNWuZ9z+0BppuE+wxTpAd8QVQxCxSYaRduQDlhjIxgDJ94o/2gr2ZftNrpxn1CUi4ka3UuRIhxvctwCYhs4yAOa0JPiP4E3yWiRWiI0bw7ooBiKEkSsWbbgkkhcjkAYzxVU/HvwzatKtpp0UUc7CUmAAEvKpjmjY94yoBHTac9ad2t3b0LS7IzLb4qeNjlNK8PXdzACUiWaMsigg/Z1BAyQhJ2YIBBx71Wj8cfGHU4fPGitOtmQrCRFQkRYDrgbTgNgvgnJxnJAIur+0MFKNb2BeaFYmjZXlcA2pIt0x0O0demafN8ddduVik/se4ESFyuYSwdJ8mUj5T9+QgA5OMAVDbe8ilBPdCnSvjpfuq20Nrpc9+hspQ8yuzCZTKsbJJvCggHBA4GMnpVQ+A/jNIkd0tzarDIIJUlDtEA84MaAFQASTnIBwOtKvxX+ImrAPHoErvOSAyxMWaaIAspYAEbUGGHQDOahn174yXLH7LocsP2ligJDfZglyu2IRgHBAOTGcYznuDUPlvrcTTTski5N8KPiAqi31jxNFE+GBjZZAQbd8KzBgoJJORknpkjFWW+CWsiRI7/x3AtoMxGWH5lEcwLsQQRwZB5fThuoA5rn/AOyvjSQ0t5aJcoFMhFxJuAFswjYkZABUnkjn8BVqX4f/ABiunWa5ubWF7MCERg52CNPOHQYYlTkOc7jwSaPd7MXveRqyfAvRdsdxceI57uzCqXaIgmJXcrOpG05IIGMHnIzii7+CvgGK0MkN/fXF1kPtYqqIqEGQOWUZAjGQRzk4x3rPT4W/E+IS3smuwWZfAZlD7Xe5UNztAAycKT2bjvQvw0+Ihiijn8QZhmQCQSI2+MS/JJ1weCQDnt9KLxf2SOZr7R1Q+FXwghJgtIrm9dAQZDPwXQCTywAACXjBAJIyaivvh78KItQurW3iWESqPIMpkZIxKRJHvCkkkICCRkAn2rFb4P6u/lWt/wCLWiOX82KRAoEsS/KQCQCDHyG7ZxUV18DtOgvPsY8UTXJSPAEfyvuJzEAMnMbR5YEHA6VdlayiUm31O01Hw/8ABvR/KvRZW8tkPNxIoWTctyB5WCchhHyRnDDGCDXOL4t+Evhy7tpbfTLeWZ3EiskCYRJQIyMsCBgZfkHkY461NN8HPhZbs0C67fXUcgUxoxGwGbPlsCgwcAEE4wQRzSR+CPhLYXUZe0adSqSLHcyswKuwiZPMGBuEgLjI4Xj3pckn0SLSS3ZUh+MHhXTYG0/w/axWCxESyGaABZZYHIjdSiE+YVJOCAnAJyeKzNS+McESW9zpZWC2t55THE4ErhBhwGxgEbiCAep546VvrbfC2ylS4t9Gsm8tWzFIGdysZZN5JJBMmc9DyAcCmPcfCuxmkub7QbSOKFhCyqPvLbsCS24YG8YBIHIzTUJJdCmlfuY1p+0PqcNy5ubwSLITlpEKBQP3hVPK5G9wA2QR0xjrTj8c45YvMactOuxmV2bLoFBZSwzkZUEZyQQOTjJ6+XWvhSzyS2Wk6XIIAWRkUK6FD5xUnGCCBsQgc5IPrVBNX+FVu5vYPD1rapC4IaYCbYsgEi8AAExMShBHTAOcZrJ8y0uiLLscGvxyuF8yaF5Y3dBlWYOXcLhi5JIYsQCT6g+tEvxtmlMrRyidpT5xBXCEuQSjYGQAAQccY5rp5/Efw4uESO+0zTLWVhtkkFthF+42SqkHeA7DAABI7YrldY8c+AzHL5GladOAQVKwBCFCgDYOCMEMcNk5HvUNO26BRT6HO6v8QvEOrlbmzDPbTb1kAjIEavlS24gAEgnDDkYrmYvDvjkNcyJaTRKu2S43yqsj7CH5JIJIGGHU4Pete98b3Oq5tPDtvJ++BKonAjQK4KgAjPBORnnpWVPF4uu3N1PZ3DCYgRqzsTmcBVAy2RnbjJ5HA6deCSTd2zZItaXp/i7WZ0cW4upWXdFDJKoJFwxO4L3JIBOcHjkAV19l8Ndf1WC3i8Y6rFaWkWZlSJlluSrnLqoBAAHXnjJGDzXncfiHUdLlljv45gTKsiRofk3If4iCSORyAfau10jRPHHjVkSC2Ol2l6AFkEW52Vxjy4hjcQxAOBjGOtbxs9E7ia03O90zwt8OvCcErXLrLq4jQBrxgWjlKmXcqEAEFCq55BJNXtd+L+gQWxitrmM208sswiskIZJMhOUOFCui5AGME1Sh+G/gS0RNX8U6hca0kKpLJJJJ5Za2CkBRHywIcEYB4Cj1rYgb4V+G9PubaKysrW4gRbZpGPnzyyl9wkUOThSnDYAweciuqKS8jCdmtdTlodb8Y+Mrkt4b0Sd7SdvLjnugI0SBtrAMcbMCQbgwBAwB2rrtL8K6T4Ysn1XxK9vqN+kpDMsjeVHvwSCCR3yS4yTgAYrGu/ifpdjqEDaXLJc+bChW0RGcRtKrCRRzwQSCMfLxgVbbRLjULM6/4+/0S0aRprexZdslyJCSTOwOI8biQD1Axmupb7nFNXWisXobG/8AG72+oancyQaAI1XdI7JHdFMnaMkkQ8EFiOSCPer3jLVYfNstK0KAvdrlbW3gAIEJAUEYAAQno3OaXWtV1XWxZ6b4WiilMA2sF+RrVYyPvg5ByMgA8EDp3q/Y6bo/hzQry6s71kcSAz3UxUyxRg4VWUdATjAGBjnFdlzltbQj0/w5c6c8eseIWN5fllhiitiDHZOmQzYY8kA8uBg9hX6K/sweJn1zwIdKuLgTy2E8qxkHI8snoPYGvzLj1LWPG9+z+Gg0Fs6ql1qRTYhQKAyxA/ePJB+lfa/7L0wsfFV14d0oebaRWzTeZGCEJDAZIOCCTnPrXwvFuGVfLJSa1i7o6sLKUKlr7n3HfxM3ynjArjbqKV5iegHFd64aSNSRkng+tZsljljkZzX8n+15XZ7n0y1jc5+GwWULxg5rsdL05hjbxjmqVvalHGMjBzzXV2RCHPY1uq6sdsXZFnyGEW08d65bU1lAITpmu/LRvGOe1c/e268+nWhTi2dKs0eQ6jZNKSGXk5Ga5+HSZY5QVGRnsK9ZubBXfO3I61WSyUN90AeuK0nKKVzCcE2c/YQyxDBByO9T3F1OikAkH1rqEs4mHU8elU7nTPM5XnNeWnzSdzlcbM8u1O9lZwm4kHis6GBpSWwCc9c16JP4dSQ5YDJ9qjt9EFu20Lk54JHFepGemg3B2K2jwNGgHAOa7KKSSMHnPepbDTI8DgZ6nitn7BgHIHA7Vy1G7nM0zgdVnkKspPBz2ryXU45J2KcN254xXumoWm7KgAfUVw93oq7s7eT7UU5tO7Jt3PKbSxlWXdjpxXqGhwyx4deCMVDBo22TDL19q7TTdO2AHOTSqVk2uXcI7o9A0S+YRDccHpirN/N5gIzjPvWZYW7LH1//AF1Jc20hGcnmvqcLjEkk2etHYz1QM23Oea6XRgIpMMMDsa5yGGSJ93Ue9dLpzLu3HrX1NHGppJi5kmf/1/vhrPeQccCp7ezUNxxV1OhqVOlfyinrc0HxWwUjmtaJV4welUF6VNH1rWM22dEHZj3jDblxkjvVT7Ou0nvVw9agkrZyHN6GRJb7yWxUSwqvXgVpP1FQyVzT3OaRSa2+ckHtUn2ZR9amTrUx7VmZlTyB0B4qeNFHbpT6D0oKRIMEE9TTGiBG48CgfdpKDe4nlgdOaUKFHApw6GlboKmWxEnoVm45Xk9xUQVmIznJqemDrWaIRME2qfWnqCBzTl+7Uy/drRFXK7AHkjNQsuc8VYbvUY6H61Qir5IPU1A0Z37e1Wj1px6VgwKDQnNVnhHORWrVWeqZkzLaPrgVGI8YIAzkjnp6/pV4dD9azrz/AFM3/XN//QTU017yIb0Z+Tv7Xt5q3iDxtctoUonXTgo2I3zk/wAQGO4r5V07WNO1W1h0rxNGly2QrRznDozHBIzzgda9y8fs39v3Ryc/aJP/AEI183/FSONNTt2VQDuHIHuK/tjKKahgadux869ajuXLrwV5d683w91D7ZASGa2kBJGOPlPTg9Kmj8e6fOkeh+NdIMuxQFW5BDADqwZhkgdgDyaj8HzTLLHtdhyvQn1rqvjLBC+g2cjxqzgpyQCeh716j2N2cBN4TvbJf7c8GztLABv+ySth9jn5drA5JOOAea8L1++mvdcuby5RoZ3csVYYZSOqn6V6R4Nnn8qAeY3EnqfSuf8Air/yMrH/AKZR/wDoIrhq7G1Lc37DxpqQtbDS9Egd7iNQQkQY7z06L1Pqe1dzaeEvi5qMEv227XRoZCfLjZ1FwQ4K4QAlsYABORwOtJ8EY4/tF4+0bhbNzjnqK9MmZv7Vm5P/AB7yf+i5q6cLeaZjKXK3Y5XSfhHFJaJNq2tXGpGTJVIH4BLDzGbJyBtGSD0IzXR/8KZ8ISacgvry6vDAztjDMCjOTjOe8eSD61S8S3E9r4baS1kaFt8/KEqf+Pb1FeaWus6wtzLtvpx856St/wA8R716caSS1IU22epr8LfA2lTI97p0k4tpRMZrh1QPCjB2DKCTkRDnPJ69DW1Do/wvguPLSwtI51AcSNtjhxCT5hbcQSx3qACMEA96+Of7Y1eSS68y+nbkdZWP/LMe9cndTzTCV5pGkYt1YknofWs6kYx2R0KPNufdkvizwXo1xHNp0llZTxARShBFh/IfCygr0BDEkHqRk1X1H4heGtPuU0W11GyDwgMXD5GQdhUuAQQEJOB2NfJfh2CGT/WRq/7uPqAf+WtfSHgnQtDl0i68zTrd/wB6esKH/loPauaVdx2Rr7Fdy7N8ctIjn8uK4BiklBcJGWeNXUxS7RjJCJyp9DWe/wAcrKcwki5QHaGwjIhIyrn5eTtUITjrjB6V7hDoWiW+haTNb6fbxSeWfmWJFP3X7gVreDbW12w/uU6n+Ef88aPrM3sQoJHzTF8ZYSpCQXXIAldkYmVgpaR+Aed5GD2GPSox8a78pE17BfpHEziNl3E+a8XBJYYwrAMR1wSe1fT99bW39lacfKTO8/wj/niaHgh22Y8tcbhxgf8APutU6ku5k4Rctj5jPxU1u9jW+07w3fSmaJoEJWRo2DBdoVlAyFOemTz6morvxR8U2uGub7whdxOcbVMbjaoYbSAFGCo+TPAGeeeK+rLxm+z3YycIg2+3yp0rA066un1iEPM7fum6sT/E9Upye7BKL6HziLv4vzGJrXwxPGiSKuZVIBDysUXGQMEggk9cZ7VJD/wuS7ijQaYbcSiCJVZzFKUSRjExJJXaQCAQRkc17+80zaNMGkYjyk4JPq1WQzeS/J6p/wCizXR7K/UG9TwG38J/Gq4EUcMFukkKwLbtJKhcksZo2UnhsfxAjGOSapv4J+MFwjXVzqMVuLmRFHmyAlWJMi7doAGTliQMkcjivcLRmBLAkEKvP/fI/lUuoO50e0yxPzzd/wDpsB/KlKils2KUnY8Ss/hZ8UJDbWya3Z22PsypL5u4lSxdAq7Mr5agu2CMqarf8KV+Ie5Vm1+CHz/LaMKSWdJZTg4XgYI3kdQBz1rsvEV1cxwaj5czp8170Yj+OMfyqO+ubkpfAyuQn9p7fmPH7o9KlUU92VCV+hyw+EfiTVRHcah4rV7q4ZxGIxI8bymUod0hOAMAysRkKMZ7Vam+CFpNBd3V54puJ3dpBAqIpSSUsFTOTgGUchgOAMnOaZq7vHqzRRsVQbPlBwP+PVe1Y1lPOvjXRQsjAeTb9Cf+fd655UlcTrNbI6UfBf4dnUbYpr9zfROZ1DidI3cIgERTIyFkkJA56LnvVq0+HHwcsbaJZrSW7mZ1kkDSkuUgys4BQ4TewOAQcZ4r56+1XItbnErjDRY+Y8fvTXP2t7erdXZW4kB+bo5/vH3qPZx7Fqo7XPppdH+CWiExT6YrujiJhJIzkuh81mCsMgGM7MY46nnFXLzUPg1byvdHSLWGVGkMBYhzsuyEiyoyCLZBlwedx9a+ObqaZrmd2kYtjqSc9KnjJcFXO4ZPB5/hasHLRs39nfS59bS+OPhTpNpLLpmjWTIJkmjQpG5c20YV95IyEmYliB1xis2L4k+EZ7iGwsYbKzQKbaMyxKVEMoLspJUkAtxnGSMdq8N8KWFjP5omt45P3X8SA/xj1Fe/6LoWhtHeltOtyd8nWFP7n0rOnWb6Fyo2u7kEnxuie3S1ndvtcsUWXt0Clc5+0AqCN4cDAIHGcDisC0+KmqW6ptsL+4nhVyCpcAGVwIQAARtVAVBzwele66dpWmQeLLNIbOGNftCcLGoH/HofQVu3CIugwuqgMLPRACByP3j10ReuhzrQ+d5/GPjtwZ5/Dt1PAk8shMiMEeJECiOTkEhHAYgcBuetUYLP4y3MifZdGe15jgKkKkX+jIZCsisSCNuS57ng19AyEm4IJyDDd/8Aob1g3ksi+FpyrEHzZOh/6aSU7yb3G3c8stfC3xj1S1ZFntYEmt0TczptkS8JPBAwu3DFsfdHHenv8P8A4yXZ+3NfxElZ7s4LbV+zEwABgCS7gHagOcHOOa6S9uLj7bqg81sA6j/EfertldXX9maf++f/AJCEP8R/uPXQ6fMtWUkjjofhB47kmt7C68RLAHnFlIBuLCIp5wm2kgkZOCD0NA+FHid4HuZvF3lkxCRY3BDFmJUqRuIA2AFjngcVUSeabw9qBmkZz9jT7xJ/5eR61yV9cXA1l0ErBftUgxuOMeV0qFHQwcz0CH4RWLRSNrPjUzqkrwhIHCl4okzA75Y/ebhAenamj4Q+C47P7Tc+IbuedjEr7XVAZUb/AEsNvyf3YICnHPJrx/UpJA0uHI+W37+xrN1Ged3IeRm+VupJ/iFLlj2Mvaux9FQ/Cj4ZW8TW1zq9wZHkeITFyYpGlbdb7hgHcAcsOQetPXwH8HdIvx9pElx5UcTSq9wQSIlIuApyBmRwCoHIUkV8qpPNj/WN/rU7n1NZ87uwO5ieH6n/AGhUtRXQ2i22fYaWfwYtLWJWsrRJXYQsYyHeKYlpTICxwRghQDxjpzV678V/Bu0mdbZbdxMpAMEEaEJcLhgzEZATsPevh9ifMXnsP/QRV60RGCblByI85H+0aydayXLFG/LofbVx8a/A9pcw3VnptmJVImUiFCjlcwqrxoAAdowck5JB6gVnXXxv0W3SyFjLbrBFK9u8KZV0hicTROSBiQFhgc8d+1ef+EdH0h1ud9lA3+lQjmJTx6dK7TwZoeitJNu0+3PyRdYk/wCev0qnUdhKPmYt58foZZZnsZZ281hOVddgEsh/fthSPvqQo7EZBqG6+OWqXMK+TaXF2iRYCxRtGFKSAwBiuQVQA7QDgHOOpr6sGhaGtxZ7dOtxkarnEKc4VMdq1rezs7fxZZQwQRxp9rtPlVQB/wAeknYCiM5dy1TW58d/8Lh8VzgM3hq7nildpQGEhJEg2uoOw5RiASMnmqdt8T/iDDcwXEug3YgUoF4cErExMisWG0gg4Jb7oFfUd2B/wiFt/wBgy0/9LDWzfQw/2RJ+7X7+o9h/eStuefczcY32PkWCf4vXbz2Wk6BcQW7l44zcHYYxvE4CsSFBA64HIpRZ/GXWYZFks4nknLiOR5hu/fnOByc5IOPTOe1fUV7JJLrtpFK5dCXyrHI/1B7Gs6+/cXtj5P7v5Yvu8fwt6VTvsSkrnzTD4R+MerW9vFJdWobcBEs0oWVllbymGOyZGDnpgmrE3gP4xp5b319H5a4kMgc4QROYMEDBATOQM4I5A5r1y4mmbT5XaRi2JuSTmojLI5j3uW+e56nP/LulL2S7hOVtjy2P4HeLmtXkuvES2qIrbSC4RjG2wAMSoGQcqBwB1NPl+B+ooonu/Fiy2zMVDIQ85lQF41VS247xkA9Mg1uiebz5B5jY+zx9z/zwFZluzf8ACT6Lyf8AXxfzFJ0Uupz+2dxlp8FPB2niKfxH4llktZVWVjblVIEqtl1DdSpABBGCeM1Vn+GPwptTNBdajci5ikljbcT96IgyEHAypUggk8k4PFUfEnN1ODz/AMS1v/R4ry67kkLEliTuk7+9YciKlVkmey3Hwv8AhCCgXUru7uVkSNwjLEHVcO0hLA4JQgbB0I461DD8LvhLcXIS3ubslQTJG8iqAqKJDtJTJJQnr3FeNalNMPs+JGHzSdz6CtfxdLJ/wlNwd56Q9/8AYSqVKL6EKtK56jd+AfhZaqxjdZ1851jmlvcN5aMQvmIABgqQQcgc9KrXlr8K/D+Ehsorm4lICo8bSStGGIDq+SpLAD15zXk2tY/tPUB28yL+VfU/7OOj6Rc+NJftNjBL5csW3fErbfmXpkcVnVkktEb3dzxi08GePfE9jdan4Q8HanPp1tKIFaytWKxPNkohAUMXGcjqB1q9b/BH4+67qEkMfgTWZLmEbxFcW8kUkpChF8pGwGcEZwMnqa/on1dm0/xdbQ2BNsm6H5YvkHVuwxXjXju/vpdKmeW4kdo1jKlnJKnzxyMnivBlXkdVuh+BVj4ls/CenXOmXlsFvYpNvlIQJY5lyCXJBwMghh1BAqfT9f8AiP4vubdPDttJHmQeQ5ZgEcEHIckAYUcjkfjWF4Ytra9+IUgvIknBv5M+YobP7z3zX0x4rRLeFo7dREixHAUbQPu9AK7qbcrXFOKiro8Zj+HHiK7t44tc15Y4lid4ooC0oIJ3bBjAAIBYHoMc81v2vgj4f6dcA6jb3Gs3Ebu5BchJYYyFO4jBUhzk9iAa9G1glNYsCny/8TCUcccfZzXzNf3V19ox5z4Nq/8AEf75r1HTV1c53Js9xg1Xwt4SilstNtLSwmgeXdLgTOqAJjYzDkEEkjPXnFZ6jVvH6STxO1hoEKIsl7Om5nIADhMkAjBJBAwM8V4R4FVbrxXp0NyBMhmi+V/mH3h2NfYXxK/ctLDD8kYVMKvAH7n0FdUbJbGE9jmrHW/DHg22GnWUos4AFlNwA0j3DcbQ/O/JOR34NJpuhPr8MWq62ksWnzlmWxcEPKSxeMkckwqDkA5JI9BXG/DyKO58eH7Sglwo++N3b3r3LxUzRi58sldjfLjjHy9q612OJ6anN3HijTNAsoINRnFqxAVLeAZAKAECNBySxIDAjGRXsvwA8W6t4U+IVh4p1oGGy1iM2X2MkB4oS3ymQDnzCxzjqBXzj8J7eC78aTzXcazyIGwzgMR86dCa9U0//kolp/10h/8AQxXHjYRrYSpCexVLdH7MPYRx52Ash+6T1I65Puc1RezOdwB98V0MX/Hjbf8AXNP5Cqklfwtj1yVJJdz6dP3UZUNuTkhcDOM96vLbED5elSR9DVqOuNSfKbxkyv5cgGDnAqB1z15Fah6GoJfu1vCT1NOZmUtruyccZq0lhGf4c+tWY/un61oQV0czsPnZmnT1UfKgGarvYew/KumbrVeSiHUdznTaL3AP4Un9nxk7gCK2z0NSJ0FaXYXMmOykiwCOOoNWTFkdORWk3SmVLZEtjAuLZCTlQT9Kx59NDjhOfUCuom+9Vas2zE5MaWQw2gnnrWhDabcKAc1sp0qdOhqDFvUjtlKcYxV1l3DnkUzsKsL0reFWUdjaE5X3M54jn27CprdGiPTrUkn3jUg6Cu361UT3N+Zn/9k=;" vertex="1" parent="1">
          <mxGeometry x="50" y="60" width="220.61" height="140" as="geometry" />
        </mxCell>
      </root>
    </mxGraphModel>
  </diagram>
</mxfile>
